%TF.GenerationSoftware,KiCad,Pcbnew,7.0.9-7.0.9~ubuntu22.04.1*%
%TF.CreationDate,2023-12-27T20:48:07-05:00*%
%TF.ProjectId,GT-Wheel-RevLight,47542d57-6865-4656-9c2d-5265764c6967,rev?*%
%TF.SameCoordinates,Original*%
%TF.FileFunction,Legend,Bot*%
%TF.FilePolarity,Positive*%
%FSLAX46Y46*%
G04 Gerber Fmt 4.6, Leading zero omitted, Abs format (unit mm)*
G04 Created by KiCad (PCBNEW 7.0.9-7.0.9~ubuntu22.04.1) date 2023-12-27 20:48:07*
%MOMM*%
%LPD*%
G01*
G04 APERTURE LIST*
%ADD10C,0.100000*%
G04 APERTURE END LIST*
D10*
%TO.C,WP18*%
X139877494Y-99380738D02*
G75*
G03*
X139877494Y-99380738I-803219J0D01*
G01*
%TO.C,WP1*%
X272127494Y-63130738D02*
G75*
G03*
X272127494Y-63130738I-803219J0D01*
G01*
%TO.C,WP5*%
X162877494Y-99380738D02*
G75*
G03*
X162877494Y-99380738I-803219J0D01*
G01*
%TO.C,WP2*%
X270127494Y-63130738D02*
G75*
G03*
X270127494Y-63130738I-803219J0D01*
G01*
%TO.C,WP16*%
X143877494Y-99380738D02*
G75*
G03*
X143877494Y-99380738I-803219J0D01*
G01*
%TO.C,WP10*%
X158877494Y-99380738D02*
G75*
G03*
X158877494Y-99380738I-803219J0D01*
G01*
%TO.C,WP17*%
X141877494Y-99380738D02*
G75*
G03*
X141877494Y-99380738I-803219J0D01*
G01*
%TO.C,WP12*%
X154877494Y-99380738D02*
G75*
G03*
X154877494Y-99380738I-803219J0D01*
G01*
%TO.C,WP14*%
X150877494Y-99380738D02*
G75*
G03*
X150877494Y-99380738I-803219J0D01*
G01*
%TO.C,WP3*%
X274127494Y-63130738D02*
G75*
G03*
X274127494Y-63130738I-803219J0D01*
G01*
%TO.C,WP20*%
X135877494Y-99380738D02*
G75*
G03*
X135877494Y-99380738I-803219J0D01*
G01*
%TO.C,WP6*%
X24627494Y-63130738D02*
G75*
G03*
X24627494Y-63130738I-803219J0D01*
G01*
%TO.C,WP8*%
X26627494Y-63130738D02*
G75*
G03*
X26627494Y-63130738I-803219J0D01*
G01*
%TO.C,WP22*%
X131877494Y-99380738D02*
G75*
G03*
X131877494Y-99380738I-803219J0D01*
G01*
%TO.C,WP7*%
X22627494Y-63130738D02*
G75*
G03*
X22627494Y-63130738I-803219J0D01*
G01*
%TO.C,WP15*%
X145877494Y-99380738D02*
G75*
G03*
X145877494Y-99380738I-803219J0D01*
G01*
%TO.C,WP11*%
X156877494Y-99380738D02*
G75*
G03*
X156877494Y-99380738I-803219J0D01*
G01*
%TO.C,WP19*%
X137877494Y-99380738D02*
G75*
G03*
X137877494Y-99380738I-803219J0D01*
G01*
%TO.C,WP4*%
X164877494Y-99380738D02*
G75*
G03*
X164877494Y-99380738I-803219J0D01*
G01*
%TO.C,WP13*%
X152877494Y-99380738D02*
G75*
G03*
X152877494Y-99380738I-803219J0D01*
G01*
%TO.C,WP9*%
X160877494Y-99380738D02*
G75*
G03*
X160877494Y-99380738I-803219J0D01*
G01*
%TO.C,WP21*%
X133877494Y-99380738D02*
G75*
G03*
X133877494Y-99380738I-803219J0D01*
G01*
%TD*%
M02*
