%TF.GenerationSoftware,KiCad,Pcbnew,7.0.9-7.0.9~ubuntu22.04.1*%
%TF.CreationDate,2023-12-27T20:48:07-05:00*%
%TF.ProjectId,GT-Wheel-RevLight,47542d57-6865-4656-9c2d-5265764c6967,rev?*%
%TF.SameCoordinates,Original*%
%TF.FileFunction,Legend,Top*%
%TF.FilePolarity,Positive*%
%FSLAX46Y46*%
G04 Gerber Fmt 4.6, Leading zero omitted, Abs format (unit mm)*
G04 Created by KiCad (PCBNEW 7.0.9-7.0.9~ubuntu22.04.1) date 2023-12-27 20:48:07*
%MOMM*%
%LPD*%
G01*
G04 APERTURE LIST*
%ADD10C,0.100000*%
%ADD11C,0.150000*%
%ADD12C,0.120000*%
G04 APERTURE END LIST*
D10*
X231440942Y-71390538D02*
X231583799Y-71438157D01*
X231583799Y-71438157D02*
X231821894Y-71438157D01*
X231821894Y-71438157D02*
X231917132Y-71390538D01*
X231917132Y-71390538D02*
X231964751Y-71342918D01*
X231964751Y-71342918D02*
X232012370Y-71247680D01*
X232012370Y-71247680D02*
X232012370Y-71152442D01*
X232012370Y-71152442D02*
X231964751Y-71057204D01*
X231964751Y-71057204D02*
X231917132Y-71009585D01*
X231917132Y-71009585D02*
X231821894Y-70961966D01*
X231821894Y-70961966D02*
X231631418Y-70914347D01*
X231631418Y-70914347D02*
X231536180Y-70866728D01*
X231536180Y-70866728D02*
X231488561Y-70819109D01*
X231488561Y-70819109D02*
X231440942Y-70723871D01*
X231440942Y-70723871D02*
X231440942Y-70628633D01*
X231440942Y-70628633D02*
X231488561Y-70533395D01*
X231488561Y-70533395D02*
X231536180Y-70485776D01*
X231536180Y-70485776D02*
X231631418Y-70438157D01*
X231631418Y-70438157D02*
X231869513Y-70438157D01*
X231869513Y-70438157D02*
X232012370Y-70485776D01*
X232345704Y-70438157D02*
X232583799Y-71438157D01*
X232583799Y-71438157D02*
X232774275Y-70723871D01*
X232774275Y-70723871D02*
X232964751Y-71438157D01*
X232964751Y-71438157D02*
X233202847Y-70438157D01*
X234059989Y-70438157D02*
X233583799Y-70438157D01*
X233583799Y-70438157D02*
X233536180Y-70914347D01*
X233536180Y-70914347D02*
X233583799Y-70866728D01*
X233583799Y-70866728D02*
X233679037Y-70819109D01*
X233679037Y-70819109D02*
X233917132Y-70819109D01*
X233917132Y-70819109D02*
X234012370Y-70866728D01*
X234012370Y-70866728D02*
X234059989Y-70914347D01*
X234059989Y-70914347D02*
X234107608Y-71009585D01*
X234107608Y-71009585D02*
X234107608Y-71247680D01*
X234107608Y-71247680D02*
X234059989Y-71342918D01*
X234059989Y-71342918D02*
X234012370Y-71390538D01*
X234012370Y-71390538D02*
X233917132Y-71438157D01*
X233917132Y-71438157D02*
X233679037Y-71438157D01*
X233679037Y-71438157D02*
X233583799Y-71390538D01*
X233583799Y-71390538D02*
X233536180Y-71342918D01*
X248840942Y-66790538D02*
X248983799Y-66838157D01*
X248983799Y-66838157D02*
X249221894Y-66838157D01*
X249221894Y-66838157D02*
X249317132Y-66790538D01*
X249317132Y-66790538D02*
X249364751Y-66742918D01*
X249364751Y-66742918D02*
X249412370Y-66647680D01*
X249412370Y-66647680D02*
X249412370Y-66552442D01*
X249412370Y-66552442D02*
X249364751Y-66457204D01*
X249364751Y-66457204D02*
X249317132Y-66409585D01*
X249317132Y-66409585D02*
X249221894Y-66361966D01*
X249221894Y-66361966D02*
X249031418Y-66314347D01*
X249031418Y-66314347D02*
X248936180Y-66266728D01*
X248936180Y-66266728D02*
X248888561Y-66219109D01*
X248888561Y-66219109D02*
X248840942Y-66123871D01*
X248840942Y-66123871D02*
X248840942Y-66028633D01*
X248840942Y-66028633D02*
X248888561Y-65933395D01*
X248888561Y-65933395D02*
X248936180Y-65885776D01*
X248936180Y-65885776D02*
X249031418Y-65838157D01*
X249031418Y-65838157D02*
X249269513Y-65838157D01*
X249269513Y-65838157D02*
X249412370Y-65885776D01*
X249745704Y-65838157D02*
X249983799Y-66838157D01*
X249983799Y-66838157D02*
X250174275Y-66123871D01*
X250174275Y-66123871D02*
X250364751Y-66838157D01*
X250364751Y-66838157D02*
X250602847Y-65838157D01*
X251412370Y-65838157D02*
X251221894Y-65838157D01*
X251221894Y-65838157D02*
X251126656Y-65885776D01*
X251126656Y-65885776D02*
X251079037Y-65933395D01*
X251079037Y-65933395D02*
X250983799Y-66076252D01*
X250983799Y-66076252D02*
X250936180Y-66266728D01*
X250936180Y-66266728D02*
X250936180Y-66647680D01*
X250936180Y-66647680D02*
X250983799Y-66742918D01*
X250983799Y-66742918D02*
X251031418Y-66790538D01*
X251031418Y-66790538D02*
X251126656Y-66838157D01*
X251126656Y-66838157D02*
X251317132Y-66838157D01*
X251317132Y-66838157D02*
X251412370Y-66790538D01*
X251412370Y-66790538D02*
X251459989Y-66742918D01*
X251459989Y-66742918D02*
X251507608Y-66647680D01*
X251507608Y-66647680D02*
X251507608Y-66409585D01*
X251507608Y-66409585D02*
X251459989Y-66314347D01*
X251459989Y-66314347D02*
X251412370Y-66266728D01*
X251412370Y-66266728D02*
X251317132Y-66219109D01*
X251317132Y-66219109D02*
X251126656Y-66219109D01*
X251126656Y-66219109D02*
X251031418Y-66266728D01*
X251031418Y-66266728D02*
X250983799Y-66314347D01*
X250983799Y-66314347D02*
X250936180Y-66409585D01*
D11*
X119632716Y-81963931D02*
X119632716Y-80963931D01*
X119632716Y-80963931D02*
X119870811Y-80963931D01*
X119870811Y-80963931D02*
X120013668Y-81011550D01*
X120013668Y-81011550D02*
X120108906Y-81106788D01*
X120108906Y-81106788D02*
X120156525Y-81202026D01*
X120156525Y-81202026D02*
X120204144Y-81392502D01*
X120204144Y-81392502D02*
X120204144Y-81535359D01*
X120204144Y-81535359D02*
X120156525Y-81725835D01*
X120156525Y-81725835D02*
X120108906Y-81821073D01*
X120108906Y-81821073D02*
X120013668Y-81916312D01*
X120013668Y-81916312D02*
X119870811Y-81963931D01*
X119870811Y-81963931D02*
X119632716Y-81963931D01*
X121156525Y-81963931D02*
X120585097Y-81963931D01*
X120870811Y-81963931D02*
X120870811Y-80963931D01*
X120870811Y-80963931D02*
X120775573Y-81106788D01*
X120775573Y-81106788D02*
X120680335Y-81202026D01*
X120680335Y-81202026D02*
X120585097Y-81249645D01*
X122061287Y-80963931D02*
X121585097Y-80963931D01*
X121585097Y-80963931D02*
X121537478Y-81440121D01*
X121537478Y-81440121D02*
X121585097Y-81392502D01*
X121585097Y-81392502D02*
X121680335Y-81344883D01*
X121680335Y-81344883D02*
X121918430Y-81344883D01*
X121918430Y-81344883D02*
X122013668Y-81392502D01*
X122013668Y-81392502D02*
X122061287Y-81440121D01*
X122061287Y-81440121D02*
X122108906Y-81535359D01*
X122108906Y-81535359D02*
X122108906Y-81773454D01*
X122108906Y-81773454D02*
X122061287Y-81868692D01*
X122061287Y-81868692D02*
X122013668Y-81916312D01*
X122013668Y-81916312D02*
X121918430Y-81963931D01*
X121918430Y-81963931D02*
X121680335Y-81963931D01*
X121680335Y-81963931D02*
X121585097Y-81916312D01*
X121585097Y-81916312D02*
X121537478Y-81868692D01*
X125282716Y-80063931D02*
X124711288Y-80063931D01*
X124997002Y-80063931D02*
X124997002Y-79063931D01*
X124997002Y-79063931D02*
X124901764Y-79206788D01*
X124901764Y-79206788D02*
X124806526Y-79302026D01*
X124806526Y-79302026D02*
X124711288Y-79349645D01*
X107286180Y-93835557D02*
X107286180Y-92835557D01*
X107286180Y-92835557D02*
X107524275Y-92835557D01*
X107524275Y-92835557D02*
X107667132Y-92883176D01*
X107667132Y-92883176D02*
X107762370Y-92978414D01*
X107762370Y-92978414D02*
X107809989Y-93073652D01*
X107809989Y-93073652D02*
X107857608Y-93264128D01*
X107857608Y-93264128D02*
X107857608Y-93406985D01*
X107857608Y-93406985D02*
X107809989Y-93597461D01*
X107809989Y-93597461D02*
X107762370Y-93692699D01*
X107762370Y-93692699D02*
X107667132Y-93787938D01*
X107667132Y-93787938D02*
X107524275Y-93835557D01*
X107524275Y-93835557D02*
X107286180Y-93835557D01*
X108238561Y-92930795D02*
X108286180Y-92883176D01*
X108286180Y-92883176D02*
X108381418Y-92835557D01*
X108381418Y-92835557D02*
X108619513Y-92835557D01*
X108619513Y-92835557D02*
X108714751Y-92883176D01*
X108714751Y-92883176D02*
X108762370Y-92930795D01*
X108762370Y-92930795D02*
X108809989Y-93026033D01*
X108809989Y-93026033D02*
X108809989Y-93121271D01*
X108809989Y-93121271D02*
X108762370Y-93264128D01*
X108762370Y-93264128D02*
X108190942Y-93835557D01*
X108190942Y-93835557D02*
X108809989Y-93835557D01*
X222210462Y-77832134D02*
X221210462Y-77832134D01*
X221210462Y-77832134D02*
X221210462Y-77594039D01*
X221210462Y-77594039D02*
X221258081Y-77451182D01*
X221258081Y-77451182D02*
X221353319Y-77355944D01*
X221353319Y-77355944D02*
X221448557Y-77308325D01*
X221448557Y-77308325D02*
X221639033Y-77260706D01*
X221639033Y-77260706D02*
X221781890Y-77260706D01*
X221781890Y-77260706D02*
X221972366Y-77308325D01*
X221972366Y-77308325D02*
X222067604Y-77355944D01*
X222067604Y-77355944D02*
X222162843Y-77451182D01*
X222162843Y-77451182D02*
X222210462Y-77594039D01*
X222210462Y-77594039D02*
X222210462Y-77832134D01*
X221305700Y-76879753D02*
X221258081Y-76832134D01*
X221258081Y-76832134D02*
X221210462Y-76736896D01*
X221210462Y-76736896D02*
X221210462Y-76498801D01*
X221210462Y-76498801D02*
X221258081Y-76403563D01*
X221258081Y-76403563D02*
X221305700Y-76355944D01*
X221305700Y-76355944D02*
X221400938Y-76308325D01*
X221400938Y-76308325D02*
X221496176Y-76308325D01*
X221496176Y-76308325D02*
X221639033Y-76355944D01*
X221639033Y-76355944D02*
X222210462Y-76927372D01*
X222210462Y-76927372D02*
X222210462Y-76308325D01*
X222210462Y-75832134D02*
X222210462Y-75641658D01*
X222210462Y-75641658D02*
X222162843Y-75546420D01*
X222162843Y-75546420D02*
X222115223Y-75498801D01*
X222115223Y-75498801D02*
X221972366Y-75403563D01*
X221972366Y-75403563D02*
X221781890Y-75355944D01*
X221781890Y-75355944D02*
X221400938Y-75355944D01*
X221400938Y-75355944D02*
X221305700Y-75403563D01*
X221305700Y-75403563D02*
X221258081Y-75451182D01*
X221258081Y-75451182D02*
X221210462Y-75546420D01*
X221210462Y-75546420D02*
X221210462Y-75736896D01*
X221210462Y-75736896D02*
X221258081Y-75832134D01*
X221258081Y-75832134D02*
X221305700Y-75879753D01*
X221305700Y-75879753D02*
X221400938Y-75927372D01*
X221400938Y-75927372D02*
X221639033Y-75927372D01*
X221639033Y-75927372D02*
X221734271Y-75879753D01*
X221734271Y-75879753D02*
X221781890Y-75832134D01*
X221781890Y-75832134D02*
X221829509Y-75736896D01*
X221829509Y-75736896D02*
X221829509Y-75546420D01*
X221829509Y-75546420D02*
X221781890Y-75451182D01*
X221781890Y-75451182D02*
X221734271Y-75403563D01*
X221734271Y-75403563D02*
X221639033Y-75355944D01*
X224110462Y-80482134D02*
X224110462Y-81053562D01*
X224110462Y-80767848D02*
X223110462Y-80767848D01*
X223110462Y-80767848D02*
X223253319Y-80863086D01*
X223253319Y-80863086D02*
X223348557Y-80958324D01*
X223348557Y-80958324D02*
X223396176Y-81053562D01*
X90927608Y-99740318D02*
X90879989Y-99787938D01*
X90879989Y-99787938D02*
X90737132Y-99835557D01*
X90737132Y-99835557D02*
X90641894Y-99835557D01*
X90641894Y-99835557D02*
X90499037Y-99787938D01*
X90499037Y-99787938D02*
X90403799Y-99692699D01*
X90403799Y-99692699D02*
X90356180Y-99597461D01*
X90356180Y-99597461D02*
X90308561Y-99406985D01*
X90308561Y-99406985D02*
X90308561Y-99264128D01*
X90308561Y-99264128D02*
X90356180Y-99073652D01*
X90356180Y-99073652D02*
X90403799Y-98978414D01*
X90403799Y-98978414D02*
X90499037Y-98883176D01*
X90499037Y-98883176D02*
X90641894Y-98835557D01*
X90641894Y-98835557D02*
X90737132Y-98835557D01*
X90737132Y-98835557D02*
X90879989Y-98883176D01*
X90879989Y-98883176D02*
X90927608Y-98930795D01*
X91403799Y-99835557D02*
X91594275Y-99835557D01*
X91594275Y-99835557D02*
X91689513Y-99787938D01*
X91689513Y-99787938D02*
X91737132Y-99740318D01*
X91737132Y-99740318D02*
X91832370Y-99597461D01*
X91832370Y-99597461D02*
X91879989Y-99406985D01*
X91879989Y-99406985D02*
X91879989Y-99026033D01*
X91879989Y-99026033D02*
X91832370Y-98930795D01*
X91832370Y-98930795D02*
X91784751Y-98883176D01*
X91784751Y-98883176D02*
X91689513Y-98835557D01*
X91689513Y-98835557D02*
X91499037Y-98835557D01*
X91499037Y-98835557D02*
X91403799Y-98883176D01*
X91403799Y-98883176D02*
X91356180Y-98930795D01*
X91356180Y-98930795D02*
X91308561Y-99026033D01*
X91308561Y-99026033D02*
X91308561Y-99264128D01*
X91308561Y-99264128D02*
X91356180Y-99359366D01*
X91356180Y-99359366D02*
X91403799Y-99406985D01*
X91403799Y-99406985D02*
X91499037Y-99454604D01*
X91499037Y-99454604D02*
X91689513Y-99454604D01*
X91689513Y-99454604D02*
X91784751Y-99406985D01*
X91784751Y-99406985D02*
X91832370Y-99359366D01*
X91832370Y-99359366D02*
X91879989Y-99264128D01*
D10*
X138531694Y-98261689D02*
X139531694Y-98023594D01*
X139531694Y-98023594D02*
X138817408Y-97833118D01*
X138817408Y-97833118D02*
X139531694Y-97642642D01*
X139531694Y-97642642D02*
X138531694Y-97404547D01*
X139531694Y-97023594D02*
X138531694Y-97023594D01*
X138531694Y-97023594D02*
X138531694Y-96642642D01*
X138531694Y-96642642D02*
X138579313Y-96547404D01*
X138579313Y-96547404D02*
X138626932Y-96499785D01*
X138626932Y-96499785D02*
X138722170Y-96452166D01*
X138722170Y-96452166D02*
X138865027Y-96452166D01*
X138865027Y-96452166D02*
X138960265Y-96499785D01*
X138960265Y-96499785D02*
X139007884Y-96547404D01*
X139007884Y-96547404D02*
X139055503Y-96642642D01*
X139055503Y-96642642D02*
X139055503Y-97023594D01*
X139531694Y-95499785D02*
X139531694Y-96071213D01*
X139531694Y-95785499D02*
X138531694Y-95785499D01*
X138531694Y-95785499D02*
X138674551Y-95880737D01*
X138674551Y-95880737D02*
X138769789Y-95975975D01*
X138769789Y-95975975D02*
X138817408Y-96071213D01*
X138960265Y-94928356D02*
X138912646Y-95023594D01*
X138912646Y-95023594D02*
X138865027Y-95071213D01*
X138865027Y-95071213D02*
X138769789Y-95118832D01*
X138769789Y-95118832D02*
X138722170Y-95118832D01*
X138722170Y-95118832D02*
X138626932Y-95071213D01*
X138626932Y-95071213D02*
X138579313Y-95023594D01*
X138579313Y-95023594D02*
X138531694Y-94928356D01*
X138531694Y-94928356D02*
X138531694Y-94737880D01*
X138531694Y-94737880D02*
X138579313Y-94642642D01*
X138579313Y-94642642D02*
X138626932Y-94595023D01*
X138626932Y-94595023D02*
X138722170Y-94547404D01*
X138722170Y-94547404D02*
X138769789Y-94547404D01*
X138769789Y-94547404D02*
X138865027Y-94595023D01*
X138865027Y-94595023D02*
X138912646Y-94642642D01*
X138912646Y-94642642D02*
X138960265Y-94737880D01*
X138960265Y-94737880D02*
X138960265Y-94928356D01*
X138960265Y-94928356D02*
X139007884Y-95023594D01*
X139007884Y-95023594D02*
X139055503Y-95071213D01*
X139055503Y-95071213D02*
X139150741Y-95118832D01*
X139150741Y-95118832D02*
X139341217Y-95118832D01*
X139341217Y-95118832D02*
X139436455Y-95071213D01*
X139436455Y-95071213D02*
X139484075Y-95023594D01*
X139484075Y-95023594D02*
X139531694Y-94928356D01*
X139531694Y-94928356D02*
X139531694Y-94737880D01*
X139531694Y-94737880D02*
X139484075Y-94642642D01*
X139484075Y-94642642D02*
X139436455Y-94595023D01*
X139436455Y-94595023D02*
X139341217Y-94547404D01*
X139341217Y-94547404D02*
X139150741Y-94547404D01*
X139150741Y-94547404D02*
X139055503Y-94595023D01*
X139055503Y-94595023D02*
X139007884Y-94642642D01*
X139007884Y-94642642D02*
X138960265Y-94737880D01*
D11*
X165450898Y-81963931D02*
X165450898Y-80963931D01*
X165450898Y-80963931D02*
X165688993Y-80963931D01*
X165688993Y-80963931D02*
X165831850Y-81011550D01*
X165831850Y-81011550D02*
X165927088Y-81106788D01*
X165927088Y-81106788D02*
X165974707Y-81202026D01*
X165974707Y-81202026D02*
X166022326Y-81392502D01*
X166022326Y-81392502D02*
X166022326Y-81535359D01*
X166022326Y-81535359D02*
X165974707Y-81725835D01*
X165974707Y-81725835D02*
X165927088Y-81821073D01*
X165927088Y-81821073D02*
X165831850Y-81916312D01*
X165831850Y-81916312D02*
X165688993Y-81963931D01*
X165688993Y-81963931D02*
X165450898Y-81963931D01*
X166403279Y-81059169D02*
X166450898Y-81011550D01*
X166450898Y-81011550D02*
X166546136Y-80963931D01*
X166546136Y-80963931D02*
X166784231Y-80963931D01*
X166784231Y-80963931D02*
X166879469Y-81011550D01*
X166879469Y-81011550D02*
X166927088Y-81059169D01*
X166927088Y-81059169D02*
X166974707Y-81154407D01*
X166974707Y-81154407D02*
X166974707Y-81249645D01*
X166974707Y-81249645D02*
X166927088Y-81392502D01*
X166927088Y-81392502D02*
X166355660Y-81963931D01*
X166355660Y-81963931D02*
X166974707Y-81963931D01*
X167927088Y-81963931D02*
X167355660Y-81963931D01*
X167641374Y-81963931D02*
X167641374Y-80963931D01*
X167641374Y-80963931D02*
X167546136Y-81106788D01*
X167546136Y-81106788D02*
X167450898Y-81202026D01*
X167450898Y-81202026D02*
X167355660Y-81249645D01*
X171100898Y-80063931D02*
X170529470Y-80063931D01*
X170815184Y-80063931D02*
X170815184Y-79063931D01*
X170815184Y-79063931D02*
X170719946Y-79206788D01*
X170719946Y-79206788D02*
X170624708Y-79302026D01*
X170624708Y-79302026D02*
X170529470Y-79349645D01*
X266762491Y-66016204D02*
X266375444Y-66287137D01*
X266762491Y-66480661D02*
X265949691Y-66480661D01*
X265949691Y-66480661D02*
X265949691Y-66171023D01*
X265949691Y-66171023D02*
X265988396Y-66093613D01*
X265988396Y-66093613D02*
X266027101Y-66054908D01*
X266027101Y-66054908D02*
X266104510Y-66016204D01*
X266104510Y-66016204D02*
X266220625Y-66016204D01*
X266220625Y-66016204D02*
X266298034Y-66054908D01*
X266298034Y-66054908D02*
X266336739Y-66093613D01*
X266336739Y-66093613D02*
X266375444Y-66171023D01*
X266375444Y-66171023D02*
X266375444Y-66480661D01*
X266220625Y-65319518D02*
X266762491Y-65319518D01*
X265910987Y-65513042D02*
X266491558Y-65706565D01*
X266491558Y-65706565D02*
X266491558Y-65203404D01*
X211766060Y-91206224D02*
X211735822Y-91236463D01*
X211735822Y-91236463D02*
X211645108Y-91266701D01*
X211645108Y-91266701D02*
X211584632Y-91266701D01*
X211584632Y-91266701D02*
X211493917Y-91236463D01*
X211493917Y-91236463D02*
X211433441Y-91175986D01*
X211433441Y-91175986D02*
X211403203Y-91115510D01*
X211403203Y-91115510D02*
X211372965Y-90994558D01*
X211372965Y-90994558D02*
X211372965Y-90903843D01*
X211372965Y-90903843D02*
X211403203Y-90782891D01*
X211403203Y-90782891D02*
X211433441Y-90722415D01*
X211433441Y-90722415D02*
X211493917Y-90661939D01*
X211493917Y-90661939D02*
X211584632Y-90631701D01*
X211584632Y-90631701D02*
X211645108Y-90631701D01*
X211645108Y-90631701D02*
X211735822Y-90661939D01*
X211735822Y-90661939D02*
X211766060Y-90692177D01*
X212007965Y-90692177D02*
X212038203Y-90661939D01*
X212038203Y-90661939D02*
X212098679Y-90631701D01*
X212098679Y-90631701D02*
X212249870Y-90631701D01*
X212249870Y-90631701D02*
X212310346Y-90661939D01*
X212310346Y-90661939D02*
X212340584Y-90692177D01*
X212340584Y-90692177D02*
X212370822Y-90752653D01*
X212370822Y-90752653D02*
X212370822Y-90813129D01*
X212370822Y-90813129D02*
X212340584Y-90903843D01*
X212340584Y-90903843D02*
X211977727Y-91266701D01*
X211977727Y-91266701D02*
X212370822Y-91266701D01*
X212915108Y-90631701D02*
X212794155Y-90631701D01*
X212794155Y-90631701D02*
X212733679Y-90661939D01*
X212733679Y-90661939D02*
X212703441Y-90692177D01*
X212703441Y-90692177D02*
X212642965Y-90782891D01*
X212642965Y-90782891D02*
X212612727Y-90903843D01*
X212612727Y-90903843D02*
X212612727Y-91145748D01*
X212612727Y-91145748D02*
X212642965Y-91206224D01*
X212642965Y-91206224D02*
X212673203Y-91236463D01*
X212673203Y-91236463D02*
X212733679Y-91266701D01*
X212733679Y-91266701D02*
X212854632Y-91266701D01*
X212854632Y-91266701D02*
X212915108Y-91236463D01*
X212915108Y-91236463D02*
X212945346Y-91206224D01*
X212945346Y-91206224D02*
X212975584Y-91145748D01*
X212975584Y-91145748D02*
X212975584Y-90994558D01*
X212975584Y-90994558D02*
X212945346Y-90934082D01*
X212945346Y-90934082D02*
X212915108Y-90903843D01*
X212915108Y-90903843D02*
X212854632Y-90873605D01*
X212854632Y-90873605D02*
X212733679Y-90873605D01*
X212733679Y-90873605D02*
X212673203Y-90903843D01*
X212673203Y-90903843D02*
X212642965Y-90934082D01*
X212642965Y-90934082D02*
X212612727Y-90994558D01*
D10*
X218040942Y-81590538D02*
X218183799Y-81638157D01*
X218183799Y-81638157D02*
X218421894Y-81638157D01*
X218421894Y-81638157D02*
X218517132Y-81590538D01*
X218517132Y-81590538D02*
X218564751Y-81542918D01*
X218564751Y-81542918D02*
X218612370Y-81447680D01*
X218612370Y-81447680D02*
X218612370Y-81352442D01*
X218612370Y-81352442D02*
X218564751Y-81257204D01*
X218564751Y-81257204D02*
X218517132Y-81209585D01*
X218517132Y-81209585D02*
X218421894Y-81161966D01*
X218421894Y-81161966D02*
X218231418Y-81114347D01*
X218231418Y-81114347D02*
X218136180Y-81066728D01*
X218136180Y-81066728D02*
X218088561Y-81019109D01*
X218088561Y-81019109D02*
X218040942Y-80923871D01*
X218040942Y-80923871D02*
X218040942Y-80828633D01*
X218040942Y-80828633D02*
X218088561Y-80733395D01*
X218088561Y-80733395D02*
X218136180Y-80685776D01*
X218136180Y-80685776D02*
X218231418Y-80638157D01*
X218231418Y-80638157D02*
X218469513Y-80638157D01*
X218469513Y-80638157D02*
X218612370Y-80685776D01*
X218945704Y-80638157D02*
X219183799Y-81638157D01*
X219183799Y-81638157D02*
X219374275Y-80923871D01*
X219374275Y-80923871D02*
X219564751Y-81638157D01*
X219564751Y-81638157D02*
X219802847Y-80638157D01*
X220612370Y-80971490D02*
X220612370Y-81638157D01*
X220374275Y-80590538D02*
X220136180Y-81304823D01*
X220136180Y-81304823D02*
X220755227Y-81304823D01*
D11*
X51836180Y-68035557D02*
X51836180Y-67035557D01*
X51836180Y-67035557D02*
X52074275Y-67035557D01*
X52074275Y-67035557D02*
X52217132Y-67083176D01*
X52217132Y-67083176D02*
X52312370Y-67178414D01*
X52312370Y-67178414D02*
X52359989Y-67273652D01*
X52359989Y-67273652D02*
X52407608Y-67464128D01*
X52407608Y-67464128D02*
X52407608Y-67606985D01*
X52407608Y-67606985D02*
X52359989Y-67797461D01*
X52359989Y-67797461D02*
X52312370Y-67892699D01*
X52312370Y-67892699D02*
X52217132Y-67987938D01*
X52217132Y-67987938D02*
X52074275Y-68035557D01*
X52074275Y-68035557D02*
X51836180Y-68035557D01*
X52740942Y-67035557D02*
X53407608Y-67035557D01*
X53407608Y-67035557D02*
X52979037Y-68035557D01*
X51361061Y-75823391D02*
X51361061Y-76394819D01*
X51361061Y-76109105D02*
X50361061Y-76109105D01*
X50361061Y-76109105D02*
X50503918Y-76204343D01*
X50503918Y-76204343D02*
X50599156Y-76299581D01*
X50599156Y-76299581D02*
X50646775Y-76394819D01*
D10*
X270621894Y-61606847D02*
X270740942Y-62106847D01*
X270740942Y-62106847D02*
X270836180Y-61749704D01*
X270836180Y-61749704D02*
X270931418Y-62106847D01*
X270931418Y-62106847D02*
X271050466Y-61606847D01*
X271240942Y-62106847D02*
X271240942Y-61606847D01*
X271240942Y-61606847D02*
X271431418Y-61606847D01*
X271431418Y-61606847D02*
X271479037Y-61630657D01*
X271479037Y-61630657D02*
X271502847Y-61654466D01*
X271502847Y-61654466D02*
X271526656Y-61702085D01*
X271526656Y-61702085D02*
X271526656Y-61773514D01*
X271526656Y-61773514D02*
X271502847Y-61821133D01*
X271502847Y-61821133D02*
X271479037Y-61844942D01*
X271479037Y-61844942D02*
X271431418Y-61868752D01*
X271431418Y-61868752D02*
X271240942Y-61868752D01*
X272002847Y-62106847D02*
X271717133Y-62106847D01*
X271859990Y-62106847D02*
X271859990Y-61606847D01*
X271859990Y-61606847D02*
X271812371Y-61678276D01*
X271812371Y-61678276D02*
X271764752Y-61725895D01*
X271764752Y-61725895D02*
X271717133Y-61749704D01*
D11*
X52407608Y-77540318D02*
X52359989Y-77587938D01*
X52359989Y-77587938D02*
X52217132Y-77635557D01*
X52217132Y-77635557D02*
X52121894Y-77635557D01*
X52121894Y-77635557D02*
X51979037Y-77587938D01*
X51979037Y-77587938D02*
X51883799Y-77492699D01*
X51883799Y-77492699D02*
X51836180Y-77397461D01*
X51836180Y-77397461D02*
X51788561Y-77206985D01*
X51788561Y-77206985D02*
X51788561Y-77064128D01*
X51788561Y-77064128D02*
X51836180Y-76873652D01*
X51836180Y-76873652D02*
X51883799Y-76778414D01*
X51883799Y-76778414D02*
X51979037Y-76683176D01*
X51979037Y-76683176D02*
X52121894Y-76635557D01*
X52121894Y-76635557D02*
X52217132Y-76635557D01*
X52217132Y-76635557D02*
X52359989Y-76683176D01*
X52359989Y-76683176D02*
X52407608Y-76730795D01*
X53359989Y-77635557D02*
X52788561Y-77635557D01*
X53074275Y-77635557D02*
X53074275Y-76635557D01*
X53074275Y-76635557D02*
X52979037Y-76778414D01*
X52979037Y-76778414D02*
X52883799Y-76873652D01*
X52883799Y-76873652D02*
X52788561Y-76921271D01*
D10*
X161531694Y-98285499D02*
X162531694Y-98047404D01*
X162531694Y-98047404D02*
X161817408Y-97856928D01*
X161817408Y-97856928D02*
X162531694Y-97666452D01*
X162531694Y-97666452D02*
X161531694Y-97428357D01*
X162531694Y-97047404D02*
X161531694Y-97047404D01*
X161531694Y-97047404D02*
X161531694Y-96666452D01*
X161531694Y-96666452D02*
X161579313Y-96571214D01*
X161579313Y-96571214D02*
X161626932Y-96523595D01*
X161626932Y-96523595D02*
X161722170Y-96475976D01*
X161722170Y-96475976D02*
X161865027Y-96475976D01*
X161865027Y-96475976D02*
X161960265Y-96523595D01*
X161960265Y-96523595D02*
X162007884Y-96571214D01*
X162007884Y-96571214D02*
X162055503Y-96666452D01*
X162055503Y-96666452D02*
X162055503Y-97047404D01*
X161531694Y-95571214D02*
X161531694Y-96047404D01*
X161531694Y-96047404D02*
X162007884Y-96095023D01*
X162007884Y-96095023D02*
X161960265Y-96047404D01*
X161960265Y-96047404D02*
X161912646Y-95952166D01*
X161912646Y-95952166D02*
X161912646Y-95714071D01*
X161912646Y-95714071D02*
X161960265Y-95618833D01*
X161960265Y-95618833D02*
X162007884Y-95571214D01*
X162007884Y-95571214D02*
X162103122Y-95523595D01*
X162103122Y-95523595D02*
X162341217Y-95523595D01*
X162341217Y-95523595D02*
X162436455Y-95571214D01*
X162436455Y-95571214D02*
X162484075Y-95618833D01*
X162484075Y-95618833D02*
X162531694Y-95714071D01*
X162531694Y-95714071D02*
X162531694Y-95952166D01*
X162531694Y-95952166D02*
X162484075Y-96047404D01*
X162484075Y-96047404D02*
X162436455Y-96095023D01*
X268621894Y-61606847D02*
X268740942Y-62106847D01*
X268740942Y-62106847D02*
X268836180Y-61749704D01*
X268836180Y-61749704D02*
X268931418Y-62106847D01*
X268931418Y-62106847D02*
X269050466Y-61606847D01*
X269240942Y-62106847D02*
X269240942Y-61606847D01*
X269240942Y-61606847D02*
X269431418Y-61606847D01*
X269431418Y-61606847D02*
X269479037Y-61630657D01*
X269479037Y-61630657D02*
X269502847Y-61654466D01*
X269502847Y-61654466D02*
X269526656Y-61702085D01*
X269526656Y-61702085D02*
X269526656Y-61773514D01*
X269526656Y-61773514D02*
X269502847Y-61821133D01*
X269502847Y-61821133D02*
X269479037Y-61844942D01*
X269479037Y-61844942D02*
X269431418Y-61868752D01*
X269431418Y-61868752D02*
X269240942Y-61868752D01*
X269717133Y-61654466D02*
X269740942Y-61630657D01*
X269740942Y-61630657D02*
X269788561Y-61606847D01*
X269788561Y-61606847D02*
X269907609Y-61606847D01*
X269907609Y-61606847D02*
X269955228Y-61630657D01*
X269955228Y-61630657D02*
X269979037Y-61654466D01*
X269979037Y-61654466D02*
X270002847Y-61702085D01*
X270002847Y-61702085D02*
X270002847Y-61749704D01*
X270002847Y-61749704D02*
X269979037Y-61821133D01*
X269979037Y-61821133D02*
X269693323Y-62106847D01*
X269693323Y-62106847D02*
X270002847Y-62106847D01*
X142531694Y-98261689D02*
X143531694Y-98023594D01*
X143531694Y-98023594D02*
X142817408Y-97833118D01*
X142817408Y-97833118D02*
X143531694Y-97642642D01*
X143531694Y-97642642D02*
X142531694Y-97404547D01*
X143531694Y-97023594D02*
X142531694Y-97023594D01*
X142531694Y-97023594D02*
X142531694Y-96642642D01*
X142531694Y-96642642D02*
X142579313Y-96547404D01*
X142579313Y-96547404D02*
X142626932Y-96499785D01*
X142626932Y-96499785D02*
X142722170Y-96452166D01*
X142722170Y-96452166D02*
X142865027Y-96452166D01*
X142865027Y-96452166D02*
X142960265Y-96499785D01*
X142960265Y-96499785D02*
X143007884Y-96547404D01*
X143007884Y-96547404D02*
X143055503Y-96642642D01*
X143055503Y-96642642D02*
X143055503Y-97023594D01*
X143531694Y-95499785D02*
X143531694Y-96071213D01*
X143531694Y-95785499D02*
X142531694Y-95785499D01*
X142531694Y-95785499D02*
X142674551Y-95880737D01*
X142674551Y-95880737D02*
X142769789Y-95975975D01*
X142769789Y-95975975D02*
X142817408Y-96071213D01*
X142531694Y-94642642D02*
X142531694Y-94833118D01*
X142531694Y-94833118D02*
X142579313Y-94928356D01*
X142579313Y-94928356D02*
X142626932Y-94975975D01*
X142626932Y-94975975D02*
X142769789Y-95071213D01*
X142769789Y-95071213D02*
X142960265Y-95118832D01*
X142960265Y-95118832D02*
X143341217Y-95118832D01*
X143341217Y-95118832D02*
X143436455Y-95071213D01*
X143436455Y-95071213D02*
X143484075Y-95023594D01*
X143484075Y-95023594D02*
X143531694Y-94928356D01*
X143531694Y-94928356D02*
X143531694Y-94737880D01*
X143531694Y-94737880D02*
X143484075Y-94642642D01*
X143484075Y-94642642D02*
X143436455Y-94595023D01*
X143436455Y-94595023D02*
X143341217Y-94547404D01*
X143341217Y-94547404D02*
X143103122Y-94547404D01*
X143103122Y-94547404D02*
X143007884Y-94595023D01*
X143007884Y-94595023D02*
X142960265Y-94642642D01*
X142960265Y-94642642D02*
X142912646Y-94737880D01*
X142912646Y-94737880D02*
X142912646Y-94928356D01*
X142912646Y-94928356D02*
X142960265Y-95023594D01*
X142960265Y-95023594D02*
X143007884Y-95071213D01*
X143007884Y-95071213D02*
X143103122Y-95118832D01*
D11*
X139198441Y-82606224D02*
X139168203Y-82636463D01*
X139168203Y-82636463D02*
X139077489Y-82666701D01*
X139077489Y-82666701D02*
X139017013Y-82666701D01*
X139017013Y-82666701D02*
X138926298Y-82636463D01*
X138926298Y-82636463D02*
X138865822Y-82575986D01*
X138865822Y-82575986D02*
X138835584Y-82515510D01*
X138835584Y-82515510D02*
X138805346Y-82394558D01*
X138805346Y-82394558D02*
X138805346Y-82303843D01*
X138805346Y-82303843D02*
X138835584Y-82182891D01*
X138835584Y-82182891D02*
X138865822Y-82122415D01*
X138865822Y-82122415D02*
X138926298Y-82061939D01*
X138926298Y-82061939D02*
X139017013Y-82031701D01*
X139017013Y-82031701D02*
X139077489Y-82031701D01*
X139077489Y-82031701D02*
X139168203Y-82061939D01*
X139168203Y-82061939D02*
X139198441Y-82092177D01*
X139440346Y-82092177D02*
X139470584Y-82061939D01*
X139470584Y-82061939D02*
X139531060Y-82031701D01*
X139531060Y-82031701D02*
X139682251Y-82031701D01*
X139682251Y-82031701D02*
X139742727Y-82061939D01*
X139742727Y-82061939D02*
X139772965Y-82092177D01*
X139772965Y-82092177D02*
X139803203Y-82152653D01*
X139803203Y-82152653D02*
X139803203Y-82213129D01*
X139803203Y-82213129D02*
X139772965Y-82303843D01*
X139772965Y-82303843D02*
X139410108Y-82666701D01*
X139410108Y-82666701D02*
X139803203Y-82666701D01*
D10*
X157531694Y-98261689D02*
X158531694Y-98023594D01*
X158531694Y-98023594D02*
X157817408Y-97833118D01*
X157817408Y-97833118D02*
X158531694Y-97642642D01*
X158531694Y-97642642D02*
X157531694Y-97404547D01*
X158531694Y-97023594D02*
X157531694Y-97023594D01*
X157531694Y-97023594D02*
X157531694Y-96642642D01*
X157531694Y-96642642D02*
X157579313Y-96547404D01*
X157579313Y-96547404D02*
X157626932Y-96499785D01*
X157626932Y-96499785D02*
X157722170Y-96452166D01*
X157722170Y-96452166D02*
X157865027Y-96452166D01*
X157865027Y-96452166D02*
X157960265Y-96499785D01*
X157960265Y-96499785D02*
X158007884Y-96547404D01*
X158007884Y-96547404D02*
X158055503Y-96642642D01*
X158055503Y-96642642D02*
X158055503Y-97023594D01*
X158531694Y-95499785D02*
X158531694Y-96071213D01*
X158531694Y-95785499D02*
X157531694Y-95785499D01*
X157531694Y-95785499D02*
X157674551Y-95880737D01*
X157674551Y-95880737D02*
X157769789Y-95975975D01*
X157769789Y-95975975D02*
X157817408Y-96071213D01*
X157531694Y-94880737D02*
X157531694Y-94785499D01*
X157531694Y-94785499D02*
X157579313Y-94690261D01*
X157579313Y-94690261D02*
X157626932Y-94642642D01*
X157626932Y-94642642D02*
X157722170Y-94595023D01*
X157722170Y-94595023D02*
X157912646Y-94547404D01*
X157912646Y-94547404D02*
X158150741Y-94547404D01*
X158150741Y-94547404D02*
X158341217Y-94595023D01*
X158341217Y-94595023D02*
X158436455Y-94642642D01*
X158436455Y-94642642D02*
X158484075Y-94690261D01*
X158484075Y-94690261D02*
X158531694Y-94785499D01*
X158531694Y-94785499D02*
X158531694Y-94880737D01*
X158531694Y-94880737D02*
X158484075Y-94975975D01*
X158484075Y-94975975D02*
X158436455Y-95023594D01*
X158436455Y-95023594D02*
X158341217Y-95071213D01*
X158341217Y-95071213D02*
X158150741Y-95118832D01*
X158150741Y-95118832D02*
X157912646Y-95118832D01*
X157912646Y-95118832D02*
X157722170Y-95071213D01*
X157722170Y-95071213D02*
X157626932Y-95023594D01*
X157626932Y-95023594D02*
X157579313Y-94975975D01*
X157579313Y-94975975D02*
X157531694Y-94880737D01*
D11*
X123646060Y-82606224D02*
X123615822Y-82636463D01*
X123615822Y-82636463D02*
X123525108Y-82666701D01*
X123525108Y-82666701D02*
X123464632Y-82666701D01*
X123464632Y-82666701D02*
X123373917Y-82636463D01*
X123373917Y-82636463D02*
X123313441Y-82575986D01*
X123313441Y-82575986D02*
X123283203Y-82515510D01*
X123283203Y-82515510D02*
X123252965Y-82394558D01*
X123252965Y-82394558D02*
X123252965Y-82303843D01*
X123252965Y-82303843D02*
X123283203Y-82182891D01*
X123283203Y-82182891D02*
X123313441Y-82122415D01*
X123313441Y-82122415D02*
X123373917Y-82061939D01*
X123373917Y-82061939D02*
X123464632Y-82031701D01*
X123464632Y-82031701D02*
X123525108Y-82031701D01*
X123525108Y-82031701D02*
X123615822Y-82061939D01*
X123615822Y-82061939D02*
X123646060Y-82092177D01*
X124250822Y-82666701D02*
X123887965Y-82666701D01*
X124069393Y-82666701D02*
X124069393Y-82031701D01*
X124069393Y-82031701D02*
X124008917Y-82122415D01*
X124008917Y-82122415D02*
X123948441Y-82182891D01*
X123948441Y-82182891D02*
X123887965Y-82213129D01*
X124462489Y-82031701D02*
X124885822Y-82031701D01*
X124885822Y-82031701D02*
X124613679Y-82666701D01*
X269251760Y-69271545D02*
X269213056Y-69310250D01*
X269213056Y-69310250D02*
X269096941Y-69348954D01*
X269096941Y-69348954D02*
X269019532Y-69348954D01*
X269019532Y-69348954D02*
X268903418Y-69310250D01*
X268903418Y-69310250D02*
X268826008Y-69232840D01*
X268826008Y-69232840D02*
X268787303Y-69155430D01*
X268787303Y-69155430D02*
X268748599Y-69000611D01*
X268748599Y-69000611D02*
X268748599Y-68884497D01*
X268748599Y-68884497D02*
X268787303Y-68729678D01*
X268787303Y-68729678D02*
X268826008Y-68652269D01*
X268826008Y-68652269D02*
X268903418Y-68574859D01*
X268903418Y-68574859D02*
X269019532Y-68536154D01*
X269019532Y-68536154D02*
X269096941Y-68536154D01*
X269096941Y-68536154D02*
X269213056Y-68574859D01*
X269213056Y-68574859D02*
X269251760Y-68613564D01*
X269561399Y-68613564D02*
X269600103Y-68574859D01*
X269600103Y-68574859D02*
X269677513Y-68536154D01*
X269677513Y-68536154D02*
X269871037Y-68536154D01*
X269871037Y-68536154D02*
X269948446Y-68574859D01*
X269948446Y-68574859D02*
X269987151Y-68613564D01*
X269987151Y-68613564D02*
X270025856Y-68690973D01*
X270025856Y-68690973D02*
X270025856Y-68768383D01*
X270025856Y-68768383D02*
X269987151Y-68884497D01*
X269987151Y-68884497D02*
X269522694Y-69348954D01*
X269522694Y-69348954D02*
X270025856Y-69348954D01*
X270529017Y-68536154D02*
X270606427Y-68536154D01*
X270606427Y-68536154D02*
X270683836Y-68574859D01*
X270683836Y-68574859D02*
X270722541Y-68613564D01*
X270722541Y-68613564D02*
X270761246Y-68690973D01*
X270761246Y-68690973D02*
X270799951Y-68845792D01*
X270799951Y-68845792D02*
X270799951Y-69039316D01*
X270799951Y-69039316D02*
X270761246Y-69194135D01*
X270761246Y-69194135D02*
X270722541Y-69271545D01*
X270722541Y-69271545D02*
X270683836Y-69310250D01*
X270683836Y-69310250D02*
X270606427Y-69348954D01*
X270606427Y-69348954D02*
X270529017Y-69348954D01*
X270529017Y-69348954D02*
X270451608Y-69310250D01*
X270451608Y-69310250D02*
X270412903Y-69271545D01*
X270412903Y-69271545D02*
X270374198Y-69194135D01*
X270374198Y-69194135D02*
X270335494Y-69039316D01*
X270335494Y-69039316D02*
X270335494Y-68845792D01*
X270335494Y-68845792D02*
X270374198Y-68690973D01*
X270374198Y-68690973D02*
X270412903Y-68613564D01*
X270412903Y-68613564D02*
X270451608Y-68574859D01*
X270451608Y-68574859D02*
X270529017Y-68536154D01*
X24821760Y-69271545D02*
X24783056Y-69310250D01*
X24783056Y-69310250D02*
X24666941Y-69348954D01*
X24666941Y-69348954D02*
X24589532Y-69348954D01*
X24589532Y-69348954D02*
X24473418Y-69310250D01*
X24473418Y-69310250D02*
X24396008Y-69232840D01*
X24396008Y-69232840D02*
X24357303Y-69155430D01*
X24357303Y-69155430D02*
X24318599Y-69000611D01*
X24318599Y-69000611D02*
X24318599Y-68884497D01*
X24318599Y-68884497D02*
X24357303Y-68729678D01*
X24357303Y-68729678D02*
X24396008Y-68652269D01*
X24396008Y-68652269D02*
X24473418Y-68574859D01*
X24473418Y-68574859D02*
X24589532Y-68536154D01*
X24589532Y-68536154D02*
X24666941Y-68536154D01*
X24666941Y-68536154D02*
X24783056Y-68574859D01*
X24783056Y-68574859D02*
X24821760Y-68613564D01*
X25131399Y-68613564D02*
X25170103Y-68574859D01*
X25170103Y-68574859D02*
X25247513Y-68536154D01*
X25247513Y-68536154D02*
X25441037Y-68536154D01*
X25441037Y-68536154D02*
X25518446Y-68574859D01*
X25518446Y-68574859D02*
X25557151Y-68613564D01*
X25557151Y-68613564D02*
X25595856Y-68690973D01*
X25595856Y-68690973D02*
X25595856Y-68768383D01*
X25595856Y-68768383D02*
X25557151Y-68884497D01*
X25557151Y-68884497D02*
X25092694Y-69348954D01*
X25092694Y-69348954D02*
X25595856Y-69348954D01*
X26369951Y-69348954D02*
X25905494Y-69348954D01*
X26137722Y-69348954D02*
X26137722Y-68536154D01*
X26137722Y-68536154D02*
X26060313Y-68652269D01*
X26060313Y-68652269D02*
X25982903Y-68729678D01*
X25982903Y-68729678D02*
X25905494Y-68768383D01*
X29142491Y-66016204D02*
X28755444Y-66287137D01*
X29142491Y-66480661D02*
X28329691Y-66480661D01*
X28329691Y-66480661D02*
X28329691Y-66171023D01*
X28329691Y-66171023D02*
X28368396Y-66093613D01*
X28368396Y-66093613D02*
X28407101Y-66054908D01*
X28407101Y-66054908D02*
X28484510Y-66016204D01*
X28484510Y-66016204D02*
X28600625Y-66016204D01*
X28600625Y-66016204D02*
X28678034Y-66054908D01*
X28678034Y-66054908D02*
X28716739Y-66093613D01*
X28716739Y-66093613D02*
X28755444Y-66171023D01*
X28755444Y-66171023D02*
X28755444Y-66480661D01*
X28329691Y-65745270D02*
X28329691Y-65203404D01*
X28329691Y-65203404D02*
X29142491Y-65551746D01*
X97159989Y-86635557D02*
X97159989Y-85635557D01*
X97159989Y-85635557D02*
X97398084Y-85635557D01*
X97398084Y-85635557D02*
X97540941Y-85683176D01*
X97540941Y-85683176D02*
X97636179Y-85778414D01*
X97636179Y-85778414D02*
X97683798Y-85873652D01*
X97683798Y-85873652D02*
X97731417Y-86064128D01*
X97731417Y-86064128D02*
X97731417Y-86206985D01*
X97731417Y-86206985D02*
X97683798Y-86397461D01*
X97683798Y-86397461D02*
X97636179Y-86492699D01*
X97636179Y-86492699D02*
X97540941Y-86587938D01*
X97540941Y-86587938D02*
X97398084Y-86635557D01*
X97398084Y-86635557D02*
X97159989Y-86635557D01*
X98683798Y-86635557D02*
X98112370Y-86635557D01*
X98398084Y-86635557D02*
X98398084Y-85635557D01*
X98398084Y-85635557D02*
X98302846Y-85778414D01*
X98302846Y-85778414D02*
X98207608Y-85873652D01*
X98207608Y-85873652D02*
X98112370Y-85921271D01*
X99064751Y-85730795D02*
X99112370Y-85683176D01*
X99112370Y-85683176D02*
X99207608Y-85635557D01*
X99207608Y-85635557D02*
X99445703Y-85635557D01*
X99445703Y-85635557D02*
X99540941Y-85683176D01*
X99540941Y-85683176D02*
X99588560Y-85730795D01*
X99588560Y-85730795D02*
X99636179Y-85826033D01*
X99636179Y-85826033D02*
X99636179Y-85921271D01*
X99636179Y-85921271D02*
X99588560Y-86064128D01*
X99588560Y-86064128D02*
X99017132Y-86635557D01*
X99017132Y-86635557D02*
X99636179Y-86635557D01*
X97175570Y-94410556D02*
X97175570Y-94981984D01*
X97175570Y-94696270D02*
X96175570Y-94696270D01*
X96175570Y-94696270D02*
X96318427Y-94791508D01*
X96318427Y-94791508D02*
X96413665Y-94886746D01*
X96413665Y-94886746D02*
X96461284Y-94981984D01*
D10*
X140531694Y-98261689D02*
X141531694Y-98023594D01*
X141531694Y-98023594D02*
X140817408Y-97833118D01*
X140817408Y-97833118D02*
X141531694Y-97642642D01*
X141531694Y-97642642D02*
X140531694Y-97404547D01*
X141531694Y-97023594D02*
X140531694Y-97023594D01*
X140531694Y-97023594D02*
X140531694Y-96642642D01*
X140531694Y-96642642D02*
X140579313Y-96547404D01*
X140579313Y-96547404D02*
X140626932Y-96499785D01*
X140626932Y-96499785D02*
X140722170Y-96452166D01*
X140722170Y-96452166D02*
X140865027Y-96452166D01*
X140865027Y-96452166D02*
X140960265Y-96499785D01*
X140960265Y-96499785D02*
X141007884Y-96547404D01*
X141007884Y-96547404D02*
X141055503Y-96642642D01*
X141055503Y-96642642D02*
X141055503Y-97023594D01*
X141531694Y-95499785D02*
X141531694Y-96071213D01*
X141531694Y-95785499D02*
X140531694Y-95785499D01*
X140531694Y-95785499D02*
X140674551Y-95880737D01*
X140674551Y-95880737D02*
X140769789Y-95975975D01*
X140769789Y-95975975D02*
X140817408Y-96071213D01*
X140531694Y-95166451D02*
X140531694Y-94499785D01*
X140531694Y-94499785D02*
X141531694Y-94928356D01*
D11*
X69807608Y-82140318D02*
X69759989Y-82187938D01*
X69759989Y-82187938D02*
X69617132Y-82235557D01*
X69617132Y-82235557D02*
X69521894Y-82235557D01*
X69521894Y-82235557D02*
X69379037Y-82187938D01*
X69379037Y-82187938D02*
X69283799Y-82092699D01*
X69283799Y-82092699D02*
X69236180Y-81997461D01*
X69236180Y-81997461D02*
X69188561Y-81806985D01*
X69188561Y-81806985D02*
X69188561Y-81664128D01*
X69188561Y-81664128D02*
X69236180Y-81473652D01*
X69236180Y-81473652D02*
X69283799Y-81378414D01*
X69283799Y-81378414D02*
X69379037Y-81283176D01*
X69379037Y-81283176D02*
X69521894Y-81235557D01*
X69521894Y-81235557D02*
X69617132Y-81235557D01*
X69617132Y-81235557D02*
X69759989Y-81283176D01*
X69759989Y-81283176D02*
X69807608Y-81330795D01*
X70140942Y-81235557D02*
X70759989Y-81235557D01*
X70759989Y-81235557D02*
X70426656Y-81616509D01*
X70426656Y-81616509D02*
X70569513Y-81616509D01*
X70569513Y-81616509D02*
X70664751Y-81664128D01*
X70664751Y-81664128D02*
X70712370Y-81711747D01*
X70712370Y-81711747D02*
X70759989Y-81806985D01*
X70759989Y-81806985D02*
X70759989Y-82045080D01*
X70759989Y-82045080D02*
X70712370Y-82140318D01*
X70712370Y-82140318D02*
X70664751Y-82187938D01*
X70664751Y-82187938D02*
X70569513Y-82235557D01*
X70569513Y-82235557D02*
X70283799Y-82235557D01*
X70283799Y-82235557D02*
X70188561Y-82187938D01*
X70188561Y-82187938D02*
X70140942Y-82140318D01*
X176566060Y-82606224D02*
X176535822Y-82636463D01*
X176535822Y-82636463D02*
X176445108Y-82666701D01*
X176445108Y-82666701D02*
X176384632Y-82666701D01*
X176384632Y-82666701D02*
X176293917Y-82636463D01*
X176293917Y-82636463D02*
X176233441Y-82575986D01*
X176233441Y-82575986D02*
X176203203Y-82515510D01*
X176203203Y-82515510D02*
X176172965Y-82394558D01*
X176172965Y-82394558D02*
X176172965Y-82303843D01*
X176172965Y-82303843D02*
X176203203Y-82182891D01*
X176203203Y-82182891D02*
X176233441Y-82122415D01*
X176233441Y-82122415D02*
X176293917Y-82061939D01*
X176293917Y-82061939D02*
X176384632Y-82031701D01*
X176384632Y-82031701D02*
X176445108Y-82031701D01*
X176445108Y-82031701D02*
X176535822Y-82061939D01*
X176535822Y-82061939D02*
X176566060Y-82092177D01*
X177170822Y-82666701D02*
X176807965Y-82666701D01*
X176989393Y-82666701D02*
X176989393Y-82031701D01*
X176989393Y-82031701D02*
X176928917Y-82122415D01*
X176928917Y-82122415D02*
X176868441Y-82182891D01*
X176868441Y-82182891D02*
X176807965Y-82213129D01*
X177412727Y-82092177D02*
X177442965Y-82061939D01*
X177442965Y-82061939D02*
X177503441Y-82031701D01*
X177503441Y-82031701D02*
X177654632Y-82031701D01*
X177654632Y-82031701D02*
X177715108Y-82061939D01*
X177715108Y-82061939D02*
X177745346Y-82092177D01*
X177745346Y-82092177D02*
X177775584Y-82152653D01*
X177775584Y-82152653D02*
X177775584Y-82213129D01*
X177775584Y-82213129D02*
X177745346Y-82303843D01*
X177745346Y-82303843D02*
X177382489Y-82666701D01*
X177382489Y-82666701D02*
X177775584Y-82666701D01*
X180723625Y-81963931D02*
X180723625Y-80963931D01*
X180723625Y-80963931D02*
X180961720Y-80963931D01*
X180961720Y-80963931D02*
X181104577Y-81011550D01*
X181104577Y-81011550D02*
X181199815Y-81106788D01*
X181199815Y-81106788D02*
X181247434Y-81202026D01*
X181247434Y-81202026D02*
X181295053Y-81392502D01*
X181295053Y-81392502D02*
X181295053Y-81535359D01*
X181295053Y-81535359D02*
X181247434Y-81725835D01*
X181247434Y-81725835D02*
X181199815Y-81821073D01*
X181199815Y-81821073D02*
X181104577Y-81916312D01*
X181104577Y-81916312D02*
X180961720Y-81963931D01*
X180961720Y-81963931D02*
X180723625Y-81963931D01*
X181676006Y-81059169D02*
X181723625Y-81011550D01*
X181723625Y-81011550D02*
X181818863Y-80963931D01*
X181818863Y-80963931D02*
X182056958Y-80963931D01*
X182056958Y-80963931D02*
X182152196Y-81011550D01*
X182152196Y-81011550D02*
X182199815Y-81059169D01*
X182199815Y-81059169D02*
X182247434Y-81154407D01*
X182247434Y-81154407D02*
X182247434Y-81249645D01*
X182247434Y-81249645D02*
X182199815Y-81392502D01*
X182199815Y-81392502D02*
X181628387Y-81963931D01*
X181628387Y-81963931D02*
X182247434Y-81963931D01*
X182580768Y-80963931D02*
X183199815Y-80963931D01*
X183199815Y-80963931D02*
X182866482Y-81344883D01*
X182866482Y-81344883D02*
X183009339Y-81344883D01*
X183009339Y-81344883D02*
X183104577Y-81392502D01*
X183104577Y-81392502D02*
X183152196Y-81440121D01*
X183152196Y-81440121D02*
X183199815Y-81535359D01*
X183199815Y-81535359D02*
X183199815Y-81773454D01*
X183199815Y-81773454D02*
X183152196Y-81868692D01*
X183152196Y-81868692D02*
X183104577Y-81916312D01*
X183104577Y-81916312D02*
X183009339Y-81963931D01*
X183009339Y-81963931D02*
X182723625Y-81963931D01*
X182723625Y-81963931D02*
X182628387Y-81916312D01*
X182628387Y-81916312D02*
X182580768Y-81868692D01*
X186373625Y-80063931D02*
X185802197Y-80063931D01*
X186087911Y-80063931D02*
X186087911Y-79063931D01*
X186087911Y-79063931D02*
X185992673Y-79206788D01*
X185992673Y-79206788D02*
X185897435Y-79302026D01*
X185897435Y-79302026D02*
X185802197Y-79349645D01*
X95029094Y-97595023D02*
X94029094Y-97595023D01*
X94029094Y-97595023D02*
X94029094Y-97356928D01*
X94029094Y-97356928D02*
X94076713Y-97214071D01*
X94076713Y-97214071D02*
X94171951Y-97118833D01*
X94171951Y-97118833D02*
X94267189Y-97071214D01*
X94267189Y-97071214D02*
X94457665Y-97023595D01*
X94457665Y-97023595D02*
X94600522Y-97023595D01*
X94600522Y-97023595D02*
X94790998Y-97071214D01*
X94790998Y-97071214D02*
X94886236Y-97118833D01*
X94886236Y-97118833D02*
X94981475Y-97214071D01*
X94981475Y-97214071D02*
X95029094Y-97356928D01*
X95029094Y-97356928D02*
X95029094Y-97595023D01*
X95029094Y-96071214D02*
X95029094Y-96642642D01*
X95029094Y-96356928D02*
X94029094Y-96356928D01*
X94029094Y-96356928D02*
X94171951Y-96452166D01*
X94171951Y-96452166D02*
X94267189Y-96547404D01*
X94267189Y-96547404D02*
X94314808Y-96642642D01*
X95029094Y-95118833D02*
X95029094Y-95690261D01*
X95029094Y-95404547D02*
X94029094Y-95404547D01*
X94029094Y-95404547D02*
X94171951Y-95499785D01*
X94171951Y-95499785D02*
X94267189Y-95595023D01*
X94267189Y-95595023D02*
X94314808Y-95690261D01*
X89937238Y-97785846D02*
X89937238Y-98357274D01*
X89937238Y-98071560D02*
X88937238Y-98071560D01*
X88937238Y-98071560D02*
X89080095Y-98166798D01*
X89080095Y-98166798D02*
X89175333Y-98262036D01*
X89175333Y-98262036D02*
X89222952Y-98357274D01*
X192003203Y-83066701D02*
X192003203Y-82431701D01*
X192003203Y-82431701D02*
X192154393Y-82431701D01*
X192154393Y-82431701D02*
X192245108Y-82461939D01*
X192245108Y-82461939D02*
X192305584Y-82522415D01*
X192305584Y-82522415D02*
X192335822Y-82582891D01*
X192335822Y-82582891D02*
X192366060Y-82703843D01*
X192366060Y-82703843D02*
X192366060Y-82794558D01*
X192366060Y-82794558D02*
X192335822Y-82915510D01*
X192335822Y-82915510D02*
X192305584Y-82975986D01*
X192305584Y-82975986D02*
X192245108Y-83036463D01*
X192245108Y-83036463D02*
X192154393Y-83066701D01*
X192154393Y-83066701D02*
X192003203Y-83066701D01*
X192607965Y-82492177D02*
X192638203Y-82461939D01*
X192638203Y-82461939D02*
X192698679Y-82431701D01*
X192698679Y-82431701D02*
X192849870Y-82431701D01*
X192849870Y-82431701D02*
X192910346Y-82461939D01*
X192910346Y-82461939D02*
X192940584Y-82492177D01*
X192940584Y-82492177D02*
X192970822Y-82552653D01*
X192970822Y-82552653D02*
X192970822Y-82613129D01*
X192970822Y-82613129D02*
X192940584Y-82703843D01*
X192940584Y-82703843D02*
X192577727Y-83066701D01*
X192577727Y-83066701D02*
X192970822Y-83066701D01*
X193515108Y-82643367D02*
X193515108Y-83066701D01*
X193363917Y-82401463D02*
X193212727Y-82855034D01*
X193212727Y-82855034D02*
X193605822Y-82855034D01*
X194009989Y-80063931D02*
X193438561Y-80063931D01*
X193724275Y-80063931D02*
X193724275Y-79063931D01*
X193724275Y-79063931D02*
X193629037Y-79206788D01*
X193629037Y-79206788D02*
X193533799Y-79302026D01*
X193533799Y-79302026D02*
X193438561Y-79349645D01*
X23542491Y-66016204D02*
X23155444Y-66287137D01*
X23542491Y-66480661D02*
X22729691Y-66480661D01*
X22729691Y-66480661D02*
X22729691Y-66171023D01*
X22729691Y-66171023D02*
X22768396Y-66093613D01*
X22768396Y-66093613D02*
X22807101Y-66054908D01*
X22807101Y-66054908D02*
X22884510Y-66016204D01*
X22884510Y-66016204D02*
X23000625Y-66016204D01*
X23000625Y-66016204D02*
X23078034Y-66054908D01*
X23078034Y-66054908D02*
X23116739Y-66093613D01*
X23116739Y-66093613D02*
X23155444Y-66171023D01*
X23155444Y-66171023D02*
X23155444Y-66480661D01*
X22729691Y-65280813D02*
X22729691Y-65667861D01*
X22729691Y-65667861D02*
X23116739Y-65706565D01*
X23116739Y-65706565D02*
X23078034Y-65667861D01*
X23078034Y-65667861D02*
X23039329Y-65590451D01*
X23039329Y-65590451D02*
X23039329Y-65396927D01*
X23039329Y-65396927D02*
X23078034Y-65319518D01*
X23078034Y-65319518D02*
X23116739Y-65280813D01*
X23116739Y-65280813D02*
X23194148Y-65242108D01*
X23194148Y-65242108D02*
X23387672Y-65242108D01*
X23387672Y-65242108D02*
X23465082Y-65280813D01*
X23465082Y-65280813D02*
X23503787Y-65319518D01*
X23503787Y-65319518D02*
X23542491Y-65396927D01*
X23542491Y-65396927D02*
X23542491Y-65590451D01*
X23542491Y-65590451D02*
X23503787Y-65667861D01*
X23503787Y-65667861D02*
X23465082Y-65706565D01*
X183166060Y-82806224D02*
X183135822Y-82836463D01*
X183135822Y-82836463D02*
X183045108Y-82866701D01*
X183045108Y-82866701D02*
X182984632Y-82866701D01*
X182984632Y-82866701D02*
X182893917Y-82836463D01*
X182893917Y-82836463D02*
X182833441Y-82775986D01*
X182833441Y-82775986D02*
X182803203Y-82715510D01*
X182803203Y-82715510D02*
X182772965Y-82594558D01*
X182772965Y-82594558D02*
X182772965Y-82503843D01*
X182772965Y-82503843D02*
X182803203Y-82382891D01*
X182803203Y-82382891D02*
X182833441Y-82322415D01*
X182833441Y-82322415D02*
X182893917Y-82261939D01*
X182893917Y-82261939D02*
X182984632Y-82231701D01*
X182984632Y-82231701D02*
X183045108Y-82231701D01*
X183045108Y-82231701D02*
X183135822Y-82261939D01*
X183135822Y-82261939D02*
X183166060Y-82292177D01*
X183770822Y-82866701D02*
X183407965Y-82866701D01*
X183589393Y-82866701D02*
X183589393Y-82231701D01*
X183589393Y-82231701D02*
X183528917Y-82322415D01*
X183528917Y-82322415D02*
X183468441Y-82382891D01*
X183468441Y-82382891D02*
X183407965Y-82413129D01*
X184315108Y-82443367D02*
X184315108Y-82866701D01*
X184163917Y-82201463D02*
X184012727Y-82655034D01*
X184012727Y-82655034D02*
X184405822Y-82655034D01*
X224731417Y-82340318D02*
X224683798Y-82387938D01*
X224683798Y-82387938D02*
X224540941Y-82435557D01*
X224540941Y-82435557D02*
X224445703Y-82435557D01*
X224445703Y-82435557D02*
X224302846Y-82387938D01*
X224302846Y-82387938D02*
X224207608Y-82292699D01*
X224207608Y-82292699D02*
X224159989Y-82197461D01*
X224159989Y-82197461D02*
X224112370Y-82006985D01*
X224112370Y-82006985D02*
X224112370Y-81864128D01*
X224112370Y-81864128D02*
X224159989Y-81673652D01*
X224159989Y-81673652D02*
X224207608Y-81578414D01*
X224207608Y-81578414D02*
X224302846Y-81483176D01*
X224302846Y-81483176D02*
X224445703Y-81435557D01*
X224445703Y-81435557D02*
X224540941Y-81435557D01*
X224540941Y-81435557D02*
X224683798Y-81483176D01*
X224683798Y-81483176D02*
X224731417Y-81530795D01*
X225112370Y-81530795D02*
X225159989Y-81483176D01*
X225159989Y-81483176D02*
X225255227Y-81435557D01*
X225255227Y-81435557D02*
X225493322Y-81435557D01*
X225493322Y-81435557D02*
X225588560Y-81483176D01*
X225588560Y-81483176D02*
X225636179Y-81530795D01*
X225636179Y-81530795D02*
X225683798Y-81626033D01*
X225683798Y-81626033D02*
X225683798Y-81721271D01*
X225683798Y-81721271D02*
X225636179Y-81864128D01*
X225636179Y-81864128D02*
X225064751Y-82435557D01*
X225064751Y-82435557D02*
X225683798Y-82435557D01*
X226017132Y-81435557D02*
X226683798Y-81435557D01*
X226683798Y-81435557D02*
X226255227Y-82435557D01*
X103559989Y-81963931D02*
X103559989Y-80963931D01*
X103559989Y-80963931D02*
X103798084Y-80963931D01*
X103798084Y-80963931D02*
X103940941Y-81011550D01*
X103940941Y-81011550D02*
X104036179Y-81106788D01*
X104036179Y-81106788D02*
X104083798Y-81202026D01*
X104083798Y-81202026D02*
X104131417Y-81392502D01*
X104131417Y-81392502D02*
X104131417Y-81535359D01*
X104131417Y-81535359D02*
X104083798Y-81725835D01*
X104083798Y-81725835D02*
X104036179Y-81821073D01*
X104036179Y-81821073D02*
X103940941Y-81916312D01*
X103940941Y-81916312D02*
X103798084Y-81963931D01*
X103798084Y-81963931D02*
X103559989Y-81963931D01*
X105083798Y-81963931D02*
X104512370Y-81963931D01*
X104798084Y-81963931D02*
X104798084Y-80963931D01*
X104798084Y-80963931D02*
X104702846Y-81106788D01*
X104702846Y-81106788D02*
X104607608Y-81202026D01*
X104607608Y-81202026D02*
X104512370Y-81249645D01*
X105417132Y-80963931D02*
X106036179Y-80963931D01*
X106036179Y-80963931D02*
X105702846Y-81344883D01*
X105702846Y-81344883D02*
X105845703Y-81344883D01*
X105845703Y-81344883D02*
X105940941Y-81392502D01*
X105940941Y-81392502D02*
X105988560Y-81440121D01*
X105988560Y-81440121D02*
X106036179Y-81535359D01*
X106036179Y-81535359D02*
X106036179Y-81773454D01*
X106036179Y-81773454D02*
X105988560Y-81868692D01*
X105988560Y-81868692D02*
X105940941Y-81916312D01*
X105940941Y-81916312D02*
X105845703Y-81963931D01*
X105845703Y-81963931D02*
X105559989Y-81963931D01*
X105559989Y-81963931D02*
X105464751Y-81916312D01*
X105464751Y-81916312D02*
X105417132Y-81868692D01*
X110009989Y-80063931D02*
X109438561Y-80063931D01*
X109724275Y-80063931D02*
X109724275Y-79063931D01*
X109724275Y-79063931D02*
X109629037Y-79206788D01*
X109629037Y-79206788D02*
X109533799Y-79302026D01*
X109533799Y-79302026D02*
X109438561Y-79349645D01*
X169166060Y-82606224D02*
X169135822Y-82636463D01*
X169135822Y-82636463D02*
X169045108Y-82666701D01*
X169045108Y-82666701D02*
X168984632Y-82666701D01*
X168984632Y-82666701D02*
X168893917Y-82636463D01*
X168893917Y-82636463D02*
X168833441Y-82575986D01*
X168833441Y-82575986D02*
X168803203Y-82515510D01*
X168803203Y-82515510D02*
X168772965Y-82394558D01*
X168772965Y-82394558D02*
X168772965Y-82303843D01*
X168772965Y-82303843D02*
X168803203Y-82182891D01*
X168803203Y-82182891D02*
X168833441Y-82122415D01*
X168833441Y-82122415D02*
X168893917Y-82061939D01*
X168893917Y-82061939D02*
X168984632Y-82031701D01*
X168984632Y-82031701D02*
X169045108Y-82031701D01*
X169045108Y-82031701D02*
X169135822Y-82061939D01*
X169135822Y-82061939D02*
X169166060Y-82092177D01*
X169770822Y-82666701D02*
X169407965Y-82666701D01*
X169589393Y-82666701D02*
X169589393Y-82031701D01*
X169589393Y-82031701D02*
X169528917Y-82122415D01*
X169528917Y-82122415D02*
X169468441Y-82182891D01*
X169468441Y-82182891D02*
X169407965Y-82213129D01*
X170163917Y-82031701D02*
X170224394Y-82031701D01*
X170224394Y-82031701D02*
X170284870Y-82061939D01*
X170284870Y-82061939D02*
X170315108Y-82092177D01*
X170315108Y-82092177D02*
X170345346Y-82152653D01*
X170345346Y-82152653D02*
X170375584Y-82273605D01*
X170375584Y-82273605D02*
X170375584Y-82424796D01*
X170375584Y-82424796D02*
X170345346Y-82545748D01*
X170345346Y-82545748D02*
X170315108Y-82606224D01*
X170315108Y-82606224D02*
X170284870Y-82636463D01*
X170284870Y-82636463D02*
X170224394Y-82666701D01*
X170224394Y-82666701D02*
X170163917Y-82666701D01*
X170163917Y-82666701D02*
X170103441Y-82636463D01*
X170103441Y-82636463D02*
X170073203Y-82606224D01*
X170073203Y-82606224D02*
X170042965Y-82545748D01*
X170042965Y-82545748D02*
X170012727Y-82424796D01*
X170012727Y-82424796D02*
X170012727Y-82273605D01*
X170012727Y-82273605D02*
X170042965Y-82152653D01*
X170042965Y-82152653D02*
X170073203Y-82092177D01*
X170073203Y-82092177D02*
X170103441Y-82061939D01*
X170103441Y-82061939D02*
X170163917Y-82031701D01*
D10*
X153531694Y-98261689D02*
X154531694Y-98023594D01*
X154531694Y-98023594D02*
X153817408Y-97833118D01*
X153817408Y-97833118D02*
X154531694Y-97642642D01*
X154531694Y-97642642D02*
X153531694Y-97404547D01*
X154531694Y-97023594D02*
X153531694Y-97023594D01*
X153531694Y-97023594D02*
X153531694Y-96642642D01*
X153531694Y-96642642D02*
X153579313Y-96547404D01*
X153579313Y-96547404D02*
X153626932Y-96499785D01*
X153626932Y-96499785D02*
X153722170Y-96452166D01*
X153722170Y-96452166D02*
X153865027Y-96452166D01*
X153865027Y-96452166D02*
X153960265Y-96499785D01*
X153960265Y-96499785D02*
X154007884Y-96547404D01*
X154007884Y-96547404D02*
X154055503Y-96642642D01*
X154055503Y-96642642D02*
X154055503Y-97023594D01*
X154531694Y-95499785D02*
X154531694Y-96071213D01*
X154531694Y-95785499D02*
X153531694Y-95785499D01*
X153531694Y-95785499D02*
X153674551Y-95880737D01*
X153674551Y-95880737D02*
X153769789Y-95975975D01*
X153769789Y-95975975D02*
X153817408Y-96071213D01*
X153626932Y-95118832D02*
X153579313Y-95071213D01*
X153579313Y-95071213D02*
X153531694Y-94975975D01*
X153531694Y-94975975D02*
X153531694Y-94737880D01*
X153531694Y-94737880D02*
X153579313Y-94642642D01*
X153579313Y-94642642D02*
X153626932Y-94595023D01*
X153626932Y-94595023D02*
X153722170Y-94547404D01*
X153722170Y-94547404D02*
X153817408Y-94547404D01*
X153817408Y-94547404D02*
X153960265Y-94595023D01*
X153960265Y-94595023D02*
X154531694Y-95166451D01*
X154531694Y-95166451D02*
X154531694Y-94547404D01*
D11*
X90559989Y-82235557D02*
X90559989Y-81235557D01*
X90559989Y-81235557D02*
X90798084Y-81235557D01*
X90798084Y-81235557D02*
X90940941Y-81283176D01*
X90940941Y-81283176D02*
X91036179Y-81378414D01*
X91036179Y-81378414D02*
X91083798Y-81473652D01*
X91083798Y-81473652D02*
X91131417Y-81664128D01*
X91131417Y-81664128D02*
X91131417Y-81806985D01*
X91131417Y-81806985D02*
X91083798Y-81997461D01*
X91083798Y-81997461D02*
X91036179Y-82092699D01*
X91036179Y-82092699D02*
X90940941Y-82187938D01*
X90940941Y-82187938D02*
X90798084Y-82235557D01*
X90798084Y-82235557D02*
X90559989Y-82235557D01*
X92083798Y-82235557D02*
X91512370Y-82235557D01*
X91798084Y-82235557D02*
X91798084Y-81235557D01*
X91798084Y-81235557D02*
X91702846Y-81378414D01*
X91702846Y-81378414D02*
X91607608Y-81473652D01*
X91607608Y-81473652D02*
X91512370Y-81521271D01*
X92702846Y-81235557D02*
X92798084Y-81235557D01*
X92798084Y-81235557D02*
X92893322Y-81283176D01*
X92893322Y-81283176D02*
X92940941Y-81330795D01*
X92940941Y-81330795D02*
X92988560Y-81426033D01*
X92988560Y-81426033D02*
X93036179Y-81616509D01*
X93036179Y-81616509D02*
X93036179Y-81854604D01*
X93036179Y-81854604D02*
X92988560Y-82045080D01*
X92988560Y-82045080D02*
X92940941Y-82140318D01*
X92940941Y-82140318D02*
X92893322Y-82187938D01*
X92893322Y-82187938D02*
X92798084Y-82235557D01*
X92798084Y-82235557D02*
X92702846Y-82235557D01*
X92702846Y-82235557D02*
X92607608Y-82187938D01*
X92607608Y-82187938D02*
X92559989Y-82140318D01*
X92559989Y-82140318D02*
X92512370Y-82045080D01*
X92512370Y-82045080D02*
X92464751Y-81854604D01*
X92464751Y-81854604D02*
X92464751Y-81616509D01*
X92464751Y-81616509D02*
X92512370Y-81426033D01*
X92512370Y-81426033D02*
X92559989Y-81330795D01*
X92559989Y-81330795D02*
X92607608Y-81283176D01*
X92607608Y-81283176D02*
X92702846Y-81235557D01*
X90633317Y-89829622D02*
X90633317Y-90401050D01*
X90633317Y-90115336D02*
X89633317Y-90115336D01*
X89633317Y-90115336D02*
X89776174Y-90210574D01*
X89776174Y-90210574D02*
X89871412Y-90305812D01*
X89871412Y-90305812D02*
X89919031Y-90401050D01*
D10*
X149531694Y-98261689D02*
X150531694Y-98023594D01*
X150531694Y-98023594D02*
X149817408Y-97833118D01*
X149817408Y-97833118D02*
X150531694Y-97642642D01*
X150531694Y-97642642D02*
X149531694Y-97404547D01*
X150531694Y-97023594D02*
X149531694Y-97023594D01*
X149531694Y-97023594D02*
X149531694Y-96642642D01*
X149531694Y-96642642D02*
X149579313Y-96547404D01*
X149579313Y-96547404D02*
X149626932Y-96499785D01*
X149626932Y-96499785D02*
X149722170Y-96452166D01*
X149722170Y-96452166D02*
X149865027Y-96452166D01*
X149865027Y-96452166D02*
X149960265Y-96499785D01*
X149960265Y-96499785D02*
X150007884Y-96547404D01*
X150007884Y-96547404D02*
X150055503Y-96642642D01*
X150055503Y-96642642D02*
X150055503Y-97023594D01*
X150531694Y-95499785D02*
X150531694Y-96071213D01*
X150531694Y-95785499D02*
X149531694Y-95785499D01*
X149531694Y-95785499D02*
X149674551Y-95880737D01*
X149674551Y-95880737D02*
X149769789Y-95975975D01*
X149769789Y-95975975D02*
X149817408Y-96071213D01*
X149865027Y-94642642D02*
X150531694Y-94642642D01*
X149484075Y-94880737D02*
X150198360Y-95118832D01*
X150198360Y-95118832D02*
X150198360Y-94499785D01*
D11*
X134905444Y-81963931D02*
X134905444Y-80963931D01*
X134905444Y-80963931D02*
X135143539Y-80963931D01*
X135143539Y-80963931D02*
X135286396Y-81011550D01*
X135286396Y-81011550D02*
X135381634Y-81106788D01*
X135381634Y-81106788D02*
X135429253Y-81202026D01*
X135429253Y-81202026D02*
X135476872Y-81392502D01*
X135476872Y-81392502D02*
X135476872Y-81535359D01*
X135476872Y-81535359D02*
X135429253Y-81725835D01*
X135429253Y-81725835D02*
X135381634Y-81821073D01*
X135381634Y-81821073D02*
X135286396Y-81916312D01*
X135286396Y-81916312D02*
X135143539Y-81963931D01*
X135143539Y-81963931D02*
X134905444Y-81963931D01*
X136429253Y-81963931D02*
X135857825Y-81963931D01*
X136143539Y-81963931D02*
X136143539Y-80963931D01*
X136143539Y-80963931D02*
X136048301Y-81106788D01*
X136048301Y-81106788D02*
X135953063Y-81202026D01*
X135953063Y-81202026D02*
X135857825Y-81249645D01*
X136762587Y-80963931D02*
X137429253Y-80963931D01*
X137429253Y-80963931D02*
X137000682Y-81963931D01*
X140555444Y-80063931D02*
X139984016Y-80063931D01*
X140269730Y-80063931D02*
X140269730Y-79063931D01*
X140269730Y-79063931D02*
X140174492Y-79206788D01*
X140174492Y-79206788D02*
X140079254Y-79302026D01*
X140079254Y-79302026D02*
X139984016Y-79349645D01*
X154668441Y-82606224D02*
X154638203Y-82636463D01*
X154638203Y-82636463D02*
X154547489Y-82666701D01*
X154547489Y-82666701D02*
X154487013Y-82666701D01*
X154487013Y-82666701D02*
X154396298Y-82636463D01*
X154396298Y-82636463D02*
X154335822Y-82575986D01*
X154335822Y-82575986D02*
X154305584Y-82515510D01*
X154305584Y-82515510D02*
X154275346Y-82394558D01*
X154275346Y-82394558D02*
X154275346Y-82303843D01*
X154275346Y-82303843D02*
X154305584Y-82182891D01*
X154305584Y-82182891D02*
X154335822Y-82122415D01*
X154335822Y-82122415D02*
X154396298Y-82061939D01*
X154396298Y-82061939D02*
X154487013Y-82031701D01*
X154487013Y-82031701D02*
X154547489Y-82031701D01*
X154547489Y-82031701D02*
X154638203Y-82061939D01*
X154638203Y-82061939D02*
X154668441Y-82092177D01*
X155212727Y-82031701D02*
X155091774Y-82031701D01*
X155091774Y-82031701D02*
X155031298Y-82061939D01*
X155031298Y-82061939D02*
X155001060Y-82092177D01*
X155001060Y-82092177D02*
X154940584Y-82182891D01*
X154940584Y-82182891D02*
X154910346Y-82303843D01*
X154910346Y-82303843D02*
X154910346Y-82545748D01*
X154910346Y-82545748D02*
X154940584Y-82606224D01*
X154940584Y-82606224D02*
X154970822Y-82636463D01*
X154970822Y-82636463D02*
X155031298Y-82666701D01*
X155031298Y-82666701D02*
X155152251Y-82666701D01*
X155152251Y-82666701D02*
X155212727Y-82636463D01*
X155212727Y-82636463D02*
X155242965Y-82606224D01*
X155242965Y-82606224D02*
X155273203Y-82545748D01*
X155273203Y-82545748D02*
X155273203Y-82394558D01*
X155273203Y-82394558D02*
X155242965Y-82334082D01*
X155242965Y-82334082D02*
X155212727Y-82303843D01*
X155212727Y-82303843D02*
X155152251Y-82273605D01*
X155152251Y-82273605D02*
X155031298Y-82273605D01*
X155031298Y-82273605D02*
X154970822Y-82303843D01*
X154970822Y-82303843D02*
X154940584Y-82334082D01*
X154940584Y-82334082D02*
X154910346Y-82394558D01*
D10*
X272621894Y-61606847D02*
X272740942Y-62106847D01*
X272740942Y-62106847D02*
X272836180Y-61749704D01*
X272836180Y-61749704D02*
X272931418Y-62106847D01*
X272931418Y-62106847D02*
X273050466Y-61606847D01*
X273240942Y-62106847D02*
X273240942Y-61606847D01*
X273240942Y-61606847D02*
X273431418Y-61606847D01*
X273431418Y-61606847D02*
X273479037Y-61630657D01*
X273479037Y-61630657D02*
X273502847Y-61654466D01*
X273502847Y-61654466D02*
X273526656Y-61702085D01*
X273526656Y-61702085D02*
X273526656Y-61773514D01*
X273526656Y-61773514D02*
X273502847Y-61821133D01*
X273502847Y-61821133D02*
X273479037Y-61844942D01*
X273479037Y-61844942D02*
X273431418Y-61868752D01*
X273431418Y-61868752D02*
X273240942Y-61868752D01*
X273693323Y-61606847D02*
X274002847Y-61606847D01*
X274002847Y-61606847D02*
X273836180Y-61797323D01*
X273836180Y-61797323D02*
X273907609Y-61797323D01*
X273907609Y-61797323D02*
X273955228Y-61821133D01*
X273955228Y-61821133D02*
X273979037Y-61844942D01*
X273979037Y-61844942D02*
X274002847Y-61892561D01*
X274002847Y-61892561D02*
X274002847Y-62011609D01*
X274002847Y-62011609D02*
X273979037Y-62059228D01*
X273979037Y-62059228D02*
X273955228Y-62083038D01*
X273955228Y-62083038D02*
X273907609Y-62106847D01*
X273907609Y-62106847D02*
X273764752Y-62106847D01*
X273764752Y-62106847D02*
X273717133Y-62083038D01*
X273717133Y-62083038D02*
X273693323Y-62059228D01*
D11*
X193782618Y-91760556D02*
X192782618Y-91760556D01*
X192782618Y-91760556D02*
X192782618Y-91522461D01*
X192782618Y-91522461D02*
X192830237Y-91379604D01*
X192830237Y-91379604D02*
X192925475Y-91284366D01*
X192925475Y-91284366D02*
X193020713Y-91236747D01*
X193020713Y-91236747D02*
X193211189Y-91189128D01*
X193211189Y-91189128D02*
X193354046Y-91189128D01*
X193354046Y-91189128D02*
X193544522Y-91236747D01*
X193544522Y-91236747D02*
X193639760Y-91284366D01*
X193639760Y-91284366D02*
X193734999Y-91379604D01*
X193734999Y-91379604D02*
X193782618Y-91522461D01*
X193782618Y-91522461D02*
X193782618Y-91760556D01*
X192877856Y-90808175D02*
X192830237Y-90760556D01*
X192830237Y-90760556D02*
X192782618Y-90665318D01*
X192782618Y-90665318D02*
X192782618Y-90427223D01*
X192782618Y-90427223D02*
X192830237Y-90331985D01*
X192830237Y-90331985D02*
X192877856Y-90284366D01*
X192877856Y-90284366D02*
X192973094Y-90236747D01*
X192973094Y-90236747D02*
X193068332Y-90236747D01*
X193068332Y-90236747D02*
X193211189Y-90284366D01*
X193211189Y-90284366D02*
X193782618Y-90855794D01*
X193782618Y-90855794D02*
X193782618Y-90236747D01*
X192782618Y-89379604D02*
X192782618Y-89570080D01*
X192782618Y-89570080D02*
X192830237Y-89665318D01*
X192830237Y-89665318D02*
X192877856Y-89712937D01*
X192877856Y-89712937D02*
X193020713Y-89808175D01*
X193020713Y-89808175D02*
X193211189Y-89855794D01*
X193211189Y-89855794D02*
X193592141Y-89855794D01*
X193592141Y-89855794D02*
X193687379Y-89808175D01*
X193687379Y-89808175D02*
X193734999Y-89760556D01*
X193734999Y-89760556D02*
X193782618Y-89665318D01*
X193782618Y-89665318D02*
X193782618Y-89474842D01*
X193782618Y-89474842D02*
X193734999Y-89379604D01*
X193734999Y-89379604D02*
X193687379Y-89331985D01*
X193687379Y-89331985D02*
X193592141Y-89284366D01*
X193592141Y-89284366D02*
X193354046Y-89284366D01*
X193354046Y-89284366D02*
X193258808Y-89331985D01*
X193258808Y-89331985D02*
X193211189Y-89379604D01*
X193211189Y-89379604D02*
X193163570Y-89474842D01*
X193163570Y-89474842D02*
X193163570Y-89665318D01*
X193163570Y-89665318D02*
X193211189Y-89760556D01*
X193211189Y-89760556D02*
X193258808Y-89808175D01*
X193258808Y-89808175D02*
X193354046Y-89855794D01*
X195682618Y-94410556D02*
X195682618Y-94981984D01*
X195682618Y-94696270D02*
X194682618Y-94696270D01*
X194682618Y-94696270D02*
X194825475Y-94791508D01*
X194825475Y-94791508D02*
X194920713Y-94886746D01*
X194920713Y-94886746D02*
X194968332Y-94981984D01*
X69236180Y-72835557D02*
X69236180Y-71835557D01*
X69236180Y-71835557D02*
X69474275Y-71835557D01*
X69474275Y-71835557D02*
X69617132Y-71883176D01*
X69617132Y-71883176D02*
X69712370Y-71978414D01*
X69712370Y-71978414D02*
X69759989Y-72073652D01*
X69759989Y-72073652D02*
X69807608Y-72264128D01*
X69807608Y-72264128D02*
X69807608Y-72406985D01*
X69807608Y-72406985D02*
X69759989Y-72597461D01*
X69759989Y-72597461D02*
X69712370Y-72692699D01*
X69712370Y-72692699D02*
X69617132Y-72787938D01*
X69617132Y-72787938D02*
X69474275Y-72835557D01*
X69474275Y-72835557D02*
X69236180Y-72835557D01*
X70379037Y-72264128D02*
X70283799Y-72216509D01*
X70283799Y-72216509D02*
X70236180Y-72168890D01*
X70236180Y-72168890D02*
X70188561Y-72073652D01*
X70188561Y-72073652D02*
X70188561Y-72026033D01*
X70188561Y-72026033D02*
X70236180Y-71930795D01*
X70236180Y-71930795D02*
X70283799Y-71883176D01*
X70283799Y-71883176D02*
X70379037Y-71835557D01*
X70379037Y-71835557D02*
X70569513Y-71835557D01*
X70569513Y-71835557D02*
X70664751Y-71883176D01*
X70664751Y-71883176D02*
X70712370Y-71930795D01*
X70712370Y-71930795D02*
X70759989Y-72026033D01*
X70759989Y-72026033D02*
X70759989Y-72073652D01*
X70759989Y-72073652D02*
X70712370Y-72168890D01*
X70712370Y-72168890D02*
X70664751Y-72216509D01*
X70664751Y-72216509D02*
X70569513Y-72264128D01*
X70569513Y-72264128D02*
X70379037Y-72264128D01*
X70379037Y-72264128D02*
X70283799Y-72311747D01*
X70283799Y-72311747D02*
X70236180Y-72359366D01*
X70236180Y-72359366D02*
X70188561Y-72454604D01*
X70188561Y-72454604D02*
X70188561Y-72645080D01*
X70188561Y-72645080D02*
X70236180Y-72740318D01*
X70236180Y-72740318D02*
X70283799Y-72787938D01*
X70283799Y-72787938D02*
X70379037Y-72835557D01*
X70379037Y-72835557D02*
X70569513Y-72835557D01*
X70569513Y-72835557D02*
X70664751Y-72787938D01*
X70664751Y-72787938D02*
X70712370Y-72740318D01*
X70712370Y-72740318D02*
X70759989Y-72645080D01*
X70759989Y-72645080D02*
X70759989Y-72454604D01*
X70759989Y-72454604D02*
X70712370Y-72359366D01*
X70712370Y-72359366D02*
X70664751Y-72311747D01*
X70664751Y-72311747D02*
X70569513Y-72264128D01*
X68747726Y-80482134D02*
X68747726Y-81053562D01*
X68747726Y-80767848D02*
X67747726Y-80767848D01*
X67747726Y-80767848D02*
X67890583Y-80863086D01*
X67890583Y-80863086D02*
X67985821Y-80958324D01*
X67985821Y-80958324D02*
X68033440Y-81053562D01*
X186236180Y-96235557D02*
X186236180Y-95235557D01*
X186236180Y-95235557D02*
X186474275Y-95235557D01*
X186474275Y-95235557D02*
X186617132Y-95283176D01*
X186617132Y-95283176D02*
X186712370Y-95378414D01*
X186712370Y-95378414D02*
X186759989Y-95473652D01*
X186759989Y-95473652D02*
X186807608Y-95664128D01*
X186807608Y-95664128D02*
X186807608Y-95806985D01*
X186807608Y-95806985D02*
X186759989Y-95997461D01*
X186759989Y-95997461D02*
X186712370Y-96092699D01*
X186712370Y-96092699D02*
X186617132Y-96187938D01*
X186617132Y-96187938D02*
X186474275Y-96235557D01*
X186474275Y-96235557D02*
X186236180Y-96235557D01*
X187664751Y-95235557D02*
X187474275Y-95235557D01*
X187474275Y-95235557D02*
X187379037Y-95283176D01*
X187379037Y-95283176D02*
X187331418Y-95330795D01*
X187331418Y-95330795D02*
X187236180Y-95473652D01*
X187236180Y-95473652D02*
X187188561Y-95664128D01*
X187188561Y-95664128D02*
X187188561Y-96045080D01*
X187188561Y-96045080D02*
X187236180Y-96140318D01*
X187236180Y-96140318D02*
X187283799Y-96187938D01*
X187283799Y-96187938D02*
X187379037Y-96235557D01*
X187379037Y-96235557D02*
X187569513Y-96235557D01*
X187569513Y-96235557D02*
X187664751Y-96187938D01*
X187664751Y-96187938D02*
X187712370Y-96140318D01*
X187712370Y-96140318D02*
X187759989Y-96045080D01*
X187759989Y-96045080D02*
X187759989Y-95806985D01*
X187759989Y-95806985D02*
X187712370Y-95711747D01*
X187712370Y-95711747D02*
X187664751Y-95664128D01*
X187664751Y-95664128D02*
X187569513Y-95616509D01*
X187569513Y-95616509D02*
X187379037Y-95616509D01*
X187379037Y-95616509D02*
X187283799Y-95664128D01*
X187283799Y-95664128D02*
X187236180Y-95711747D01*
X187236180Y-95711747D02*
X187188561Y-95806985D01*
X201020950Y-94795023D02*
X200020950Y-94795023D01*
X200020950Y-94795023D02*
X200020950Y-94556928D01*
X200020950Y-94556928D02*
X200068569Y-94414071D01*
X200068569Y-94414071D02*
X200163807Y-94318833D01*
X200163807Y-94318833D02*
X200259045Y-94271214D01*
X200259045Y-94271214D02*
X200449521Y-94223595D01*
X200449521Y-94223595D02*
X200592378Y-94223595D01*
X200592378Y-94223595D02*
X200782854Y-94271214D01*
X200782854Y-94271214D02*
X200878092Y-94318833D01*
X200878092Y-94318833D02*
X200973331Y-94414071D01*
X200973331Y-94414071D02*
X201020950Y-94556928D01*
X201020950Y-94556928D02*
X201020950Y-94795023D01*
X200116188Y-93842642D02*
X200068569Y-93795023D01*
X200068569Y-93795023D02*
X200020950Y-93699785D01*
X200020950Y-93699785D02*
X200020950Y-93461690D01*
X200020950Y-93461690D02*
X200068569Y-93366452D01*
X200068569Y-93366452D02*
X200116188Y-93318833D01*
X200116188Y-93318833D02*
X200211426Y-93271214D01*
X200211426Y-93271214D02*
X200306664Y-93271214D01*
X200306664Y-93271214D02*
X200449521Y-93318833D01*
X200449521Y-93318833D02*
X201020950Y-93890261D01*
X201020950Y-93890261D02*
X201020950Y-93271214D01*
X200020950Y-92937880D02*
X200020950Y-92271214D01*
X200020950Y-92271214D02*
X201020950Y-92699785D01*
X202920950Y-97785846D02*
X202920950Y-98357274D01*
X202920950Y-98071560D02*
X201920950Y-98071560D01*
X201920950Y-98071560D02*
X202063807Y-98166798D01*
X202063807Y-98166798D02*
X202159045Y-98262036D01*
X202159045Y-98262036D02*
X202206664Y-98357274D01*
D10*
X134531694Y-98261689D02*
X135531694Y-98023594D01*
X135531694Y-98023594D02*
X134817408Y-97833118D01*
X134817408Y-97833118D02*
X135531694Y-97642642D01*
X135531694Y-97642642D02*
X134531694Y-97404547D01*
X135531694Y-97023594D02*
X134531694Y-97023594D01*
X134531694Y-97023594D02*
X134531694Y-96642642D01*
X134531694Y-96642642D02*
X134579313Y-96547404D01*
X134579313Y-96547404D02*
X134626932Y-96499785D01*
X134626932Y-96499785D02*
X134722170Y-96452166D01*
X134722170Y-96452166D02*
X134865027Y-96452166D01*
X134865027Y-96452166D02*
X134960265Y-96499785D01*
X134960265Y-96499785D02*
X135007884Y-96547404D01*
X135007884Y-96547404D02*
X135055503Y-96642642D01*
X135055503Y-96642642D02*
X135055503Y-97023594D01*
X134626932Y-96071213D02*
X134579313Y-96023594D01*
X134579313Y-96023594D02*
X134531694Y-95928356D01*
X134531694Y-95928356D02*
X134531694Y-95690261D01*
X134531694Y-95690261D02*
X134579313Y-95595023D01*
X134579313Y-95595023D02*
X134626932Y-95547404D01*
X134626932Y-95547404D02*
X134722170Y-95499785D01*
X134722170Y-95499785D02*
X134817408Y-95499785D01*
X134817408Y-95499785D02*
X134960265Y-95547404D01*
X134960265Y-95547404D02*
X135531694Y-96118832D01*
X135531694Y-96118832D02*
X135531694Y-95499785D01*
X134531694Y-94880737D02*
X134531694Y-94785499D01*
X134531694Y-94785499D02*
X134579313Y-94690261D01*
X134579313Y-94690261D02*
X134626932Y-94642642D01*
X134626932Y-94642642D02*
X134722170Y-94595023D01*
X134722170Y-94595023D02*
X134912646Y-94547404D01*
X134912646Y-94547404D02*
X135150741Y-94547404D01*
X135150741Y-94547404D02*
X135341217Y-94595023D01*
X135341217Y-94595023D02*
X135436455Y-94642642D01*
X135436455Y-94642642D02*
X135484075Y-94690261D01*
X135484075Y-94690261D02*
X135531694Y-94785499D01*
X135531694Y-94785499D02*
X135531694Y-94880737D01*
X135531694Y-94880737D02*
X135484075Y-94975975D01*
X135484075Y-94975975D02*
X135436455Y-95023594D01*
X135436455Y-95023594D02*
X135341217Y-95071213D01*
X135341217Y-95071213D02*
X135150741Y-95118832D01*
X135150741Y-95118832D02*
X134912646Y-95118832D01*
X134912646Y-95118832D02*
X134722170Y-95071213D01*
X134722170Y-95071213D02*
X134626932Y-95023594D01*
X134626932Y-95023594D02*
X134579313Y-94975975D01*
X134579313Y-94975975D02*
X134531694Y-94880737D01*
X23121894Y-61606847D02*
X23240942Y-62106847D01*
X23240942Y-62106847D02*
X23336180Y-61749704D01*
X23336180Y-61749704D02*
X23431418Y-62106847D01*
X23431418Y-62106847D02*
X23550466Y-61606847D01*
X23740942Y-62106847D02*
X23740942Y-61606847D01*
X23740942Y-61606847D02*
X23931418Y-61606847D01*
X23931418Y-61606847D02*
X23979037Y-61630657D01*
X23979037Y-61630657D02*
X24002847Y-61654466D01*
X24002847Y-61654466D02*
X24026656Y-61702085D01*
X24026656Y-61702085D02*
X24026656Y-61773514D01*
X24026656Y-61773514D02*
X24002847Y-61821133D01*
X24002847Y-61821133D02*
X23979037Y-61844942D01*
X23979037Y-61844942D02*
X23931418Y-61868752D01*
X23931418Y-61868752D02*
X23740942Y-61868752D01*
X24455228Y-61606847D02*
X24359990Y-61606847D01*
X24359990Y-61606847D02*
X24312371Y-61630657D01*
X24312371Y-61630657D02*
X24288561Y-61654466D01*
X24288561Y-61654466D02*
X24240942Y-61725895D01*
X24240942Y-61725895D02*
X24217133Y-61821133D01*
X24217133Y-61821133D02*
X24217133Y-62011609D01*
X24217133Y-62011609D02*
X24240942Y-62059228D01*
X24240942Y-62059228D02*
X24264752Y-62083038D01*
X24264752Y-62083038D02*
X24312371Y-62106847D01*
X24312371Y-62106847D02*
X24407609Y-62106847D01*
X24407609Y-62106847D02*
X24455228Y-62083038D01*
X24455228Y-62083038D02*
X24479037Y-62059228D01*
X24479037Y-62059228D02*
X24502847Y-62011609D01*
X24502847Y-62011609D02*
X24502847Y-61892561D01*
X24502847Y-61892561D02*
X24479037Y-61844942D01*
X24479037Y-61844942D02*
X24455228Y-61821133D01*
X24455228Y-61821133D02*
X24407609Y-61797323D01*
X24407609Y-61797323D02*
X24312371Y-61797323D01*
X24312371Y-61797323D02*
X24264752Y-61821133D01*
X24264752Y-61821133D02*
X24240942Y-61844942D01*
X24240942Y-61844942D02*
X24217133Y-61892561D01*
X25121894Y-61606847D02*
X25240942Y-62106847D01*
X25240942Y-62106847D02*
X25336180Y-61749704D01*
X25336180Y-61749704D02*
X25431418Y-62106847D01*
X25431418Y-62106847D02*
X25550466Y-61606847D01*
X25740942Y-62106847D02*
X25740942Y-61606847D01*
X25740942Y-61606847D02*
X25931418Y-61606847D01*
X25931418Y-61606847D02*
X25979037Y-61630657D01*
X25979037Y-61630657D02*
X26002847Y-61654466D01*
X26002847Y-61654466D02*
X26026656Y-61702085D01*
X26026656Y-61702085D02*
X26026656Y-61773514D01*
X26026656Y-61773514D02*
X26002847Y-61821133D01*
X26002847Y-61821133D02*
X25979037Y-61844942D01*
X25979037Y-61844942D02*
X25931418Y-61868752D01*
X25931418Y-61868752D02*
X25740942Y-61868752D01*
X26312371Y-61821133D02*
X26264752Y-61797323D01*
X26264752Y-61797323D02*
X26240942Y-61773514D01*
X26240942Y-61773514D02*
X26217133Y-61725895D01*
X26217133Y-61725895D02*
X26217133Y-61702085D01*
X26217133Y-61702085D02*
X26240942Y-61654466D01*
X26240942Y-61654466D02*
X26264752Y-61630657D01*
X26264752Y-61630657D02*
X26312371Y-61606847D01*
X26312371Y-61606847D02*
X26407609Y-61606847D01*
X26407609Y-61606847D02*
X26455228Y-61630657D01*
X26455228Y-61630657D02*
X26479037Y-61654466D01*
X26479037Y-61654466D02*
X26502847Y-61702085D01*
X26502847Y-61702085D02*
X26502847Y-61725895D01*
X26502847Y-61725895D02*
X26479037Y-61773514D01*
X26479037Y-61773514D02*
X26455228Y-61797323D01*
X26455228Y-61797323D02*
X26407609Y-61821133D01*
X26407609Y-61821133D02*
X26312371Y-61821133D01*
X26312371Y-61821133D02*
X26264752Y-61844942D01*
X26264752Y-61844942D02*
X26240942Y-61868752D01*
X26240942Y-61868752D02*
X26217133Y-61916371D01*
X26217133Y-61916371D02*
X26217133Y-62011609D01*
X26217133Y-62011609D02*
X26240942Y-62059228D01*
X26240942Y-62059228D02*
X26264752Y-62083038D01*
X26264752Y-62083038D02*
X26312371Y-62106847D01*
X26312371Y-62106847D02*
X26407609Y-62106847D01*
X26407609Y-62106847D02*
X26455228Y-62083038D01*
X26455228Y-62083038D02*
X26479037Y-62059228D01*
X26479037Y-62059228D02*
X26502847Y-62011609D01*
X26502847Y-62011609D02*
X26502847Y-61916371D01*
X26502847Y-61916371D02*
X26479037Y-61868752D01*
X26479037Y-61868752D02*
X26455228Y-61844942D01*
X26455228Y-61844942D02*
X26407609Y-61821133D01*
D11*
X81592463Y-87680319D02*
X80592463Y-87680319D01*
X80592463Y-87680319D02*
X80592463Y-87442224D01*
X80592463Y-87442224D02*
X80640082Y-87299367D01*
X80640082Y-87299367D02*
X80735320Y-87204129D01*
X80735320Y-87204129D02*
X80830558Y-87156510D01*
X80830558Y-87156510D02*
X81021034Y-87108891D01*
X81021034Y-87108891D02*
X81163891Y-87108891D01*
X81163891Y-87108891D02*
X81354367Y-87156510D01*
X81354367Y-87156510D02*
X81449605Y-87204129D01*
X81449605Y-87204129D02*
X81544844Y-87299367D01*
X81544844Y-87299367D02*
X81592463Y-87442224D01*
X81592463Y-87442224D02*
X81592463Y-87680319D01*
X81592463Y-86632700D02*
X81592463Y-86442224D01*
X81592463Y-86442224D02*
X81544844Y-86346986D01*
X81544844Y-86346986D02*
X81497224Y-86299367D01*
X81497224Y-86299367D02*
X81354367Y-86204129D01*
X81354367Y-86204129D02*
X81163891Y-86156510D01*
X81163891Y-86156510D02*
X80782939Y-86156510D01*
X80782939Y-86156510D02*
X80687701Y-86204129D01*
X80687701Y-86204129D02*
X80640082Y-86251748D01*
X80640082Y-86251748D02*
X80592463Y-86346986D01*
X80592463Y-86346986D02*
X80592463Y-86537462D01*
X80592463Y-86537462D02*
X80640082Y-86632700D01*
X80640082Y-86632700D02*
X80687701Y-86680319D01*
X80687701Y-86680319D02*
X80782939Y-86727938D01*
X80782939Y-86727938D02*
X81021034Y-86727938D01*
X81021034Y-86727938D02*
X81116272Y-86680319D01*
X81116272Y-86680319D02*
X81163891Y-86632700D01*
X81163891Y-86632700D02*
X81211510Y-86537462D01*
X81211510Y-86537462D02*
X81211510Y-86346986D01*
X81211510Y-86346986D02*
X81163891Y-86251748D01*
X81163891Y-86251748D02*
X81116272Y-86204129D01*
X81116272Y-86204129D02*
X81021034Y-86156510D01*
X83492463Y-90806510D02*
X83492463Y-91377938D01*
X83492463Y-91092224D02*
X82492463Y-91092224D01*
X82492463Y-91092224D02*
X82635320Y-91187462D01*
X82635320Y-91187462D02*
X82730558Y-91282700D01*
X82730558Y-91282700D02*
X82778177Y-91377938D01*
X95265082Y-91703252D02*
X95303787Y-91741956D01*
X95303787Y-91741956D02*
X95342491Y-91858071D01*
X95342491Y-91858071D02*
X95342491Y-91935480D01*
X95342491Y-91935480D02*
X95303787Y-92051594D01*
X95303787Y-92051594D02*
X95226377Y-92129004D01*
X95226377Y-92129004D02*
X95148967Y-92167709D01*
X95148967Y-92167709D02*
X94994148Y-92206413D01*
X94994148Y-92206413D02*
X94878034Y-92206413D01*
X94878034Y-92206413D02*
X94723215Y-92167709D01*
X94723215Y-92167709D02*
X94645806Y-92129004D01*
X94645806Y-92129004D02*
X94568396Y-92051594D01*
X94568396Y-92051594D02*
X94529691Y-91935480D01*
X94529691Y-91935480D02*
X94529691Y-91858071D01*
X94529691Y-91858071D02*
X94568396Y-91741956D01*
X94568396Y-91741956D02*
X94607101Y-91703252D01*
X95342491Y-90929156D02*
X95342491Y-91393613D01*
X95342491Y-91161385D02*
X94529691Y-91161385D01*
X94529691Y-91161385D02*
X94645806Y-91238794D01*
X94645806Y-91238794D02*
X94723215Y-91316204D01*
X94723215Y-91316204D02*
X94761920Y-91393613D01*
X95342491Y-90155061D02*
X95342491Y-90619518D01*
X95342491Y-90387290D02*
X94529691Y-90387290D01*
X94529691Y-90387290D02*
X94645806Y-90464699D01*
X94645806Y-90464699D02*
X94723215Y-90542109D01*
X94723215Y-90542109D02*
X94761920Y-90619518D01*
X209159989Y-83035557D02*
X209159989Y-82035557D01*
X209159989Y-82035557D02*
X209398084Y-82035557D01*
X209398084Y-82035557D02*
X209540941Y-82083176D01*
X209540941Y-82083176D02*
X209636179Y-82178414D01*
X209636179Y-82178414D02*
X209683798Y-82273652D01*
X209683798Y-82273652D02*
X209731417Y-82464128D01*
X209731417Y-82464128D02*
X209731417Y-82606985D01*
X209731417Y-82606985D02*
X209683798Y-82797461D01*
X209683798Y-82797461D02*
X209636179Y-82892699D01*
X209636179Y-82892699D02*
X209540941Y-82987938D01*
X209540941Y-82987938D02*
X209398084Y-83035557D01*
X209398084Y-83035557D02*
X209159989Y-83035557D01*
X210112370Y-82130795D02*
X210159989Y-82083176D01*
X210159989Y-82083176D02*
X210255227Y-82035557D01*
X210255227Y-82035557D02*
X210493322Y-82035557D01*
X210493322Y-82035557D02*
X210588560Y-82083176D01*
X210588560Y-82083176D02*
X210636179Y-82130795D01*
X210636179Y-82130795D02*
X210683798Y-82226033D01*
X210683798Y-82226033D02*
X210683798Y-82321271D01*
X210683798Y-82321271D02*
X210636179Y-82464128D01*
X210636179Y-82464128D02*
X210064751Y-83035557D01*
X210064751Y-83035557D02*
X210683798Y-83035557D01*
X211255227Y-82464128D02*
X211159989Y-82416509D01*
X211159989Y-82416509D02*
X211112370Y-82368890D01*
X211112370Y-82368890D02*
X211064751Y-82273652D01*
X211064751Y-82273652D02*
X211064751Y-82226033D01*
X211064751Y-82226033D02*
X211112370Y-82130795D01*
X211112370Y-82130795D02*
X211159989Y-82083176D01*
X211159989Y-82083176D02*
X211255227Y-82035557D01*
X211255227Y-82035557D02*
X211445703Y-82035557D01*
X211445703Y-82035557D02*
X211540941Y-82083176D01*
X211540941Y-82083176D02*
X211588560Y-82130795D01*
X211588560Y-82130795D02*
X211636179Y-82226033D01*
X211636179Y-82226033D02*
X211636179Y-82273652D01*
X211636179Y-82273652D02*
X211588560Y-82368890D01*
X211588560Y-82368890D02*
X211540941Y-82416509D01*
X211540941Y-82416509D02*
X211445703Y-82464128D01*
X211445703Y-82464128D02*
X211255227Y-82464128D01*
X211255227Y-82464128D02*
X211159989Y-82511747D01*
X211159989Y-82511747D02*
X211112370Y-82559366D01*
X211112370Y-82559366D02*
X211064751Y-82654604D01*
X211064751Y-82654604D02*
X211064751Y-82845080D01*
X211064751Y-82845080D02*
X211112370Y-82940318D01*
X211112370Y-82940318D02*
X211159989Y-82987938D01*
X211159989Y-82987938D02*
X211255227Y-83035557D01*
X211255227Y-83035557D02*
X211445703Y-83035557D01*
X211445703Y-83035557D02*
X211540941Y-82987938D01*
X211540941Y-82987938D02*
X211588560Y-82940318D01*
X211588560Y-82940318D02*
X211636179Y-82845080D01*
X211636179Y-82845080D02*
X211636179Y-82654604D01*
X211636179Y-82654604D02*
X211588560Y-82559366D01*
X211588560Y-82559366D02*
X211540941Y-82511747D01*
X211540941Y-82511747D02*
X211445703Y-82464128D01*
X209365725Y-90806510D02*
X209365725Y-91377938D01*
X209365725Y-91092224D02*
X208365725Y-91092224D01*
X208365725Y-91092224D02*
X208508582Y-91187462D01*
X208508582Y-91187462D02*
X208603820Y-91282700D01*
X208603820Y-91282700D02*
X208651439Y-91377938D01*
X193931417Y-78140318D02*
X193883798Y-78187938D01*
X193883798Y-78187938D02*
X193740941Y-78235557D01*
X193740941Y-78235557D02*
X193645703Y-78235557D01*
X193645703Y-78235557D02*
X193502846Y-78187938D01*
X193502846Y-78187938D02*
X193407608Y-78092699D01*
X193407608Y-78092699D02*
X193359989Y-77997461D01*
X193359989Y-77997461D02*
X193312370Y-77806985D01*
X193312370Y-77806985D02*
X193312370Y-77664128D01*
X193312370Y-77664128D02*
X193359989Y-77473652D01*
X193359989Y-77473652D02*
X193407608Y-77378414D01*
X193407608Y-77378414D02*
X193502846Y-77283176D01*
X193502846Y-77283176D02*
X193645703Y-77235557D01*
X193645703Y-77235557D02*
X193740941Y-77235557D01*
X193740941Y-77235557D02*
X193883798Y-77283176D01*
X193883798Y-77283176D02*
X193931417Y-77330795D01*
X194883798Y-78235557D02*
X194312370Y-78235557D01*
X194598084Y-78235557D02*
X194598084Y-77235557D01*
X194598084Y-77235557D02*
X194502846Y-77378414D01*
X194502846Y-77378414D02*
X194407608Y-77473652D01*
X194407608Y-77473652D02*
X194312370Y-77521271D01*
X195740941Y-77235557D02*
X195550465Y-77235557D01*
X195550465Y-77235557D02*
X195455227Y-77283176D01*
X195455227Y-77283176D02*
X195407608Y-77330795D01*
X195407608Y-77330795D02*
X195312370Y-77473652D01*
X195312370Y-77473652D02*
X195264751Y-77664128D01*
X195264751Y-77664128D02*
X195264751Y-78045080D01*
X195264751Y-78045080D02*
X195312370Y-78140318D01*
X195312370Y-78140318D02*
X195359989Y-78187938D01*
X195359989Y-78187938D02*
X195455227Y-78235557D01*
X195455227Y-78235557D02*
X195645703Y-78235557D01*
X195645703Y-78235557D02*
X195740941Y-78187938D01*
X195740941Y-78187938D02*
X195788560Y-78140318D01*
X195788560Y-78140318D02*
X195836179Y-78045080D01*
X195836179Y-78045080D02*
X195836179Y-77806985D01*
X195836179Y-77806985D02*
X195788560Y-77711747D01*
X195788560Y-77711747D02*
X195740941Y-77664128D01*
X195740941Y-77664128D02*
X195645703Y-77616509D01*
X195645703Y-77616509D02*
X195455227Y-77616509D01*
X195455227Y-77616509D02*
X195359989Y-77664128D01*
X195359989Y-77664128D02*
X195312370Y-77711747D01*
X195312370Y-77711747D02*
X195264751Y-77806985D01*
X186236180Y-98635557D02*
X186236180Y-97635557D01*
X186236180Y-97635557D02*
X186474275Y-97635557D01*
X186474275Y-97635557D02*
X186617132Y-97683176D01*
X186617132Y-97683176D02*
X186712370Y-97778414D01*
X186712370Y-97778414D02*
X186759989Y-97873652D01*
X186759989Y-97873652D02*
X186807608Y-98064128D01*
X186807608Y-98064128D02*
X186807608Y-98206985D01*
X186807608Y-98206985D02*
X186759989Y-98397461D01*
X186759989Y-98397461D02*
X186712370Y-98492699D01*
X186712370Y-98492699D02*
X186617132Y-98587938D01*
X186617132Y-98587938D02*
X186474275Y-98635557D01*
X186474275Y-98635557D02*
X186236180Y-98635557D01*
X187664751Y-97968890D02*
X187664751Y-98635557D01*
X187426656Y-97587938D02*
X187188561Y-98302223D01*
X187188561Y-98302223D02*
X187807608Y-98302223D01*
D10*
X75840942Y-93190538D02*
X75983799Y-93238157D01*
X75983799Y-93238157D02*
X76221894Y-93238157D01*
X76221894Y-93238157D02*
X76317132Y-93190538D01*
X76317132Y-93190538D02*
X76364751Y-93142918D01*
X76364751Y-93142918D02*
X76412370Y-93047680D01*
X76412370Y-93047680D02*
X76412370Y-92952442D01*
X76412370Y-92952442D02*
X76364751Y-92857204D01*
X76364751Y-92857204D02*
X76317132Y-92809585D01*
X76317132Y-92809585D02*
X76221894Y-92761966D01*
X76221894Y-92761966D02*
X76031418Y-92714347D01*
X76031418Y-92714347D02*
X75936180Y-92666728D01*
X75936180Y-92666728D02*
X75888561Y-92619109D01*
X75888561Y-92619109D02*
X75840942Y-92523871D01*
X75840942Y-92523871D02*
X75840942Y-92428633D01*
X75840942Y-92428633D02*
X75888561Y-92333395D01*
X75888561Y-92333395D02*
X75936180Y-92285776D01*
X75936180Y-92285776D02*
X76031418Y-92238157D01*
X76031418Y-92238157D02*
X76269513Y-92238157D01*
X76269513Y-92238157D02*
X76412370Y-92285776D01*
X76745704Y-92238157D02*
X76983799Y-93238157D01*
X76983799Y-93238157D02*
X77174275Y-92523871D01*
X77174275Y-92523871D02*
X77364751Y-93238157D01*
X77364751Y-93238157D02*
X77602847Y-92238157D01*
X77888561Y-92238157D02*
X78507608Y-92238157D01*
X78507608Y-92238157D02*
X78174275Y-92619109D01*
X78174275Y-92619109D02*
X78317132Y-92619109D01*
X78317132Y-92619109D02*
X78412370Y-92666728D01*
X78412370Y-92666728D02*
X78459989Y-92714347D01*
X78459989Y-92714347D02*
X78507608Y-92809585D01*
X78507608Y-92809585D02*
X78507608Y-93047680D01*
X78507608Y-93047680D02*
X78459989Y-93142918D01*
X78459989Y-93142918D02*
X78412370Y-93190538D01*
X78412370Y-93190538D02*
X78317132Y-93238157D01*
X78317132Y-93238157D02*
X78031418Y-93238157D01*
X78031418Y-93238157D02*
X77936180Y-93190538D01*
X77936180Y-93190538D02*
X77888561Y-93142918D01*
X43640942Y-66590538D02*
X43783799Y-66638157D01*
X43783799Y-66638157D02*
X44021894Y-66638157D01*
X44021894Y-66638157D02*
X44117132Y-66590538D01*
X44117132Y-66590538D02*
X44164751Y-66542918D01*
X44164751Y-66542918D02*
X44212370Y-66447680D01*
X44212370Y-66447680D02*
X44212370Y-66352442D01*
X44212370Y-66352442D02*
X44164751Y-66257204D01*
X44164751Y-66257204D02*
X44117132Y-66209585D01*
X44117132Y-66209585D02*
X44021894Y-66161966D01*
X44021894Y-66161966D02*
X43831418Y-66114347D01*
X43831418Y-66114347D02*
X43736180Y-66066728D01*
X43736180Y-66066728D02*
X43688561Y-66019109D01*
X43688561Y-66019109D02*
X43640942Y-65923871D01*
X43640942Y-65923871D02*
X43640942Y-65828633D01*
X43640942Y-65828633D02*
X43688561Y-65733395D01*
X43688561Y-65733395D02*
X43736180Y-65685776D01*
X43736180Y-65685776D02*
X43831418Y-65638157D01*
X43831418Y-65638157D02*
X44069513Y-65638157D01*
X44069513Y-65638157D02*
X44212370Y-65685776D01*
X44545704Y-65638157D02*
X44783799Y-66638157D01*
X44783799Y-66638157D02*
X44974275Y-65923871D01*
X44974275Y-65923871D02*
X45164751Y-66638157D01*
X45164751Y-66638157D02*
X45402847Y-65638157D01*
X46307608Y-66638157D02*
X45736180Y-66638157D01*
X46021894Y-66638157D02*
X46021894Y-65638157D01*
X46021894Y-65638157D02*
X45926656Y-65781014D01*
X45926656Y-65781014D02*
X45831418Y-65876252D01*
X45831418Y-65876252D02*
X45736180Y-65923871D01*
D11*
X21851760Y-69271545D02*
X21813056Y-69310250D01*
X21813056Y-69310250D02*
X21696941Y-69348954D01*
X21696941Y-69348954D02*
X21619532Y-69348954D01*
X21619532Y-69348954D02*
X21503418Y-69310250D01*
X21503418Y-69310250D02*
X21426008Y-69232840D01*
X21426008Y-69232840D02*
X21387303Y-69155430D01*
X21387303Y-69155430D02*
X21348599Y-69000611D01*
X21348599Y-69000611D02*
X21348599Y-68884497D01*
X21348599Y-68884497D02*
X21387303Y-68729678D01*
X21387303Y-68729678D02*
X21426008Y-68652269D01*
X21426008Y-68652269D02*
X21503418Y-68574859D01*
X21503418Y-68574859D02*
X21619532Y-68536154D01*
X21619532Y-68536154D02*
X21696941Y-68536154D01*
X21696941Y-68536154D02*
X21813056Y-68574859D01*
X21813056Y-68574859D02*
X21851760Y-68613564D01*
X22161399Y-68613564D02*
X22200103Y-68574859D01*
X22200103Y-68574859D02*
X22277513Y-68536154D01*
X22277513Y-68536154D02*
X22471037Y-68536154D01*
X22471037Y-68536154D02*
X22548446Y-68574859D01*
X22548446Y-68574859D02*
X22587151Y-68613564D01*
X22587151Y-68613564D02*
X22625856Y-68690973D01*
X22625856Y-68690973D02*
X22625856Y-68768383D01*
X22625856Y-68768383D02*
X22587151Y-68884497D01*
X22587151Y-68884497D02*
X22122694Y-69348954D01*
X22122694Y-69348954D02*
X22625856Y-69348954D01*
X22935494Y-68613564D02*
X22974198Y-68574859D01*
X22974198Y-68574859D02*
X23051608Y-68536154D01*
X23051608Y-68536154D02*
X23245132Y-68536154D01*
X23245132Y-68536154D02*
X23322541Y-68574859D01*
X23322541Y-68574859D02*
X23361246Y-68613564D01*
X23361246Y-68613564D02*
X23399951Y-68690973D01*
X23399951Y-68690973D02*
X23399951Y-68768383D01*
X23399951Y-68768383D02*
X23361246Y-68884497D01*
X23361246Y-68884497D02*
X22896789Y-69348954D01*
X22896789Y-69348954D02*
X23399951Y-69348954D01*
X110966060Y-82606224D02*
X110935822Y-82636463D01*
X110935822Y-82636463D02*
X110845108Y-82666701D01*
X110845108Y-82666701D02*
X110784632Y-82666701D01*
X110784632Y-82666701D02*
X110693917Y-82636463D01*
X110693917Y-82636463D02*
X110633441Y-82575986D01*
X110633441Y-82575986D02*
X110603203Y-82515510D01*
X110603203Y-82515510D02*
X110572965Y-82394558D01*
X110572965Y-82394558D02*
X110572965Y-82303843D01*
X110572965Y-82303843D02*
X110603203Y-82182891D01*
X110603203Y-82182891D02*
X110633441Y-82122415D01*
X110633441Y-82122415D02*
X110693917Y-82061939D01*
X110693917Y-82061939D02*
X110784632Y-82031701D01*
X110784632Y-82031701D02*
X110845108Y-82031701D01*
X110845108Y-82031701D02*
X110935822Y-82061939D01*
X110935822Y-82061939D02*
X110966060Y-82092177D01*
X111570822Y-82666701D02*
X111207965Y-82666701D01*
X111389393Y-82666701D02*
X111389393Y-82031701D01*
X111389393Y-82031701D02*
X111328917Y-82122415D01*
X111328917Y-82122415D02*
X111268441Y-82182891D01*
X111268441Y-82182891D02*
X111207965Y-82213129D01*
X111782489Y-82031701D02*
X112175584Y-82031701D01*
X112175584Y-82031701D02*
X111963917Y-82273605D01*
X111963917Y-82273605D02*
X112054632Y-82273605D01*
X112054632Y-82273605D02*
X112115108Y-82303843D01*
X112115108Y-82303843D02*
X112145346Y-82334082D01*
X112145346Y-82334082D02*
X112175584Y-82394558D01*
X112175584Y-82394558D02*
X112175584Y-82545748D01*
X112175584Y-82545748D02*
X112145346Y-82606224D01*
X112145346Y-82606224D02*
X112115108Y-82636463D01*
X112115108Y-82636463D02*
X112054632Y-82666701D01*
X112054632Y-82666701D02*
X111873203Y-82666701D01*
X111873203Y-82666701D02*
X111812727Y-82636463D01*
X111812727Y-82636463D02*
X111782489Y-82606224D01*
D10*
X130531694Y-98261689D02*
X131531694Y-98023594D01*
X131531694Y-98023594D02*
X130817408Y-97833118D01*
X130817408Y-97833118D02*
X131531694Y-97642642D01*
X131531694Y-97642642D02*
X130531694Y-97404547D01*
X131531694Y-97023594D02*
X130531694Y-97023594D01*
X130531694Y-97023594D02*
X130531694Y-96642642D01*
X130531694Y-96642642D02*
X130579313Y-96547404D01*
X130579313Y-96547404D02*
X130626932Y-96499785D01*
X130626932Y-96499785D02*
X130722170Y-96452166D01*
X130722170Y-96452166D02*
X130865027Y-96452166D01*
X130865027Y-96452166D02*
X130960265Y-96499785D01*
X130960265Y-96499785D02*
X131007884Y-96547404D01*
X131007884Y-96547404D02*
X131055503Y-96642642D01*
X131055503Y-96642642D02*
X131055503Y-97023594D01*
X130626932Y-96071213D02*
X130579313Y-96023594D01*
X130579313Y-96023594D02*
X130531694Y-95928356D01*
X130531694Y-95928356D02*
X130531694Y-95690261D01*
X130531694Y-95690261D02*
X130579313Y-95595023D01*
X130579313Y-95595023D02*
X130626932Y-95547404D01*
X130626932Y-95547404D02*
X130722170Y-95499785D01*
X130722170Y-95499785D02*
X130817408Y-95499785D01*
X130817408Y-95499785D02*
X130960265Y-95547404D01*
X130960265Y-95547404D02*
X131531694Y-96118832D01*
X131531694Y-96118832D02*
X131531694Y-95499785D01*
X130626932Y-95118832D02*
X130579313Y-95071213D01*
X130579313Y-95071213D02*
X130531694Y-94975975D01*
X130531694Y-94975975D02*
X130531694Y-94737880D01*
X130531694Y-94737880D02*
X130579313Y-94642642D01*
X130579313Y-94642642D02*
X130626932Y-94595023D01*
X130626932Y-94595023D02*
X130722170Y-94547404D01*
X130722170Y-94547404D02*
X130817408Y-94547404D01*
X130817408Y-94547404D02*
X130960265Y-94595023D01*
X130960265Y-94595023D02*
X131531694Y-95166451D01*
X131531694Y-95166451D02*
X131531694Y-94547404D01*
D11*
X142541807Y-81963931D02*
X142541807Y-80963931D01*
X142541807Y-80963931D02*
X142779902Y-80963931D01*
X142779902Y-80963931D02*
X142922759Y-81011550D01*
X142922759Y-81011550D02*
X143017997Y-81106788D01*
X143017997Y-81106788D02*
X143065616Y-81202026D01*
X143065616Y-81202026D02*
X143113235Y-81392502D01*
X143113235Y-81392502D02*
X143113235Y-81535359D01*
X143113235Y-81535359D02*
X143065616Y-81725835D01*
X143065616Y-81725835D02*
X143017997Y-81821073D01*
X143017997Y-81821073D02*
X142922759Y-81916312D01*
X142922759Y-81916312D02*
X142779902Y-81963931D01*
X142779902Y-81963931D02*
X142541807Y-81963931D01*
X144065616Y-81963931D02*
X143494188Y-81963931D01*
X143779902Y-81963931D02*
X143779902Y-80963931D01*
X143779902Y-80963931D02*
X143684664Y-81106788D01*
X143684664Y-81106788D02*
X143589426Y-81202026D01*
X143589426Y-81202026D02*
X143494188Y-81249645D01*
X144637045Y-81392502D02*
X144541807Y-81344883D01*
X144541807Y-81344883D02*
X144494188Y-81297264D01*
X144494188Y-81297264D02*
X144446569Y-81202026D01*
X144446569Y-81202026D02*
X144446569Y-81154407D01*
X144446569Y-81154407D02*
X144494188Y-81059169D01*
X144494188Y-81059169D02*
X144541807Y-81011550D01*
X144541807Y-81011550D02*
X144637045Y-80963931D01*
X144637045Y-80963931D02*
X144827521Y-80963931D01*
X144827521Y-80963931D02*
X144922759Y-81011550D01*
X144922759Y-81011550D02*
X144970378Y-81059169D01*
X144970378Y-81059169D02*
X145017997Y-81154407D01*
X145017997Y-81154407D02*
X145017997Y-81202026D01*
X145017997Y-81202026D02*
X144970378Y-81297264D01*
X144970378Y-81297264D02*
X144922759Y-81344883D01*
X144922759Y-81344883D02*
X144827521Y-81392502D01*
X144827521Y-81392502D02*
X144637045Y-81392502D01*
X144637045Y-81392502D02*
X144541807Y-81440121D01*
X144541807Y-81440121D02*
X144494188Y-81487740D01*
X144494188Y-81487740D02*
X144446569Y-81582978D01*
X144446569Y-81582978D02*
X144446569Y-81773454D01*
X144446569Y-81773454D02*
X144494188Y-81868692D01*
X144494188Y-81868692D02*
X144541807Y-81916312D01*
X144541807Y-81916312D02*
X144637045Y-81963931D01*
X144637045Y-81963931D02*
X144827521Y-81963931D01*
X144827521Y-81963931D02*
X144922759Y-81916312D01*
X144922759Y-81916312D02*
X144970378Y-81868692D01*
X144970378Y-81868692D02*
X145017997Y-81773454D01*
X145017997Y-81773454D02*
X145017997Y-81582978D01*
X145017997Y-81582978D02*
X144970378Y-81487740D01*
X144970378Y-81487740D02*
X144922759Y-81440121D01*
X144922759Y-81440121D02*
X144827521Y-81392502D01*
X148191807Y-80063931D02*
X147620379Y-80063931D01*
X147906093Y-80063931D02*
X147906093Y-79063931D01*
X147906093Y-79063931D02*
X147810855Y-79206788D01*
X147810855Y-79206788D02*
X147715617Y-79302026D01*
X147715617Y-79302026D02*
X147620379Y-79349645D01*
D10*
X21121894Y-61606847D02*
X21240942Y-62106847D01*
X21240942Y-62106847D02*
X21336180Y-61749704D01*
X21336180Y-61749704D02*
X21431418Y-62106847D01*
X21431418Y-62106847D02*
X21550466Y-61606847D01*
X21740942Y-62106847D02*
X21740942Y-61606847D01*
X21740942Y-61606847D02*
X21931418Y-61606847D01*
X21931418Y-61606847D02*
X21979037Y-61630657D01*
X21979037Y-61630657D02*
X22002847Y-61654466D01*
X22002847Y-61654466D02*
X22026656Y-61702085D01*
X22026656Y-61702085D02*
X22026656Y-61773514D01*
X22026656Y-61773514D02*
X22002847Y-61821133D01*
X22002847Y-61821133D02*
X21979037Y-61844942D01*
X21979037Y-61844942D02*
X21931418Y-61868752D01*
X21931418Y-61868752D02*
X21740942Y-61868752D01*
X22193323Y-61606847D02*
X22526656Y-61606847D01*
X22526656Y-61606847D02*
X22312371Y-62106847D01*
X144531694Y-98261689D02*
X145531694Y-98023594D01*
X145531694Y-98023594D02*
X144817408Y-97833118D01*
X144817408Y-97833118D02*
X145531694Y-97642642D01*
X145531694Y-97642642D02*
X144531694Y-97404547D01*
X145531694Y-97023594D02*
X144531694Y-97023594D01*
X144531694Y-97023594D02*
X144531694Y-96642642D01*
X144531694Y-96642642D02*
X144579313Y-96547404D01*
X144579313Y-96547404D02*
X144626932Y-96499785D01*
X144626932Y-96499785D02*
X144722170Y-96452166D01*
X144722170Y-96452166D02*
X144865027Y-96452166D01*
X144865027Y-96452166D02*
X144960265Y-96499785D01*
X144960265Y-96499785D02*
X145007884Y-96547404D01*
X145007884Y-96547404D02*
X145055503Y-96642642D01*
X145055503Y-96642642D02*
X145055503Y-97023594D01*
X145531694Y-95499785D02*
X145531694Y-96071213D01*
X145531694Y-95785499D02*
X144531694Y-95785499D01*
X144531694Y-95785499D02*
X144674551Y-95880737D01*
X144674551Y-95880737D02*
X144769789Y-95975975D01*
X144769789Y-95975975D02*
X144817408Y-96071213D01*
X144531694Y-94595023D02*
X144531694Y-95071213D01*
X144531694Y-95071213D02*
X145007884Y-95118832D01*
X145007884Y-95118832D02*
X144960265Y-95071213D01*
X144960265Y-95071213D02*
X144912646Y-94975975D01*
X144912646Y-94975975D02*
X144912646Y-94737880D01*
X144912646Y-94737880D02*
X144960265Y-94642642D01*
X144960265Y-94642642D02*
X145007884Y-94595023D01*
X145007884Y-94595023D02*
X145103122Y-94547404D01*
X145103122Y-94547404D02*
X145341217Y-94547404D01*
X145341217Y-94547404D02*
X145436455Y-94595023D01*
X145436455Y-94595023D02*
X145484075Y-94642642D01*
X145484075Y-94642642D02*
X145531694Y-94737880D01*
X145531694Y-94737880D02*
X145531694Y-94975975D01*
X145531694Y-94975975D02*
X145484075Y-95071213D01*
X145484075Y-95071213D02*
X145436455Y-95118832D01*
D11*
X146948441Y-82606224D02*
X146918203Y-82636463D01*
X146918203Y-82636463D02*
X146827489Y-82666701D01*
X146827489Y-82666701D02*
X146767013Y-82666701D01*
X146767013Y-82666701D02*
X146676298Y-82636463D01*
X146676298Y-82636463D02*
X146615822Y-82575986D01*
X146615822Y-82575986D02*
X146585584Y-82515510D01*
X146585584Y-82515510D02*
X146555346Y-82394558D01*
X146555346Y-82394558D02*
X146555346Y-82303843D01*
X146555346Y-82303843D02*
X146585584Y-82182891D01*
X146585584Y-82182891D02*
X146615822Y-82122415D01*
X146615822Y-82122415D02*
X146676298Y-82061939D01*
X146676298Y-82061939D02*
X146767013Y-82031701D01*
X146767013Y-82031701D02*
X146827489Y-82031701D01*
X146827489Y-82031701D02*
X146918203Y-82061939D01*
X146918203Y-82061939D02*
X146948441Y-82092177D01*
X147492727Y-82243367D02*
X147492727Y-82666701D01*
X147341536Y-82001463D02*
X147190346Y-82455034D01*
X147190346Y-82455034D02*
X147583441Y-82455034D01*
D10*
X61040942Y-71190538D02*
X61183799Y-71238157D01*
X61183799Y-71238157D02*
X61421894Y-71238157D01*
X61421894Y-71238157D02*
X61517132Y-71190538D01*
X61517132Y-71190538D02*
X61564751Y-71142918D01*
X61564751Y-71142918D02*
X61612370Y-71047680D01*
X61612370Y-71047680D02*
X61612370Y-70952442D01*
X61612370Y-70952442D02*
X61564751Y-70857204D01*
X61564751Y-70857204D02*
X61517132Y-70809585D01*
X61517132Y-70809585D02*
X61421894Y-70761966D01*
X61421894Y-70761966D02*
X61231418Y-70714347D01*
X61231418Y-70714347D02*
X61136180Y-70666728D01*
X61136180Y-70666728D02*
X61088561Y-70619109D01*
X61088561Y-70619109D02*
X61040942Y-70523871D01*
X61040942Y-70523871D02*
X61040942Y-70428633D01*
X61040942Y-70428633D02*
X61088561Y-70333395D01*
X61088561Y-70333395D02*
X61136180Y-70285776D01*
X61136180Y-70285776D02*
X61231418Y-70238157D01*
X61231418Y-70238157D02*
X61469513Y-70238157D01*
X61469513Y-70238157D02*
X61612370Y-70285776D01*
X61945704Y-70238157D02*
X62183799Y-71238157D01*
X62183799Y-71238157D02*
X62374275Y-70523871D01*
X62374275Y-70523871D02*
X62564751Y-71238157D01*
X62564751Y-71238157D02*
X62802847Y-70238157D01*
X63136180Y-70333395D02*
X63183799Y-70285776D01*
X63183799Y-70285776D02*
X63279037Y-70238157D01*
X63279037Y-70238157D02*
X63517132Y-70238157D01*
X63517132Y-70238157D02*
X63612370Y-70285776D01*
X63612370Y-70285776D02*
X63659989Y-70333395D01*
X63659989Y-70333395D02*
X63707608Y-70428633D01*
X63707608Y-70428633D02*
X63707608Y-70523871D01*
X63707608Y-70523871D02*
X63659989Y-70666728D01*
X63659989Y-70666728D02*
X63088561Y-71238157D01*
X63088561Y-71238157D02*
X63707608Y-71238157D01*
D11*
X107286180Y-98635557D02*
X107286180Y-97635557D01*
X107286180Y-97635557D02*
X107524275Y-97635557D01*
X107524275Y-97635557D02*
X107667132Y-97683176D01*
X107667132Y-97683176D02*
X107762370Y-97778414D01*
X107762370Y-97778414D02*
X107809989Y-97873652D01*
X107809989Y-97873652D02*
X107857608Y-98064128D01*
X107857608Y-98064128D02*
X107857608Y-98206985D01*
X107857608Y-98206985D02*
X107809989Y-98397461D01*
X107809989Y-98397461D02*
X107762370Y-98492699D01*
X107762370Y-98492699D02*
X107667132Y-98587938D01*
X107667132Y-98587938D02*
X107524275Y-98635557D01*
X107524275Y-98635557D02*
X107286180Y-98635557D01*
X108190942Y-97635557D02*
X108809989Y-97635557D01*
X108809989Y-97635557D02*
X108476656Y-98016509D01*
X108476656Y-98016509D02*
X108619513Y-98016509D01*
X108619513Y-98016509D02*
X108714751Y-98064128D01*
X108714751Y-98064128D02*
X108762370Y-98111747D01*
X108762370Y-98111747D02*
X108809989Y-98206985D01*
X108809989Y-98206985D02*
X108809989Y-98445080D01*
X108809989Y-98445080D02*
X108762370Y-98540318D01*
X108762370Y-98540318D02*
X108714751Y-98587938D01*
X108714751Y-98587938D02*
X108619513Y-98635557D01*
X108619513Y-98635557D02*
X108333799Y-98635557D01*
X108333799Y-98635557D02*
X108238561Y-98587938D01*
X108238561Y-98587938D02*
X108190942Y-98540318D01*
X186236180Y-93835557D02*
X186236180Y-92835557D01*
X186236180Y-92835557D02*
X186474275Y-92835557D01*
X186474275Y-92835557D02*
X186617132Y-92883176D01*
X186617132Y-92883176D02*
X186712370Y-92978414D01*
X186712370Y-92978414D02*
X186759989Y-93073652D01*
X186759989Y-93073652D02*
X186807608Y-93264128D01*
X186807608Y-93264128D02*
X186807608Y-93406985D01*
X186807608Y-93406985D02*
X186759989Y-93597461D01*
X186759989Y-93597461D02*
X186712370Y-93692699D01*
X186712370Y-93692699D02*
X186617132Y-93787938D01*
X186617132Y-93787938D02*
X186474275Y-93835557D01*
X186474275Y-93835557D02*
X186236180Y-93835557D01*
X187712370Y-92835557D02*
X187236180Y-92835557D01*
X187236180Y-92835557D02*
X187188561Y-93311747D01*
X187188561Y-93311747D02*
X187236180Y-93264128D01*
X187236180Y-93264128D02*
X187331418Y-93216509D01*
X187331418Y-93216509D02*
X187569513Y-93216509D01*
X187569513Y-93216509D02*
X187664751Y-93264128D01*
X187664751Y-93264128D02*
X187712370Y-93311747D01*
X187712370Y-93311747D02*
X187759989Y-93406985D01*
X187759989Y-93406985D02*
X187759989Y-93645080D01*
X187759989Y-93645080D02*
X187712370Y-93740318D01*
X187712370Y-93740318D02*
X187664751Y-93787938D01*
X187664751Y-93787938D02*
X187569513Y-93835557D01*
X187569513Y-93835557D02*
X187331418Y-93835557D01*
X187331418Y-93835557D02*
X187236180Y-93787938D01*
X187236180Y-93787938D02*
X187188561Y-93740318D01*
X272342491Y-65916204D02*
X271955444Y-66187137D01*
X272342491Y-66380661D02*
X271529691Y-66380661D01*
X271529691Y-66380661D02*
X271529691Y-66071023D01*
X271529691Y-66071023D02*
X271568396Y-65993613D01*
X271568396Y-65993613D02*
X271607101Y-65954908D01*
X271607101Y-65954908D02*
X271684510Y-65916204D01*
X271684510Y-65916204D02*
X271800625Y-65916204D01*
X271800625Y-65916204D02*
X271878034Y-65954908D01*
X271878034Y-65954908D02*
X271916739Y-65993613D01*
X271916739Y-65993613D02*
X271955444Y-66071023D01*
X271955444Y-66071023D02*
X271955444Y-66380661D01*
X271607101Y-65606565D02*
X271568396Y-65567861D01*
X271568396Y-65567861D02*
X271529691Y-65490451D01*
X271529691Y-65490451D02*
X271529691Y-65296927D01*
X271529691Y-65296927D02*
X271568396Y-65219518D01*
X271568396Y-65219518D02*
X271607101Y-65180813D01*
X271607101Y-65180813D02*
X271684510Y-65142108D01*
X271684510Y-65142108D02*
X271761920Y-65142108D01*
X271761920Y-65142108D02*
X271878034Y-65180813D01*
X271878034Y-65180813D02*
X272342491Y-65645270D01*
X272342491Y-65645270D02*
X272342491Y-65142108D01*
X199933855Y-97623595D02*
X199981475Y-97671214D01*
X199981475Y-97671214D02*
X200029094Y-97814071D01*
X200029094Y-97814071D02*
X200029094Y-97909309D01*
X200029094Y-97909309D02*
X199981475Y-98052166D01*
X199981475Y-98052166D02*
X199886236Y-98147404D01*
X199886236Y-98147404D02*
X199790998Y-98195023D01*
X199790998Y-98195023D02*
X199600522Y-98242642D01*
X199600522Y-98242642D02*
X199457665Y-98242642D01*
X199457665Y-98242642D02*
X199267189Y-98195023D01*
X199267189Y-98195023D02*
X199171951Y-98147404D01*
X199171951Y-98147404D02*
X199076713Y-98052166D01*
X199076713Y-98052166D02*
X199029094Y-97909309D01*
X199029094Y-97909309D02*
X199029094Y-97814071D01*
X199029094Y-97814071D02*
X199076713Y-97671214D01*
X199076713Y-97671214D02*
X199124332Y-97623595D01*
X199124332Y-97242642D02*
X199076713Y-97195023D01*
X199076713Y-97195023D02*
X199029094Y-97099785D01*
X199029094Y-97099785D02*
X199029094Y-96861690D01*
X199029094Y-96861690D02*
X199076713Y-96766452D01*
X199076713Y-96766452D02*
X199124332Y-96718833D01*
X199124332Y-96718833D02*
X199219570Y-96671214D01*
X199219570Y-96671214D02*
X199314808Y-96671214D01*
X199314808Y-96671214D02*
X199457665Y-96718833D01*
X199457665Y-96718833D02*
X200029094Y-97290261D01*
X200029094Y-97290261D02*
X200029094Y-96671214D01*
X199029094Y-95766452D02*
X199029094Y-96242642D01*
X199029094Y-96242642D02*
X199505284Y-96290261D01*
X199505284Y-96290261D02*
X199457665Y-96242642D01*
X199457665Y-96242642D02*
X199410046Y-96147404D01*
X199410046Y-96147404D02*
X199410046Y-95909309D01*
X199410046Y-95909309D02*
X199457665Y-95814071D01*
X199457665Y-95814071D02*
X199505284Y-95766452D01*
X199505284Y-95766452D02*
X199600522Y-95718833D01*
X199600522Y-95718833D02*
X199838617Y-95718833D01*
X199838617Y-95718833D02*
X199933855Y-95766452D01*
X199933855Y-95766452D02*
X199981475Y-95814071D01*
X199981475Y-95814071D02*
X200029094Y-95909309D01*
X200029094Y-95909309D02*
X200029094Y-96147404D01*
X200029094Y-96147404D02*
X199981475Y-96242642D01*
X199981475Y-96242642D02*
X199933855Y-96290261D01*
X131366060Y-82606224D02*
X131335822Y-82636463D01*
X131335822Y-82636463D02*
X131245108Y-82666701D01*
X131245108Y-82666701D02*
X131184632Y-82666701D01*
X131184632Y-82666701D02*
X131093917Y-82636463D01*
X131093917Y-82636463D02*
X131033441Y-82575986D01*
X131033441Y-82575986D02*
X131003203Y-82515510D01*
X131003203Y-82515510D02*
X130972965Y-82394558D01*
X130972965Y-82394558D02*
X130972965Y-82303843D01*
X130972965Y-82303843D02*
X131003203Y-82182891D01*
X131003203Y-82182891D02*
X131033441Y-82122415D01*
X131033441Y-82122415D02*
X131093917Y-82061939D01*
X131093917Y-82061939D02*
X131184632Y-82031701D01*
X131184632Y-82031701D02*
X131245108Y-82031701D01*
X131245108Y-82031701D02*
X131335822Y-82061939D01*
X131335822Y-82061939D02*
X131366060Y-82092177D01*
X131970822Y-82666701D02*
X131607965Y-82666701D01*
X131789393Y-82666701D02*
X131789393Y-82031701D01*
X131789393Y-82031701D02*
X131728917Y-82122415D01*
X131728917Y-82122415D02*
X131668441Y-82182891D01*
X131668441Y-82182891D02*
X131607965Y-82213129D01*
X132273203Y-82666701D02*
X132394155Y-82666701D01*
X132394155Y-82666701D02*
X132454632Y-82636463D01*
X132454632Y-82636463D02*
X132484870Y-82606224D01*
X132484870Y-82606224D02*
X132545346Y-82515510D01*
X132545346Y-82515510D02*
X132575584Y-82394558D01*
X132575584Y-82394558D02*
X132575584Y-82152653D01*
X132575584Y-82152653D02*
X132545346Y-82092177D01*
X132545346Y-82092177D02*
X132515108Y-82061939D01*
X132515108Y-82061939D02*
X132454632Y-82031701D01*
X132454632Y-82031701D02*
X132333679Y-82031701D01*
X132333679Y-82031701D02*
X132273203Y-82061939D01*
X132273203Y-82061939D02*
X132242965Y-82092177D01*
X132242965Y-82092177D02*
X132212727Y-82152653D01*
X132212727Y-82152653D02*
X132212727Y-82303843D01*
X132212727Y-82303843D02*
X132242965Y-82364320D01*
X132242965Y-82364320D02*
X132273203Y-82394558D01*
X132273203Y-82394558D02*
X132333679Y-82424796D01*
X132333679Y-82424796D02*
X132454632Y-82424796D01*
X132454632Y-82424796D02*
X132515108Y-82394558D01*
X132515108Y-82394558D02*
X132545346Y-82364320D01*
X132545346Y-82364320D02*
X132575584Y-82303843D01*
X24762491Y-66016204D02*
X24375444Y-66287137D01*
X24762491Y-66480661D02*
X23949691Y-66480661D01*
X23949691Y-66480661D02*
X23949691Y-66171023D01*
X23949691Y-66171023D02*
X23988396Y-66093613D01*
X23988396Y-66093613D02*
X24027101Y-66054908D01*
X24027101Y-66054908D02*
X24104510Y-66016204D01*
X24104510Y-66016204D02*
X24220625Y-66016204D01*
X24220625Y-66016204D02*
X24298034Y-66054908D01*
X24298034Y-66054908D02*
X24336739Y-66093613D01*
X24336739Y-66093613D02*
X24375444Y-66171023D01*
X24375444Y-66171023D02*
X24375444Y-66480661D01*
X23949691Y-65319518D02*
X23949691Y-65474337D01*
X23949691Y-65474337D02*
X23988396Y-65551746D01*
X23988396Y-65551746D02*
X24027101Y-65590451D01*
X24027101Y-65590451D02*
X24143215Y-65667861D01*
X24143215Y-65667861D02*
X24298034Y-65706565D01*
X24298034Y-65706565D02*
X24607672Y-65706565D01*
X24607672Y-65706565D02*
X24685082Y-65667861D01*
X24685082Y-65667861D02*
X24723787Y-65629156D01*
X24723787Y-65629156D02*
X24762491Y-65551746D01*
X24762491Y-65551746D02*
X24762491Y-65396927D01*
X24762491Y-65396927D02*
X24723787Y-65319518D01*
X24723787Y-65319518D02*
X24685082Y-65280813D01*
X24685082Y-65280813D02*
X24607672Y-65242108D01*
X24607672Y-65242108D02*
X24414148Y-65242108D01*
X24414148Y-65242108D02*
X24336739Y-65280813D01*
X24336739Y-65280813D02*
X24298034Y-65319518D01*
X24298034Y-65319518D02*
X24259329Y-65396927D01*
X24259329Y-65396927D02*
X24259329Y-65551746D01*
X24259329Y-65551746D02*
X24298034Y-65629156D01*
X24298034Y-65629156D02*
X24336739Y-65667861D01*
X24336739Y-65667861D02*
X24414148Y-65706565D01*
X239597127Y-73173391D02*
X238597127Y-73173391D01*
X238597127Y-73173391D02*
X238597127Y-72935296D01*
X238597127Y-72935296D02*
X238644746Y-72792439D01*
X238644746Y-72792439D02*
X238739984Y-72697201D01*
X238739984Y-72697201D02*
X238835222Y-72649582D01*
X238835222Y-72649582D02*
X239025698Y-72601963D01*
X239025698Y-72601963D02*
X239168555Y-72601963D01*
X239168555Y-72601963D02*
X239359031Y-72649582D01*
X239359031Y-72649582D02*
X239454269Y-72697201D01*
X239454269Y-72697201D02*
X239549508Y-72792439D01*
X239549508Y-72792439D02*
X239597127Y-72935296D01*
X239597127Y-72935296D02*
X239597127Y-73173391D01*
X238597127Y-72268629D02*
X238597127Y-71649582D01*
X238597127Y-71649582D02*
X238978079Y-71982915D01*
X238978079Y-71982915D02*
X238978079Y-71840058D01*
X238978079Y-71840058D02*
X239025698Y-71744820D01*
X239025698Y-71744820D02*
X239073317Y-71697201D01*
X239073317Y-71697201D02*
X239168555Y-71649582D01*
X239168555Y-71649582D02*
X239406650Y-71649582D01*
X239406650Y-71649582D02*
X239501888Y-71697201D01*
X239501888Y-71697201D02*
X239549508Y-71744820D01*
X239549508Y-71744820D02*
X239597127Y-71840058D01*
X239597127Y-71840058D02*
X239597127Y-72125772D01*
X239597127Y-72125772D02*
X239549508Y-72221010D01*
X239549508Y-72221010D02*
X239501888Y-72268629D01*
X238597127Y-71030534D02*
X238597127Y-70935296D01*
X238597127Y-70935296D02*
X238644746Y-70840058D01*
X238644746Y-70840058D02*
X238692365Y-70792439D01*
X238692365Y-70792439D02*
X238787603Y-70744820D01*
X238787603Y-70744820D02*
X238978079Y-70697201D01*
X238978079Y-70697201D02*
X239216174Y-70697201D01*
X239216174Y-70697201D02*
X239406650Y-70744820D01*
X239406650Y-70744820D02*
X239501888Y-70792439D01*
X239501888Y-70792439D02*
X239549508Y-70840058D01*
X239549508Y-70840058D02*
X239597127Y-70935296D01*
X239597127Y-70935296D02*
X239597127Y-71030534D01*
X239597127Y-71030534D02*
X239549508Y-71125772D01*
X239549508Y-71125772D02*
X239501888Y-71173391D01*
X239501888Y-71173391D02*
X239406650Y-71221010D01*
X239406650Y-71221010D02*
X239216174Y-71268629D01*
X239216174Y-71268629D02*
X238978079Y-71268629D01*
X238978079Y-71268629D02*
X238787603Y-71221010D01*
X238787603Y-71221010D02*
X238692365Y-71173391D01*
X238692365Y-71173391D02*
X238644746Y-71125772D01*
X238644746Y-71125772D02*
X238597127Y-71030534D01*
X241497127Y-75823391D02*
X241497127Y-76394819D01*
X241497127Y-76109105D02*
X240497127Y-76109105D01*
X240497127Y-76109105D02*
X240639984Y-76204343D01*
X240639984Y-76204343D02*
X240735222Y-76299581D01*
X240735222Y-76299581D02*
X240782841Y-76394819D01*
X115966060Y-82606224D02*
X115935822Y-82636463D01*
X115935822Y-82636463D02*
X115845108Y-82666701D01*
X115845108Y-82666701D02*
X115784632Y-82666701D01*
X115784632Y-82666701D02*
X115693917Y-82636463D01*
X115693917Y-82636463D02*
X115633441Y-82575986D01*
X115633441Y-82575986D02*
X115603203Y-82515510D01*
X115603203Y-82515510D02*
X115572965Y-82394558D01*
X115572965Y-82394558D02*
X115572965Y-82303843D01*
X115572965Y-82303843D02*
X115603203Y-82182891D01*
X115603203Y-82182891D02*
X115633441Y-82122415D01*
X115633441Y-82122415D02*
X115693917Y-82061939D01*
X115693917Y-82061939D02*
X115784632Y-82031701D01*
X115784632Y-82031701D02*
X115845108Y-82031701D01*
X115845108Y-82031701D02*
X115935822Y-82061939D01*
X115935822Y-82061939D02*
X115966060Y-82092177D01*
X116570822Y-82666701D02*
X116207965Y-82666701D01*
X116389393Y-82666701D02*
X116389393Y-82031701D01*
X116389393Y-82031701D02*
X116328917Y-82122415D01*
X116328917Y-82122415D02*
X116268441Y-82182891D01*
X116268441Y-82182891D02*
X116207965Y-82213129D01*
X117145346Y-82031701D02*
X116842965Y-82031701D01*
X116842965Y-82031701D02*
X116812727Y-82334082D01*
X116812727Y-82334082D02*
X116842965Y-82303843D01*
X116842965Y-82303843D02*
X116903441Y-82273605D01*
X116903441Y-82273605D02*
X117054632Y-82273605D01*
X117054632Y-82273605D02*
X117115108Y-82303843D01*
X117115108Y-82303843D02*
X117145346Y-82334082D01*
X117145346Y-82334082D02*
X117175584Y-82394558D01*
X117175584Y-82394558D02*
X117175584Y-82545748D01*
X117175584Y-82545748D02*
X117145346Y-82606224D01*
X117145346Y-82606224D02*
X117115108Y-82636463D01*
X117115108Y-82636463D02*
X117054632Y-82666701D01*
X117054632Y-82666701D02*
X116903441Y-82666701D01*
X116903441Y-82666701D02*
X116842965Y-82636463D01*
X116842965Y-82636463D02*
X116812727Y-82606224D01*
D10*
X155531694Y-98261689D02*
X156531694Y-98023594D01*
X156531694Y-98023594D02*
X155817408Y-97833118D01*
X155817408Y-97833118D02*
X156531694Y-97642642D01*
X156531694Y-97642642D02*
X155531694Y-97404547D01*
X156531694Y-97023594D02*
X155531694Y-97023594D01*
X155531694Y-97023594D02*
X155531694Y-96642642D01*
X155531694Y-96642642D02*
X155579313Y-96547404D01*
X155579313Y-96547404D02*
X155626932Y-96499785D01*
X155626932Y-96499785D02*
X155722170Y-96452166D01*
X155722170Y-96452166D02*
X155865027Y-96452166D01*
X155865027Y-96452166D02*
X155960265Y-96499785D01*
X155960265Y-96499785D02*
X156007884Y-96547404D01*
X156007884Y-96547404D02*
X156055503Y-96642642D01*
X156055503Y-96642642D02*
X156055503Y-97023594D01*
X156531694Y-95499785D02*
X156531694Y-96071213D01*
X156531694Y-95785499D02*
X155531694Y-95785499D01*
X155531694Y-95785499D02*
X155674551Y-95880737D01*
X155674551Y-95880737D02*
X155769789Y-95975975D01*
X155769789Y-95975975D02*
X155817408Y-96071213D01*
X156531694Y-94547404D02*
X156531694Y-95118832D01*
X156531694Y-94833118D02*
X155531694Y-94833118D01*
X155531694Y-94833118D02*
X155674551Y-94928356D01*
X155674551Y-94928356D02*
X155769789Y-95023594D01*
X155769789Y-95023594D02*
X155817408Y-95118832D01*
X136531694Y-98261689D02*
X137531694Y-98023594D01*
X137531694Y-98023594D02*
X136817408Y-97833118D01*
X136817408Y-97833118D02*
X137531694Y-97642642D01*
X137531694Y-97642642D02*
X136531694Y-97404547D01*
X137531694Y-97023594D02*
X136531694Y-97023594D01*
X136531694Y-97023594D02*
X136531694Y-96642642D01*
X136531694Y-96642642D02*
X136579313Y-96547404D01*
X136579313Y-96547404D02*
X136626932Y-96499785D01*
X136626932Y-96499785D02*
X136722170Y-96452166D01*
X136722170Y-96452166D02*
X136865027Y-96452166D01*
X136865027Y-96452166D02*
X136960265Y-96499785D01*
X136960265Y-96499785D02*
X137007884Y-96547404D01*
X137007884Y-96547404D02*
X137055503Y-96642642D01*
X137055503Y-96642642D02*
X137055503Y-97023594D01*
X137531694Y-95499785D02*
X137531694Y-96071213D01*
X137531694Y-95785499D02*
X136531694Y-95785499D01*
X136531694Y-95785499D02*
X136674551Y-95880737D01*
X136674551Y-95880737D02*
X136769789Y-95975975D01*
X136769789Y-95975975D02*
X136817408Y-96071213D01*
X137531694Y-95023594D02*
X137531694Y-94833118D01*
X137531694Y-94833118D02*
X137484075Y-94737880D01*
X137484075Y-94737880D02*
X137436455Y-94690261D01*
X137436455Y-94690261D02*
X137293598Y-94595023D01*
X137293598Y-94595023D02*
X137103122Y-94547404D01*
X137103122Y-94547404D02*
X136722170Y-94547404D01*
X136722170Y-94547404D02*
X136626932Y-94595023D01*
X136626932Y-94595023D02*
X136579313Y-94642642D01*
X136579313Y-94642642D02*
X136531694Y-94737880D01*
X136531694Y-94737880D02*
X136531694Y-94928356D01*
X136531694Y-94928356D02*
X136579313Y-95023594D01*
X136579313Y-95023594D02*
X136626932Y-95071213D01*
X136626932Y-95071213D02*
X136722170Y-95118832D01*
X136722170Y-95118832D02*
X136960265Y-95118832D01*
X136960265Y-95118832D02*
X137055503Y-95071213D01*
X137055503Y-95071213D02*
X137103122Y-95023594D01*
X137103122Y-95023594D02*
X137150741Y-94928356D01*
X137150741Y-94928356D02*
X137150741Y-94737880D01*
X137150741Y-94737880D02*
X137103122Y-94642642D01*
X137103122Y-94642642D02*
X137055503Y-94595023D01*
X137055503Y-94595023D02*
X136960265Y-94547404D01*
D11*
X276542491Y-66016204D02*
X276155444Y-66287137D01*
X276542491Y-66480661D02*
X275729691Y-66480661D01*
X275729691Y-66480661D02*
X275729691Y-66171023D01*
X275729691Y-66171023D02*
X275768396Y-66093613D01*
X275768396Y-66093613D02*
X275807101Y-66054908D01*
X275807101Y-66054908D02*
X275884510Y-66016204D01*
X275884510Y-66016204D02*
X276000625Y-66016204D01*
X276000625Y-66016204D02*
X276078034Y-66054908D01*
X276078034Y-66054908D02*
X276116739Y-66093613D01*
X276116739Y-66093613D02*
X276155444Y-66171023D01*
X276155444Y-66171023D02*
X276155444Y-66480661D01*
X275729691Y-65745270D02*
X275729691Y-65242108D01*
X275729691Y-65242108D02*
X276039329Y-65513042D01*
X276039329Y-65513042D02*
X276039329Y-65396927D01*
X276039329Y-65396927D02*
X276078034Y-65319518D01*
X276078034Y-65319518D02*
X276116739Y-65280813D01*
X276116739Y-65280813D02*
X276194148Y-65242108D01*
X276194148Y-65242108D02*
X276387672Y-65242108D01*
X276387672Y-65242108D02*
X276465082Y-65280813D01*
X276465082Y-65280813D02*
X276503787Y-65319518D01*
X276503787Y-65319518D02*
X276542491Y-65396927D01*
X276542491Y-65396927D02*
X276542491Y-65629156D01*
X276542491Y-65629156D02*
X276503787Y-65706565D01*
X276503787Y-65706565D02*
X276465082Y-65745270D01*
D10*
X163531694Y-98285499D02*
X164531694Y-98047404D01*
X164531694Y-98047404D02*
X163817408Y-97856928D01*
X163817408Y-97856928D02*
X164531694Y-97666452D01*
X164531694Y-97666452D02*
X163531694Y-97428357D01*
X164531694Y-97047404D02*
X163531694Y-97047404D01*
X163531694Y-97047404D02*
X163531694Y-96666452D01*
X163531694Y-96666452D02*
X163579313Y-96571214D01*
X163579313Y-96571214D02*
X163626932Y-96523595D01*
X163626932Y-96523595D02*
X163722170Y-96475976D01*
X163722170Y-96475976D02*
X163865027Y-96475976D01*
X163865027Y-96475976D02*
X163960265Y-96523595D01*
X163960265Y-96523595D02*
X164007884Y-96571214D01*
X164007884Y-96571214D02*
X164055503Y-96666452D01*
X164055503Y-96666452D02*
X164055503Y-97047404D01*
X163865027Y-95618833D02*
X164531694Y-95618833D01*
X163484075Y-95856928D02*
X164198360Y-96095023D01*
X164198360Y-96095023D02*
X164198360Y-95475976D01*
D11*
X242131417Y-77740318D02*
X242083798Y-77787938D01*
X242083798Y-77787938D02*
X241940941Y-77835557D01*
X241940941Y-77835557D02*
X241845703Y-77835557D01*
X241845703Y-77835557D02*
X241702846Y-77787938D01*
X241702846Y-77787938D02*
X241607608Y-77692699D01*
X241607608Y-77692699D02*
X241559989Y-77597461D01*
X241559989Y-77597461D02*
X241512370Y-77406985D01*
X241512370Y-77406985D02*
X241512370Y-77264128D01*
X241512370Y-77264128D02*
X241559989Y-77073652D01*
X241559989Y-77073652D02*
X241607608Y-76978414D01*
X241607608Y-76978414D02*
X241702846Y-76883176D01*
X241702846Y-76883176D02*
X241845703Y-76835557D01*
X241845703Y-76835557D02*
X241940941Y-76835557D01*
X241940941Y-76835557D02*
X242083798Y-76883176D01*
X242083798Y-76883176D02*
X242131417Y-76930795D01*
X242512370Y-76930795D02*
X242559989Y-76883176D01*
X242559989Y-76883176D02*
X242655227Y-76835557D01*
X242655227Y-76835557D02*
X242893322Y-76835557D01*
X242893322Y-76835557D02*
X242988560Y-76883176D01*
X242988560Y-76883176D02*
X243036179Y-76930795D01*
X243036179Y-76930795D02*
X243083798Y-77026033D01*
X243083798Y-77026033D02*
X243083798Y-77121271D01*
X243083798Y-77121271D02*
X243036179Y-77264128D01*
X243036179Y-77264128D02*
X242464751Y-77835557D01*
X242464751Y-77835557D02*
X243083798Y-77835557D01*
X243655227Y-77264128D02*
X243559989Y-77216509D01*
X243559989Y-77216509D02*
X243512370Y-77168890D01*
X243512370Y-77168890D02*
X243464751Y-77073652D01*
X243464751Y-77073652D02*
X243464751Y-77026033D01*
X243464751Y-77026033D02*
X243512370Y-76930795D01*
X243512370Y-76930795D02*
X243559989Y-76883176D01*
X243559989Y-76883176D02*
X243655227Y-76835557D01*
X243655227Y-76835557D02*
X243845703Y-76835557D01*
X243845703Y-76835557D02*
X243940941Y-76883176D01*
X243940941Y-76883176D02*
X243988560Y-76930795D01*
X243988560Y-76930795D02*
X244036179Y-77026033D01*
X244036179Y-77026033D02*
X244036179Y-77073652D01*
X244036179Y-77073652D02*
X243988560Y-77168890D01*
X243988560Y-77168890D02*
X243940941Y-77216509D01*
X243940941Y-77216509D02*
X243845703Y-77264128D01*
X243845703Y-77264128D02*
X243655227Y-77264128D01*
X243655227Y-77264128D02*
X243559989Y-77311747D01*
X243559989Y-77311747D02*
X243512370Y-77359366D01*
X243512370Y-77359366D02*
X243464751Y-77454604D01*
X243464751Y-77454604D02*
X243464751Y-77645080D01*
X243464751Y-77645080D02*
X243512370Y-77740318D01*
X243512370Y-77740318D02*
X243559989Y-77787938D01*
X243559989Y-77787938D02*
X243655227Y-77835557D01*
X243655227Y-77835557D02*
X243845703Y-77835557D01*
X243845703Y-77835557D02*
X243940941Y-77787938D01*
X243940941Y-77787938D02*
X243988560Y-77740318D01*
X243988560Y-77740318D02*
X244036179Y-77645080D01*
X244036179Y-77645080D02*
X244036179Y-77454604D01*
X244036179Y-77454604D02*
X243988560Y-77359366D01*
X243988560Y-77359366D02*
X243940941Y-77311747D01*
X243940941Y-77311747D02*
X243845703Y-77264128D01*
X200324871Y-86595023D02*
X199324871Y-86595023D01*
X199324871Y-86595023D02*
X199324871Y-86356928D01*
X199324871Y-86356928D02*
X199372490Y-86214071D01*
X199372490Y-86214071D02*
X199467728Y-86118833D01*
X199467728Y-86118833D02*
X199562966Y-86071214D01*
X199562966Y-86071214D02*
X199753442Y-86023595D01*
X199753442Y-86023595D02*
X199896299Y-86023595D01*
X199896299Y-86023595D02*
X200086775Y-86071214D01*
X200086775Y-86071214D02*
X200182013Y-86118833D01*
X200182013Y-86118833D02*
X200277252Y-86214071D01*
X200277252Y-86214071D02*
X200324871Y-86356928D01*
X200324871Y-86356928D02*
X200324871Y-86595023D01*
X199420109Y-85642642D02*
X199372490Y-85595023D01*
X199372490Y-85595023D02*
X199324871Y-85499785D01*
X199324871Y-85499785D02*
X199324871Y-85261690D01*
X199324871Y-85261690D02*
X199372490Y-85166452D01*
X199372490Y-85166452D02*
X199420109Y-85118833D01*
X199420109Y-85118833D02*
X199515347Y-85071214D01*
X199515347Y-85071214D02*
X199610585Y-85071214D01*
X199610585Y-85071214D02*
X199753442Y-85118833D01*
X199753442Y-85118833D02*
X200324871Y-85690261D01*
X200324871Y-85690261D02*
X200324871Y-85071214D01*
X199324871Y-84166452D02*
X199324871Y-84642642D01*
X199324871Y-84642642D02*
X199801061Y-84690261D01*
X199801061Y-84690261D02*
X199753442Y-84642642D01*
X199753442Y-84642642D02*
X199705823Y-84547404D01*
X199705823Y-84547404D02*
X199705823Y-84309309D01*
X199705823Y-84309309D02*
X199753442Y-84214071D01*
X199753442Y-84214071D02*
X199801061Y-84166452D01*
X199801061Y-84166452D02*
X199896299Y-84118833D01*
X199896299Y-84118833D02*
X200134394Y-84118833D01*
X200134394Y-84118833D02*
X200229632Y-84166452D01*
X200229632Y-84166452D02*
X200277252Y-84214071D01*
X200277252Y-84214071D02*
X200324871Y-84309309D01*
X200324871Y-84309309D02*
X200324871Y-84547404D01*
X200324871Y-84547404D02*
X200277252Y-84642642D01*
X200277252Y-84642642D02*
X200229632Y-84690261D01*
X200459989Y-89235557D02*
X199888561Y-89235557D01*
X200174275Y-89235557D02*
X200174275Y-88235557D01*
X200174275Y-88235557D02*
X200079037Y-88378414D01*
X200079037Y-88378414D02*
X199983799Y-88473652D01*
X199983799Y-88473652D02*
X199888561Y-88521271D01*
X272321760Y-69271545D02*
X272283056Y-69310250D01*
X272283056Y-69310250D02*
X272166941Y-69348954D01*
X272166941Y-69348954D02*
X272089532Y-69348954D01*
X272089532Y-69348954D02*
X271973418Y-69310250D01*
X271973418Y-69310250D02*
X271896008Y-69232840D01*
X271896008Y-69232840D02*
X271857303Y-69155430D01*
X271857303Y-69155430D02*
X271818599Y-69000611D01*
X271818599Y-69000611D02*
X271818599Y-68884497D01*
X271818599Y-68884497D02*
X271857303Y-68729678D01*
X271857303Y-68729678D02*
X271896008Y-68652269D01*
X271896008Y-68652269D02*
X271973418Y-68574859D01*
X271973418Y-68574859D02*
X272089532Y-68536154D01*
X272089532Y-68536154D02*
X272166941Y-68536154D01*
X272166941Y-68536154D02*
X272283056Y-68574859D01*
X272283056Y-68574859D02*
X272321760Y-68613564D01*
X273095856Y-69348954D02*
X272631399Y-69348954D01*
X272863627Y-69348954D02*
X272863627Y-68536154D01*
X272863627Y-68536154D02*
X272786218Y-68652269D01*
X272786218Y-68652269D02*
X272708808Y-68729678D01*
X272708808Y-68729678D02*
X272631399Y-68768383D01*
X273560313Y-68884497D02*
X273482903Y-68845792D01*
X273482903Y-68845792D02*
X273444198Y-68807088D01*
X273444198Y-68807088D02*
X273405494Y-68729678D01*
X273405494Y-68729678D02*
X273405494Y-68690973D01*
X273405494Y-68690973D02*
X273444198Y-68613564D01*
X273444198Y-68613564D02*
X273482903Y-68574859D01*
X273482903Y-68574859D02*
X273560313Y-68536154D01*
X273560313Y-68536154D02*
X273715132Y-68536154D01*
X273715132Y-68536154D02*
X273792541Y-68574859D01*
X273792541Y-68574859D02*
X273831246Y-68613564D01*
X273831246Y-68613564D02*
X273869951Y-68690973D01*
X273869951Y-68690973D02*
X273869951Y-68729678D01*
X273869951Y-68729678D02*
X273831246Y-68807088D01*
X273831246Y-68807088D02*
X273792541Y-68845792D01*
X273792541Y-68845792D02*
X273715132Y-68884497D01*
X273715132Y-68884497D02*
X273560313Y-68884497D01*
X273560313Y-68884497D02*
X273482903Y-68923202D01*
X273482903Y-68923202D02*
X273444198Y-68961907D01*
X273444198Y-68961907D02*
X273405494Y-69039316D01*
X273405494Y-69039316D02*
X273405494Y-69194135D01*
X273405494Y-69194135D02*
X273444198Y-69271545D01*
X273444198Y-69271545D02*
X273482903Y-69310250D01*
X273482903Y-69310250D02*
X273560313Y-69348954D01*
X273560313Y-69348954D02*
X273715132Y-69348954D01*
X273715132Y-69348954D02*
X273792541Y-69310250D01*
X273792541Y-69310250D02*
X273831246Y-69271545D01*
X273831246Y-69271545D02*
X273869951Y-69194135D01*
X273869951Y-69194135D02*
X273869951Y-69039316D01*
X273869951Y-69039316D02*
X273831246Y-68961907D01*
X273831246Y-68961907D02*
X273792541Y-68923202D01*
X273792541Y-68923202D02*
X273715132Y-68884497D01*
D10*
X151531694Y-98261689D02*
X152531694Y-98023594D01*
X152531694Y-98023594D02*
X151817408Y-97833118D01*
X151817408Y-97833118D02*
X152531694Y-97642642D01*
X152531694Y-97642642D02*
X151531694Y-97404547D01*
X152531694Y-97023594D02*
X151531694Y-97023594D01*
X151531694Y-97023594D02*
X151531694Y-96642642D01*
X151531694Y-96642642D02*
X151579313Y-96547404D01*
X151579313Y-96547404D02*
X151626932Y-96499785D01*
X151626932Y-96499785D02*
X151722170Y-96452166D01*
X151722170Y-96452166D02*
X151865027Y-96452166D01*
X151865027Y-96452166D02*
X151960265Y-96499785D01*
X151960265Y-96499785D02*
X152007884Y-96547404D01*
X152007884Y-96547404D02*
X152055503Y-96642642D01*
X152055503Y-96642642D02*
X152055503Y-97023594D01*
X152531694Y-95499785D02*
X152531694Y-96071213D01*
X152531694Y-95785499D02*
X151531694Y-95785499D01*
X151531694Y-95785499D02*
X151674551Y-95880737D01*
X151674551Y-95880737D02*
X151769789Y-95975975D01*
X151769789Y-95975975D02*
X151817408Y-96071213D01*
X151531694Y-95166451D02*
X151531694Y-94547404D01*
X151531694Y-94547404D02*
X151912646Y-94880737D01*
X151912646Y-94880737D02*
X151912646Y-94737880D01*
X151912646Y-94737880D02*
X151960265Y-94642642D01*
X151960265Y-94642642D02*
X152007884Y-94595023D01*
X152007884Y-94595023D02*
X152103122Y-94547404D01*
X152103122Y-94547404D02*
X152341217Y-94547404D01*
X152341217Y-94547404D02*
X152436455Y-94595023D01*
X152436455Y-94595023D02*
X152484075Y-94642642D01*
X152484075Y-94642642D02*
X152531694Y-94737880D01*
X152531694Y-94737880D02*
X152531694Y-95023594D01*
X152531694Y-95023594D02*
X152484075Y-95118832D01*
X152484075Y-95118832D02*
X152436455Y-95166451D01*
D11*
X162268441Y-82606224D02*
X162238203Y-82636463D01*
X162238203Y-82636463D02*
X162147489Y-82666701D01*
X162147489Y-82666701D02*
X162087013Y-82666701D01*
X162087013Y-82666701D02*
X161996298Y-82636463D01*
X161996298Y-82636463D02*
X161935822Y-82575986D01*
X161935822Y-82575986D02*
X161905584Y-82515510D01*
X161905584Y-82515510D02*
X161875346Y-82394558D01*
X161875346Y-82394558D02*
X161875346Y-82303843D01*
X161875346Y-82303843D02*
X161905584Y-82182891D01*
X161905584Y-82182891D02*
X161935822Y-82122415D01*
X161935822Y-82122415D02*
X161996298Y-82061939D01*
X161996298Y-82061939D02*
X162087013Y-82031701D01*
X162087013Y-82031701D02*
X162147489Y-82031701D01*
X162147489Y-82031701D02*
X162238203Y-82061939D01*
X162238203Y-82061939D02*
X162268441Y-82092177D01*
X162631298Y-82303843D02*
X162570822Y-82273605D01*
X162570822Y-82273605D02*
X162540584Y-82243367D01*
X162540584Y-82243367D02*
X162510346Y-82182891D01*
X162510346Y-82182891D02*
X162510346Y-82152653D01*
X162510346Y-82152653D02*
X162540584Y-82092177D01*
X162540584Y-82092177D02*
X162570822Y-82061939D01*
X162570822Y-82061939D02*
X162631298Y-82031701D01*
X162631298Y-82031701D02*
X162752251Y-82031701D01*
X162752251Y-82031701D02*
X162812727Y-82061939D01*
X162812727Y-82061939D02*
X162842965Y-82092177D01*
X162842965Y-82092177D02*
X162873203Y-82152653D01*
X162873203Y-82152653D02*
X162873203Y-82182891D01*
X162873203Y-82182891D02*
X162842965Y-82243367D01*
X162842965Y-82243367D02*
X162812727Y-82273605D01*
X162812727Y-82273605D02*
X162752251Y-82303843D01*
X162752251Y-82303843D02*
X162631298Y-82303843D01*
X162631298Y-82303843D02*
X162570822Y-82334082D01*
X162570822Y-82334082D02*
X162540584Y-82364320D01*
X162540584Y-82364320D02*
X162510346Y-82424796D01*
X162510346Y-82424796D02*
X162510346Y-82545748D01*
X162510346Y-82545748D02*
X162540584Y-82606224D01*
X162540584Y-82606224D02*
X162570822Y-82636463D01*
X162570822Y-82636463D02*
X162631298Y-82666701D01*
X162631298Y-82666701D02*
X162752251Y-82666701D01*
X162752251Y-82666701D02*
X162812727Y-82636463D01*
X162812727Y-82636463D02*
X162842965Y-82606224D01*
X162842965Y-82606224D02*
X162873203Y-82545748D01*
X162873203Y-82545748D02*
X162873203Y-82424796D01*
X162873203Y-82424796D02*
X162842965Y-82364320D01*
X162842965Y-82364320D02*
X162812727Y-82334082D01*
X162812727Y-82334082D02*
X162752251Y-82303843D01*
X107286180Y-96235557D02*
X107286180Y-95235557D01*
X107286180Y-95235557D02*
X107524275Y-95235557D01*
X107524275Y-95235557D02*
X107667132Y-95283176D01*
X107667132Y-95283176D02*
X107762370Y-95378414D01*
X107762370Y-95378414D02*
X107809989Y-95473652D01*
X107809989Y-95473652D02*
X107857608Y-95664128D01*
X107857608Y-95664128D02*
X107857608Y-95806985D01*
X107857608Y-95806985D02*
X107809989Y-95997461D01*
X107809989Y-95997461D02*
X107762370Y-96092699D01*
X107762370Y-96092699D02*
X107667132Y-96187938D01*
X107667132Y-96187938D02*
X107524275Y-96235557D01*
X107524275Y-96235557D02*
X107286180Y-96235557D01*
X108809989Y-96235557D02*
X108238561Y-96235557D01*
X108524275Y-96235557D02*
X108524275Y-95235557D01*
X108524275Y-95235557D02*
X108429037Y-95378414D01*
X108429037Y-95378414D02*
X108333799Y-95473652D01*
X108333799Y-95473652D02*
X108238561Y-95521271D01*
X173087262Y-81963931D02*
X173087262Y-80963931D01*
X173087262Y-80963931D02*
X173325357Y-80963931D01*
X173325357Y-80963931D02*
X173468214Y-81011550D01*
X173468214Y-81011550D02*
X173563452Y-81106788D01*
X173563452Y-81106788D02*
X173611071Y-81202026D01*
X173611071Y-81202026D02*
X173658690Y-81392502D01*
X173658690Y-81392502D02*
X173658690Y-81535359D01*
X173658690Y-81535359D02*
X173611071Y-81725835D01*
X173611071Y-81725835D02*
X173563452Y-81821073D01*
X173563452Y-81821073D02*
X173468214Y-81916312D01*
X173468214Y-81916312D02*
X173325357Y-81963931D01*
X173325357Y-81963931D02*
X173087262Y-81963931D01*
X174039643Y-81059169D02*
X174087262Y-81011550D01*
X174087262Y-81011550D02*
X174182500Y-80963931D01*
X174182500Y-80963931D02*
X174420595Y-80963931D01*
X174420595Y-80963931D02*
X174515833Y-81011550D01*
X174515833Y-81011550D02*
X174563452Y-81059169D01*
X174563452Y-81059169D02*
X174611071Y-81154407D01*
X174611071Y-81154407D02*
X174611071Y-81249645D01*
X174611071Y-81249645D02*
X174563452Y-81392502D01*
X174563452Y-81392502D02*
X173992024Y-81963931D01*
X173992024Y-81963931D02*
X174611071Y-81963931D01*
X174992024Y-81059169D02*
X175039643Y-81011550D01*
X175039643Y-81011550D02*
X175134881Y-80963931D01*
X175134881Y-80963931D02*
X175372976Y-80963931D01*
X175372976Y-80963931D02*
X175468214Y-81011550D01*
X175468214Y-81011550D02*
X175515833Y-81059169D01*
X175515833Y-81059169D02*
X175563452Y-81154407D01*
X175563452Y-81154407D02*
X175563452Y-81249645D01*
X175563452Y-81249645D02*
X175515833Y-81392502D01*
X175515833Y-81392502D02*
X174944405Y-81963931D01*
X174944405Y-81963931D02*
X175563452Y-81963931D01*
X178737262Y-80063931D02*
X178165834Y-80063931D01*
X178451548Y-80063931D02*
X178451548Y-79063931D01*
X178451548Y-79063931D02*
X178356310Y-79206788D01*
X178356310Y-79206788D02*
X178261072Y-79302026D01*
X178261072Y-79302026D02*
X178165834Y-79349645D01*
X150178171Y-81963931D02*
X150178171Y-80963931D01*
X150178171Y-80963931D02*
X150416266Y-80963931D01*
X150416266Y-80963931D02*
X150559123Y-81011550D01*
X150559123Y-81011550D02*
X150654361Y-81106788D01*
X150654361Y-81106788D02*
X150701980Y-81202026D01*
X150701980Y-81202026D02*
X150749599Y-81392502D01*
X150749599Y-81392502D02*
X150749599Y-81535359D01*
X150749599Y-81535359D02*
X150701980Y-81725835D01*
X150701980Y-81725835D02*
X150654361Y-81821073D01*
X150654361Y-81821073D02*
X150559123Y-81916312D01*
X150559123Y-81916312D02*
X150416266Y-81963931D01*
X150416266Y-81963931D02*
X150178171Y-81963931D01*
X151701980Y-81963931D02*
X151130552Y-81963931D01*
X151416266Y-81963931D02*
X151416266Y-80963931D01*
X151416266Y-80963931D02*
X151321028Y-81106788D01*
X151321028Y-81106788D02*
X151225790Y-81202026D01*
X151225790Y-81202026D02*
X151130552Y-81249645D01*
X152178171Y-81963931D02*
X152368647Y-81963931D01*
X152368647Y-81963931D02*
X152463885Y-81916312D01*
X152463885Y-81916312D02*
X152511504Y-81868692D01*
X152511504Y-81868692D02*
X152606742Y-81725835D01*
X152606742Y-81725835D02*
X152654361Y-81535359D01*
X152654361Y-81535359D02*
X152654361Y-81154407D01*
X152654361Y-81154407D02*
X152606742Y-81059169D01*
X152606742Y-81059169D02*
X152559123Y-81011550D01*
X152559123Y-81011550D02*
X152463885Y-80963931D01*
X152463885Y-80963931D02*
X152273409Y-80963931D01*
X152273409Y-80963931D02*
X152178171Y-81011550D01*
X152178171Y-81011550D02*
X152130552Y-81059169D01*
X152130552Y-81059169D02*
X152082933Y-81154407D01*
X152082933Y-81154407D02*
X152082933Y-81392502D01*
X152082933Y-81392502D02*
X152130552Y-81487740D01*
X152130552Y-81487740D02*
X152178171Y-81535359D01*
X152178171Y-81535359D02*
X152273409Y-81582978D01*
X152273409Y-81582978D02*
X152463885Y-81582978D01*
X152463885Y-81582978D02*
X152559123Y-81535359D01*
X152559123Y-81535359D02*
X152606742Y-81487740D01*
X152606742Y-81487740D02*
X152654361Y-81392502D01*
X155828171Y-80063931D02*
X155256743Y-80063931D01*
X155542457Y-80063931D02*
X155542457Y-79063931D01*
X155542457Y-79063931D02*
X155447219Y-79206788D01*
X155447219Y-79206788D02*
X155351981Y-79302026D01*
X155351981Y-79302026D02*
X155256743Y-79349645D01*
D10*
X159531694Y-98285499D02*
X160531694Y-98047404D01*
X160531694Y-98047404D02*
X159817408Y-97856928D01*
X159817408Y-97856928D02*
X160531694Y-97666452D01*
X160531694Y-97666452D02*
X159531694Y-97428357D01*
X160531694Y-97047404D02*
X159531694Y-97047404D01*
X159531694Y-97047404D02*
X159531694Y-96666452D01*
X159531694Y-96666452D02*
X159579313Y-96571214D01*
X159579313Y-96571214D02*
X159626932Y-96523595D01*
X159626932Y-96523595D02*
X159722170Y-96475976D01*
X159722170Y-96475976D02*
X159865027Y-96475976D01*
X159865027Y-96475976D02*
X159960265Y-96523595D01*
X159960265Y-96523595D02*
X160007884Y-96571214D01*
X160007884Y-96571214D02*
X160055503Y-96666452D01*
X160055503Y-96666452D02*
X160055503Y-97047404D01*
X160531694Y-95999785D02*
X160531694Y-95809309D01*
X160531694Y-95809309D02*
X160484075Y-95714071D01*
X160484075Y-95714071D02*
X160436455Y-95666452D01*
X160436455Y-95666452D02*
X160293598Y-95571214D01*
X160293598Y-95571214D02*
X160103122Y-95523595D01*
X160103122Y-95523595D02*
X159722170Y-95523595D01*
X159722170Y-95523595D02*
X159626932Y-95571214D01*
X159626932Y-95571214D02*
X159579313Y-95618833D01*
X159579313Y-95618833D02*
X159531694Y-95714071D01*
X159531694Y-95714071D02*
X159531694Y-95904547D01*
X159531694Y-95904547D02*
X159579313Y-95999785D01*
X159579313Y-95999785D02*
X159626932Y-96047404D01*
X159626932Y-96047404D02*
X159722170Y-96095023D01*
X159722170Y-96095023D02*
X159960265Y-96095023D01*
X159960265Y-96095023D02*
X160055503Y-96047404D01*
X160055503Y-96047404D02*
X160103122Y-95999785D01*
X160103122Y-95999785D02*
X160150741Y-95904547D01*
X160150741Y-95904547D02*
X160150741Y-95714071D01*
X160150741Y-95714071D02*
X160103122Y-95618833D01*
X160103122Y-95618833D02*
X160055503Y-95571214D01*
X160055503Y-95571214D02*
X159960265Y-95523595D01*
D11*
X196131417Y-96340318D02*
X196083798Y-96387938D01*
X196083798Y-96387938D02*
X195940941Y-96435557D01*
X195940941Y-96435557D02*
X195845703Y-96435557D01*
X195845703Y-96435557D02*
X195702846Y-96387938D01*
X195702846Y-96387938D02*
X195607608Y-96292699D01*
X195607608Y-96292699D02*
X195559989Y-96197461D01*
X195559989Y-96197461D02*
X195512370Y-96006985D01*
X195512370Y-96006985D02*
X195512370Y-95864128D01*
X195512370Y-95864128D02*
X195559989Y-95673652D01*
X195559989Y-95673652D02*
X195607608Y-95578414D01*
X195607608Y-95578414D02*
X195702846Y-95483176D01*
X195702846Y-95483176D02*
X195845703Y-95435557D01*
X195845703Y-95435557D02*
X195940941Y-95435557D01*
X195940941Y-95435557D02*
X196083798Y-95483176D01*
X196083798Y-95483176D02*
X196131417Y-95530795D01*
X196512370Y-95530795D02*
X196559989Y-95483176D01*
X196559989Y-95483176D02*
X196655227Y-95435557D01*
X196655227Y-95435557D02*
X196893322Y-95435557D01*
X196893322Y-95435557D02*
X196988560Y-95483176D01*
X196988560Y-95483176D02*
X197036179Y-95530795D01*
X197036179Y-95530795D02*
X197083798Y-95626033D01*
X197083798Y-95626033D02*
X197083798Y-95721271D01*
X197083798Y-95721271D02*
X197036179Y-95864128D01*
X197036179Y-95864128D02*
X196464751Y-96435557D01*
X196464751Y-96435557D02*
X197083798Y-96435557D01*
X197940941Y-95768890D02*
X197940941Y-96435557D01*
X197702846Y-95387938D02*
X197464751Y-96102223D01*
X197464751Y-96102223D02*
X198083798Y-96102223D01*
X112559989Y-82035557D02*
X112559989Y-81035557D01*
X112559989Y-81035557D02*
X112798084Y-81035557D01*
X112798084Y-81035557D02*
X112940941Y-81083176D01*
X112940941Y-81083176D02*
X113036179Y-81178414D01*
X113036179Y-81178414D02*
X113083798Y-81273652D01*
X113083798Y-81273652D02*
X113131417Y-81464128D01*
X113131417Y-81464128D02*
X113131417Y-81606985D01*
X113131417Y-81606985D02*
X113083798Y-81797461D01*
X113083798Y-81797461D02*
X113036179Y-81892699D01*
X113036179Y-81892699D02*
X112940941Y-81987938D01*
X112940941Y-81987938D02*
X112798084Y-82035557D01*
X112798084Y-82035557D02*
X112559989Y-82035557D01*
X114083798Y-82035557D02*
X113512370Y-82035557D01*
X113798084Y-82035557D02*
X113798084Y-81035557D01*
X113798084Y-81035557D02*
X113702846Y-81178414D01*
X113702846Y-81178414D02*
X113607608Y-81273652D01*
X113607608Y-81273652D02*
X113512370Y-81321271D01*
X114940941Y-81368890D02*
X114940941Y-82035557D01*
X114702846Y-80987938D02*
X114464751Y-81702223D01*
X114464751Y-81702223D02*
X115083798Y-81702223D01*
X117646353Y-80063931D02*
X117074925Y-80063931D01*
X117360639Y-80063931D02*
X117360639Y-79063931D01*
X117360639Y-79063931D02*
X117265401Y-79206788D01*
X117265401Y-79206788D02*
X117170163Y-79302026D01*
X117170163Y-79302026D02*
X117074925Y-79349645D01*
X127269080Y-81963931D02*
X127269080Y-80963931D01*
X127269080Y-80963931D02*
X127507175Y-80963931D01*
X127507175Y-80963931D02*
X127650032Y-81011550D01*
X127650032Y-81011550D02*
X127745270Y-81106788D01*
X127745270Y-81106788D02*
X127792889Y-81202026D01*
X127792889Y-81202026D02*
X127840508Y-81392502D01*
X127840508Y-81392502D02*
X127840508Y-81535359D01*
X127840508Y-81535359D02*
X127792889Y-81725835D01*
X127792889Y-81725835D02*
X127745270Y-81821073D01*
X127745270Y-81821073D02*
X127650032Y-81916312D01*
X127650032Y-81916312D02*
X127507175Y-81963931D01*
X127507175Y-81963931D02*
X127269080Y-81963931D01*
X128792889Y-81963931D02*
X128221461Y-81963931D01*
X128507175Y-81963931D02*
X128507175Y-80963931D01*
X128507175Y-80963931D02*
X128411937Y-81106788D01*
X128411937Y-81106788D02*
X128316699Y-81202026D01*
X128316699Y-81202026D02*
X128221461Y-81249645D01*
X129650032Y-80963931D02*
X129459556Y-80963931D01*
X129459556Y-80963931D02*
X129364318Y-81011550D01*
X129364318Y-81011550D02*
X129316699Y-81059169D01*
X129316699Y-81059169D02*
X129221461Y-81202026D01*
X129221461Y-81202026D02*
X129173842Y-81392502D01*
X129173842Y-81392502D02*
X129173842Y-81773454D01*
X129173842Y-81773454D02*
X129221461Y-81868692D01*
X129221461Y-81868692D02*
X129269080Y-81916312D01*
X129269080Y-81916312D02*
X129364318Y-81963931D01*
X129364318Y-81963931D02*
X129554794Y-81963931D01*
X129554794Y-81963931D02*
X129650032Y-81916312D01*
X129650032Y-81916312D02*
X129697651Y-81868692D01*
X129697651Y-81868692D02*
X129745270Y-81773454D01*
X129745270Y-81773454D02*
X129745270Y-81535359D01*
X129745270Y-81535359D02*
X129697651Y-81440121D01*
X129697651Y-81440121D02*
X129650032Y-81392502D01*
X129650032Y-81392502D02*
X129554794Y-81344883D01*
X129554794Y-81344883D02*
X129364318Y-81344883D01*
X129364318Y-81344883D02*
X129269080Y-81392502D01*
X129269080Y-81392502D02*
X129221461Y-81440121D01*
X129221461Y-81440121D02*
X129173842Y-81535359D01*
X132919080Y-80063931D02*
X132347652Y-80063931D01*
X132633366Y-80063931D02*
X132633366Y-79063931D01*
X132633366Y-79063931D02*
X132538128Y-79206788D01*
X132538128Y-79206788D02*
X132442890Y-79302026D01*
X132442890Y-79302026D02*
X132347652Y-79349645D01*
D10*
X132531694Y-98261689D02*
X133531694Y-98023594D01*
X133531694Y-98023594D02*
X132817408Y-97833118D01*
X132817408Y-97833118D02*
X133531694Y-97642642D01*
X133531694Y-97642642D02*
X132531694Y-97404547D01*
X133531694Y-97023594D02*
X132531694Y-97023594D01*
X132531694Y-97023594D02*
X132531694Y-96642642D01*
X132531694Y-96642642D02*
X132579313Y-96547404D01*
X132579313Y-96547404D02*
X132626932Y-96499785D01*
X132626932Y-96499785D02*
X132722170Y-96452166D01*
X132722170Y-96452166D02*
X132865027Y-96452166D01*
X132865027Y-96452166D02*
X132960265Y-96499785D01*
X132960265Y-96499785D02*
X133007884Y-96547404D01*
X133007884Y-96547404D02*
X133055503Y-96642642D01*
X133055503Y-96642642D02*
X133055503Y-97023594D01*
X132626932Y-96071213D02*
X132579313Y-96023594D01*
X132579313Y-96023594D02*
X132531694Y-95928356D01*
X132531694Y-95928356D02*
X132531694Y-95690261D01*
X132531694Y-95690261D02*
X132579313Y-95595023D01*
X132579313Y-95595023D02*
X132626932Y-95547404D01*
X132626932Y-95547404D02*
X132722170Y-95499785D01*
X132722170Y-95499785D02*
X132817408Y-95499785D01*
X132817408Y-95499785D02*
X132960265Y-95547404D01*
X132960265Y-95547404D02*
X133531694Y-96118832D01*
X133531694Y-96118832D02*
X133531694Y-95499785D01*
X133531694Y-94547404D02*
X133531694Y-95118832D01*
X133531694Y-94833118D02*
X132531694Y-94833118D01*
X132531694Y-94833118D02*
X132674551Y-94928356D01*
X132674551Y-94928356D02*
X132769789Y-95023594D01*
X132769789Y-95023594D02*
X132817408Y-95118832D01*
D11*
X19262491Y-66016204D02*
X18875444Y-66287137D01*
X19262491Y-66480661D02*
X18449691Y-66480661D01*
X18449691Y-66480661D02*
X18449691Y-66171023D01*
X18449691Y-66171023D02*
X18488396Y-66093613D01*
X18488396Y-66093613D02*
X18527101Y-66054908D01*
X18527101Y-66054908D02*
X18604510Y-66016204D01*
X18604510Y-66016204D02*
X18720625Y-66016204D01*
X18720625Y-66016204D02*
X18798034Y-66054908D01*
X18798034Y-66054908D02*
X18836739Y-66093613D01*
X18836739Y-66093613D02*
X18875444Y-66171023D01*
X18875444Y-66171023D02*
X18875444Y-66480661D01*
X18798034Y-65551746D02*
X18759329Y-65629156D01*
X18759329Y-65629156D02*
X18720625Y-65667861D01*
X18720625Y-65667861D02*
X18643215Y-65706565D01*
X18643215Y-65706565D02*
X18604510Y-65706565D01*
X18604510Y-65706565D02*
X18527101Y-65667861D01*
X18527101Y-65667861D02*
X18488396Y-65629156D01*
X18488396Y-65629156D02*
X18449691Y-65551746D01*
X18449691Y-65551746D02*
X18449691Y-65396927D01*
X18449691Y-65396927D02*
X18488396Y-65319518D01*
X18488396Y-65319518D02*
X18527101Y-65280813D01*
X18527101Y-65280813D02*
X18604510Y-65242108D01*
X18604510Y-65242108D02*
X18643215Y-65242108D01*
X18643215Y-65242108D02*
X18720625Y-65280813D01*
X18720625Y-65280813D02*
X18759329Y-65319518D01*
X18759329Y-65319518D02*
X18798034Y-65396927D01*
X18798034Y-65396927D02*
X18798034Y-65551746D01*
X18798034Y-65551746D02*
X18836739Y-65629156D01*
X18836739Y-65629156D02*
X18875444Y-65667861D01*
X18875444Y-65667861D02*
X18952853Y-65706565D01*
X18952853Y-65706565D02*
X19107672Y-65706565D01*
X19107672Y-65706565D02*
X19185082Y-65667861D01*
X19185082Y-65667861D02*
X19223787Y-65629156D01*
X19223787Y-65629156D02*
X19262491Y-65551746D01*
X19262491Y-65551746D02*
X19262491Y-65396927D01*
X19262491Y-65396927D02*
X19223787Y-65319518D01*
X19223787Y-65319518D02*
X19185082Y-65280813D01*
X19185082Y-65280813D02*
X19107672Y-65242108D01*
X19107672Y-65242108D02*
X18952853Y-65242108D01*
X18952853Y-65242108D02*
X18875444Y-65280813D01*
X18875444Y-65280813D02*
X18836739Y-65319518D01*
X18836739Y-65319518D02*
X18798034Y-65396927D01*
X157814534Y-81963931D02*
X157814534Y-80963931D01*
X157814534Y-80963931D02*
X158052629Y-80963931D01*
X158052629Y-80963931D02*
X158195486Y-81011550D01*
X158195486Y-81011550D02*
X158290724Y-81106788D01*
X158290724Y-81106788D02*
X158338343Y-81202026D01*
X158338343Y-81202026D02*
X158385962Y-81392502D01*
X158385962Y-81392502D02*
X158385962Y-81535359D01*
X158385962Y-81535359D02*
X158338343Y-81725835D01*
X158338343Y-81725835D02*
X158290724Y-81821073D01*
X158290724Y-81821073D02*
X158195486Y-81916312D01*
X158195486Y-81916312D02*
X158052629Y-81963931D01*
X158052629Y-81963931D02*
X157814534Y-81963931D01*
X158766915Y-81059169D02*
X158814534Y-81011550D01*
X158814534Y-81011550D02*
X158909772Y-80963931D01*
X158909772Y-80963931D02*
X159147867Y-80963931D01*
X159147867Y-80963931D02*
X159243105Y-81011550D01*
X159243105Y-81011550D02*
X159290724Y-81059169D01*
X159290724Y-81059169D02*
X159338343Y-81154407D01*
X159338343Y-81154407D02*
X159338343Y-81249645D01*
X159338343Y-81249645D02*
X159290724Y-81392502D01*
X159290724Y-81392502D02*
X158719296Y-81963931D01*
X158719296Y-81963931D02*
X159338343Y-81963931D01*
X159957391Y-80963931D02*
X160052629Y-80963931D01*
X160052629Y-80963931D02*
X160147867Y-81011550D01*
X160147867Y-81011550D02*
X160195486Y-81059169D01*
X160195486Y-81059169D02*
X160243105Y-81154407D01*
X160243105Y-81154407D02*
X160290724Y-81344883D01*
X160290724Y-81344883D02*
X160290724Y-81582978D01*
X160290724Y-81582978D02*
X160243105Y-81773454D01*
X160243105Y-81773454D02*
X160195486Y-81868692D01*
X160195486Y-81868692D02*
X160147867Y-81916312D01*
X160147867Y-81916312D02*
X160052629Y-81963931D01*
X160052629Y-81963931D02*
X159957391Y-81963931D01*
X159957391Y-81963931D02*
X159862153Y-81916312D01*
X159862153Y-81916312D02*
X159814534Y-81868692D01*
X159814534Y-81868692D02*
X159766915Y-81773454D01*
X159766915Y-81773454D02*
X159719296Y-81582978D01*
X159719296Y-81582978D02*
X159719296Y-81344883D01*
X159719296Y-81344883D02*
X159766915Y-81154407D01*
X159766915Y-81154407D02*
X159814534Y-81059169D01*
X159814534Y-81059169D02*
X159862153Y-81011550D01*
X159862153Y-81011550D02*
X159957391Y-80963931D01*
X163464534Y-80063931D02*
X162893106Y-80063931D01*
X163178820Y-80063931D02*
X163178820Y-79063931D01*
X163178820Y-79063931D02*
X163083582Y-79206788D01*
X163083582Y-79206788D02*
X162988344Y-79302026D01*
X162988344Y-79302026D02*
X162893106Y-79349645D01*
X271142491Y-65916204D02*
X270755444Y-66187137D01*
X271142491Y-66380661D02*
X270329691Y-66380661D01*
X270329691Y-66380661D02*
X270329691Y-66071023D01*
X270329691Y-66071023D02*
X270368396Y-65993613D01*
X270368396Y-65993613D02*
X270407101Y-65954908D01*
X270407101Y-65954908D02*
X270484510Y-65916204D01*
X270484510Y-65916204D02*
X270600625Y-65916204D01*
X270600625Y-65916204D02*
X270678034Y-65954908D01*
X270678034Y-65954908D02*
X270716739Y-65993613D01*
X270716739Y-65993613D02*
X270755444Y-66071023D01*
X270755444Y-66071023D02*
X270755444Y-66380661D01*
X271142491Y-65142108D02*
X271142491Y-65606565D01*
X271142491Y-65374337D02*
X270329691Y-65374337D01*
X270329691Y-65374337D02*
X270445806Y-65451746D01*
X270445806Y-65451746D02*
X270523215Y-65529156D01*
X270523215Y-65529156D02*
X270561920Y-65606565D01*
X202766060Y-90206224D02*
X202735822Y-90236463D01*
X202735822Y-90236463D02*
X202645108Y-90266701D01*
X202645108Y-90266701D02*
X202584632Y-90266701D01*
X202584632Y-90266701D02*
X202493917Y-90236463D01*
X202493917Y-90236463D02*
X202433441Y-90175986D01*
X202433441Y-90175986D02*
X202403203Y-90115510D01*
X202403203Y-90115510D02*
X202372965Y-89994558D01*
X202372965Y-89994558D02*
X202372965Y-89903843D01*
X202372965Y-89903843D02*
X202403203Y-89782891D01*
X202403203Y-89782891D02*
X202433441Y-89722415D01*
X202433441Y-89722415D02*
X202493917Y-89661939D01*
X202493917Y-89661939D02*
X202584632Y-89631701D01*
X202584632Y-89631701D02*
X202645108Y-89631701D01*
X202645108Y-89631701D02*
X202735822Y-89661939D01*
X202735822Y-89661939D02*
X202766060Y-89692177D01*
X203007965Y-89692177D02*
X203038203Y-89661939D01*
X203038203Y-89661939D02*
X203098679Y-89631701D01*
X203098679Y-89631701D02*
X203249870Y-89631701D01*
X203249870Y-89631701D02*
X203310346Y-89661939D01*
X203310346Y-89661939D02*
X203340584Y-89692177D01*
X203340584Y-89692177D02*
X203370822Y-89752653D01*
X203370822Y-89752653D02*
X203370822Y-89813129D01*
X203370822Y-89813129D02*
X203340584Y-89903843D01*
X203340584Y-89903843D02*
X202977727Y-90266701D01*
X202977727Y-90266701D02*
X203370822Y-90266701D01*
X203582489Y-89631701D02*
X203975584Y-89631701D01*
X203975584Y-89631701D02*
X203763917Y-89873605D01*
X203763917Y-89873605D02*
X203854632Y-89873605D01*
X203854632Y-89873605D02*
X203915108Y-89903843D01*
X203915108Y-89903843D02*
X203945346Y-89934082D01*
X203945346Y-89934082D02*
X203975584Y-89994558D01*
X203975584Y-89994558D02*
X203975584Y-90145748D01*
X203975584Y-90145748D02*
X203945346Y-90206224D01*
X203945346Y-90206224D02*
X203915108Y-90236463D01*
X203915108Y-90236463D02*
X203854632Y-90266701D01*
X203854632Y-90266701D02*
X203673203Y-90266701D01*
X203673203Y-90266701D02*
X203612727Y-90236463D01*
X203612727Y-90236463D02*
X203582489Y-90206224D01*
X91838808Y-90271545D02*
X91800104Y-90310250D01*
X91800104Y-90310250D02*
X91683989Y-90348954D01*
X91683989Y-90348954D02*
X91606580Y-90348954D01*
X91606580Y-90348954D02*
X91490466Y-90310250D01*
X91490466Y-90310250D02*
X91413056Y-90232840D01*
X91413056Y-90232840D02*
X91374351Y-90155430D01*
X91374351Y-90155430D02*
X91335647Y-90000611D01*
X91335647Y-90000611D02*
X91335647Y-89884497D01*
X91335647Y-89884497D02*
X91374351Y-89729678D01*
X91374351Y-89729678D02*
X91413056Y-89652269D01*
X91413056Y-89652269D02*
X91490466Y-89574859D01*
X91490466Y-89574859D02*
X91606580Y-89536154D01*
X91606580Y-89536154D02*
X91683989Y-89536154D01*
X91683989Y-89536154D02*
X91800104Y-89574859D01*
X91800104Y-89574859D02*
X91838808Y-89613564D01*
X92109742Y-89536154D02*
X92651608Y-89536154D01*
X92651608Y-89536154D02*
X92303266Y-90348954D01*
X86238808Y-92271545D02*
X86200104Y-92310250D01*
X86200104Y-92310250D02*
X86083989Y-92348954D01*
X86083989Y-92348954D02*
X86006580Y-92348954D01*
X86006580Y-92348954D02*
X85890466Y-92310250D01*
X85890466Y-92310250D02*
X85813056Y-92232840D01*
X85813056Y-92232840D02*
X85774351Y-92155430D01*
X85774351Y-92155430D02*
X85735647Y-92000611D01*
X85735647Y-92000611D02*
X85735647Y-91884497D01*
X85735647Y-91884497D02*
X85774351Y-91729678D01*
X85774351Y-91729678D02*
X85813056Y-91652269D01*
X85813056Y-91652269D02*
X85890466Y-91574859D01*
X85890466Y-91574859D02*
X86006580Y-91536154D01*
X86006580Y-91536154D02*
X86083989Y-91536154D01*
X86083989Y-91536154D02*
X86200104Y-91574859D01*
X86200104Y-91574859D02*
X86238808Y-91613564D01*
X86974199Y-91536154D02*
X86587151Y-91536154D01*
X86587151Y-91536154D02*
X86548447Y-91923202D01*
X86548447Y-91923202D02*
X86587151Y-91884497D01*
X86587151Y-91884497D02*
X86664561Y-91845792D01*
X86664561Y-91845792D02*
X86858085Y-91845792D01*
X86858085Y-91845792D02*
X86935494Y-91884497D01*
X86935494Y-91884497D02*
X86974199Y-91923202D01*
X86974199Y-91923202D02*
X87012904Y-92000611D01*
X87012904Y-92000611D02*
X87012904Y-92194135D01*
X87012904Y-92194135D02*
X86974199Y-92271545D01*
X86974199Y-92271545D02*
X86935494Y-92310250D01*
X86935494Y-92310250D02*
X86858085Y-92348954D01*
X86858085Y-92348954D02*
X86664561Y-92348954D01*
X86664561Y-92348954D02*
X86587151Y-92310250D01*
X86587151Y-92310250D02*
X86548447Y-92271545D01*
D10*
%TO.C,SW5*%
X228183643Y-81189849D02*
X228183643Y-72045849D01*
X231231643Y-81189849D02*
X228183643Y-81189849D01*
X237327643Y-81189849D02*
X234279643Y-81189849D01*
X228183643Y-72045849D02*
X231231643Y-72045849D01*
X234279643Y-72045849D02*
X237327643Y-72045849D01*
X237327643Y-72045849D02*
X237327643Y-81189849D01*
%TO.C,SW6*%
X245570308Y-76531106D02*
X245570308Y-67387106D01*
X248618308Y-76531106D02*
X245570308Y-76531106D01*
X254714308Y-76531106D02*
X251666308Y-76531106D01*
X245570308Y-67387106D02*
X248618308Y-67387106D01*
X251666308Y-67387106D02*
X254714308Y-67387106D01*
X254714308Y-67387106D02*
X254714308Y-76531106D01*
D12*
%TO.C,D15*%
X124497002Y-80759112D02*
X117197002Y-80759112D01*
X124497002Y-75259112D02*
X117197002Y-75259112D01*
X117197002Y-75259112D02*
X117197002Y-76409112D01*
%TO.C,D2*%
X102264275Y-92380738D02*
X102264275Y-94380738D01*
X102264275Y-92380738D02*
X106274275Y-92380738D01*
X102264275Y-94380738D02*
X106274275Y-94380738D01*
%TO.C,D29*%
X222505643Y-80267849D02*
X222505643Y-72967849D01*
X228005643Y-80267849D02*
X228005643Y-72967849D01*
X228005643Y-72967849D02*
X226855643Y-72967849D01*
%TO.C,C9*%
X90986439Y-97620738D02*
X91202111Y-97620738D01*
X90986439Y-98340738D02*
X91202111Y-98340738D01*
D10*
%TO.C,WP18*%
X139877494Y-99380738D02*
G75*
G03*
X139877494Y-99380738I-803219J0D01*
G01*
D12*
%TO.C,D21*%
X170315184Y-80759112D02*
X163015184Y-80759112D01*
X170315184Y-75259112D02*
X163015184Y-75259112D01*
X163015184Y-75259112D02*
X163015184Y-76409112D01*
%TO.C,R4*%
X267301775Y-66117996D02*
X267301775Y-65643480D01*
X268346775Y-66117996D02*
X268346775Y-65643480D01*
%TO.C,C26*%
X210266439Y-90620738D02*
X210482111Y-90620738D01*
X210266439Y-91340738D02*
X210482111Y-91340738D01*
D10*
%TO.C,SW4*%
X213438906Y-91514225D02*
X213438906Y-82370225D01*
X216486906Y-91514225D02*
X213438906Y-91514225D01*
X222582906Y-91514225D02*
X219534906Y-91514225D01*
X213438906Y-82370225D02*
X216486906Y-82370225D01*
X219534906Y-82370225D02*
X222582906Y-82370225D01*
X222582906Y-82370225D02*
X222582906Y-91514225D01*
D12*
%TO.C,D7*%
X49756242Y-75609106D02*
X49756242Y-68309106D01*
X55256242Y-75609106D02*
X55256242Y-68309106D01*
X55256242Y-68309106D02*
X54106242Y-68309106D01*
D10*
%TO.C,WP1*%
X272127494Y-63130738D02*
G75*
G03*
X272127494Y-63130738I-803219J0D01*
G01*
D12*
%TO.C,C1*%
X52466439Y-75620738D02*
X52682111Y-75620738D01*
X52466439Y-76340738D02*
X52682111Y-76340738D01*
D10*
%TO.C,WP5*%
X162877494Y-99380738D02*
G75*
G03*
X162877494Y-99380738I-803219J0D01*
G01*
%TO.C,WP2*%
X270127494Y-63130738D02*
G75*
G03*
X270127494Y-63130738I-803219J0D01*
G01*
%TO.C,WP16*%
X143877494Y-99380738D02*
G75*
G03*
X143877494Y-99380738I-803219J0D01*
G01*
D12*
%TO.C,C2*%
X139196439Y-81020738D02*
X139412111Y-81020738D01*
X139196439Y-81740738D02*
X139412111Y-81740738D01*
D10*
%TO.C,WP10*%
X158877494Y-99380738D02*
G75*
G03*
X158877494Y-99380738I-803219J0D01*
G01*
D12*
%TO.C,C17*%
X123946439Y-81020738D02*
X124162111Y-81020738D01*
X123946439Y-81740738D02*
X124162111Y-81740738D01*
%TO.C,C20*%
X269696439Y-67520738D02*
X269912111Y-67520738D01*
X269696439Y-68240738D02*
X269912111Y-68240738D01*
%TO.C,C21*%
X25452111Y-68240738D02*
X25236439Y-68240738D01*
X25452111Y-67520738D02*
X25236439Y-67520738D01*
%TO.C,R7*%
X26801775Y-66117996D02*
X26801775Y-65643480D01*
X27846775Y-66117996D02*
X27846775Y-65643480D01*
%TO.C,D12*%
X95570751Y-94196271D02*
X95570751Y-86896271D01*
X101070751Y-94196271D02*
X101070751Y-86896271D01*
X101070751Y-86896271D02*
X99920751Y-86896271D01*
D10*
%TO.C,WP17*%
X141877494Y-99380738D02*
G75*
G03*
X141877494Y-99380738I-803219J0D01*
G01*
D12*
%TO.C,C3*%
X69866439Y-80220738D02*
X70082111Y-80220738D01*
X69866439Y-80940738D02*
X70082111Y-80940738D01*
%TO.C,C12*%
X176866439Y-81020738D02*
X177082111Y-81020738D01*
X176866439Y-81740738D02*
X177082111Y-81740738D01*
%TO.C,D23*%
X185587911Y-80759112D02*
X178287911Y-80759112D01*
X185587911Y-75259112D02*
X178287911Y-75259112D01*
X178287911Y-75259112D02*
X178287911Y-76409112D01*
%TO.C,D11*%
X88332419Y-97571561D02*
X88332419Y-90271561D01*
X93832419Y-97571561D02*
X93832419Y-90271561D01*
X93832419Y-90271561D02*
X92682419Y-90271561D01*
%TO.C,D24*%
X193224275Y-80759112D02*
X185924275Y-80759112D01*
X193224275Y-75259112D02*
X185924275Y-75259112D01*
X185924275Y-75259112D02*
X185924275Y-76409112D01*
%TO.C,R5*%
X21301775Y-66117996D02*
X21301775Y-65643480D01*
X22346775Y-66117996D02*
X22346775Y-65643480D01*
%TO.C,C14*%
X184266439Y-81220738D02*
X184482111Y-81220738D01*
X184266439Y-81940738D02*
X184482111Y-81940738D01*
%TO.C,C27*%
X225266439Y-80220738D02*
X225482111Y-80220738D01*
X225266439Y-80940738D02*
X225482111Y-80940738D01*
%TO.C,D13*%
X109224275Y-80759112D02*
X101924275Y-80759112D01*
X109224275Y-75259112D02*
X101924275Y-75259112D01*
X101924275Y-75259112D02*
X101924275Y-76409112D01*
%TO.C,C10*%
X169466439Y-81020738D02*
X169682111Y-81020738D01*
X169466439Y-81740738D02*
X169682111Y-81740738D01*
D10*
%TO.C,WP12*%
X154877494Y-99380738D02*
G75*
G03*
X154877494Y-99380738I-803219J0D01*
G01*
D12*
%TO.C,D10*%
X89028498Y-89615337D02*
X89028498Y-82315337D01*
X94528498Y-89615337D02*
X94528498Y-82315337D01*
X94528498Y-82315337D02*
X93378498Y-82315337D01*
D10*
%TO.C,WP14*%
X150877494Y-99380738D02*
G75*
G03*
X150877494Y-99380738I-803219J0D01*
G01*
D12*
%TO.C,D17*%
X139769730Y-80759112D02*
X132469730Y-80759112D01*
X139769730Y-75259112D02*
X132469730Y-75259112D01*
X132469730Y-75259112D02*
X132469730Y-76409112D01*
%TO.C,C6*%
X154696439Y-81020738D02*
X154912111Y-81020738D01*
X154696439Y-81740738D02*
X154912111Y-81740738D01*
D10*
%TO.C,WP3*%
X274127494Y-63130738D02*
G75*
G03*
X274127494Y-63130738I-803219J0D01*
G01*
D12*
%TO.C,D26*%
X194077799Y-94196271D02*
X194077799Y-86896271D01*
X199577799Y-94196271D02*
X199577799Y-86896271D01*
X199577799Y-86896271D02*
X198427799Y-86896271D01*
%TO.C,D8*%
X67142907Y-80267849D02*
X67142907Y-72967849D01*
X72642907Y-80267849D02*
X72642907Y-72967849D01*
X72642907Y-72967849D02*
X71492907Y-72967849D01*
%TO.C,D6*%
X192884275Y-96780738D02*
X192884275Y-94780738D01*
X192884275Y-96780738D02*
X188874275Y-96780738D01*
X192884275Y-94780738D02*
X188874275Y-94780738D01*
%TO.C,D27*%
X201316131Y-97571561D02*
X201316131Y-90271561D01*
X206816131Y-97571561D02*
X206816131Y-90271561D01*
X206816131Y-90271561D02*
X205666131Y-90271561D01*
D10*
%TO.C,WP20*%
X135877494Y-99380738D02*
G75*
G03*
X135877494Y-99380738I-803219J0D01*
G01*
%TO.C,WP6*%
X24627494Y-63130738D02*
G75*
G03*
X24627494Y-63130738I-803219J0D01*
G01*
%TO.C,WP8*%
X26627494Y-63130738D02*
G75*
G03*
X26627494Y-63130738I-803219J0D01*
G01*
D12*
%TO.C,D9*%
X81887644Y-90592225D02*
X81887644Y-83292225D01*
X87387644Y-90592225D02*
X87387644Y-83292225D01*
X87387644Y-83292225D02*
X86237644Y-83292225D01*
%TO.C,C11*%
X95334275Y-93352902D02*
X95334275Y-93568574D01*
X94614275Y-93352902D02*
X94614275Y-93568574D01*
%TO.C,D28*%
X207760906Y-90592225D02*
X207760906Y-83292225D01*
X213260906Y-90592225D02*
X213260906Y-83292225D01*
X213260906Y-83292225D02*
X212110906Y-83292225D01*
%TO.C,C16*%
X192666439Y-81420738D02*
X192882111Y-81420738D01*
X192666439Y-82140738D02*
X192882111Y-82140738D01*
%TO.C,D4*%
X192884275Y-99180738D02*
X192884275Y-97180738D01*
X192884275Y-99180738D02*
X188874275Y-99180738D01*
X192884275Y-97180738D02*
X188874275Y-97180738D01*
D10*
%TO.C,SW3*%
X72565644Y-91514225D02*
X72565644Y-82370225D01*
X75613644Y-91514225D02*
X72565644Y-91514225D01*
X81709644Y-91514225D02*
X78661644Y-91514225D01*
X72565644Y-82370225D02*
X75613644Y-82370225D01*
X78661644Y-82370225D02*
X81709644Y-82370225D01*
X81709644Y-82370225D02*
X81709644Y-91514225D01*
%TO.C,SW1*%
X40434242Y-76531106D02*
X40434242Y-67387106D01*
X43482242Y-76531106D02*
X40434242Y-76531106D01*
X49578242Y-76531106D02*
X46530242Y-76531106D01*
X40434242Y-67387106D02*
X43482242Y-67387106D01*
X46530242Y-67387106D02*
X49578242Y-67387106D01*
X49578242Y-67387106D02*
X49578242Y-76531106D01*
D12*
%TO.C,C22*%
X22196439Y-67520738D02*
X22412111Y-67520738D01*
X22196439Y-68240738D02*
X22412111Y-68240738D01*
%TO.C,C13*%
X109466439Y-81020738D02*
X109682111Y-81020738D01*
X109466439Y-81740738D02*
X109682111Y-81740738D01*
D10*
%TO.C,WP22*%
X131877494Y-99380738D02*
G75*
G03*
X131877494Y-99380738I-803219J0D01*
G01*
D12*
%TO.C,D18*%
X147406093Y-80759112D02*
X140106093Y-80759112D01*
X147406093Y-75259112D02*
X140106093Y-75259112D01*
X140106093Y-75259112D02*
X140106093Y-76409112D01*
D10*
%TO.C,WP7*%
X22627494Y-63130738D02*
G75*
G03*
X22627494Y-63130738I-803219J0D01*
G01*
%TO.C,WP15*%
X145877494Y-99380738D02*
G75*
G03*
X145877494Y-99380738I-803219J0D01*
G01*
D12*
%TO.C,C4*%
X146946439Y-81020738D02*
X147162111Y-81020738D01*
X146946439Y-81740738D02*
X147162111Y-81740738D01*
D10*
%TO.C,SW2*%
X57820907Y-81189849D02*
X57820907Y-72045849D01*
X60868907Y-81189849D02*
X57820907Y-81189849D01*
X66964907Y-81189849D02*
X63916907Y-81189849D01*
X57820907Y-72045849D02*
X60868907Y-72045849D01*
X63916907Y-72045849D02*
X66964907Y-72045849D01*
X66964907Y-72045849D02*
X66964907Y-81189849D01*
D12*
%TO.C,D3*%
X102264275Y-97180738D02*
X102264275Y-99180738D01*
X102264275Y-97180738D02*
X106274275Y-97180738D01*
X102264275Y-99180738D02*
X106274275Y-99180738D01*
%TO.C,D5*%
X192884275Y-94380738D02*
X192884275Y-92380738D01*
X192884275Y-94380738D02*
X188874275Y-94380738D01*
X192884275Y-92380738D02*
X188874275Y-92380738D01*
%TO.C,R2*%
X272801775Y-66117996D02*
X272801775Y-65643480D01*
X273846775Y-66117996D02*
X273846775Y-65643480D01*
%TO.C,C25*%
X200414275Y-96488574D02*
X200414275Y-96272902D01*
X201134275Y-96488574D02*
X201134275Y-96272902D01*
%TO.C,C19*%
X131696439Y-81020738D02*
X131912111Y-81020738D01*
X131696439Y-81740738D02*
X131912111Y-81740738D01*
%TO.C,R6*%
X25301775Y-66117996D02*
X25301775Y-65643480D01*
X26346775Y-66117996D02*
X26346775Y-65643480D01*
%TO.C,D30*%
X239892308Y-75609106D02*
X239892308Y-68309106D01*
X245392308Y-75609106D02*
X245392308Y-68309106D01*
X245392308Y-68309106D02*
X244242308Y-68309106D01*
%TO.C,C15*%
X116196439Y-81020738D02*
X116412111Y-81020738D01*
X116196439Y-81740738D02*
X116412111Y-81740738D01*
D10*
%TO.C,WP11*%
X156877494Y-99380738D02*
G75*
G03*
X156877494Y-99380738I-803219J0D01*
G01*
%TO.C,WP19*%
X137877494Y-99380738D02*
G75*
G03*
X137877494Y-99380738I-803219J0D01*
G01*
D12*
%TO.C,R3*%
X274301775Y-66117996D02*
X274301775Y-65643480D01*
X275346775Y-66117996D02*
X275346775Y-65643480D01*
D10*
%TO.C,WP4*%
X164877494Y-99380738D02*
G75*
G03*
X164877494Y-99380738I-803219J0D01*
G01*
D12*
%TO.C,C28*%
X242666439Y-75620738D02*
X242882111Y-75620738D01*
X242666439Y-76340738D02*
X242882111Y-76340738D01*
%TO.C,D25*%
X200620052Y-89615337D02*
X200620052Y-82315337D01*
X206120052Y-89615337D02*
X206120052Y-82315337D01*
X206120052Y-82315337D02*
X204970052Y-82315337D01*
%TO.C,C18*%
X272952111Y-68240738D02*
X272736439Y-68240738D01*
X272952111Y-67520738D02*
X272736439Y-67520738D01*
D10*
%TO.C,WP13*%
X152877494Y-99380738D02*
G75*
G03*
X152877494Y-99380738I-803219J0D01*
G01*
D12*
%TO.C,C8*%
X162196439Y-81020738D02*
X162412111Y-81020738D01*
X162196439Y-81740738D02*
X162412111Y-81740738D01*
%TO.C,D1*%
X102264275Y-94780738D02*
X102264275Y-96780738D01*
X102264275Y-94780738D02*
X106274275Y-94780738D01*
X102264275Y-96780738D02*
X106274275Y-96780738D01*
%TO.C,D22*%
X177951548Y-80759112D02*
X170651548Y-80759112D01*
X177951548Y-75259112D02*
X170651548Y-75259112D01*
X170651548Y-75259112D02*
X170651548Y-76409112D01*
%TO.C,D19*%
X155042457Y-80759112D02*
X147742457Y-80759112D01*
X155042457Y-75259112D02*
X147742457Y-75259112D01*
X147742457Y-75259112D02*
X147742457Y-76409112D01*
D10*
%TO.C,WP9*%
X160877494Y-99380738D02*
G75*
G03*
X160877494Y-99380738I-803219J0D01*
G01*
D12*
%TO.C,C24*%
X196666439Y-94220738D02*
X196882111Y-94220738D01*
X196666439Y-94940738D02*
X196882111Y-94940738D01*
%TO.C,D14*%
X116860639Y-80759112D02*
X109560639Y-80759112D01*
X116860639Y-75259112D02*
X109560639Y-75259112D01*
X109560639Y-75259112D02*
X109560639Y-76409112D01*
%TO.C,D16*%
X132133366Y-80759112D02*
X124833366Y-80759112D01*
X132133366Y-75259112D02*
X124833366Y-75259112D01*
X124833366Y-75259112D02*
X124833366Y-76409112D01*
D10*
%TO.C,WP21*%
X133877494Y-99380738D02*
G75*
G03*
X133877494Y-99380738I-803219J0D01*
G01*
D12*
%TO.C,R8*%
X19801775Y-66117996D02*
X19801775Y-65643480D01*
X20846775Y-66117996D02*
X20846775Y-65643480D01*
%TO.C,D20*%
X162678820Y-80759112D02*
X155378820Y-80759112D01*
X162678820Y-75259112D02*
X155378820Y-75259112D01*
X155378820Y-75259112D02*
X155378820Y-76409112D01*
%TO.C,R1*%
X268801775Y-66117996D02*
X268801775Y-65643480D01*
X269846775Y-66117996D02*
X269846775Y-65643480D01*
%TO.C,C23*%
X201402111Y-90340738D02*
X201186439Y-90340738D01*
X201402111Y-89620738D02*
X201186439Y-89620738D01*
%TO.C,C7*%
X89946439Y-89620738D02*
X90162111Y-89620738D01*
X89946439Y-90340738D02*
X90162111Y-90340738D01*
%TO.C,C5*%
X84666439Y-90620738D02*
X84882111Y-90620738D01*
X84666439Y-91340738D02*
X84882111Y-91340738D01*
%TD*%
M02*
