M48
; DRILL file {KiCad 7.0.9-7.0.9~ubuntu22.04.1} date Wed 27 Dec 2023 08:47:52 PM
; FORMAT={-:-/ absolute / inch / decimal}
; #@! TF.CreationDate,2023-12-27T20:47:52-05:00
; #@! TF.GenerationSoftware,Kicad,Pcbnew,7.0.9-7.0.9~ubuntu22.04.1
; #@! TF.FileFunction,Plated,1,2,PTH
FMAT,2
INCH
; #@! TA.AperFunction,Plated,PTH,ViaDrill
T1C0.0080
; #@! TA.AperFunction,Plated,PTH,ViaDrill
T2C0.0157
; #@! TA.AperFunction,Plated,PTH,ComponentDrill
T3C0.0236
%
G90
G05
T1
X2.0022Y-2.7788
X2.1042Y-2.7366
X2.1092Y-2.9914
X2.7869Y-2.92
X2.7943Y-3.1725
X3.0355Y-3.38
X3.0777Y-3.3623
X3.3691Y-3.3265
X3.3769Y-3.5819
X3.4321Y-3.6685
X3.4619Y-3.3677
X3.4625Y-3.4886
X3.4788Y-3.3845
X3.4788Y-3.4711
X3.4951Y-3.4019
X3.4951Y-3.4537
X3.5895Y-3.5425
X3.6246Y-3.6012
X3.6289Y-3.8575
X3.6525Y-3.288
X3.7391Y-3.7237
X3.9045Y-3.8733
X3.9078Y-3.4684
X3.9202Y-3.8496
X3.936Y-3.826
X4.1013Y-3.0063
X4.2273Y-3.8181
X4.2459Y-3.7973
X4.2645Y-3.7765
X4.3533Y-3.204
X4.3997Y-3.0063
X4.621Y-3.204
X4.6998Y-3.0063
X4.9281Y-3.204
X5.0069Y-3.0063
X5.2352Y-3.204
X5.3052Y-3.0063
X5.3966Y-3.8181
X5.5265Y-3.204
X5.6044Y-3.0063
X5.8336Y-3.204
X5.9045Y-3.0063
X5.9084Y-3.7355
X5.9872Y-3.7151
X6.0699Y-3.6922
X6.1407Y-3.204
X6.1447Y-3.7567
X6.2037Y-3.0063
X6.2234Y-3.7775
X6.3021Y-3.7982
X6.4321Y-3.204
X6.4596Y-3.819
X6.5099Y-3.0063
X6.7234Y-3.204
X6.8092Y-3.0063
X7.0147Y-3.204
X7.1084Y-3.0063
X7.3061Y-3.2118
X7.3454Y-3.7473
X7.3612Y-3.7709
X7.3769Y-3.7945
X7.4076Y-3.0063
X7.6289Y-3.2197
X7.7234Y-3.8654
X7.7341Y-3.844
X7.748Y-3.8233
X7.7864Y-3.4684
X7.7943Y-3.7237
X7.8809Y-3.5425
X7.9045Y-3.7473
X8.0409Y-3.288
X8.0663Y-3.6012
X8.1317Y-3.4548
X8.1328Y-3.3929
X8.1451Y-3.3725
X8.1486Y-3.4717
X8.1574Y-3.352
X8.1655Y-3.4886
X8.3253Y-3.3265
X8.81Y-3.3722
X8.81Y-3.4669
X8.9124Y-3.1725
X8.967Y-2.92
X9.5845Y-2.7366
X9.6053Y-2.9914
T2
X0.938Y-2.6725
X5.3179Y-3.6449
X5.4754Y-3.829
X5.7116Y-3.829
X10.6821Y-2.6725
T3
X0.8592Y-2.4855
X0.938Y-2.4855
X1.0167Y-2.4855
X5.1604Y-3.9126
X5.2391Y-3.9126
X5.3179Y-3.9126
X5.3966Y-3.9126
X5.4754Y-3.9126
X5.5541Y-3.9126
X5.6328Y-3.9126
X5.7116Y-3.9126
X5.9084Y-3.9126
X5.9872Y-3.9126
X6.0659Y-3.9126
X6.1447Y-3.9126
X6.2234Y-3.9126
X6.3021Y-3.9126
X6.3809Y-3.9126
X6.4596Y-3.9126
X10.6033Y-2.4855
X10.6821Y-2.4855
X10.7608Y-2.4855
T0
M30
