%TF.GenerationSoftware,KiCad,Pcbnew,7.0.9-7.0.9~ubuntu22.04.1*%
%TF.CreationDate,2023-12-27T20:47:57-05:00*%
%TF.ProjectId,GT-Wheel-RevLight,47542d57-6865-4656-9c2d-5265764c6967,rev?*%
%TF.SameCoordinates,Original*%
%TF.FileFunction,Drillmap*%
%TF.FilePolarity,Positive*%
%FSLAX45Y45*%
G04 Gerber Fmt 4.5, Leading zero omitted, Abs format (unit mm)*
G04 Created by KiCad (PCBNEW 7.0.9-7.0.9~ubuntu22.04.1) date 2023-12-27 20:47:57*
%MOMM*%
%LPD*%
G01*
G04 APERTURE LIST*
%ADD10C,0.200000*%
G04 APERTURE END LIST*
D10*
X21925309Y-9540357D02*
X22702341Y-9472376D01*
X3836198Y-6158599D02*
X3770322Y-6404450D01*
X21047345Y-7812295D02*
G75*
G03*
X21839405Y-7600063I396030J106116D01*
G01*
X1450000Y-7300000D02*
X3134527Y-7895570D01*
X2964293Y-6298334D02*
G75*
G03*
X3770322Y-6404450I410000J1D01*
G01*
X3572062Y-7806382D02*
X6475453Y-8584344D01*
X21736220Y-7214972D02*
X21839405Y-7600063D01*
X3504930Y-7438959D02*
G75*
G03*
X3504930Y-7438959I-145000J0D01*
G01*
X6812514Y-9472376D02*
X7589546Y-9540357D01*
X7537253Y-10138074D02*
X21977602Y-10138074D01*
X23039404Y-8584351D02*
G75*
G03*
X22670714Y-9110884I129416J-482969D01*
G01*
X25744533Y-6404450D02*
X25678657Y-6158599D01*
X27289984Y-6108334D02*
X26550562Y-6108334D01*
X8570694Y-7427203D02*
X8467509Y-7812295D01*
X22702341Y-9472376D02*
X22670714Y-9110884D01*
X28064855Y-7300000D02*
X27761389Y-6441668D01*
X26550562Y-6108334D02*
X26550562Y-6298334D01*
X2224871Y-6108335D02*
G75*
G03*
X1753466Y-6441668I0J-500000D01*
G01*
X26380329Y-7895568D02*
G75*
G03*
X25942793Y-7806382I-308129J-393802D01*
G01*
X6844142Y-9110884D02*
G75*
G03*
X6475453Y-8584344I-498102J43574D01*
G01*
X25744530Y-6404451D02*
G75*
G03*
X26550562Y-6298334I396030J106121D01*
G01*
X20944161Y-7427203D02*
X20594438Y-7520911D01*
X27761391Y-6441667D02*
G75*
G03*
X27289984Y-6108334I-471401J-166663D01*
G01*
X2964293Y-6298334D02*
X2964293Y-6108334D01*
X21977602Y-10138074D02*
X21925309Y-9540357D01*
X2964293Y-6108334D02*
X2224871Y-6108334D01*
X7778635Y-7214972D02*
X3836198Y-6158599D01*
X3572061Y-7806385D02*
G75*
G03*
X3134527Y-7895570I-129411J-482965D01*
G01*
X21644015Y-9555697D02*
G75*
G03*
X21644015Y-9555697I-410000J0D01*
G01*
X21047346Y-7812295D02*
X20944161Y-7427203D01*
X7589546Y-9540357D02*
X7537253Y-10138074D01*
X26380328Y-7895570D02*
X28064855Y-7300000D01*
X26299925Y-7438959D02*
G75*
G03*
X26299925Y-7438959I-145000J0D01*
G01*
X20841673Y-7855864D02*
G75*
G03*
X20841673Y-7855864I-145000J0D01*
G01*
X8690840Y-9555697D02*
G75*
G03*
X8690840Y-9555697I-410000J0D01*
G01*
X7675451Y-7600063D02*
G75*
G03*
X8467509Y-7812295I396029J-106117D01*
G01*
X6844141Y-9110884D02*
X6812514Y-9472376D01*
X20594438Y-7520911D02*
X8920417Y-7520911D01*
X1753466Y-6441668D02*
X1450000Y-7300000D01*
X7675450Y-7600063D02*
X7778635Y-7214972D01*
X23039402Y-8584344D02*
X25942793Y-7806382D01*
X11267427Y-8700911D02*
G75*
G03*
X11267427Y-8700911I-510000J0D01*
G01*
X19267428Y-8700911D02*
G75*
G03*
X19267428Y-8700911I-510000J0D01*
G01*
X8963182Y-7855864D02*
G75*
G03*
X8963182Y-7855864I-145000J0D01*
G01*
X8920417Y-7520911D02*
X8570694Y-7427203D01*
X25678657Y-6158599D02*
X21736220Y-7214972D01*
X1700777Y-10459558D02*
X1700777Y-10259558D01*
X1700777Y-10259558D02*
X1748396Y-10259558D01*
X1748396Y-10259558D02*
X1776967Y-10269081D01*
X1776967Y-10269081D02*
X1796015Y-10288129D01*
X1796015Y-10288129D02*
X1805539Y-10307177D01*
X1805539Y-10307177D02*
X1815062Y-10345272D01*
X1815062Y-10345272D02*
X1815062Y-10373843D01*
X1815062Y-10373843D02*
X1805539Y-10411939D01*
X1805539Y-10411939D02*
X1796015Y-10430986D01*
X1796015Y-10430986D02*
X1776967Y-10450034D01*
X1776967Y-10450034D02*
X1748396Y-10459558D01*
X1748396Y-10459558D02*
X1700777Y-10459558D01*
X1900777Y-10459558D02*
X1900777Y-10326224D01*
X1900777Y-10364320D02*
X1910301Y-10345272D01*
X1910301Y-10345272D02*
X1919824Y-10335748D01*
X1919824Y-10335748D02*
X1938872Y-10326224D01*
X1938872Y-10326224D02*
X1957920Y-10326224D01*
X2024586Y-10459558D02*
X2024586Y-10326224D01*
X2024586Y-10259558D02*
X2015062Y-10269081D01*
X2015062Y-10269081D02*
X2024586Y-10278605D01*
X2024586Y-10278605D02*
X2034110Y-10269081D01*
X2034110Y-10269081D02*
X2024586Y-10259558D01*
X2024586Y-10259558D02*
X2024586Y-10278605D01*
X2148396Y-10459558D02*
X2129348Y-10450034D01*
X2129348Y-10450034D02*
X2119824Y-10430986D01*
X2119824Y-10430986D02*
X2119824Y-10259558D01*
X2253158Y-10459558D02*
X2234110Y-10450034D01*
X2234110Y-10450034D02*
X2224586Y-10430986D01*
X2224586Y-10430986D02*
X2224586Y-10259558D01*
X2481729Y-10459558D02*
X2481729Y-10259558D01*
X2481729Y-10259558D02*
X2548396Y-10402415D01*
X2548396Y-10402415D02*
X2615063Y-10259558D01*
X2615063Y-10259558D02*
X2615063Y-10459558D01*
X2796015Y-10459558D02*
X2796015Y-10354796D01*
X2796015Y-10354796D02*
X2786491Y-10335748D01*
X2786491Y-10335748D02*
X2767444Y-10326224D01*
X2767444Y-10326224D02*
X2729348Y-10326224D01*
X2729348Y-10326224D02*
X2710301Y-10335748D01*
X2796015Y-10450034D02*
X2776967Y-10459558D01*
X2776967Y-10459558D02*
X2729348Y-10459558D01*
X2729348Y-10459558D02*
X2710301Y-10450034D01*
X2710301Y-10450034D02*
X2700777Y-10430986D01*
X2700777Y-10430986D02*
X2700777Y-10411939D01*
X2700777Y-10411939D02*
X2710301Y-10392891D01*
X2710301Y-10392891D02*
X2729348Y-10383367D01*
X2729348Y-10383367D02*
X2776967Y-10383367D01*
X2776967Y-10383367D02*
X2796015Y-10373843D01*
X2891253Y-10326224D02*
X2891253Y-10526224D01*
X2891253Y-10335748D02*
X2910301Y-10326224D01*
X2910301Y-10326224D02*
X2948396Y-10326224D01*
X2948396Y-10326224D02*
X2967443Y-10335748D01*
X2967443Y-10335748D02*
X2976967Y-10345272D01*
X2976967Y-10345272D02*
X2986491Y-10364320D01*
X2986491Y-10364320D02*
X2986491Y-10421462D01*
X2986491Y-10421462D02*
X2976967Y-10440510D01*
X2976967Y-10440510D02*
X2967443Y-10450034D01*
X2967443Y-10450034D02*
X2948396Y-10459558D01*
X2948396Y-10459558D02*
X2910301Y-10459558D01*
X2910301Y-10459558D02*
X2891253Y-10450034D01*
X3072205Y-10440510D02*
X3081729Y-10450034D01*
X3081729Y-10450034D02*
X3072205Y-10459558D01*
X3072205Y-10459558D02*
X3062682Y-10450034D01*
X3062682Y-10450034D02*
X3072205Y-10440510D01*
X3072205Y-10440510D02*
X3072205Y-10459558D01*
X3072205Y-10335748D02*
X3081729Y-10345272D01*
X3081729Y-10345272D02*
X3072205Y-10354796D01*
X3072205Y-10354796D02*
X3062682Y-10345272D01*
X3062682Y-10345272D02*
X3072205Y-10335748D01*
X3072205Y-10335748D02*
X3072205Y-10354796D01*
M02*
