%TF.GenerationSoftware,KiCad,Pcbnew,7.0.9-7.0.9~ubuntu22.04.1*%
%TF.CreationDate,2023-12-27T20:48:07-05:00*%
%TF.ProjectId,GT-Wheel-RevLight,47542d57-6865-4656-9c2d-5265764c6967,rev?*%
%TF.SameCoordinates,Original*%
%TF.FileFunction,Copper,L2,Bot*%
%TF.FilePolarity,Positive*%
%FSLAX46Y46*%
G04 Gerber Fmt 4.6, Leading zero omitted, Abs format (unit mm)*
G04 Created by KiCad (PCBNEW 7.0.9-7.0.9~ubuntu22.04.1) date 2023-12-27 20:48:07*
%MOMM*%
%LPD*%
G01*
G04 APERTURE LIST*
%TA.AperFunction,ComponentPad*%
%ADD10C,1.400000*%
%TD*%
%TA.AperFunction,ViaPad*%
%ADD11C,0.406400*%
%TD*%
%TA.AperFunction,ViaPad*%
%ADD12C,0.800000*%
%TD*%
%TA.AperFunction,Conductor*%
%ADD13C,0.250000*%
%TD*%
%TA.AperFunction,Conductor*%
%ADD14C,0.762000*%
%TD*%
G04 APERTURE END LIST*
D10*
%TO.P,WP18,1*%
%TO.N,/EN4_B*%
X139074275Y-99380738D03*
%TD*%
%TO.P,WP1,1*%
%TO.N,~*%
X271324275Y-63130738D03*
%TD*%
%TO.P,WP5,1*%
%TO.N,~*%
X162074275Y-99380738D03*
%TD*%
%TO.P,WP2,1*%
%TO.N,Net-(R1-Pad2)*%
X269324275Y-63130738D03*
%TD*%
%TO.P,WP16,1*%
%TO.N,/EN3_B*%
X143074275Y-99380738D03*
%TD*%
%TO.P,WP10,1*%
%TO.N,/COL8*%
X158074275Y-99380738D03*
%TD*%
%TO.P,WP17,1*%
%TO.N,/EN4_A*%
X141074275Y-99380738D03*
%TD*%
%TO.P,WP12,1*%
%TO.N,/COL10*%
X154074275Y-99380738D03*
%TD*%
%TO.P,WP14,1*%
%TO.N,/COL12*%
X150074275Y-99380738D03*
%TD*%
%TO.P,WP3,1*%
%TO.N,Net-(R2-Pad2)*%
X273324275Y-63130738D03*
%TD*%
%TO.P,WP20,1*%
%TO.N,/+5V*%
X135074275Y-99380738D03*
%TD*%
%TO.P,WP6,1*%
%TO.N,~*%
X23824275Y-63130738D03*
%TD*%
%TO.P,WP8,1*%
%TO.N,Net-(R6-Pad2)*%
X25824275Y-63130738D03*
%TD*%
%TO.P,WP22,1*%
%TO.N,/+3.3V*%
X131074275Y-99380738D03*
%TD*%
%TO.P,WP7,1*%
%TO.N,Net-(R5-Pad2)*%
X21824275Y-63130738D03*
%TD*%
%TO.P,WP15,1*%
%TO.N,/EN3_A*%
X145074275Y-99380738D03*
%TD*%
%TO.P,WP11,1*%
%TO.N,/COL9*%
X156074275Y-99380738D03*
%TD*%
%TO.P,WP19,1*%
%TO.N,/LED_DOUT*%
X137074275Y-99380738D03*
%TD*%
%TO.P,WP4,1*%
%TO.N,/ROW5*%
X164074275Y-99380738D03*
%TD*%
%TO.P,WP13,1*%
%TO.N,/COL11*%
X152074275Y-99380738D03*
%TD*%
%TO.P,WP9,1*%
%TO.N,/COL7*%
X160074275Y-99380738D03*
%TD*%
%TO.P,WP21,1*%
%TO.N,~*%
X133074275Y-99380738D03*
%TD*%
D11*
%TO.N,~*%
X53574275Y-75980738D03*
X142352649Y-76359112D03*
X165352649Y-76359112D03*
X92065098Y-91471561D03*
X204239676Y-83515337D03*
X149974275Y-76359112D03*
X243445907Y-69509106D03*
X243974275Y-75980738D03*
X140374275Y-81380738D03*
X148174275Y-81380738D03*
X178174275Y-81380738D03*
X200774275Y-95180738D03*
X172952649Y-76359112D03*
X70787164Y-74167849D03*
X204883452Y-91471561D03*
X226374275Y-80580738D03*
X197774275Y-88096271D03*
X125174275Y-81380738D03*
X170774275Y-81380738D03*
X104174275Y-76359112D03*
X127174275Y-76359112D03*
X180552649Y-76359112D03*
D12*
X271324275Y-67880738D03*
D11*
X91174275Y-89980738D03*
X155974275Y-81380738D03*
X119374275Y-76359112D03*
X163374275Y-81380738D03*
X92174275Y-97980738D03*
X197974275Y-94580738D03*
X99258742Y-88096271D03*
X185574275Y-81580738D03*
X70974275Y-80580738D03*
X110574275Y-81380738D03*
X85574275Y-84492225D03*
X117374275Y-81380738D03*
X157574275Y-76359112D03*
X85774275Y-90980738D03*
X193774275Y-81780738D03*
X53445907Y-69509106D03*
X94974275Y-94580738D03*
X200174275Y-89980738D03*
X188152649Y-76359112D03*
X111752649Y-76359112D03*
X132974275Y-81380738D03*
D12*
X23824275Y-67880738D03*
D11*
X211462788Y-84492225D03*
X92774275Y-83515337D03*
X227761386Y-74167849D03*
X134752649Y-76359112D03*
D12*
%TO.N,/EN3_A*%
X145074275Y-97256238D03*
%TO.N,/EN4_B*%
X139074275Y-97256238D03*
D11*
%TO.N,Net-(D1-K)*%
X99574275Y-97780738D03*
X88360788Y-88166746D03*
%TO.N,/ROW5*%
X164074275Y-97003038D03*
%TO.N,Net-(D2-K)*%
X99974275Y-97180738D03*
X88774275Y-87723862D03*
%TO.N,Net-(D3-K)*%
X99174275Y-98380738D03*
X87947301Y-88609630D03*
%TO.N,Net-(D4-K)*%
X207402713Y-88609176D03*
X196174275Y-98180738D03*
%TO.N,Net-(D5-K)*%
X196798726Y-97111103D03*
X206545837Y-87752300D03*
%TO.N,Net-(D6-K)*%
X206974275Y-88180738D03*
X196445243Y-97638803D03*
%TO.N,/LED_DOUT*%
X137074275Y-96980738D03*
X50856242Y-70580738D03*
X87174275Y-93180738D03*
%TO.N,Net-(D8-DOUT)*%
X78174275Y-85403038D03*
X77100883Y-85853038D03*
%TO.N,Net-(D28-DOUT)*%
X223774275Y-85653038D03*
X223774275Y-88058438D03*
D12*
%TO.N,/+5V*%
X135074275Y-92580738D03*
D11*
%TO.N,/COL7*%
X160074275Y-96475338D03*
X107374275Y-96980738D03*
X88774275Y-86409176D03*
%TO.N,/COL8*%
X158074275Y-95947638D03*
X107846075Y-96452538D03*
X88360788Y-85966292D03*
%TO.N,/COL9*%
X87931819Y-85538387D03*
X156074275Y-95419938D03*
X108317875Y-95924338D03*
%TO.N,/COL10*%
X207197743Y-85141624D03*
X154174275Y-93780738D03*
X186574275Y-95180738D03*
%TO.N,/COL11*%
X152074275Y-94364038D03*
X206886009Y-85661181D03*
X186974275Y-95780738D03*
%TO.N,/COL12*%
X206574275Y-86180738D03*
X187374275Y-96380738D03*
X150074275Y-94880738D03*
%TD*%
D13*
%TO.N,/EN3_A*%
X145074275Y-99380738D02*
X145074275Y-97256238D01*
%TO.N,/EN4_B*%
X139074275Y-97256238D02*
X139074275Y-99380738D01*
%TO.N,Net-(D1-K)*%
X99574275Y-97780738D02*
X93810671Y-97780738D01*
X93810671Y-97780738D02*
X88574275Y-92544342D01*
X88574275Y-88380233D02*
X88360788Y-88166746D01*
X88574275Y-92544342D02*
X88574275Y-88380233D01*
%TO.N,/ROW5*%
X164074275Y-97003038D02*
X164074275Y-99380738D01*
%TO.N,Net-(D2-K)*%
X99974275Y-97180738D02*
X93847067Y-97180738D01*
X89174275Y-88123862D02*
X88774275Y-87723862D01*
X93847067Y-97180738D02*
X89174275Y-92507946D01*
X89174275Y-92507946D02*
X89174275Y-88123862D01*
%TO.N,Net-(D3-K)*%
X87947301Y-92553764D02*
X87947301Y-88609630D01*
X93774275Y-98380738D02*
X87947301Y-92553764D01*
X99174275Y-98380738D02*
X93774275Y-98380738D01*
%TO.N,Net-(D4-K)*%
X205774275Y-93780738D02*
X201374275Y-98180738D01*
X207302951Y-88708938D02*
X207302951Y-92252062D01*
X201374275Y-98180738D02*
X196174275Y-98180738D01*
X207402713Y-88609176D02*
X207302951Y-88708938D01*
X207302951Y-92252062D02*
X205774275Y-93780738D01*
%TO.N,Net-(D5-K)*%
X196798726Y-97111103D02*
X201171118Y-97111103D01*
X206324275Y-91957946D02*
X206324275Y-87973862D01*
X201171118Y-97111103D02*
X206324275Y-91957946D01*
X206324275Y-87973862D02*
X206545837Y-87752300D01*
%TO.N,Net-(D6-K)*%
X206774275Y-88380738D02*
X206974275Y-88180738D01*
X201279814Y-97638803D02*
X206774275Y-92144342D01*
X196445243Y-97638803D02*
X201279814Y-97638803D01*
X206774275Y-92144342D02*
X206774275Y-88380738D01*
%TO.N,/LED_DOUT*%
X87174275Y-93180738D02*
X82574275Y-88580738D01*
X53974275Y-70580738D02*
X50856242Y-70580738D01*
X137074275Y-99380738D02*
X137074275Y-96980738D01*
X71974275Y-88580738D02*
X53974275Y-70580738D01*
X82574275Y-88580738D02*
X71974275Y-88580738D01*
%TO.N,Net-(D8-DOUT)*%
X77550883Y-85403038D02*
X77100883Y-85853038D01*
X78174275Y-85403038D02*
X77550883Y-85403038D01*
%TO.N,Net-(D28-DOUT)*%
X223774275Y-88058438D02*
X223774275Y-85653038D01*
D14*
%TO.N,/+5V*%
X135074275Y-99380738D02*
X135074275Y-92580738D01*
D13*
%TO.N,/COL7*%
X107374275Y-96980738D02*
X100574275Y-96980738D01*
X100574275Y-96980738D02*
X90002713Y-86409176D01*
X90002713Y-86409176D02*
X88774275Y-86409176D01*
X160074275Y-96475338D02*
X160074275Y-99380738D01*
%TO.N,/COL8*%
X90110909Y-85880976D02*
X88446104Y-85880976D01*
X107846075Y-96452538D02*
X100682471Y-96452538D01*
X100682471Y-96452538D02*
X90110909Y-85880976D01*
X88446104Y-85880976D02*
X88360788Y-85966292D01*
X158074275Y-95947638D02*
X158074275Y-99380738D01*
%TO.N,/COL9*%
X90297305Y-85430976D02*
X88039230Y-85430976D01*
X108317875Y-95924338D02*
X100790667Y-95924338D01*
X100790667Y-95924338D02*
X90297305Y-85430976D01*
X156074275Y-95419938D02*
X156074275Y-99380738D01*
X88039230Y-85430976D02*
X87931819Y-85538387D01*
%TO.N,/COL10*%
X154174275Y-93780738D02*
X154074275Y-93880738D01*
X202949240Y-85132981D02*
X207189100Y-85132981D01*
X192901483Y-95180738D02*
X202949240Y-85132981D01*
X207189100Y-85132981D02*
X207197743Y-85141624D01*
X186574275Y-95180738D02*
X192901483Y-95180738D01*
X154074275Y-93880738D02*
X154074275Y-99380738D01*
%TO.N,/COL11*%
X152074275Y-94364038D02*
X152074275Y-99380738D01*
X192937879Y-95780738D02*
X203066079Y-85652538D01*
X203066079Y-85652538D02*
X206877366Y-85652538D01*
X186974275Y-95780738D02*
X192937879Y-95780738D01*
X206877366Y-85652538D02*
X206886009Y-85661181D01*
%TO.N,/COL12*%
X203174275Y-86180738D02*
X199774275Y-89580738D01*
X199774275Y-89580738D02*
X192974275Y-96380738D01*
X192974275Y-96380738D02*
X187374275Y-96380738D01*
X206574275Y-86180738D02*
X203174275Y-86180738D01*
X150074275Y-94880738D02*
X150074275Y-99380738D01*
%TD*%
%TA.AperFunction,Conductor*%
%TO.N,~*%
G36*
X89759300Y-87054361D02*
G01*
X89779942Y-87070995D01*
X99052503Y-96343557D01*
X99085988Y-96404880D01*
X99081004Y-96474572D01*
X99039132Y-96530505D01*
X98973668Y-96554922D01*
X98964822Y-96555238D01*
X94157519Y-96555238D01*
X94090480Y-96535553D01*
X94069838Y-96518919D01*
X89836094Y-92285174D01*
X89802609Y-92223851D01*
X89799775Y-92197493D01*
X89799775Y-88206599D01*
X89801499Y-88190985D01*
X89801213Y-88190958D01*
X89801947Y-88183195D01*
X89801548Y-88170511D01*
X89799775Y-88114064D01*
X89799775Y-88084512D01*
X89798904Y-88077621D01*
X89798447Y-88071807D01*
X89798411Y-88070676D01*
X89796984Y-88025234D01*
X89791395Y-88005999D01*
X89787449Y-87986946D01*
X89786983Y-87983256D01*
X89784939Y-87967070D01*
X89767776Y-87923721D01*
X89765889Y-87918208D01*
X89752892Y-87873472D01*
X89752891Y-87873470D01*
X89742696Y-87856231D01*
X89734135Y-87838755D01*
X89726761Y-87820131D01*
X89726761Y-87820129D01*
X89716749Y-87806350D01*
X89699358Y-87782412D01*
X89696175Y-87777567D01*
X89672445Y-87737441D01*
X89672440Y-87737435D01*
X89658280Y-87723275D01*
X89645645Y-87708482D01*
X89633868Y-87692274D01*
X89597968Y-87662575D01*
X89593656Y-87658652D01*
X89465067Y-87530063D01*
X89436806Y-87486353D01*
X89432846Y-87475911D01*
X89401946Y-87394435D01*
X89304870Y-87253796D01*
X89302266Y-87251489D01*
X89300910Y-87249326D01*
X89299896Y-87248182D01*
X89300086Y-87248013D01*
X89265142Y-87192300D01*
X89265910Y-87122434D01*
X89304329Y-87064075D01*
X89368200Y-87035751D01*
X89384496Y-87034676D01*
X89692261Y-87034676D01*
X89759300Y-87054361D01*
G37*
%TD.AperFunction*%
%TA.AperFunction,Conductor*%
G36*
X29585467Y-61103530D02*
G01*
X29631222Y-61156334D01*
X29642428Y-61207845D01*
X29642428Y-62989485D01*
X29642364Y-63180299D01*
X29642365Y-63180312D01*
X29680121Y-63572423D01*
X29752149Y-63942972D01*
X29755287Y-63959114D01*
X29867169Y-64336820D01*
X29867172Y-64336828D01*
X29867171Y-64336828D01*
X30014739Y-64702068D01*
X30196630Y-65051475D01*
X30196634Y-65051482D01*
X30411183Y-65381858D01*
X30533260Y-65535330D01*
X30656413Y-65690155D01*
X30930054Y-65973517D01*
X30930067Y-65973529D01*
X31145777Y-66157762D01*
X31229582Y-66229338D01*
X31229598Y-66229351D01*
X31229609Y-66229360D01*
X31552282Y-66455298D01*
X31552285Y-66455300D01*
X31552287Y-66455301D01*
X31895145Y-66649281D01*
X32255016Y-66809506D01*
X32332994Y-66835597D01*
X32628571Y-66934496D01*
X32628581Y-66934498D01*
X32628588Y-66934501D01*
X33012420Y-67023115D01*
X33159046Y-67042418D01*
X33402974Y-67074533D01*
X33402989Y-67074534D01*
X33589260Y-67081038D01*
X33796666Y-67088281D01*
X34189859Y-67064233D01*
X34578938Y-67002609D01*
X34578948Y-67002606D01*
X34578955Y-67002605D01*
X34842291Y-66934501D01*
X34960318Y-66903977D01*
X35330490Y-66769246D01*
X35686044Y-66599656D01*
X36023706Y-66396768D01*
X36340368Y-66162451D01*
X36633114Y-65898861D01*
X36899249Y-65608427D01*
X37136321Y-65293822D01*
X37342148Y-64957944D01*
X37342151Y-64957936D01*
X37342153Y-64957935D01*
X37466949Y-64702064D01*
X37514835Y-64603884D01*
X37652792Y-64234902D01*
X37703707Y-64044632D01*
X37703836Y-64044150D01*
X37703835Y-64044149D01*
X37704783Y-64040610D01*
X37706002Y-64036062D01*
X38330241Y-61706373D01*
X38366605Y-61646715D01*
X38429452Y-61616186D01*
X38482106Y-61618693D01*
X77665965Y-72117977D01*
X77725624Y-72154342D01*
X77756153Y-72217189D01*
X77753645Y-72269846D01*
X76750937Y-76012003D01*
X76750922Y-76012093D01*
X76703472Y-76189178D01*
X76703472Y-76189180D01*
X76638689Y-76574420D01*
X76638688Y-76574424D01*
X76610818Y-76964090D01*
X76620113Y-77354652D01*
X76666490Y-77742537D01*
X76666493Y-77742558D01*
X76749531Y-78124282D01*
X76868482Y-78496394D01*
X77022268Y-78855517D01*
X77022269Y-78855520D01*
X77189067Y-79160987D01*
X77209491Y-79198391D01*
X77426166Y-79518530D01*
X77428462Y-79521922D01*
X77677180Y-79823155D01*
X77677186Y-79823162D01*
X77677189Y-79823165D01*
X77953429Y-80099405D01*
X78254676Y-80348136D01*
X78254681Y-80348139D01*
X78254683Y-80348141D01*
X78578200Y-80567104D01*
X78578202Y-80567106D01*
X78921072Y-80754327D01*
X78921073Y-80754327D01*
X78921078Y-80754330D01*
X79267826Y-80902816D01*
X79280198Y-80908114D01*
X79652305Y-81027064D01*
X79652318Y-81027067D01*
X80034042Y-81110107D01*
X80092095Y-81117047D01*
X80421943Y-81156486D01*
X80812494Y-81165782D01*
X81202161Y-81137913D01*
X81492435Y-81089100D01*
X81587409Y-81073130D01*
X81587410Y-81073129D01*
X81587414Y-81073129D01*
X81964764Y-80972018D01*
X82330795Y-80835495D01*
X82682191Y-80664797D01*
X83015769Y-80461470D01*
X83328510Y-80227354D01*
X83617581Y-79964571D01*
X83880363Y-79675500D01*
X84114477Y-79362758D01*
X84317804Y-79029179D01*
X84488500Y-78677783D01*
X84532938Y-78558641D01*
X86726346Y-78558641D01*
X86732797Y-78636497D01*
X86734081Y-78651982D01*
X86734293Y-78657105D01*
X86734293Y-78678586D01*
X86737827Y-78699767D01*
X86738461Y-78704852D01*
X86746196Y-78798199D01*
X86746197Y-78798207D01*
X86769191Y-78889011D01*
X86770242Y-78894024D01*
X86773777Y-78915202D01*
X86780748Y-78935512D01*
X86782210Y-78940421D01*
X86805203Y-79031222D01*
X86805208Y-79031234D01*
X86842834Y-79117016D01*
X86844697Y-79121788D01*
X86851450Y-79141456D01*
X86851670Y-79142097D01*
X86856538Y-79151093D01*
X86861883Y-79160970D01*
X86864133Y-79165573D01*
X86889422Y-79223224D01*
X86901768Y-79251369D01*
X86901770Y-79251372D01*
X86953008Y-79329799D01*
X86955632Y-79334202D01*
X86965847Y-79353077D01*
X86965849Y-79353079D01*
X86979025Y-79370008D01*
X86982004Y-79374180D01*
X87033242Y-79452606D01*
X87096691Y-79521531D01*
X87100002Y-79525441D01*
X87113184Y-79542377D01*
X87113186Y-79542379D01*
X87113189Y-79542382D01*
X87122459Y-79550915D01*
X87128983Y-79556922D01*
X87132604Y-79560542D01*
X87196053Y-79629466D01*
X87255198Y-79675500D01*
X87269982Y-79687007D01*
X87273889Y-79690316D01*
X87289683Y-79704855D01*
X87307674Y-79716609D01*
X87311806Y-79719560D01*
X87385750Y-79777113D01*
X87385752Y-79777114D01*
X87385759Y-79777119D01*
X87468141Y-79821702D01*
X87472543Y-79824325D01*
X87489314Y-79835281D01*
X87490511Y-79836063D01*
X87490516Y-79836065D01*
X87510168Y-79844686D01*
X87514762Y-79846931D01*
X87536942Y-79858934D01*
X87597150Y-79891518D01*
X87597155Y-79891520D01*
X87597161Y-79891523D01*
X87685786Y-79921947D01*
X87690527Y-79923798D01*
X87710196Y-79932426D01*
X87731020Y-79937699D01*
X87735894Y-79939150D01*
X87824520Y-79969575D01*
X87916925Y-79984994D01*
X87921933Y-79986045D01*
X87942746Y-79991316D01*
X87964158Y-79993090D01*
X87969207Y-79993719D01*
X88061625Y-80009141D01*
X88061627Y-80009141D01*
X88155302Y-80009141D01*
X88160415Y-80009352D01*
X88175628Y-80010613D01*
X88181815Y-80011126D01*
X88181817Y-80011126D01*
X88181819Y-80011126D01*
X88188005Y-80010613D01*
X88203218Y-80009352D01*
X88208332Y-80009141D01*
X88302007Y-80009141D01*
X88302009Y-80009141D01*
X88394435Y-79993717D01*
X88399472Y-79993090D01*
X88420888Y-79991316D01*
X88441717Y-79986041D01*
X88446688Y-79984998D01*
X88539114Y-79969575D01*
X88627756Y-79939144D01*
X88632580Y-79937707D01*
X88653438Y-79932426D01*
X88673126Y-79923789D01*
X88677835Y-79921952D01*
X88766473Y-79891523D01*
X88848887Y-79846922D01*
X88853445Y-79844694D01*
X88873123Y-79836063D01*
X88891112Y-79824309D01*
X88895463Y-79821716D01*
X88977884Y-79777113D01*
X89051823Y-79719563D01*
X89055964Y-79716606D01*
X89073951Y-79704855D01*
X89089759Y-79690302D01*
X89093627Y-79687026D01*
X89167581Y-79629466D01*
X89231062Y-79560506D01*
X89234621Y-79556948D01*
X89250445Y-79542382D01*
X89263633Y-79525437D01*
X89266942Y-79521531D01*
X89330386Y-79452612D01*
X89330385Y-79452612D01*
X89330388Y-79452610D01*
X89381655Y-79374139D01*
X89384582Y-79370041D01*
X89397788Y-79353075D01*
X89408007Y-79334191D01*
X89410612Y-79329817D01*
X89461866Y-79251369D01*
X89499501Y-79165569D01*
X89501740Y-79160987D01*
X89511964Y-79142097D01*
X89518939Y-79121778D01*
X89520788Y-79117039D01*
X89558427Y-79031232D01*
X89581431Y-78940387D01*
X89582877Y-78935531D01*
X89589856Y-78915205D01*
X89593392Y-78894013D01*
X89594438Y-78889025D01*
X89617437Y-78798204D01*
X89625174Y-78704831D01*
X89625805Y-78699774D01*
X89629340Y-78678591D01*
X89629341Y-78678586D01*
X89629963Y-78648439D01*
X89630156Y-78644700D01*
X89637288Y-78558641D01*
X205511262Y-78558641D01*
X205517713Y-78636497D01*
X205518997Y-78651982D01*
X205519209Y-78657105D01*
X205519209Y-78678586D01*
X205522743Y-78699767D01*
X205523377Y-78704852D01*
X205531112Y-78798199D01*
X205531113Y-78798207D01*
X205554107Y-78889011D01*
X205555158Y-78894024D01*
X205558693Y-78915202D01*
X205565664Y-78935512D01*
X205567126Y-78940421D01*
X205590119Y-79031222D01*
X205590124Y-79031234D01*
X205627750Y-79117016D01*
X205629613Y-79121788D01*
X205636366Y-79141456D01*
X205636586Y-79142097D01*
X205641454Y-79151093D01*
X205646799Y-79160970D01*
X205649049Y-79165573D01*
X205674338Y-79223224D01*
X205686684Y-79251369D01*
X205686686Y-79251372D01*
X205737924Y-79329799D01*
X205740548Y-79334202D01*
X205750763Y-79353077D01*
X205750765Y-79353079D01*
X205763941Y-79370008D01*
X205766920Y-79374180D01*
X205818158Y-79452606D01*
X205881607Y-79521531D01*
X205884918Y-79525441D01*
X205898100Y-79542377D01*
X205898102Y-79542379D01*
X205898105Y-79542382D01*
X205907375Y-79550915D01*
X205913899Y-79556922D01*
X205917520Y-79560542D01*
X205980969Y-79629466D01*
X206040114Y-79675500D01*
X206054898Y-79687007D01*
X206058805Y-79690316D01*
X206074599Y-79704855D01*
X206092590Y-79716609D01*
X206096722Y-79719560D01*
X206170666Y-79777113D01*
X206170668Y-79777114D01*
X206170675Y-79777119D01*
X206253057Y-79821702D01*
X206257459Y-79824325D01*
X206274230Y-79835281D01*
X206275427Y-79836063D01*
X206275432Y-79836065D01*
X206295084Y-79844686D01*
X206299678Y-79846931D01*
X206321858Y-79858934D01*
X206382066Y-79891518D01*
X206382071Y-79891520D01*
X206382077Y-79891523D01*
X206470702Y-79921947D01*
X206475443Y-79923798D01*
X206495112Y-79932426D01*
X206515936Y-79937699D01*
X206520810Y-79939150D01*
X206609436Y-79969575D01*
X206701841Y-79984994D01*
X206706849Y-79986045D01*
X206727662Y-79991316D01*
X206749074Y-79993090D01*
X206754123Y-79993719D01*
X206846541Y-80009141D01*
X206846543Y-80009141D01*
X206940218Y-80009141D01*
X206945331Y-80009352D01*
X206960544Y-80010613D01*
X206966731Y-80011126D01*
X206966733Y-80011126D01*
X206966735Y-80011126D01*
X206972921Y-80010613D01*
X206988134Y-80009352D01*
X206993248Y-80009141D01*
X207086923Y-80009141D01*
X207086925Y-80009141D01*
X207179351Y-79993717D01*
X207184388Y-79993090D01*
X207205804Y-79991316D01*
X207226633Y-79986041D01*
X207231604Y-79984998D01*
X207324030Y-79969575D01*
X207412672Y-79939144D01*
X207417496Y-79937707D01*
X207438354Y-79932426D01*
X207458042Y-79923789D01*
X207462751Y-79921952D01*
X207551389Y-79891523D01*
X207633803Y-79846922D01*
X207638361Y-79844694D01*
X207658039Y-79836063D01*
X207676028Y-79824309D01*
X207680379Y-79821716D01*
X207762800Y-79777113D01*
X207836739Y-79719563D01*
X207840880Y-79716606D01*
X207858867Y-79704855D01*
X207874675Y-79690302D01*
X207878543Y-79687026D01*
X207952497Y-79629466D01*
X208015978Y-79560506D01*
X208019537Y-79556948D01*
X208035361Y-79542382D01*
X208048549Y-79525437D01*
X208051858Y-79521531D01*
X208115302Y-79452612D01*
X208115301Y-79452612D01*
X208115304Y-79452610D01*
X208166571Y-79374139D01*
X208169498Y-79370041D01*
X208182704Y-79353075D01*
X208192923Y-79334191D01*
X208195528Y-79329817D01*
X208246782Y-79251369D01*
X208284417Y-79165569D01*
X208286656Y-79160987D01*
X208296880Y-79142097D01*
X208303855Y-79121778D01*
X208305704Y-79117039D01*
X208343343Y-79031232D01*
X208366347Y-78940387D01*
X208367793Y-78935531D01*
X208374772Y-78915205D01*
X208378308Y-78894013D01*
X208379354Y-78889025D01*
X208402353Y-78798204D01*
X208410090Y-78704831D01*
X208410721Y-78699774D01*
X208414256Y-78678591D01*
X208414257Y-78678586D01*
X208414879Y-78648439D01*
X208415072Y-78644700D01*
X208422204Y-78558641D01*
X208415073Y-78472584D01*
X208414879Y-78468839D01*
X208414257Y-78438696D01*
X208410720Y-78417498D01*
X208410090Y-78412450D01*
X208402353Y-78319078D01*
X208379355Y-78228261D01*
X208378307Y-78223262D01*
X208374772Y-78202077D01*
X208367793Y-78181750D01*
X208366347Y-78176892D01*
X208343343Y-78086050D01*
X208309509Y-78008916D01*
X208305714Y-78000264D01*
X208303852Y-77995496D01*
X208296880Y-77975185D01*
X208286663Y-77956305D01*
X208284412Y-77951701D01*
X208246783Y-77865914D01*
X208195545Y-77787490D01*
X208192922Y-77783089D01*
X208182704Y-77764207D01*
X208182703Y-77764206D01*
X208182701Y-77764202D01*
X208177165Y-77757091D01*
X208169507Y-77747251D01*
X208166562Y-77743127D01*
X208124047Y-77678055D01*
X208115307Y-77664676D01*
X208115305Y-77664674D01*
X208115304Y-77664672D01*
X208051858Y-77595751D01*
X208048544Y-77591838D01*
X208048543Y-77591837D01*
X208035361Y-77574900D01*
X208019563Y-77560357D01*
X208015940Y-77556734D01*
X208015935Y-77556729D01*
X207952497Y-77487816D01*
X207952496Y-77487815D01*
X207952494Y-77487813D01*
X207952490Y-77487810D01*
X207878566Y-77430273D01*
X207874654Y-77426960D01*
X207858865Y-77412425D01*
X207848877Y-77405900D01*
X207840893Y-77400684D01*
X207836735Y-77397714D01*
X207762804Y-77340172D01*
X207762803Y-77340171D01*
X207762800Y-77340169D01*
X207762791Y-77340164D01*
X207680411Y-77295581D01*
X207676007Y-77292958D01*
X207658042Y-77281221D01*
X207658036Y-77281217D01*
X207638377Y-77272593D01*
X207633775Y-77270343D01*
X207551396Y-77225762D01*
X207551391Y-77225760D01*
X207551389Y-77225759D01*
X207523677Y-77216245D01*
X207462789Y-77195342D01*
X207458016Y-77193480D01*
X207438356Y-77184857D01*
X207438354Y-77184856D01*
X207438352Y-77184855D01*
X207438351Y-77184855D01*
X207438346Y-77184853D01*
X207422980Y-77180962D01*
X207417534Y-77179583D01*
X207412644Y-77178128D01*
X207340890Y-77153495D01*
X207324031Y-77147707D01*
X207324032Y-77147707D01*
X207231632Y-77132287D01*
X207226620Y-77131236D01*
X207205804Y-77125966D01*
X207184405Y-77124192D01*
X207179326Y-77123560D01*
X207122587Y-77114092D01*
X207086925Y-77108141D01*
X206993248Y-77108141D01*
X206988128Y-77107929D01*
X206966733Y-77106157D01*
X206945338Y-77107929D01*
X206940218Y-77108141D01*
X206846541Y-77108141D01*
X206754138Y-77123560D01*
X206749057Y-77124193D01*
X206727662Y-77125966D01*
X206706844Y-77131236D01*
X206701835Y-77132286D01*
X206609432Y-77147707D01*
X206520828Y-77178125D01*
X206515918Y-77179586D01*
X206495112Y-77184855D01*
X206495106Y-77184857D01*
X206475447Y-77193481D01*
X206470674Y-77195343D01*
X206382084Y-77225756D01*
X206382079Y-77225758D01*
X206382077Y-77225758D01*
X206382077Y-77225759D01*
X206378860Y-77227499D01*
X206299693Y-77270341D01*
X206295093Y-77272590D01*
X206275437Y-77281213D01*
X206275429Y-77281218D01*
X206257458Y-77292957D01*
X206253059Y-77295578D01*
X206183169Y-77333402D01*
X206170666Y-77340169D01*
X206170664Y-77340170D01*
X206170663Y-77340171D01*
X206096736Y-77397709D01*
X206092569Y-77400684D01*
X206074599Y-77412426D01*
X206058811Y-77426960D01*
X206054903Y-77430269D01*
X205980972Y-77487813D01*
X205980970Y-77487814D01*
X205917529Y-77556729D01*
X205913907Y-77560351D01*
X205898108Y-77574896D01*
X205898103Y-77574902D01*
X205884921Y-77591837D01*
X205881611Y-77595745D01*
X205818164Y-77664669D01*
X205766929Y-77743089D01*
X205763951Y-77747260D01*
X205750762Y-77764205D01*
X205740541Y-77783089D01*
X205737921Y-77787486D01*
X205686685Y-77865909D01*
X205686683Y-77865915D01*
X205649054Y-77951699D01*
X205646804Y-77956300D01*
X205636588Y-77975180D01*
X205636587Y-77975181D01*
X205629615Y-77995490D01*
X205627752Y-78000262D01*
X205590124Y-78086047D01*
X205590119Y-78086060D01*
X205567124Y-78176865D01*
X205565662Y-78181776D01*
X205558693Y-78202079D01*
X205555156Y-78223262D01*
X205554106Y-78228273D01*
X205531114Y-78319069D01*
X205531111Y-78319086D01*
X205523377Y-78412418D01*
X205522744Y-78417498D01*
X205519209Y-78438695D01*
X205519209Y-78460175D01*
X205518997Y-78465291D01*
X205511262Y-78558641D01*
X89637288Y-78558641D01*
X89630157Y-78472584D01*
X89629963Y-78468839D01*
X89629341Y-78438696D01*
X89625804Y-78417498D01*
X89625174Y-78412450D01*
X89617437Y-78319078D01*
X89594439Y-78228261D01*
X89593391Y-78223262D01*
X89589856Y-78202077D01*
X89582877Y-78181750D01*
X89581431Y-78176892D01*
X89558427Y-78086050D01*
X89524593Y-78008916D01*
X89520798Y-78000264D01*
X89518936Y-77995496D01*
X89511964Y-77975185D01*
X89501747Y-77956305D01*
X89499496Y-77951701D01*
X89461867Y-77865914D01*
X89410629Y-77787490D01*
X89408006Y-77783089D01*
X89397788Y-77764207D01*
X89397787Y-77764206D01*
X89397785Y-77764202D01*
X89392249Y-77757091D01*
X89384591Y-77747251D01*
X89381646Y-77743127D01*
X89339131Y-77678055D01*
X89330391Y-77664676D01*
X89330389Y-77664674D01*
X89330388Y-77664672D01*
X89266942Y-77595751D01*
X89263628Y-77591838D01*
X89263627Y-77591837D01*
X89250445Y-77574900D01*
X89234647Y-77560357D01*
X89231024Y-77556734D01*
X89231019Y-77556729D01*
X89167581Y-77487816D01*
X89167580Y-77487815D01*
X89167578Y-77487813D01*
X89167574Y-77487810D01*
X89093650Y-77430273D01*
X89089738Y-77426960D01*
X89073949Y-77412425D01*
X89063961Y-77405900D01*
X89055977Y-77400684D01*
X89051819Y-77397714D01*
X88977888Y-77340172D01*
X88977887Y-77340171D01*
X88977884Y-77340169D01*
X88977875Y-77340164D01*
X88895495Y-77295581D01*
X88891091Y-77292958D01*
X88873126Y-77281221D01*
X88873120Y-77281217D01*
X88853461Y-77272593D01*
X88848859Y-77270343D01*
X88766480Y-77225762D01*
X88766475Y-77225760D01*
X88766473Y-77225759D01*
X88738761Y-77216245D01*
X88677873Y-77195342D01*
X88673100Y-77193480D01*
X88653440Y-77184857D01*
X88653438Y-77184856D01*
X88653436Y-77184855D01*
X88653435Y-77184855D01*
X88653430Y-77184853D01*
X88638064Y-77180962D01*
X88632618Y-77179583D01*
X88627728Y-77178128D01*
X88555974Y-77153495D01*
X88539115Y-77147707D01*
X88539116Y-77147707D01*
X88446716Y-77132287D01*
X88441704Y-77131236D01*
X88420888Y-77125966D01*
X88399489Y-77124192D01*
X88394410Y-77123560D01*
X88337671Y-77114092D01*
X88302009Y-77108141D01*
X88208332Y-77108141D01*
X88203212Y-77107929D01*
X88181817Y-77106157D01*
X88160422Y-77107929D01*
X88155302Y-77108141D01*
X88061625Y-77108141D01*
X87969222Y-77123560D01*
X87964141Y-77124193D01*
X87942746Y-77125966D01*
X87921928Y-77131236D01*
X87916919Y-77132286D01*
X87824516Y-77147707D01*
X87735912Y-77178125D01*
X87731002Y-77179586D01*
X87710196Y-77184855D01*
X87710190Y-77184857D01*
X87690531Y-77193481D01*
X87685758Y-77195343D01*
X87597168Y-77225756D01*
X87597163Y-77225758D01*
X87597161Y-77225758D01*
X87597161Y-77225759D01*
X87593944Y-77227499D01*
X87514777Y-77270341D01*
X87510177Y-77272590D01*
X87490521Y-77281213D01*
X87490513Y-77281218D01*
X87472542Y-77292957D01*
X87468143Y-77295578D01*
X87398253Y-77333402D01*
X87385750Y-77340169D01*
X87385748Y-77340170D01*
X87385747Y-77340171D01*
X87311820Y-77397709D01*
X87307653Y-77400684D01*
X87289683Y-77412426D01*
X87273895Y-77426960D01*
X87269987Y-77430269D01*
X87196056Y-77487813D01*
X87196054Y-77487814D01*
X87132613Y-77556729D01*
X87128991Y-77560351D01*
X87113192Y-77574896D01*
X87113187Y-77574902D01*
X87100005Y-77591837D01*
X87096695Y-77595745D01*
X87033248Y-77664669D01*
X86982013Y-77743089D01*
X86979035Y-77747260D01*
X86965846Y-77764205D01*
X86955625Y-77783089D01*
X86953005Y-77787486D01*
X86901769Y-77865909D01*
X86901767Y-77865915D01*
X86864138Y-77951699D01*
X86861888Y-77956300D01*
X86851672Y-77975180D01*
X86851671Y-77975181D01*
X86844699Y-77995490D01*
X86842836Y-78000262D01*
X86805208Y-78086047D01*
X86805203Y-78086060D01*
X86782208Y-78176865D01*
X86780746Y-78181776D01*
X86773777Y-78202079D01*
X86770240Y-78223262D01*
X86769190Y-78228273D01*
X86746198Y-78319069D01*
X86746195Y-78319086D01*
X86738461Y-78412418D01*
X86737828Y-78417498D01*
X86734293Y-78438695D01*
X86734293Y-78460175D01*
X86734081Y-78465291D01*
X86726346Y-78558641D01*
X84532938Y-78558641D01*
X84625022Y-78311752D01*
X84675577Y-78123076D01*
X84675706Y-78122593D01*
X85675205Y-74392418D01*
X85711569Y-74332760D01*
X85774416Y-74302231D01*
X85827070Y-74304738D01*
X87550236Y-74766460D01*
X89200192Y-75208565D01*
X89202204Y-75209244D01*
X89202240Y-75209251D01*
X89204088Y-75209677D01*
X89205960Y-75209737D01*
X89206182Y-75209751D01*
X89208293Y-75209612D01*
X205940318Y-75209612D01*
X205942430Y-75209749D01*
X205942559Y-75209741D01*
X205944365Y-75209682D01*
X205946021Y-75209293D01*
X205949356Y-75208605D01*
X205953237Y-75207256D01*
X209321478Y-74304739D01*
X209391325Y-74306402D01*
X209449188Y-74345564D01*
X209473344Y-74392420D01*
X210058014Y-76574431D01*
X210456116Y-78060165D01*
X210460239Y-78075550D01*
X210460238Y-78075561D01*
X210523523Y-78311747D01*
X210523524Y-78311750D01*
X210523525Y-78311753D01*
X210660047Y-78677783D01*
X210829430Y-79026471D01*
X210830750Y-79029189D01*
X211034072Y-79362758D01*
X211268181Y-79675492D01*
X211268185Y-79675497D01*
X211268187Y-79675499D01*
X211530970Y-79964570D01*
X211820041Y-80227353D01*
X211820043Y-80227354D01*
X211820047Y-80227358D01*
X211981383Y-80348132D01*
X212132782Y-80461468D01*
X212251694Y-80533948D01*
X212466350Y-80664789D01*
X212466355Y-80664791D01*
X212466361Y-80664795D01*
X212817756Y-80835492D01*
X213183787Y-80972015D01*
X213389246Y-81027067D01*
X213561142Y-81073126D01*
X213747901Y-81104531D01*
X213946391Y-81137909D01*
X214336057Y-81165778D01*
X214726608Y-81156482D01*
X215085481Y-81113572D01*
X215114509Y-81110102D01*
X215114510Y-81110102D01*
X215496242Y-81027061D01*
X215513313Y-81021604D01*
X215868354Y-80908110D01*
X216227474Y-80754326D01*
X216400519Y-80659836D01*
X216570349Y-80567102D01*
X216570351Y-80567100D01*
X216577477Y-80562277D01*
X216893876Y-80348132D01*
X217195123Y-80099402D01*
X217471363Y-79823162D01*
X217720093Y-79521915D01*
X217939062Y-79198388D01*
X218126286Y-78855512D01*
X218280071Y-78496392D01*
X218399022Y-78124280D01*
X218409623Y-78075550D01*
X218482063Y-77742548D01*
X218482063Y-77742547D01*
X218502107Y-77574902D01*
X218528442Y-77354647D01*
X218537738Y-76964095D01*
X218509869Y-76574429D01*
X218445085Y-76189176D01*
X218403154Y-76032690D01*
X218394554Y-76000596D01*
X218394555Y-76000596D01*
X217962888Y-74389593D01*
X260093778Y-74389593D01*
X260101513Y-74482930D01*
X260101725Y-74488053D01*
X260101725Y-74509534D01*
X260105259Y-74530715D01*
X260105893Y-74535800D01*
X260113628Y-74629147D01*
X260113629Y-74629155D01*
X260136623Y-74719959D01*
X260137674Y-74724972D01*
X260141209Y-74746150D01*
X260148180Y-74766460D01*
X260149642Y-74771369D01*
X260172635Y-74862170D01*
X260172640Y-74862182D01*
X260210266Y-74947964D01*
X260212129Y-74952736D01*
X260218882Y-74972404D01*
X260219102Y-74973045D01*
X260223970Y-74982041D01*
X260229315Y-74991918D01*
X260231565Y-74996521D01*
X260256854Y-75054172D01*
X260269200Y-75082317D01*
X260269202Y-75082320D01*
X260320440Y-75160747D01*
X260323064Y-75165150D01*
X260333279Y-75184025D01*
X260333281Y-75184027D01*
X260346457Y-75200956D01*
X260349436Y-75205128D01*
X260400674Y-75283554D01*
X260464123Y-75352479D01*
X260467434Y-75356389D01*
X260480616Y-75373325D01*
X260480618Y-75373327D01*
X260480621Y-75373330D01*
X260489891Y-75381863D01*
X260496415Y-75387870D01*
X260500036Y-75391490D01*
X260563485Y-75460414D01*
X260637409Y-75517951D01*
X260637414Y-75517955D01*
X260641321Y-75521264D01*
X260657115Y-75535803D01*
X260675106Y-75547557D01*
X260679238Y-75550508D01*
X260753182Y-75608061D01*
X260753184Y-75608062D01*
X260753191Y-75608067D01*
X260835573Y-75652650D01*
X260839975Y-75655273D01*
X260856746Y-75666229D01*
X260857943Y-75667011D01*
X260857948Y-75667013D01*
X260877600Y-75675634D01*
X260882194Y-75677879D01*
X260904374Y-75689882D01*
X260964582Y-75722466D01*
X260964587Y-75722468D01*
X260964593Y-75722471D01*
X261053218Y-75752895D01*
X261057959Y-75754746D01*
X261077628Y-75763374D01*
X261098452Y-75768647D01*
X261103326Y-75770098D01*
X261191952Y-75800523D01*
X261284357Y-75815942D01*
X261289365Y-75816993D01*
X261310178Y-75822264D01*
X261331590Y-75824038D01*
X261336639Y-75824667D01*
X261429057Y-75840089D01*
X261429059Y-75840089D01*
X261522734Y-75840089D01*
X261527847Y-75840300D01*
X261543060Y-75841561D01*
X261549247Y-75842074D01*
X261549249Y-75842074D01*
X261549251Y-75842074D01*
X261555437Y-75841561D01*
X261570650Y-75840300D01*
X261575764Y-75840089D01*
X261669439Y-75840089D01*
X261669441Y-75840089D01*
X261761867Y-75824665D01*
X261766904Y-75824038D01*
X261788320Y-75822264D01*
X261809149Y-75816989D01*
X261814120Y-75815946D01*
X261906546Y-75800523D01*
X261995188Y-75770092D01*
X262000012Y-75768655D01*
X262020870Y-75763374D01*
X262040558Y-75754737D01*
X262045267Y-75752900D01*
X262133905Y-75722471D01*
X262216319Y-75677870D01*
X262220877Y-75675642D01*
X262240555Y-75667011D01*
X262258544Y-75655257D01*
X262262895Y-75652664D01*
X262345316Y-75608061D01*
X262419255Y-75550511D01*
X262423396Y-75547554D01*
X262441383Y-75535803D01*
X262457191Y-75521250D01*
X262461059Y-75517974D01*
X262535013Y-75460414D01*
X262598494Y-75391454D01*
X262602053Y-75387896D01*
X262617877Y-75373330D01*
X262631065Y-75356385D01*
X262634374Y-75352479D01*
X262697818Y-75283560D01*
X262697817Y-75283560D01*
X262697820Y-75283558D01*
X262749087Y-75205087D01*
X262752014Y-75200989D01*
X262765220Y-75184023D01*
X262775439Y-75165139D01*
X262778044Y-75160765D01*
X262829298Y-75082317D01*
X262866933Y-74996517D01*
X262869172Y-74991935D01*
X262879396Y-74973045D01*
X262886371Y-74952726D01*
X262888220Y-74947987D01*
X262925859Y-74862180D01*
X262948863Y-74771335D01*
X262950309Y-74766479D01*
X262957288Y-74746153D01*
X262960824Y-74724961D01*
X262961870Y-74719973D01*
X262984869Y-74629152D01*
X262992606Y-74535779D01*
X262993237Y-74530722D01*
X262996772Y-74509539D01*
X262996773Y-74509534D01*
X262997395Y-74479387D01*
X262997588Y-74475648D01*
X263004720Y-74389589D01*
X262997589Y-74303532D01*
X262997395Y-74299787D01*
X262996773Y-74269644D01*
X262993236Y-74248446D01*
X262992606Y-74243398D01*
X262984869Y-74150026D01*
X262961871Y-74059209D01*
X262960823Y-74054210D01*
X262957288Y-74033025D01*
X262950309Y-74012698D01*
X262948863Y-74007840D01*
X262925859Y-73916998D01*
X262888229Y-73831210D01*
X262886368Y-73826444D01*
X262879396Y-73806133D01*
X262869179Y-73787253D01*
X262866928Y-73782649D01*
X262829299Y-73696862D01*
X262778061Y-73618438D01*
X262775438Y-73614037D01*
X262765220Y-73595155D01*
X262765219Y-73595154D01*
X262765217Y-73595150D01*
X262759681Y-73588039D01*
X262752023Y-73578199D01*
X262749078Y-73574075D01*
X262706563Y-73509003D01*
X262697823Y-73495624D01*
X262697821Y-73495622D01*
X262697820Y-73495620D01*
X262634374Y-73426699D01*
X262631060Y-73422786D01*
X262631059Y-73422785D01*
X262617877Y-73405848D01*
X262602079Y-73391305D01*
X262598456Y-73387682D01*
X262598451Y-73387677D01*
X262535013Y-73318764D01*
X262535012Y-73318763D01*
X262535010Y-73318761D01*
X262535006Y-73318758D01*
X262461082Y-73261221D01*
X262457170Y-73257908D01*
X262441381Y-73243373D01*
X262431393Y-73236848D01*
X262423409Y-73231632D01*
X262419251Y-73228662D01*
X262345320Y-73171120D01*
X262345319Y-73171119D01*
X262345316Y-73171117D01*
X262345307Y-73171112D01*
X262262927Y-73126529D01*
X262258523Y-73123906D01*
X262240558Y-73112169D01*
X262240552Y-73112165D01*
X262220893Y-73103541D01*
X262216291Y-73101291D01*
X262133912Y-73056710D01*
X262133907Y-73056708D01*
X262133905Y-73056707D01*
X262106193Y-73047193D01*
X262045305Y-73026290D01*
X262040532Y-73024428D01*
X262020872Y-73015805D01*
X262020870Y-73015804D01*
X262020868Y-73015803D01*
X262020867Y-73015803D01*
X262020862Y-73015801D01*
X262005496Y-73011910D01*
X262000050Y-73010531D01*
X261995160Y-73009076D01*
X261923406Y-72984443D01*
X261906547Y-72978655D01*
X261906548Y-72978655D01*
X261814148Y-72963235D01*
X261809136Y-72962184D01*
X261788320Y-72956914D01*
X261766921Y-72955140D01*
X261761842Y-72954508D01*
X261705103Y-72945040D01*
X261669441Y-72939089D01*
X261575764Y-72939089D01*
X261570644Y-72938877D01*
X261549249Y-72937105D01*
X261527854Y-72938877D01*
X261522734Y-72939089D01*
X261429057Y-72939089D01*
X261336654Y-72954508D01*
X261331573Y-72955141D01*
X261310178Y-72956914D01*
X261289360Y-72962184D01*
X261284351Y-72963234D01*
X261191948Y-72978655D01*
X261103344Y-73009073D01*
X261098434Y-73010534D01*
X261077628Y-73015803D01*
X261077622Y-73015805D01*
X261057963Y-73024429D01*
X261053190Y-73026291D01*
X260964600Y-73056704D01*
X260964595Y-73056706D01*
X260964593Y-73056706D01*
X260964593Y-73056707D01*
X260961376Y-73058447D01*
X260882209Y-73101289D01*
X260877609Y-73103538D01*
X260857953Y-73112161D01*
X260857945Y-73112166D01*
X260839974Y-73123905D01*
X260835575Y-73126526D01*
X260765685Y-73164350D01*
X260753182Y-73171117D01*
X260753180Y-73171118D01*
X260753179Y-73171119D01*
X260679252Y-73228657D01*
X260675085Y-73231632D01*
X260657115Y-73243374D01*
X260641327Y-73257908D01*
X260637419Y-73261217D01*
X260563488Y-73318761D01*
X260563486Y-73318762D01*
X260500045Y-73387677D01*
X260496423Y-73391299D01*
X260480624Y-73405844D01*
X260480619Y-73405850D01*
X260467437Y-73422785D01*
X260464127Y-73426693D01*
X260400680Y-73495617D01*
X260349445Y-73574037D01*
X260346467Y-73578208D01*
X260333278Y-73595153D01*
X260323057Y-73614037D01*
X260320437Y-73618434D01*
X260269201Y-73696857D01*
X260269199Y-73696863D01*
X260231570Y-73782647D01*
X260229320Y-73787248D01*
X260219104Y-73806128D01*
X260219103Y-73806129D01*
X260212131Y-73826438D01*
X260210268Y-73831210D01*
X260172640Y-73916995D01*
X260172635Y-73917008D01*
X260149640Y-74007813D01*
X260148178Y-74012724D01*
X260141209Y-74033027D01*
X260137672Y-74054210D01*
X260136622Y-74059221D01*
X260113630Y-74150017D01*
X260113627Y-74150034D01*
X260105893Y-74243366D01*
X260105260Y-74248446D01*
X260101725Y-74269643D01*
X260101725Y-74291123D01*
X260101513Y-74296239D01*
X260101017Y-74302231D01*
X260093778Y-74389583D01*
X260093778Y-74389593D01*
X217962888Y-74389593D01*
X217394903Y-72269843D01*
X217396566Y-72199996D01*
X217435728Y-72142133D01*
X217482581Y-72117978D01*
X256666442Y-61618694D01*
X256736289Y-61620357D01*
X256794152Y-61659519D01*
X256818308Y-61706375D01*
X257431816Y-63996015D01*
X257431814Y-63996073D01*
X257431816Y-63996073D01*
X257495728Y-64234908D01*
X257633686Y-64603882D01*
X257633690Y-64603892D01*
X257681569Y-64702055D01*
X257806379Y-64957947D01*
X257941146Y-65177862D01*
X257964572Y-65216090D01*
X258012209Y-65293824D01*
X258249284Y-65608426D01*
X258515420Y-65898858D01*
X258598352Y-65973529D01*
X258739493Y-66100612D01*
X258808167Y-66162445D01*
X259124830Y-66396760D01*
X259462493Y-66599645D01*
X259818047Y-66769234D01*
X259818052Y-66769235D01*
X259818052Y-66769236D01*
X259928701Y-66809508D01*
X260188219Y-66903963D01*
X260360751Y-66948582D01*
X260569582Y-67002590D01*
X260569590Y-67002591D01*
X260569599Y-67002594D01*
X260569606Y-67002595D01*
X260569615Y-67002597D01*
X260958668Y-67064215D01*
X260958672Y-67064215D01*
X260958677Y-67064216D01*
X261351870Y-67088264D01*
X261569835Y-67080652D01*
X261745545Y-67074517D01*
X261745560Y-67074516D01*
X261928505Y-67050430D01*
X262136115Y-67023098D01*
X262519946Y-66934484D01*
X262519956Y-66934480D01*
X262519962Y-66934479D01*
X262648137Y-66891591D01*
X262893517Y-66809489D01*
X263253388Y-66649265D01*
X263596246Y-66455286D01*
X263918933Y-66229340D01*
X264218479Y-65973506D01*
X264492126Y-65690139D01*
X264737353Y-65381850D01*
X264951904Y-65051475D01*
X265133802Y-64702059D01*
X265281373Y-64336816D01*
X265367921Y-64044642D01*
X265393254Y-63959123D01*
X265393256Y-63959114D01*
X265393257Y-63959112D01*
X265468426Y-63572422D01*
X265506186Y-63180309D01*
X265506170Y-63130738D01*
X268118632Y-63130738D01*
X268139159Y-63352273D01*
X268139160Y-63352275D01*
X268200044Y-63566261D01*
X268200050Y-63566276D01*
X268299213Y-63765421D01*
X268299218Y-63765429D01*
X268433295Y-63942976D01*
X268597712Y-64092861D01*
X268597714Y-64092863D01*
X268786870Y-64209983D01*
X268786871Y-64209983D01*
X268786874Y-64209985D01*
X268994335Y-64290356D01*
X269213032Y-64331238D01*
X269213034Y-64331238D01*
X269435516Y-64331238D01*
X269435518Y-64331238D01*
X269654215Y-64290356D01*
X269861676Y-64209985D01*
X269978553Y-64137618D01*
X270670947Y-64137618D01*
X270787096Y-64209535D01*
X270787097Y-64209536D01*
X270994470Y-64289872D01*
X271213082Y-64330738D01*
X271435468Y-64330738D01*
X271654084Y-64289871D01*
X271861443Y-64209539D01*
X271861456Y-64209533D01*
X271977601Y-64137617D01*
X271324276Y-63484291D01*
X271324275Y-63484291D01*
X270670947Y-64137617D01*
X270670947Y-64137618D01*
X269978553Y-64137618D01*
X270050837Y-64092862D01*
X270215256Y-63942974D01*
X270349333Y-63765427D01*
X270353507Y-63757043D01*
X270376828Y-63724630D01*
X270970722Y-63130738D01*
X270970722Y-63130737D01*
X270942563Y-63102578D01*
X271020380Y-63102578D01*
X271030729Y-63214259D01*
X271080723Y-63314660D01*
X271163609Y-63390222D01*
X271268195Y-63430738D01*
X271352077Y-63430738D01*
X271434525Y-63415326D01*
X271529885Y-63356281D01*
X271597476Y-63266776D01*
X271628170Y-63158898D01*
X271625561Y-63130738D01*
X271677828Y-63130738D01*
X272271722Y-63724632D01*
X272295040Y-63757039D01*
X272299217Y-63765427D01*
X272433295Y-63942976D01*
X272597712Y-64092861D01*
X272597714Y-64092863D01*
X272786870Y-64209983D01*
X272786871Y-64209983D01*
X272786874Y-64209985D01*
X272994335Y-64290356D01*
X273213032Y-64331238D01*
X273213034Y-64331238D01*
X273435516Y-64331238D01*
X273435518Y-64331238D01*
X273654215Y-64290356D01*
X273861676Y-64209985D01*
X274050837Y-64092862D01*
X274197551Y-63959114D01*
X274215254Y-63942976D01*
X274215258Y-63942972D01*
X274349333Y-63765427D01*
X274448504Y-63566266D01*
X274509390Y-63352274D01*
X274529918Y-63130738D01*
X274509390Y-62909202D01*
X274448504Y-62695210D01*
X274438401Y-62674920D01*
X274349336Y-62496054D01*
X274349331Y-62496046D01*
X274215254Y-62318499D01*
X274050837Y-62168614D01*
X274050835Y-62168612D01*
X273861679Y-62051492D01*
X273861673Y-62051490D01*
X273654215Y-61971120D01*
X273435518Y-61930238D01*
X273213032Y-61930238D01*
X272994335Y-61971120D01*
X272863139Y-62021945D01*
X272786876Y-62051490D01*
X272786870Y-62051492D01*
X272597714Y-62168612D01*
X272597712Y-62168614D01*
X272433294Y-62318500D01*
X272433292Y-62318503D01*
X272299218Y-62496047D01*
X272299215Y-62496051D01*
X272295038Y-62504440D01*
X272271723Y-62536841D01*
X271677828Y-63130737D01*
X271677828Y-63130738D01*
X271625561Y-63130738D01*
X271617821Y-63047217D01*
X271567827Y-62946816D01*
X271484941Y-62871254D01*
X271380355Y-62830738D01*
X271296473Y-62830738D01*
X271214025Y-62846150D01*
X271118665Y-62905195D01*
X271051074Y-62994700D01*
X271020380Y-63102578D01*
X270942563Y-63102578D01*
X270376827Y-62536843D01*
X270353506Y-62504429D01*
X270349337Y-62496056D01*
X270349331Y-62496046D01*
X270215254Y-62318499D01*
X270050837Y-62168614D01*
X270050835Y-62168612D01*
X269978553Y-62123857D01*
X270670946Y-62123857D01*
X271324275Y-62777185D01*
X271324276Y-62777185D01*
X271977602Y-62123857D01*
X271861453Y-62051940D01*
X271861452Y-62051939D01*
X271654079Y-61971603D01*
X271435468Y-61930738D01*
X271213082Y-61930738D01*
X270994470Y-61971603D01*
X270787099Y-62051938D01*
X270787098Y-62051939D01*
X270670946Y-62123857D01*
X269978553Y-62123857D01*
X269861679Y-62051492D01*
X269861673Y-62051490D01*
X269654215Y-61971120D01*
X269435518Y-61930238D01*
X269213032Y-61930238D01*
X268994335Y-61971120D01*
X268863139Y-62021945D01*
X268786876Y-62051490D01*
X268786870Y-62051492D01*
X268597714Y-62168612D01*
X268597712Y-62168614D01*
X268433295Y-62318499D01*
X268299218Y-62496046D01*
X268299213Y-62496054D01*
X268200050Y-62695199D01*
X268200044Y-62695214D01*
X268139160Y-62909200D01*
X268139159Y-62909202D01*
X268118632Y-63130737D01*
X268118632Y-63130738D01*
X265506170Y-63130738D01*
X265506122Y-62983345D01*
X265506122Y-62982845D01*
X265506122Y-61207845D01*
X265525807Y-61140806D01*
X265578611Y-61095051D01*
X265630122Y-61083845D01*
X272899342Y-61083845D01*
X272899842Y-61083845D01*
X273070345Y-61090843D01*
X273316029Y-61101648D01*
X273320899Y-61102056D01*
X273521157Y-61126830D01*
X273737672Y-61155550D01*
X273742089Y-61156301D01*
X273945210Y-61198567D01*
X274153175Y-61245030D01*
X274157174Y-61246067D01*
X274358418Y-61305511D01*
X274559565Y-61369442D01*
X274563109Y-61370690D01*
X274760031Y-61446905D01*
X274953954Y-61527905D01*
X274957019Y-61529286D01*
X275147747Y-61621735D01*
X275333437Y-61719255D01*
X275336126Y-61720754D01*
X275519017Y-61828753D01*
X275676822Y-61930238D01*
X275696509Y-61942899D01*
X275871282Y-62066481D01*
X275871306Y-62066500D01*
X276038054Y-62195765D01*
X276038089Y-62195794D01*
X276200863Y-62332213D01*
X276203124Y-62334206D01*
X276357000Y-62476801D01*
X276507702Y-62625766D01*
X276510077Y-62628249D01*
X276651086Y-62784081D01*
X276788549Y-62944294D01*
X276790944Y-62947266D01*
X276918281Y-63115616D01*
X277041361Y-63285470D01*
X277043698Y-63288935D01*
X277156855Y-63469564D01*
X277264353Y-63646883D01*
X277266559Y-63650842D01*
X277365831Y-63845441D01*
X277455896Y-64025895D01*
X277457913Y-64030372D01*
X277552046Y-64263513D01*
X277613227Y-64416310D01*
X277648049Y-64515115D01*
X277648410Y-64515825D01*
X280606578Y-72882787D01*
X280610366Y-72952554D01*
X280575834Y-73013293D01*
X280531003Y-73041028D01*
X263867536Y-78932453D01*
X263797769Y-78936241D01*
X263749809Y-78913218D01*
X263637761Y-78825581D01*
X263637762Y-78825582D01*
X263637757Y-78825578D01*
X263411853Y-78677641D01*
X263355557Y-78637649D01*
X263344115Y-78633281D01*
X263285477Y-78594881D01*
X262915058Y-78394617D01*
X262529114Y-78226196D01*
X262529107Y-78226193D01*
X262332423Y-78159413D01*
X262130378Y-78090812D01*
X261721673Y-77989425D01*
X261721670Y-77989424D01*
X261721664Y-77989423D01*
X261449847Y-77945836D01*
X261305892Y-77922752D01*
X260885979Y-77891264D01*
X260885978Y-77891264D01*
X260464904Y-77895184D01*
X260417258Y-77899650D01*
X260413704Y-77898958D01*
X260379300Y-77903208D01*
X260045647Y-77934486D01*
X260005048Y-77941774D01*
X259976640Y-77946874D01*
X259967066Y-77945836D01*
X259896982Y-77961174D01*
X259895406Y-77961457D01*
X259631183Y-78008889D01*
X259631179Y-78008889D01*
X259631179Y-78008890D01*
X259631086Y-78008915D01*
X259427896Y-78063314D01*
X259427481Y-78063425D01*
X259427317Y-78063469D01*
X259427245Y-78063488D01*
X230394453Y-85842802D01*
X230394169Y-85842878D01*
X230393892Y-85842953D01*
X230393796Y-85842979D01*
X230393794Y-85842980D01*
X230382330Y-85846084D01*
X230382329Y-85846081D01*
X230381817Y-85846273D01*
X230325305Y-85861432D01*
X230195459Y-85896264D01*
X230195460Y-85896264D01*
X229875366Y-86010914D01*
X229808602Y-86034827D01*
X229434414Y-86204661D01*
X229434413Y-86204661D01*
X229118661Y-86380535D01*
X229075417Y-86404622D01*
X228734138Y-86633292D01*
X228734035Y-86633361D01*
X228412573Y-86889331D01*
X228412571Y-86889333D01*
X228206153Y-87083410D01*
X228113190Y-87170815D01*
X227837907Y-87475914D01*
X227588584Y-87802564D01*
X227588585Y-87802564D01*
X227366931Y-88148521D01*
X227366903Y-88148564D01*
X227297321Y-88279749D01*
X227174354Y-88511583D01*
X227174355Y-88511582D01*
X227174352Y-88511588D01*
X227093132Y-88700759D01*
X227012234Y-88889180D01*
X227012232Y-88889184D01*
X226881635Y-89278808D01*
X226783444Y-89677832D01*
X226718318Y-90083565D01*
X226686698Y-90493274D01*
X226686698Y-90493275D01*
X226688797Y-90904206D01*
X226688797Y-90904207D01*
X226702830Y-91065150D01*
X226706635Y-91108787D01*
X226706635Y-91108788D01*
X226772937Y-91866621D01*
X227012055Y-94599772D01*
X226998288Y-94668272D01*
X226949673Y-94718455D01*
X226899334Y-94734107D01*
X219277445Y-95400936D01*
X219277050Y-95400894D01*
X219253039Y-95403031D01*
X219252674Y-95403220D01*
X219252673Y-95403221D01*
X219252549Y-95403618D01*
X219254719Y-95428164D01*
X219254706Y-95428165D01*
X219254750Y-95428317D01*
X219763683Y-101245431D01*
X219749916Y-101313931D01*
X219701301Y-101364114D01*
X219640155Y-101380238D01*
X75508395Y-101380238D01*
X75441356Y-101360553D01*
X75395601Y-101307749D01*
X75384867Y-101245431D01*
X75446595Y-100539872D01*
X75895260Y-95411600D01*
X75896000Y-95403618D01*
X75896001Y-95403617D01*
X75895877Y-95403222D01*
X75895874Y-95403218D01*
X75895571Y-95403063D01*
X75895509Y-95403031D01*
X75895507Y-95403030D01*
X75871868Y-95400932D01*
X75871502Y-95400970D01*
X68249213Y-94734107D01*
X68184144Y-94708655D01*
X68143165Y-94652064D01*
X68136492Y-94599772D01*
X68437418Y-91160175D01*
X68437451Y-91160092D01*
X68459769Y-90904207D01*
X68459861Y-90886088D01*
X68461875Y-90493270D01*
X68430262Y-90083555D01*
X68365142Y-89677814D01*
X68335872Y-89558862D01*
X68266956Y-89278786D01*
X68136366Y-88889162D01*
X68089186Y-88779272D01*
X67974245Y-88511551D01*
X67781695Y-88148521D01*
X67560012Y-87802512D01*
X67556542Y-87797966D01*
X67310692Y-87475860D01*
X67310689Y-87475856D01*
X67230765Y-87387275D01*
X67035413Y-87170761D01*
X67035413Y-87170762D01*
X67033446Y-87168913D01*
X66736023Y-86889268D01*
X66546811Y-86738603D01*
X66414557Y-86633292D01*
X66073171Y-86404550D01*
X65714170Y-86204586D01*
X65714169Y-86204586D01*
X65339983Y-86034754D01*
X65339981Y-86034753D01*
X65339976Y-86034751D01*
X65193996Y-85982465D01*
X64953117Y-85896188D01*
X64953117Y-85896189D01*
X64953109Y-85896186D01*
X64754658Y-85842953D01*
X64754250Y-85842843D01*
X64754095Y-85842802D01*
X50628684Y-82057909D01*
X35720655Y-78063314D01*
X35720654Y-78063314D01*
X35709118Y-78060223D01*
X35708768Y-78060165D01*
X35637398Y-78041056D01*
X35517360Y-78008916D01*
X35517353Y-78008914D01*
X35253015Y-77961457D01*
X35184920Y-77946550D01*
X35172568Y-77947014D01*
X35102900Y-77934506D01*
X34683645Y-77895199D01*
X34262571Y-77891274D01*
X34262570Y-77891274D01*
X33842657Y-77922759D01*
X33698744Y-77945836D01*
X33426886Y-77989429D01*
X33426879Y-77989430D01*
X33426877Y-77989431D01*
X33018174Y-78090818D01*
X32619439Y-78226203D01*
X32614705Y-78228269D01*
X32233500Y-78394624D01*
X32233497Y-78394626D01*
X31863078Y-78594895D01*
X31839707Y-78610199D01*
X31803873Y-78633667D01*
X31794531Y-78636497D01*
X31735435Y-78678485D01*
X31510808Y-78825592D01*
X31398764Y-78913226D01*
X31333831Y-78939023D01*
X31281037Y-78932462D01*
X18431863Y-74389593D01*
X32143830Y-74389593D01*
X32151565Y-74482930D01*
X32151777Y-74488053D01*
X32151777Y-74509534D01*
X32155311Y-74530715D01*
X32155945Y-74535800D01*
X32163680Y-74629147D01*
X32163681Y-74629155D01*
X32186675Y-74719959D01*
X32187726Y-74724972D01*
X32191261Y-74746150D01*
X32198232Y-74766460D01*
X32199694Y-74771369D01*
X32222687Y-74862170D01*
X32222692Y-74862182D01*
X32260318Y-74947964D01*
X32262181Y-74952736D01*
X32268934Y-74972404D01*
X32269154Y-74973045D01*
X32274022Y-74982041D01*
X32279367Y-74991918D01*
X32281617Y-74996521D01*
X32306906Y-75054172D01*
X32319252Y-75082317D01*
X32319254Y-75082320D01*
X32370492Y-75160747D01*
X32373116Y-75165150D01*
X32383331Y-75184025D01*
X32383333Y-75184027D01*
X32396509Y-75200956D01*
X32399488Y-75205128D01*
X32450726Y-75283554D01*
X32514175Y-75352479D01*
X32517486Y-75356389D01*
X32530668Y-75373325D01*
X32530670Y-75373327D01*
X32530673Y-75373330D01*
X32539943Y-75381863D01*
X32546467Y-75387870D01*
X32550088Y-75391490D01*
X32613537Y-75460414D01*
X32687461Y-75517951D01*
X32687466Y-75517955D01*
X32691373Y-75521264D01*
X32707167Y-75535803D01*
X32725158Y-75547557D01*
X32729290Y-75550508D01*
X32803234Y-75608061D01*
X32803236Y-75608062D01*
X32803243Y-75608067D01*
X32885625Y-75652650D01*
X32890027Y-75655273D01*
X32906798Y-75666229D01*
X32907995Y-75667011D01*
X32908000Y-75667013D01*
X32927652Y-75675634D01*
X32932246Y-75677879D01*
X32954426Y-75689882D01*
X33014634Y-75722466D01*
X33014639Y-75722468D01*
X33014645Y-75722471D01*
X33103270Y-75752895D01*
X33108011Y-75754746D01*
X33127680Y-75763374D01*
X33148504Y-75768647D01*
X33153378Y-75770098D01*
X33242004Y-75800523D01*
X33334409Y-75815942D01*
X33339417Y-75816993D01*
X33360230Y-75822264D01*
X33381642Y-75824038D01*
X33386691Y-75824667D01*
X33479109Y-75840089D01*
X33479111Y-75840089D01*
X33572786Y-75840089D01*
X33577899Y-75840300D01*
X33593112Y-75841561D01*
X33599299Y-75842074D01*
X33599301Y-75842074D01*
X33599303Y-75842074D01*
X33605489Y-75841561D01*
X33620702Y-75840300D01*
X33625816Y-75840089D01*
X33719491Y-75840089D01*
X33719493Y-75840089D01*
X33811919Y-75824665D01*
X33816956Y-75824038D01*
X33838372Y-75822264D01*
X33859201Y-75816989D01*
X33864172Y-75815946D01*
X33956598Y-75800523D01*
X34045240Y-75770092D01*
X34050064Y-75768655D01*
X34070922Y-75763374D01*
X34090610Y-75754737D01*
X34095319Y-75752900D01*
X34183957Y-75722471D01*
X34266371Y-75677870D01*
X34270929Y-75675642D01*
X34290607Y-75667011D01*
X34308596Y-75655257D01*
X34312947Y-75652664D01*
X34395368Y-75608061D01*
X34469307Y-75550511D01*
X34473448Y-75547554D01*
X34491435Y-75535803D01*
X34507243Y-75521250D01*
X34511111Y-75517974D01*
X34585065Y-75460414D01*
X34648546Y-75391454D01*
X34652105Y-75387896D01*
X34667929Y-75373330D01*
X34681117Y-75356385D01*
X34684426Y-75352479D01*
X34747870Y-75283560D01*
X34747869Y-75283560D01*
X34747872Y-75283558D01*
X34799139Y-75205087D01*
X34802066Y-75200989D01*
X34815272Y-75184023D01*
X34825491Y-75165139D01*
X34828096Y-75160765D01*
X34879350Y-75082317D01*
X34916985Y-74996517D01*
X34919224Y-74991935D01*
X34929448Y-74973045D01*
X34936423Y-74952726D01*
X34938272Y-74947987D01*
X34975911Y-74862180D01*
X34998915Y-74771335D01*
X35000361Y-74766479D01*
X35007340Y-74746153D01*
X35010876Y-74724961D01*
X35011922Y-74719973D01*
X35034921Y-74629152D01*
X35042658Y-74535779D01*
X35043289Y-74530722D01*
X35046824Y-74509539D01*
X35046825Y-74509534D01*
X35047447Y-74479387D01*
X35047640Y-74475648D01*
X35054772Y-74389589D01*
X35047641Y-74303532D01*
X35047447Y-74299787D01*
X35046825Y-74269644D01*
X35043288Y-74248446D01*
X35042658Y-74243398D01*
X35034921Y-74150026D01*
X35011923Y-74059209D01*
X35010875Y-74054210D01*
X35007340Y-74033025D01*
X35000361Y-74012698D01*
X34998915Y-74007840D01*
X34975911Y-73916998D01*
X34938281Y-73831210D01*
X34936420Y-73826444D01*
X34929448Y-73806133D01*
X34919231Y-73787253D01*
X34916980Y-73782649D01*
X34879351Y-73696862D01*
X34828113Y-73618438D01*
X34825490Y-73614037D01*
X34815272Y-73595155D01*
X34815271Y-73595154D01*
X34815269Y-73595150D01*
X34809733Y-73588039D01*
X34802075Y-73578199D01*
X34799130Y-73574075D01*
X34756615Y-73509003D01*
X34747875Y-73495624D01*
X34747873Y-73495622D01*
X34747872Y-73495620D01*
X34684426Y-73426699D01*
X34681112Y-73422786D01*
X34681111Y-73422785D01*
X34667929Y-73405848D01*
X34652131Y-73391305D01*
X34648508Y-73387682D01*
X34648503Y-73387677D01*
X34585065Y-73318764D01*
X34585064Y-73318763D01*
X34585062Y-73318761D01*
X34585058Y-73318758D01*
X34511134Y-73261221D01*
X34507222Y-73257908D01*
X34491433Y-73243373D01*
X34481445Y-73236848D01*
X34473461Y-73231632D01*
X34469303Y-73228662D01*
X34395372Y-73171120D01*
X34395371Y-73171119D01*
X34395368Y-73171117D01*
X34395359Y-73171112D01*
X34312979Y-73126529D01*
X34308575Y-73123906D01*
X34290610Y-73112169D01*
X34290604Y-73112165D01*
X34270945Y-73103541D01*
X34266343Y-73101291D01*
X34183964Y-73056710D01*
X34183959Y-73056708D01*
X34183957Y-73056707D01*
X34156245Y-73047193D01*
X34095357Y-73026290D01*
X34090584Y-73024428D01*
X34070924Y-73015805D01*
X34070922Y-73015804D01*
X34070920Y-73015803D01*
X34070919Y-73015803D01*
X34070914Y-73015801D01*
X34055548Y-73011910D01*
X34050102Y-73010531D01*
X34045212Y-73009076D01*
X33973458Y-72984443D01*
X33956599Y-72978655D01*
X33956600Y-72978655D01*
X33864200Y-72963235D01*
X33859188Y-72962184D01*
X33838372Y-72956914D01*
X33816973Y-72955140D01*
X33811894Y-72954508D01*
X33755155Y-72945040D01*
X33719493Y-72939089D01*
X33625816Y-72939089D01*
X33620696Y-72938877D01*
X33599301Y-72937105D01*
X33577906Y-72938877D01*
X33572786Y-72939089D01*
X33479109Y-72939089D01*
X33386706Y-72954508D01*
X33381625Y-72955141D01*
X33360230Y-72956914D01*
X33339412Y-72962184D01*
X33334403Y-72963234D01*
X33242000Y-72978655D01*
X33153396Y-73009073D01*
X33148486Y-73010534D01*
X33127680Y-73015803D01*
X33127674Y-73015805D01*
X33108015Y-73024429D01*
X33103242Y-73026291D01*
X33014652Y-73056704D01*
X33014647Y-73056706D01*
X33014645Y-73056706D01*
X33014645Y-73056707D01*
X33011428Y-73058447D01*
X32932261Y-73101289D01*
X32927661Y-73103538D01*
X32908005Y-73112161D01*
X32907997Y-73112166D01*
X32890026Y-73123905D01*
X32885627Y-73126526D01*
X32815737Y-73164350D01*
X32803234Y-73171117D01*
X32803232Y-73171118D01*
X32803231Y-73171119D01*
X32729304Y-73228657D01*
X32725137Y-73231632D01*
X32707167Y-73243374D01*
X32691379Y-73257908D01*
X32687471Y-73261217D01*
X32613540Y-73318761D01*
X32613538Y-73318762D01*
X32550097Y-73387677D01*
X32546475Y-73391299D01*
X32530676Y-73405844D01*
X32530671Y-73405850D01*
X32517489Y-73422785D01*
X32514179Y-73426693D01*
X32450732Y-73495617D01*
X32399497Y-73574037D01*
X32396519Y-73578208D01*
X32383330Y-73595153D01*
X32373109Y-73614037D01*
X32370489Y-73618434D01*
X32319253Y-73696857D01*
X32319251Y-73696863D01*
X32281622Y-73782647D01*
X32279372Y-73787248D01*
X32269156Y-73806128D01*
X32269155Y-73806129D01*
X32262183Y-73826438D01*
X32260320Y-73831210D01*
X32222692Y-73916995D01*
X32222687Y-73917008D01*
X32199692Y-74007813D01*
X32198230Y-74012724D01*
X32191261Y-74033027D01*
X32187724Y-74054210D01*
X32186674Y-74059221D01*
X32163682Y-74150017D01*
X32163679Y-74150034D01*
X32155945Y-74243366D01*
X32155312Y-74248446D01*
X32151777Y-74269643D01*
X32151777Y-74291123D01*
X32151565Y-74296239D01*
X32151069Y-74302231D01*
X32143830Y-74389583D01*
X32143830Y-74389593D01*
X18431863Y-74389593D01*
X14617545Y-73041028D01*
X14560901Y-73000123D01*
X14535364Y-72935087D01*
X14541970Y-72882787D01*
X15355867Y-70580738D01*
X50147374Y-70580738D01*
X50167971Y-70750380D01*
X50228571Y-70910166D01*
X50316620Y-71037726D01*
X50325647Y-71050804D01*
X50453559Y-71164125D01*
X50604874Y-71243541D01*
X50770797Y-71284438D01*
X50770798Y-71284438D01*
X50941686Y-71284438D01*
X50941687Y-71284438D01*
X51107610Y-71243541D01*
X51123625Y-71235135D01*
X51151625Y-71220441D01*
X51209249Y-71206238D01*
X53663823Y-71206238D01*
X53730862Y-71225923D01*
X53751503Y-71242556D01*
X62731942Y-80222996D01*
X71473472Y-88964526D01*
X71483297Y-88976789D01*
X71483518Y-88976607D01*
X71488489Y-88982616D01*
X71514492Y-89007033D01*
X71538910Y-89029964D01*
X71559804Y-89050858D01*
X71565286Y-89055111D01*
X71569718Y-89058895D01*
X71603693Y-89090800D01*
X71621251Y-89100452D01*
X71637510Y-89111133D01*
X71653339Y-89123411D01*
X71696113Y-89141920D01*
X71701331Y-89144476D01*
X71742183Y-89166935D01*
X71761591Y-89171918D01*
X71779992Y-89178218D01*
X71798379Y-89186175D01*
X71841763Y-89193046D01*
X71844394Y-89193463D01*
X71850114Y-89194647D01*
X71895256Y-89206238D01*
X71915291Y-89206238D01*
X71934689Y-89207764D01*
X71954469Y-89210897D01*
X71954470Y-89210898D01*
X71954470Y-89210897D01*
X71954471Y-89210898D01*
X72000859Y-89206513D01*
X72006697Y-89206238D01*
X82263823Y-89206238D01*
X82330862Y-89225923D01*
X82351503Y-89242556D01*
X84810533Y-91701587D01*
X84844018Y-91762909D01*
X84839034Y-91832601D01*
X84797162Y-91888534D01*
X84731698Y-91912951D01*
X84669834Y-91901361D01*
X84599248Y-91867976D01*
X84596531Y-91866608D01*
X84562440Y-91848387D01*
X84562434Y-91848384D01*
X84562431Y-91848382D01*
X84562429Y-91848381D01*
X84526707Y-91833584D01*
X84523927Y-91832351D01*
X84379492Y-91764040D01*
X84379484Y-91764036D01*
X84298820Y-91735174D01*
X84229045Y-91710208D01*
X84226206Y-91709112D01*
X84190475Y-91694312D01*
X84153476Y-91683089D01*
X84150587Y-91682134D01*
X84000150Y-91628308D01*
X84000144Y-91628306D01*
X83845164Y-91589485D01*
X83842231Y-91588673D01*
X83805219Y-91577446D01*
X83793525Y-91575120D01*
X83767261Y-91569896D01*
X83764309Y-91569233D01*
X83609337Y-91530414D01*
X83609332Y-91530413D01*
X83609331Y-91530413D01*
X83587430Y-91527164D01*
X83451275Y-91506967D01*
X83448278Y-91506447D01*
X83410352Y-91498903D01*
X83371856Y-91495110D01*
X83368839Y-91494738D01*
X83210812Y-91471298D01*
X83210807Y-91471297D01*
X83210802Y-91471297D01*
X83178813Y-91469725D01*
X83051217Y-91463455D01*
X83048185Y-91463231D01*
X83009698Y-91459442D01*
X83009697Y-91459442D01*
X82971019Y-91459442D01*
X82967977Y-91459367D01*
X82808398Y-91451528D01*
X82648819Y-91459367D01*
X82645777Y-91459442D01*
X82607107Y-91459442D01*
X82607099Y-91459442D01*
X82596543Y-91460481D01*
X82568608Y-91463231D01*
X82565577Y-91463455D01*
X82434342Y-91469904D01*
X82405994Y-91471297D01*
X82405989Y-91471297D01*
X82405983Y-91471298D01*
X82247955Y-91494738D01*
X82244939Y-91495110D01*
X82206441Y-91498903D01*
X82168502Y-91506450D01*
X82165505Y-91506970D01*
X82007455Y-91530414D01*
X81852488Y-91569232D01*
X81849519Y-91569898D01*
X81811589Y-91577442D01*
X81774548Y-91588677D01*
X81771618Y-91589487D01*
X81616665Y-91628302D01*
X81616644Y-91628308D01*
X81466212Y-91682132D01*
X81463325Y-91683086D01*
X81426335Y-91694307D01*
X81426319Y-91694313D01*
X81426317Y-91694314D01*
X81422201Y-91696018D01*
X81390575Y-91709117D01*
X81387738Y-91710212D01*
X81237325Y-91764031D01*
X81237318Y-91764033D01*
X81237312Y-91764036D01*
X81237307Y-91764038D01*
X81237303Y-91764040D01*
X81092882Y-91832345D01*
X81090103Y-91833577D01*
X81054364Y-91848382D01*
X81054361Y-91848384D01*
X81020241Y-91866621D01*
X81017524Y-91867988D01*
X80873104Y-91936293D01*
X80736058Y-92018434D01*
X80733413Y-92019932D01*
X80699315Y-92038159D01*
X80699308Y-92038163D01*
X80667136Y-92059659D01*
X80664567Y-92061285D01*
X80527527Y-92143424D01*
X80399218Y-92238585D01*
X80396732Y-92240336D01*
X80364572Y-92261825D01*
X80364556Y-92261837D01*
X80334661Y-92286371D01*
X80332263Y-92288242D01*
X80203937Y-92383415D01*
X80085559Y-92490705D01*
X80083257Y-92492691D01*
X80053344Y-92517242D01*
X80025993Y-92544592D01*
X80023791Y-92546689D01*
X79905410Y-92653985D01*
X79798114Y-92772366D01*
X79796017Y-92774568D01*
X79768667Y-92801919D01*
X79744116Y-92831832D01*
X79742130Y-92834134D01*
X79634840Y-92952512D01*
X79539667Y-93080838D01*
X79537796Y-93083236D01*
X79513262Y-93113131D01*
X79513250Y-93113147D01*
X79491761Y-93145307D01*
X79490010Y-93147793D01*
X79394849Y-93276102D01*
X79312710Y-93413142D01*
X79311084Y-93415711D01*
X79289588Y-93447883D01*
X79289584Y-93447890D01*
X79271357Y-93481988D01*
X79269859Y-93484633D01*
X79187718Y-93621679D01*
X79119413Y-93766099D01*
X79118046Y-93768816D01*
X79099809Y-93802936D01*
X79099807Y-93802939D01*
X79085002Y-93838678D01*
X79083770Y-93841457D01*
X79032254Y-93950381D01*
X79015462Y-93985886D01*
X79015456Y-93985900D01*
X78961637Y-94136313D01*
X78960542Y-94139150D01*
X78945738Y-94174895D01*
X78945732Y-94174910D01*
X78934511Y-94211900D01*
X78933557Y-94214787D01*
X78879733Y-94365219D01*
X78879727Y-94365240D01*
X78840912Y-94520193D01*
X78840102Y-94523123D01*
X78828867Y-94560164D01*
X78821323Y-94598094D01*
X78820657Y-94601063D01*
X78781839Y-94756030D01*
X78758395Y-94914080D01*
X78757875Y-94917077D01*
X78750328Y-94955016D01*
X78746535Y-94993514D01*
X78746163Y-94996530D01*
X78722723Y-95154558D01*
X78722723Y-95154559D01*
X78722722Y-95154569D01*
X78721436Y-95180738D01*
X78714880Y-95314152D01*
X78714656Y-95317183D01*
X78712317Y-95340950D01*
X78710867Y-95355674D01*
X78710867Y-95355682D01*
X78710867Y-95394352D01*
X78710792Y-95397394D01*
X78702953Y-95556972D01*
X78710792Y-95716550D01*
X78710867Y-95719592D01*
X78710867Y-95758270D01*
X78714656Y-95796760D01*
X78714880Y-95799792D01*
X78721001Y-95924338D01*
X78722722Y-95959377D01*
X78722722Y-95959382D01*
X78722723Y-95959387D01*
X78746163Y-96117414D01*
X78746535Y-96120431D01*
X78750328Y-96158927D01*
X78757872Y-96196853D01*
X78758392Y-96199850D01*
X78769842Y-96277038D01*
X78781837Y-96357902D01*
X78781839Y-96357912D01*
X78820658Y-96512884D01*
X78821321Y-96515836D01*
X78823684Y-96527715D01*
X78828871Y-96553794D01*
X78840098Y-96590806D01*
X78840910Y-96593739D01*
X78879731Y-96748719D01*
X78879733Y-96748725D01*
X78933559Y-96899162D01*
X78934514Y-96902051D01*
X78945737Y-96939050D01*
X78960537Y-96974781D01*
X78961633Y-96977620D01*
X78971562Y-97005370D01*
X79015461Y-97128059D01*
X79015465Y-97128067D01*
X79083776Y-97272502D01*
X79085009Y-97275282D01*
X79099806Y-97311004D01*
X79099812Y-97311015D01*
X79118033Y-97345106D01*
X79119401Y-97347823D01*
X79187716Y-97492262D01*
X79269855Y-97629303D01*
X79271354Y-97631948D01*
X79289590Y-97666065D01*
X79311077Y-97698222D01*
X79311079Y-97698225D01*
X79312694Y-97700775D01*
X79365247Y-97788454D01*
X79394845Y-97837836D01*
X79490020Y-97966166D01*
X79491773Y-97968654D01*
X79513255Y-98000804D01*
X79513257Y-98000808D01*
X79537798Y-98030711D01*
X79539671Y-98033111D01*
X79634839Y-98161432D01*
X79634842Y-98161436D01*
X79742136Y-98279816D01*
X79744123Y-98282120D01*
X79757158Y-98298002D01*
X79768666Y-98312025D01*
X79768668Y-98312027D01*
X79768669Y-98312028D01*
X79796015Y-98339374D01*
X79798108Y-98341571D01*
X79818548Y-98364124D01*
X79905409Y-98459961D01*
X79965460Y-98514387D01*
X80023801Y-98567264D01*
X80025995Y-98569354D01*
X80053346Y-98596705D01*
X80083248Y-98621245D01*
X80085546Y-98623227D01*
X80203931Y-98730525D01*
X80203940Y-98730531D01*
X80203944Y-98730535D01*
X80224860Y-98746047D01*
X80332283Y-98825717D01*
X80334621Y-98827541D01*
X80364558Y-98852110D01*
X80396722Y-98873601D01*
X80399196Y-98875343D01*
X80527535Y-98970526D01*
X80540367Y-98978217D01*
X80664567Y-99052660D01*
X80667138Y-99054288D01*
X80690902Y-99070165D01*
X80699306Y-99075781D01*
X80733466Y-99094039D01*
X80736031Y-99095493D01*
X80835638Y-99155195D01*
X80873101Y-99177650D01*
X80873104Y-99177651D01*
X80873105Y-99177652D01*
X81017557Y-99245973D01*
X81020228Y-99247317D01*
X81054365Y-99265564D01*
X81090106Y-99280368D01*
X81092878Y-99281598D01*
X81167184Y-99316741D01*
X81237312Y-99349910D01*
X81387780Y-99403748D01*
X81390571Y-99404825D01*
X81426317Y-99419632D01*
X81463346Y-99430864D01*
X81466205Y-99431809D01*
X81616650Y-99485639D01*
X81764491Y-99522671D01*
X81771620Y-99524457D01*
X81774542Y-99525265D01*
X81811578Y-99536500D01*
X81849560Y-99544055D01*
X81852441Y-99544701D01*
X82007465Y-99583533D01*
X82165563Y-99606984D01*
X82168470Y-99607489D01*
X82206440Y-99615042D01*
X82206445Y-99615042D01*
X82206448Y-99615043D01*
X82216604Y-99616043D01*
X82244949Y-99618834D01*
X82247941Y-99619204D01*
X82405994Y-99642649D01*
X82565591Y-99650489D01*
X82568576Y-99650709D01*
X82607099Y-99654504D01*
X82607105Y-99654504D01*
X82645777Y-99654504D01*
X82648819Y-99654579D01*
X82713221Y-99657742D01*
X82808398Y-99662418D01*
X82903574Y-99657742D01*
X82967977Y-99654579D01*
X82971019Y-99654504D01*
X83009691Y-99654504D01*
X83009697Y-99654504D01*
X83048225Y-99650709D01*
X83051198Y-99650489D01*
X83210802Y-99642649D01*
X83368864Y-99619202D01*
X83371841Y-99618835D01*
X83410356Y-99615042D01*
X83448364Y-99607481D01*
X83451206Y-99606988D01*
X83609331Y-99583533D01*
X83764372Y-99544697D01*
X83767226Y-99544056D01*
X83805218Y-99536500D01*
X83842312Y-99525247D01*
X83845120Y-99524470D01*
X84000146Y-99485639D01*
X84150627Y-99431796D01*
X84153399Y-99430880D01*
X84190479Y-99419632D01*
X84226247Y-99404815D01*
X84229012Y-99403749D01*
X84293324Y-99380738D01*
X129868632Y-99380738D01*
X129889159Y-99602273D01*
X129889160Y-99602275D01*
X129950044Y-99816261D01*
X129950050Y-99816276D01*
X130049213Y-100015421D01*
X130049218Y-100015429D01*
X130183295Y-100192976D01*
X130347712Y-100342861D01*
X130347714Y-100342863D01*
X130536870Y-100459983D01*
X130536871Y-100459983D01*
X130536874Y-100459985D01*
X130744335Y-100540356D01*
X130963032Y-100581238D01*
X130963034Y-100581238D01*
X131185516Y-100581238D01*
X131185518Y-100581238D01*
X131404215Y-100540356D01*
X131611676Y-100459985D01*
X131728553Y-100387618D01*
X132420947Y-100387618D01*
X132537096Y-100459535D01*
X132537097Y-100459536D01*
X132744470Y-100539872D01*
X132963082Y-100580738D01*
X133185468Y-100580738D01*
X133404084Y-100539871D01*
X133611443Y-100459539D01*
X133611456Y-100459533D01*
X133727601Y-100387617D01*
X133074276Y-99734291D01*
X133074275Y-99734291D01*
X132420947Y-100387617D01*
X132420947Y-100387618D01*
X131728553Y-100387618D01*
X131800837Y-100342862D01*
X131951904Y-100205145D01*
X131965255Y-100192975D01*
X131965256Y-100192974D01*
X132099333Y-100015427D01*
X132103507Y-100007043D01*
X132126828Y-99974630D01*
X132720722Y-99380738D01*
X132692562Y-99352578D01*
X132770380Y-99352578D01*
X132780729Y-99464259D01*
X132830723Y-99564660D01*
X132913609Y-99640222D01*
X133018195Y-99680738D01*
X133102077Y-99680738D01*
X133184525Y-99665326D01*
X133279885Y-99606281D01*
X133347476Y-99516776D01*
X133378170Y-99408898D01*
X133375561Y-99380738D01*
X133427828Y-99380738D01*
X134021722Y-99974632D01*
X134045040Y-100007039D01*
X134049217Y-100015427D01*
X134183295Y-100192976D01*
X134347712Y-100342861D01*
X134347714Y-100342863D01*
X134536870Y-100459983D01*
X134536871Y-100459983D01*
X134536874Y-100459985D01*
X134744335Y-100540356D01*
X134963032Y-100581238D01*
X134963034Y-100581238D01*
X135185516Y-100581238D01*
X135185518Y-100581238D01*
X135404215Y-100540356D01*
X135611676Y-100459985D01*
X135800837Y-100342862D01*
X135965256Y-100192974D01*
X135975321Y-100179644D01*
X136031428Y-100138009D01*
X136101140Y-100133316D01*
X136162322Y-100167057D01*
X136173223Y-100179638D01*
X136183294Y-100192974D01*
X136183297Y-100192977D01*
X136183300Y-100192980D01*
X136347712Y-100342861D01*
X136347714Y-100342863D01*
X136536870Y-100459983D01*
X136536871Y-100459983D01*
X136536874Y-100459985D01*
X136744335Y-100540356D01*
X136963032Y-100581238D01*
X136963034Y-100581238D01*
X137185516Y-100581238D01*
X137185518Y-100581238D01*
X137404215Y-100540356D01*
X137611676Y-100459985D01*
X137800837Y-100342862D01*
X137965256Y-100192974D01*
X137975321Y-100179644D01*
X138031428Y-100138009D01*
X138101140Y-100133316D01*
X138162322Y-100167057D01*
X138173223Y-100179638D01*
X138183294Y-100192974D01*
X138183297Y-100192977D01*
X138183300Y-100192980D01*
X138347712Y-100342861D01*
X138347714Y-100342863D01*
X138536870Y-100459983D01*
X138536871Y-100459983D01*
X138536874Y-100459985D01*
X138744335Y-100540356D01*
X138963032Y-100581238D01*
X138963034Y-100581238D01*
X139185516Y-100581238D01*
X139185518Y-100581238D01*
X139404215Y-100540356D01*
X139611676Y-100459985D01*
X139800837Y-100342862D01*
X139965256Y-100192974D01*
X139975321Y-100179644D01*
X140031428Y-100138009D01*
X140101140Y-100133316D01*
X140162322Y-100167057D01*
X140173223Y-100179638D01*
X140183294Y-100192974D01*
X140183297Y-100192977D01*
X140183300Y-100192980D01*
X140347712Y-100342861D01*
X140347714Y-100342863D01*
X140536870Y-100459983D01*
X140536871Y-100459983D01*
X140536874Y-100459985D01*
X140744335Y-100540356D01*
X140963032Y-100581238D01*
X140963034Y-100581238D01*
X141185516Y-100581238D01*
X141185518Y-100581238D01*
X141404215Y-100540356D01*
X141611676Y-100459985D01*
X141800837Y-100342862D01*
X141965256Y-100192974D01*
X141975321Y-100179644D01*
X142031428Y-100138009D01*
X142101140Y-100133316D01*
X142162322Y-100167057D01*
X142173223Y-100179638D01*
X142183294Y-100192974D01*
X142183297Y-100192977D01*
X142183300Y-100192980D01*
X142347712Y-100342861D01*
X142347714Y-100342863D01*
X142536870Y-100459983D01*
X142536871Y-100459983D01*
X142536874Y-100459985D01*
X142744335Y-100540356D01*
X142963032Y-100581238D01*
X142963034Y-100581238D01*
X143185516Y-100581238D01*
X143185518Y-100581238D01*
X143404215Y-100540356D01*
X143611676Y-100459985D01*
X143800837Y-100342862D01*
X143965256Y-100192974D01*
X143975321Y-100179644D01*
X144031428Y-100138009D01*
X144101140Y-100133316D01*
X144162322Y-100167057D01*
X144173223Y-100179638D01*
X144183294Y-100192974D01*
X144183297Y-100192977D01*
X144183300Y-100192980D01*
X144347712Y-100342861D01*
X144347714Y-100342863D01*
X144536870Y-100459983D01*
X144536871Y-100459983D01*
X144536874Y-100459985D01*
X144744335Y-100540356D01*
X144963032Y-100581238D01*
X144963034Y-100581238D01*
X145185516Y-100581238D01*
X145185518Y-100581238D01*
X145404215Y-100540356D01*
X145611676Y-100459985D01*
X145800837Y-100342862D01*
X145940557Y-100215489D01*
X145965254Y-100192976D01*
X145965257Y-100192973D01*
X146099333Y-100015427D01*
X146198504Y-99816266D01*
X146259390Y-99602274D01*
X146279918Y-99380738D01*
X148868632Y-99380738D01*
X148889159Y-99602273D01*
X148889160Y-99602275D01*
X148950044Y-99816261D01*
X148950050Y-99816276D01*
X149049213Y-100015421D01*
X149049218Y-100015429D01*
X149183295Y-100192976D01*
X149347712Y-100342861D01*
X149347714Y-100342863D01*
X149536870Y-100459983D01*
X149536871Y-100459983D01*
X149536874Y-100459985D01*
X149744335Y-100540356D01*
X149963032Y-100581238D01*
X149963034Y-100581238D01*
X150185516Y-100581238D01*
X150185518Y-100581238D01*
X150404215Y-100540356D01*
X150611676Y-100459985D01*
X150800837Y-100342862D01*
X150965256Y-100192974D01*
X150975321Y-100179644D01*
X151031428Y-100138009D01*
X151101140Y-100133316D01*
X151162322Y-100167057D01*
X151173223Y-100179638D01*
X151183294Y-100192974D01*
X151183297Y-100192977D01*
X151183300Y-100192980D01*
X151347712Y-100342861D01*
X151347714Y-100342863D01*
X151536870Y-100459983D01*
X151536871Y-100459983D01*
X151536874Y-100459985D01*
X151744335Y-100540356D01*
X151963032Y-100581238D01*
X151963034Y-100581238D01*
X152185516Y-100581238D01*
X152185518Y-100581238D01*
X152404215Y-100540356D01*
X152611676Y-100459985D01*
X152800837Y-100342862D01*
X152965256Y-100192974D01*
X152975321Y-100179644D01*
X153031428Y-100138009D01*
X153101140Y-100133316D01*
X153162322Y-100167057D01*
X153173223Y-100179638D01*
X153183294Y-100192974D01*
X153183297Y-100192977D01*
X153183300Y-100192980D01*
X153347712Y-100342861D01*
X153347714Y-100342863D01*
X153536870Y-100459983D01*
X153536871Y-100459983D01*
X153536874Y-100459985D01*
X153744335Y-100540356D01*
X153963032Y-100581238D01*
X153963034Y-100581238D01*
X154185516Y-100581238D01*
X154185518Y-100581238D01*
X154404215Y-100540356D01*
X154611676Y-100459985D01*
X154800837Y-100342862D01*
X154965256Y-100192974D01*
X154975321Y-100179644D01*
X155031428Y-100138009D01*
X155101140Y-100133316D01*
X155162322Y-100167057D01*
X155173223Y-100179638D01*
X155183294Y-100192974D01*
X155183297Y-100192977D01*
X155183300Y-100192980D01*
X155347712Y-100342861D01*
X155347714Y-100342863D01*
X155536870Y-100459983D01*
X155536871Y-100459983D01*
X155536874Y-100459985D01*
X155744335Y-100540356D01*
X155963032Y-100581238D01*
X155963034Y-100581238D01*
X156185516Y-100581238D01*
X156185518Y-100581238D01*
X156404215Y-100540356D01*
X156611676Y-100459985D01*
X156800837Y-100342862D01*
X156965256Y-100192974D01*
X156975321Y-100179644D01*
X157031428Y-100138009D01*
X157101140Y-100133316D01*
X157162322Y-100167057D01*
X157173223Y-100179638D01*
X157183294Y-100192974D01*
X157183297Y-100192977D01*
X157183300Y-100192980D01*
X157347712Y-100342861D01*
X157347714Y-100342863D01*
X157536870Y-100459983D01*
X157536871Y-100459983D01*
X157536874Y-100459985D01*
X157744335Y-100540356D01*
X157963032Y-100581238D01*
X157963034Y-100581238D01*
X158185516Y-100581238D01*
X158185518Y-100581238D01*
X158404215Y-100540356D01*
X158611676Y-100459985D01*
X158800837Y-100342862D01*
X158965256Y-100192974D01*
X158975321Y-100179644D01*
X159031428Y-100138009D01*
X159101140Y-100133316D01*
X159162322Y-100167057D01*
X159173223Y-100179638D01*
X159183294Y-100192974D01*
X159183297Y-100192977D01*
X159183300Y-100192980D01*
X159347712Y-100342861D01*
X159347714Y-100342863D01*
X159536870Y-100459983D01*
X159536871Y-100459983D01*
X159536874Y-100459985D01*
X159744335Y-100540356D01*
X159963032Y-100581238D01*
X159963034Y-100581238D01*
X160185516Y-100581238D01*
X160185518Y-100581238D01*
X160404215Y-100540356D01*
X160611676Y-100459985D01*
X160728553Y-100387618D01*
X161420947Y-100387618D01*
X161537096Y-100459535D01*
X161537097Y-100459536D01*
X161744470Y-100539872D01*
X161963082Y-100580738D01*
X162185468Y-100580738D01*
X162404084Y-100539871D01*
X162611443Y-100459539D01*
X162611456Y-100459533D01*
X162727601Y-100387617D01*
X162074276Y-99734291D01*
X162074275Y-99734291D01*
X161420947Y-100387617D01*
X161420947Y-100387618D01*
X160728553Y-100387618D01*
X160800837Y-100342862D01*
X160951904Y-100205145D01*
X160965255Y-100192975D01*
X160965256Y-100192974D01*
X161099333Y-100015427D01*
X161103507Y-100007043D01*
X161126828Y-99974630D01*
X161720722Y-99380738D01*
X161692562Y-99352578D01*
X161770380Y-99352578D01*
X161780729Y-99464259D01*
X161830723Y-99564660D01*
X161913609Y-99640222D01*
X162018195Y-99680738D01*
X162102077Y-99680738D01*
X162184525Y-99665326D01*
X162279885Y-99606281D01*
X162347476Y-99516776D01*
X162378170Y-99408898D01*
X162375561Y-99380738D01*
X162427828Y-99380738D01*
X163021722Y-99974632D01*
X163045040Y-100007039D01*
X163049217Y-100015427D01*
X163183295Y-100192976D01*
X163347712Y-100342861D01*
X163347714Y-100342863D01*
X163536870Y-100459983D01*
X163536871Y-100459983D01*
X163536874Y-100459985D01*
X163744335Y-100540356D01*
X163963032Y-100581238D01*
X163963034Y-100581238D01*
X164185516Y-100581238D01*
X164185518Y-100581238D01*
X164404215Y-100540356D01*
X164611676Y-100459985D01*
X164800837Y-100342862D01*
X164940557Y-100215489D01*
X164965254Y-100192976D01*
X164965257Y-100192973D01*
X165099333Y-100015427D01*
X165198504Y-99816266D01*
X165259390Y-99602274D01*
X165279918Y-99380738D01*
X165270731Y-99281598D01*
X165259390Y-99159202D01*
X165259389Y-99159200D01*
X165258249Y-99155195D01*
X165198504Y-98945210D01*
X165197444Y-98943081D01*
X165099336Y-98746054D01*
X165099331Y-98746046D01*
X164965254Y-98568499D01*
X164800838Y-98418615D01*
X164800837Y-98418614D01*
X164758497Y-98392398D01*
X164711862Y-98340369D01*
X164699775Y-98286971D01*
X164699775Y-97360914D01*
X164707833Y-97316942D01*
X164762545Y-97172681D01*
X164783143Y-97003038D01*
X164762545Y-96833395D01*
X164701946Y-96673611D01*
X164686553Y-96651311D01*
X164619242Y-96553794D01*
X164604870Y-96532972D01*
X164476958Y-96419651D01*
X164325643Y-96340235D01*
X164325642Y-96340234D01*
X164325641Y-96340234D01*
X164213993Y-96312715D01*
X164159720Y-96299338D01*
X163988830Y-96299338D01*
X163963039Y-96305695D01*
X163822908Y-96340234D01*
X163671593Y-96419650D01*
X163543680Y-96532971D01*
X163543678Y-96532974D01*
X163446604Y-96673609D01*
X163386004Y-96833395D01*
X163365407Y-97003038D01*
X163386004Y-97172680D01*
X163386304Y-97173470D01*
X163439339Y-97313310D01*
X163440717Y-97316942D01*
X163448775Y-97360914D01*
X163448775Y-98286971D01*
X163429090Y-98354010D01*
X163390053Y-98392398D01*
X163347711Y-98418615D01*
X163183294Y-98568500D01*
X163183292Y-98568503D01*
X163049218Y-98746047D01*
X163049215Y-98746051D01*
X163045038Y-98754440D01*
X163021723Y-98786841D01*
X162427828Y-99380737D01*
X162427828Y-99380738D01*
X162375561Y-99380738D01*
X162367821Y-99297217D01*
X162317827Y-99196816D01*
X162234941Y-99121254D01*
X162130355Y-99080738D01*
X162046473Y-99080738D01*
X161964025Y-99096150D01*
X161868665Y-99155195D01*
X161801074Y-99244700D01*
X161770380Y-99352578D01*
X161692562Y-99352578D01*
X161126828Y-98786844D01*
X161103508Y-98754433D01*
X161099335Y-98746053D01*
X161099331Y-98746046D01*
X160965254Y-98568499D01*
X160800838Y-98418615D01*
X160800837Y-98418614D01*
X160758497Y-98392398D01*
X160741878Y-98373857D01*
X161420946Y-98373857D01*
X162074275Y-99027185D01*
X162074276Y-99027185D01*
X162727602Y-98373857D01*
X162611453Y-98301940D01*
X162611452Y-98301939D01*
X162404079Y-98221603D01*
X162185468Y-98180738D01*
X161963082Y-98180738D01*
X161744470Y-98221603D01*
X161537099Y-98301938D01*
X161537098Y-98301939D01*
X161420946Y-98373857D01*
X160741878Y-98373857D01*
X160711862Y-98340369D01*
X160699775Y-98286971D01*
X160699775Y-96833214D01*
X160707833Y-96789242D01*
X160762545Y-96644981D01*
X160783143Y-96475338D01*
X160762545Y-96305695D01*
X160701946Y-96145911D01*
X160684358Y-96120431D01*
X160604871Y-96005274D01*
X160604869Y-96005271D01*
X160553076Y-95959386D01*
X160476958Y-95891951D01*
X160325643Y-95812535D01*
X160325642Y-95812534D01*
X160325641Y-95812534D01*
X160213993Y-95785015D01*
X160159720Y-95771638D01*
X159988830Y-95771638D01*
X159963039Y-95777995D01*
X159822908Y-95812534D01*
X159671593Y-95891950D01*
X159543680Y-96005271D01*
X159543678Y-96005274D01*
X159446604Y-96145909D01*
X159386004Y-96305695D01*
X159365407Y-96475338D01*
X159386004Y-96644980D01*
X159428053Y-96755853D01*
X159437847Y-96781676D01*
X159440717Y-96789242D01*
X159448775Y-96833214D01*
X159448775Y-98286971D01*
X159429090Y-98354010D01*
X159390053Y-98392398D01*
X159347711Y-98418615D01*
X159183294Y-98568500D01*
X159173228Y-98581831D01*
X159117119Y-98623466D01*
X159047407Y-98628157D01*
X158986225Y-98594414D01*
X158975322Y-98581831D01*
X158965255Y-98568500D01*
X158800838Y-98418615D01*
X158800837Y-98418614D01*
X158758497Y-98392398D01*
X158711862Y-98340369D01*
X158699775Y-98286971D01*
X158699775Y-96305514D01*
X158707833Y-96261542D01*
X158710782Y-96253766D01*
X158762545Y-96117281D01*
X158783143Y-95947638D01*
X158762545Y-95777995D01*
X158701946Y-95618211D01*
X158682183Y-95589580D01*
X158604871Y-95477574D01*
X158604869Y-95477571D01*
X158521852Y-95404024D01*
X158476958Y-95364251D01*
X158325643Y-95284835D01*
X158325642Y-95284834D01*
X158325641Y-95284834D01*
X158213993Y-95257315D01*
X158159720Y-95243938D01*
X157988830Y-95243938D01*
X157963039Y-95250295D01*
X157822908Y-95284834D01*
X157671593Y-95364250D01*
X157543680Y-95477571D01*
X157543678Y-95477574D01*
X157446604Y-95618209D01*
X157386004Y-95777995D01*
X157365407Y-95947638D01*
X157386004Y-96117280D01*
X157440717Y-96261542D01*
X157448775Y-96305514D01*
X157448775Y-98286971D01*
X157429090Y-98354010D01*
X157390053Y-98392398D01*
X157347711Y-98418615D01*
X157183294Y-98568500D01*
X157173228Y-98581831D01*
X157117119Y-98623466D01*
X157047407Y-98628157D01*
X156986225Y-98594414D01*
X156975322Y-98581831D01*
X156965255Y-98568500D01*
X156800838Y-98418615D01*
X156800837Y-98418614D01*
X156758497Y-98392398D01*
X156711862Y-98340369D01*
X156699775Y-98286971D01*
X156699775Y-95777814D01*
X156707833Y-95733842D01*
X156762545Y-95589581D01*
X156783143Y-95419938D01*
X156762545Y-95250295D01*
X156736165Y-95180738D01*
X185865407Y-95180738D01*
X185886004Y-95350380D01*
X185946604Y-95510166D01*
X186005100Y-95594911D01*
X186043680Y-95650804D01*
X186171592Y-95764125D01*
X186212012Y-95785339D01*
X186262223Y-95833923D01*
X186277481Y-95880187D01*
X186286004Y-95950379D01*
X186286005Y-95950381D01*
X186346604Y-96110166D01*
X186408509Y-96199850D01*
X186443680Y-96250804D01*
X186571592Y-96364125D01*
X186612012Y-96385339D01*
X186662223Y-96433923D01*
X186677481Y-96480187D01*
X186686004Y-96550379D01*
X186686005Y-96550381D01*
X186746604Y-96710166D01*
X186831663Y-96833395D01*
X186843680Y-96850804D01*
X186971592Y-96964125D01*
X187122907Y-97043541D01*
X187288830Y-97084438D01*
X187288831Y-97084438D01*
X187459719Y-97084438D01*
X187459720Y-97084438D01*
X187625643Y-97043541D01*
X187641658Y-97035135D01*
X187669658Y-97020441D01*
X187727282Y-97006238D01*
X192891532Y-97006238D01*
X192907152Y-97007962D01*
X192907179Y-97007677D01*
X192914935Y-97008409D01*
X192914942Y-97008411D01*
X192984089Y-97006238D01*
X193013625Y-97006238D01*
X193020503Y-97005368D01*
X193026316Y-97004910D01*
X193072902Y-97003447D01*
X193092144Y-96997855D01*
X193111187Y-96993912D01*
X193131067Y-96991402D01*
X193174397Y-96974245D01*
X193179921Y-96972355D01*
X193183671Y-96971265D01*
X193224665Y-96959356D01*
X193241904Y-96949160D01*
X193259378Y-96940600D01*
X193278002Y-96933226D01*
X193278002Y-96933225D01*
X193278007Y-96933224D01*
X193315724Y-96905820D01*
X193320580Y-96902630D01*
X193360695Y-96878908D01*
X193374864Y-96864737D01*
X193389654Y-96852106D01*
X193405862Y-96840332D01*
X193435574Y-96804414D01*
X193439487Y-96800114D01*
X200244395Y-89995209D01*
X200244395Y-89995208D01*
X200249759Y-89989845D01*
X200249774Y-89989827D01*
X203397047Y-86842557D01*
X203458370Y-86809072D01*
X203484728Y-86806238D01*
X206221268Y-86806238D01*
X206278892Y-86820441D01*
X206306891Y-86835135D01*
X206322907Y-86843541D01*
X206322911Y-86843542D01*
X206329925Y-86846203D01*
X206329091Y-86848401D01*
X206379538Y-86877772D01*
X206411327Y-86939991D01*
X206404432Y-87009520D01*
X206361041Y-87064283D01*
X206319160Y-87083410D01*
X206294473Y-87089495D01*
X206294472Y-87089495D01*
X206143155Y-87168912D01*
X206015242Y-87282233D01*
X206015240Y-87282236D01*
X205918165Y-87422874D01*
X205883303Y-87514793D01*
X205856501Y-87556252D01*
X205856738Y-87556461D01*
X205855342Y-87558043D01*
X205855055Y-87558489D01*
X205854169Y-87559374D01*
X205854152Y-87559394D01*
X205849896Y-87564879D01*
X205846112Y-87569309D01*
X205814212Y-87603280D01*
X205814211Y-87603282D01*
X205804559Y-87620838D01*
X205793885Y-87637088D01*
X205781604Y-87652923D01*
X205781599Y-87652930D01*
X205763090Y-87695700D01*
X205760520Y-87700946D01*
X205738078Y-87741768D01*
X205733097Y-87761169D01*
X205726796Y-87779572D01*
X205718837Y-87797964D01*
X205718836Y-87797967D01*
X205711546Y-87843989D01*
X205710362Y-87849708D01*
X205698776Y-87894834D01*
X205698775Y-87894844D01*
X205698775Y-87914878D01*
X205697248Y-87934277D01*
X205694115Y-87954056D01*
X205694115Y-87954057D01*
X205698500Y-88000445D01*
X205698775Y-88006283D01*
X205698775Y-91647493D01*
X205679090Y-91714532D01*
X205662456Y-91735174D01*
X200948346Y-96449284D01*
X200887023Y-96482769D01*
X200860665Y-96485603D01*
X197151733Y-96485603D01*
X197094109Y-96471400D01*
X197050094Y-96448300D01*
X197050095Y-96448300D01*
X196933858Y-96419650D01*
X196884171Y-96407403D01*
X196713281Y-96407403D01*
X196680094Y-96415583D01*
X196547359Y-96448299D01*
X196396044Y-96527715D01*
X196268131Y-96641036D01*
X196268129Y-96641039D01*
X196171055Y-96781674D01*
X196110456Y-96941458D01*
X196110454Y-96941467D01*
X196108141Y-96960511D01*
X196080517Y-97024688D01*
X196048417Y-97050703D01*
X196048731Y-97051157D01*
X196042846Y-97055218D01*
X196042687Y-97055348D01*
X196042570Y-97055408D01*
X196042560Y-97055416D01*
X195914648Y-97168736D01*
X195914646Y-97168739D01*
X195817572Y-97309374D01*
X195756973Y-97469159D01*
X195756972Y-97469162D01*
X195743437Y-97580631D01*
X195715815Y-97644809D01*
X195702570Y-97658498D01*
X195643681Y-97710670D01*
X195643678Y-97710674D01*
X195546604Y-97851309D01*
X195486004Y-98011095D01*
X195465407Y-98180738D01*
X195486004Y-98350380D01*
X195546604Y-98510166D01*
X195610114Y-98602175D01*
X195643680Y-98650804D01*
X195771592Y-98764125D01*
X195922907Y-98843541D01*
X196088830Y-98884438D01*
X196088831Y-98884438D01*
X196259719Y-98884438D01*
X196259720Y-98884438D01*
X196425643Y-98843541D01*
X196441658Y-98835135D01*
X196469658Y-98820441D01*
X196527282Y-98806238D01*
X201291532Y-98806238D01*
X201307152Y-98807962D01*
X201307179Y-98807677D01*
X201314935Y-98808409D01*
X201314942Y-98808411D01*
X201384089Y-98806238D01*
X201413625Y-98806238D01*
X201420503Y-98805368D01*
X201426316Y-98804910D01*
X201472902Y-98803447D01*
X201492144Y-98797855D01*
X201511187Y-98793912D01*
X201531067Y-98791402D01*
X201574397Y-98774245D01*
X201579921Y-98772355D01*
X201583671Y-98771265D01*
X201624665Y-98759356D01*
X201641904Y-98749160D01*
X201659378Y-98740600D01*
X201678002Y-98733226D01*
X201678002Y-98733225D01*
X201678007Y-98733224D01*
X201715724Y-98705820D01*
X201720580Y-98702630D01*
X201760695Y-98678908D01*
X201774864Y-98664737D01*
X201789654Y-98652106D01*
X201805862Y-98640332D01*
X201835574Y-98604414D01*
X201839487Y-98600114D01*
X204882630Y-95556972D01*
X208234707Y-95556972D01*
X208242546Y-95716550D01*
X208242621Y-95719592D01*
X208242621Y-95758270D01*
X208246410Y-95796760D01*
X208246634Y-95799792D01*
X208252755Y-95924338D01*
X208254476Y-95959377D01*
X208254476Y-95959382D01*
X208254477Y-95959387D01*
X208277917Y-96117414D01*
X208278289Y-96120431D01*
X208282082Y-96158927D01*
X208289626Y-96196853D01*
X208290146Y-96199850D01*
X208301596Y-96277038D01*
X208313591Y-96357902D01*
X208313593Y-96357912D01*
X208352412Y-96512884D01*
X208353075Y-96515836D01*
X208355438Y-96527715D01*
X208360625Y-96553794D01*
X208371852Y-96590806D01*
X208372664Y-96593739D01*
X208411485Y-96748719D01*
X208411487Y-96748725D01*
X208465313Y-96899162D01*
X208466268Y-96902051D01*
X208477491Y-96939050D01*
X208492291Y-96974781D01*
X208493387Y-96977620D01*
X208503316Y-97005370D01*
X208547215Y-97128059D01*
X208547219Y-97128067D01*
X208615530Y-97272502D01*
X208616763Y-97275282D01*
X208631560Y-97311004D01*
X208631566Y-97311015D01*
X208649787Y-97345106D01*
X208651155Y-97347823D01*
X208719470Y-97492262D01*
X208801609Y-97629303D01*
X208803108Y-97631948D01*
X208821344Y-97666065D01*
X208842831Y-97698222D01*
X208842833Y-97698225D01*
X208844448Y-97700775D01*
X208897001Y-97788454D01*
X208926599Y-97837836D01*
X209021774Y-97966166D01*
X209023527Y-97968654D01*
X209045009Y-98000804D01*
X209045011Y-98000808D01*
X209069552Y-98030711D01*
X209071425Y-98033111D01*
X209166593Y-98161432D01*
X209166596Y-98161436D01*
X209273890Y-98279816D01*
X209275877Y-98282120D01*
X209288912Y-98298002D01*
X209300420Y-98312025D01*
X209300422Y-98312027D01*
X209300423Y-98312028D01*
X209327769Y-98339374D01*
X209329862Y-98341571D01*
X209350302Y-98364124D01*
X209437163Y-98459961D01*
X209497214Y-98514387D01*
X209555555Y-98567264D01*
X209557749Y-98569354D01*
X209585100Y-98596705D01*
X209615002Y-98621245D01*
X209617300Y-98623227D01*
X209735685Y-98730525D01*
X209735694Y-98730531D01*
X209735698Y-98730535D01*
X209756614Y-98746047D01*
X209864037Y-98825717D01*
X209866375Y-98827541D01*
X209896312Y-98852110D01*
X209928476Y-98873601D01*
X209930950Y-98875343D01*
X210059289Y-98970526D01*
X210072121Y-98978217D01*
X210196321Y-99052660D01*
X210198892Y-99054288D01*
X210222656Y-99070165D01*
X210231060Y-99075781D01*
X210265220Y-99094039D01*
X210267785Y-99095493D01*
X210367392Y-99155195D01*
X210404855Y-99177650D01*
X210404858Y-99177651D01*
X210404859Y-99177652D01*
X210549311Y-99245973D01*
X210551982Y-99247317D01*
X210586119Y-99265564D01*
X210621860Y-99280368D01*
X210624632Y-99281598D01*
X210698938Y-99316741D01*
X210769066Y-99349910D01*
X210919534Y-99403748D01*
X210922325Y-99404825D01*
X210958071Y-99419632D01*
X210995100Y-99430864D01*
X210997959Y-99431809D01*
X211148404Y-99485639D01*
X211296245Y-99522671D01*
X211303374Y-99524457D01*
X211306296Y-99525265D01*
X211343332Y-99536500D01*
X211381314Y-99544055D01*
X211384195Y-99544701D01*
X211539219Y-99583533D01*
X211697317Y-99606984D01*
X211700224Y-99607489D01*
X211738194Y-99615042D01*
X211738199Y-99615042D01*
X211738202Y-99615043D01*
X211748358Y-99616043D01*
X211776703Y-99618834D01*
X211779695Y-99619204D01*
X211937748Y-99642649D01*
X212097345Y-99650489D01*
X212100330Y-99650709D01*
X212138853Y-99654504D01*
X212138859Y-99654504D01*
X212177531Y-99654504D01*
X212180573Y-99654579D01*
X212244975Y-99657742D01*
X212340152Y-99662418D01*
X212435328Y-99657742D01*
X212499731Y-99654579D01*
X212502773Y-99654504D01*
X212541445Y-99654504D01*
X212541451Y-99654504D01*
X212579979Y-99650709D01*
X212582952Y-99650489D01*
X212742556Y-99642649D01*
X212900618Y-99619202D01*
X212903595Y-99618835D01*
X212942110Y-99615042D01*
X212980118Y-99607481D01*
X212982960Y-99606988D01*
X213141085Y-99583533D01*
X213296126Y-99544697D01*
X213298980Y-99544056D01*
X213336972Y-99536500D01*
X213374066Y-99525247D01*
X213376874Y-99524470D01*
X213531900Y-99485639D01*
X213682381Y-99431796D01*
X213685153Y-99430880D01*
X213722233Y-99419632D01*
X213758001Y-99404815D01*
X213760766Y-99403749D01*
X213911238Y-99349910D01*
X214055728Y-99281570D01*
X214058412Y-99280381D01*
X214094185Y-99265564D01*
X214128353Y-99247300D01*
X214130959Y-99245988D01*
X214275445Y-99177652D01*
X214412521Y-99095491D01*
X214415098Y-99094032D01*
X214449244Y-99075781D01*
X214481470Y-99054248D01*
X214483905Y-99052705D01*
X214621015Y-98970526D01*
X214749374Y-98875328D01*
X214751782Y-98873631D01*
X214783992Y-98852110D01*
X214813937Y-98827534D01*
X214816238Y-98825738D01*
X214944619Y-98730525D01*
X215063020Y-98623212D01*
X215065260Y-98621278D01*
X215095204Y-98596705D01*
X215122584Y-98569324D01*
X215124717Y-98567293D01*
X215243140Y-98459961D01*
X215350472Y-98341538D01*
X215352503Y-98339405D01*
X215379884Y-98312025D01*
X215404457Y-98282081D01*
X215406391Y-98279841D01*
X215513704Y-98161440D01*
X215608917Y-98033059D01*
X215610713Y-98030758D01*
X215635289Y-98000813D01*
X215656810Y-97968603D01*
X215658507Y-97966195D01*
X215753705Y-97837836D01*
X215835884Y-97700726D01*
X215837427Y-97698291D01*
X215858960Y-97666065D01*
X215877211Y-97631919D01*
X215878670Y-97629342D01*
X215960831Y-97492266D01*
X216029167Y-97347780D01*
X216030479Y-97345174D01*
X216048743Y-97311006D01*
X216063560Y-97275233D01*
X216064749Y-97272549D01*
X216133089Y-97128059D01*
X216186928Y-96977587D01*
X216187994Y-96974822D01*
X216202811Y-96939054D01*
X216214059Y-96901974D01*
X216214975Y-96899202D01*
X216268818Y-96748721D01*
X216307649Y-96593695D01*
X216308426Y-96590887D01*
X216319679Y-96553793D01*
X216327235Y-96515801D01*
X216327876Y-96512947D01*
X216366712Y-96357906D01*
X216390167Y-96199781D01*
X216390660Y-96196939D01*
X216398221Y-96158931D01*
X216402014Y-96120416D01*
X216402384Y-96117421D01*
X216425828Y-95959377D01*
X216433668Y-95799773D01*
X216433887Y-95796803D01*
X216437683Y-95758272D01*
X216438339Y-95704695D01*
X216445597Y-95556973D01*
X216438339Y-95409253D01*
X216438238Y-95400970D01*
X216437683Y-95355674D01*
X216433888Y-95317151D01*
X216433668Y-95314152D01*
X216425828Y-95154569D01*
X216402383Y-94996516D01*
X216402013Y-94993514D01*
X216398221Y-94955015D01*
X216390668Y-94917045D01*
X216390163Y-94914138D01*
X216366712Y-94756040D01*
X216327880Y-94601016D01*
X216327234Y-94598135D01*
X216319679Y-94560153D01*
X216308444Y-94523117D01*
X216307636Y-94520195D01*
X216305850Y-94513066D01*
X216268818Y-94365225D01*
X216214988Y-94214780D01*
X216214040Y-94211910D01*
X216208727Y-94194395D01*
X216202811Y-94174892D01*
X216202809Y-94174888D01*
X216202810Y-94174888D01*
X216195031Y-94156111D01*
X216188004Y-94139146D01*
X216186927Y-94136355D01*
X216133089Y-93985887D01*
X216089616Y-93893971D01*
X216064777Y-93841453D01*
X216063543Y-93838671D01*
X216048743Y-93802940D01*
X216030496Y-93768803D01*
X216029152Y-93766132D01*
X215960831Y-93621680D01*
X215878672Y-93484606D01*
X215877218Y-93482041D01*
X215858960Y-93447881D01*
X215853344Y-93439477D01*
X215837467Y-93415713D01*
X215835839Y-93413142D01*
X215753706Y-93276112D01*
X215695292Y-93197350D01*
X215658522Y-93147771D01*
X215656786Y-93145305D01*
X215635289Y-93113133D01*
X215610720Y-93083196D01*
X215608881Y-93080838D01*
X215513704Y-92952506D01*
X215406406Y-92834121D01*
X215404424Y-92831823D01*
X215379884Y-92801921D01*
X215352533Y-92774570D01*
X215350434Y-92772366D01*
X215311730Y-92729662D01*
X215243140Y-92653984D01*
X215124758Y-92546690D01*
X215122553Y-92544590D01*
X215095207Y-92517244D01*
X215095205Y-92517242D01*
X215095204Y-92517241D01*
X215081181Y-92505733D01*
X215065299Y-92492698D01*
X215062995Y-92490711D01*
X215062988Y-92490705D01*
X214993758Y-92427958D01*
X214944615Y-92383417D01*
X214944611Y-92383414D01*
X214816290Y-92288246D01*
X214813890Y-92286373D01*
X214796213Y-92271866D01*
X214783992Y-92261836D01*
X214783991Y-92261835D01*
X214783987Y-92261832D01*
X214783983Y-92261830D01*
X214751833Y-92240348D01*
X214749345Y-92238595D01*
X214621015Y-92143420D01*
X214572716Y-92114471D01*
X214483954Y-92061269D01*
X214481412Y-92059659D01*
X214449244Y-92038165D01*
X214427217Y-92026391D01*
X214415129Y-92019930D01*
X214412482Y-92018430D01*
X214275441Y-91936291D01*
X214131002Y-91867976D01*
X214128285Y-91866608D01*
X214094194Y-91848387D01*
X214094188Y-91848384D01*
X214094185Y-91848382D01*
X214094183Y-91848381D01*
X214058461Y-91833584D01*
X214055681Y-91832351D01*
X213911246Y-91764040D01*
X213911238Y-91764036D01*
X213830574Y-91735174D01*
X213760799Y-91710208D01*
X213757960Y-91709112D01*
X213722229Y-91694312D01*
X213685230Y-91683089D01*
X213682341Y-91682134D01*
X213531904Y-91628308D01*
X213531898Y-91628306D01*
X213376918Y-91589485D01*
X213373985Y-91588673D01*
X213336973Y-91577446D01*
X213325279Y-91575120D01*
X213299015Y-91569896D01*
X213296063Y-91569233D01*
X213141091Y-91530414D01*
X213141086Y-91530413D01*
X213141085Y-91530413D01*
X213119184Y-91527164D01*
X212983029Y-91506967D01*
X212980032Y-91506447D01*
X212942106Y-91498903D01*
X212903610Y-91495110D01*
X212900593Y-91494738D01*
X212742566Y-91471298D01*
X212742561Y-91471297D01*
X212742556Y-91471297D01*
X212710567Y-91469725D01*
X212582971Y-91463455D01*
X212579939Y-91463231D01*
X212541452Y-91459442D01*
X212541451Y-91459442D01*
X212502773Y-91459442D01*
X212499731Y-91459367D01*
X212340152Y-91451528D01*
X212180573Y-91459367D01*
X212177531Y-91459442D01*
X212138861Y-91459442D01*
X212138853Y-91459442D01*
X212128297Y-91460481D01*
X212100362Y-91463231D01*
X212097331Y-91463455D01*
X211966096Y-91469904D01*
X211937748Y-91471297D01*
X211937743Y-91471297D01*
X211937737Y-91471298D01*
X211779709Y-91494738D01*
X211776693Y-91495110D01*
X211738195Y-91498903D01*
X211700256Y-91506450D01*
X211697259Y-91506970D01*
X211539209Y-91530414D01*
X211384242Y-91569232D01*
X211381273Y-91569898D01*
X211343343Y-91577442D01*
X211306302Y-91588677D01*
X211303372Y-91589487D01*
X211148419Y-91628302D01*
X211148398Y-91628308D01*
X210997966Y-91682132D01*
X210995079Y-91683086D01*
X210958089Y-91694307D01*
X210958073Y-91694313D01*
X210958071Y-91694314D01*
X210953955Y-91696018D01*
X210922329Y-91709117D01*
X210919492Y-91710212D01*
X210769079Y-91764031D01*
X210769072Y-91764033D01*
X210769066Y-91764036D01*
X210769061Y-91764038D01*
X210769057Y-91764040D01*
X210624636Y-91832345D01*
X210621857Y-91833577D01*
X210586118Y-91848382D01*
X210586115Y-91848384D01*
X210551995Y-91866621D01*
X210549278Y-91867988D01*
X210404858Y-91936293D01*
X210267812Y-92018434D01*
X210265167Y-92019932D01*
X210231069Y-92038159D01*
X210231062Y-92038163D01*
X210198890Y-92059659D01*
X210196321Y-92061285D01*
X210059281Y-92143424D01*
X209930972Y-92238585D01*
X209928486Y-92240336D01*
X209896326Y-92261825D01*
X209896310Y-92261837D01*
X209866415Y-92286371D01*
X209864017Y-92288242D01*
X209735691Y-92383415D01*
X209617313Y-92490705D01*
X209615011Y-92492691D01*
X209585098Y-92517242D01*
X209557747Y-92544592D01*
X209555545Y-92546689D01*
X209437164Y-92653985D01*
X209329868Y-92772366D01*
X209327771Y-92774568D01*
X209300421Y-92801919D01*
X209275870Y-92831832D01*
X209273884Y-92834134D01*
X209166594Y-92952512D01*
X209071421Y-93080838D01*
X209069550Y-93083236D01*
X209045016Y-93113131D01*
X209045004Y-93113147D01*
X209023515Y-93145307D01*
X209021764Y-93147793D01*
X208926603Y-93276102D01*
X208844464Y-93413142D01*
X208842838Y-93415711D01*
X208821342Y-93447883D01*
X208821338Y-93447890D01*
X208803111Y-93481988D01*
X208801613Y-93484633D01*
X208719472Y-93621679D01*
X208651167Y-93766099D01*
X208649800Y-93768816D01*
X208631563Y-93802936D01*
X208631561Y-93802939D01*
X208616756Y-93838678D01*
X208615524Y-93841457D01*
X208564008Y-93950381D01*
X208547216Y-93985886D01*
X208547210Y-93985900D01*
X208493391Y-94136313D01*
X208492296Y-94139150D01*
X208477492Y-94174895D01*
X208477486Y-94174910D01*
X208466265Y-94211900D01*
X208465311Y-94214787D01*
X208411487Y-94365219D01*
X208411481Y-94365240D01*
X208372666Y-94520193D01*
X208371856Y-94523123D01*
X208360621Y-94560164D01*
X208353077Y-94598094D01*
X208352411Y-94601063D01*
X208313593Y-94756030D01*
X208290149Y-94914080D01*
X208289629Y-94917077D01*
X208282082Y-94955016D01*
X208278289Y-94993514D01*
X208277917Y-94996530D01*
X208254477Y-95154558D01*
X208254477Y-95154559D01*
X208254476Y-95154569D01*
X208253190Y-95180738D01*
X208246634Y-95314152D01*
X208246410Y-95317183D01*
X208244071Y-95340950D01*
X208242621Y-95355674D01*
X208242621Y-95355682D01*
X208242621Y-95394352D01*
X208242546Y-95397394D01*
X208234707Y-95556972D01*
X204882630Y-95556972D01*
X206244395Y-94195208D01*
X206302954Y-94136649D01*
X206302966Y-94136635D01*
X207686738Y-92752864D01*
X207698993Y-92743048D01*
X207698810Y-92742826D01*
X207704817Y-92737854D01*
X207704828Y-92737848D01*
X207735726Y-92704944D01*
X207752178Y-92687426D01*
X207762622Y-92676980D01*
X207773071Y-92666533D01*
X207777330Y-92661040D01*
X207781103Y-92656623D01*
X207813013Y-92622644D01*
X207822664Y-92605086D01*
X207833347Y-92588823D01*
X207845624Y-92572998D01*
X207864136Y-92530215D01*
X207866689Y-92525003D01*
X207889148Y-92484154D01*
X207894131Y-92464742D01*
X207900432Y-92446342D01*
X207908388Y-92427958D01*
X207915680Y-92381914D01*
X207916857Y-92376233D01*
X207928451Y-92331081D01*
X207928451Y-92311045D01*
X207929978Y-92291644D01*
X207933111Y-92271866D01*
X207928726Y-92225477D01*
X207928451Y-92219639D01*
X207928451Y-89124918D01*
X207948136Y-89057879D01*
X207950401Y-89054478D01*
X207971372Y-89024097D01*
X208030384Y-88938603D01*
X208090983Y-88778819D01*
X208111581Y-88609176D01*
X208090983Y-88439533D01*
X208030384Y-88279749D01*
X207994719Y-88228080D01*
X207960746Y-88178861D01*
X207933308Y-88139110D01*
X207901147Y-88110618D01*
X207842249Y-88058438D01*
X223065407Y-88058438D01*
X223086004Y-88228080D01*
X223146604Y-88387866D01*
X223182581Y-88439987D01*
X223243680Y-88528504D01*
X223371592Y-88641825D01*
X223522907Y-88721241D01*
X223688830Y-88762138D01*
X223688831Y-88762138D01*
X223859719Y-88762138D01*
X223859720Y-88762138D01*
X224025643Y-88721241D01*
X224176958Y-88641825D01*
X224304870Y-88528504D01*
X224401946Y-88387865D01*
X224462545Y-88228081D01*
X224483143Y-88058438D01*
X224462545Y-87888795D01*
X224407832Y-87744532D01*
X224399775Y-87700563D01*
X224399775Y-86010914D01*
X224407833Y-85966942D01*
X224408025Y-85966435D01*
X224462545Y-85822681D01*
X224483143Y-85653038D01*
X224462545Y-85483395D01*
X224401946Y-85323611D01*
X224304870Y-85182972D01*
X224176958Y-85069651D01*
X224025643Y-84990235D01*
X224025642Y-84990234D01*
X224025641Y-84990234D01*
X223906462Y-84960859D01*
X223859720Y-84949338D01*
X223688830Y-84949338D01*
X223647934Y-84959418D01*
X223522908Y-84990234D01*
X223371593Y-85069650D01*
X223243680Y-85182971D01*
X223243678Y-85182974D01*
X223146604Y-85323609D01*
X223086004Y-85483395D01*
X223065407Y-85653038D01*
X223086004Y-85822680D01*
X223097518Y-85853038D01*
X223140495Y-85966358D01*
X223140717Y-85966942D01*
X223148775Y-86010914D01*
X223148775Y-87700563D01*
X223140717Y-87744532D01*
X223127241Y-87780066D01*
X223086004Y-87888795D01*
X223065407Y-88058438D01*
X207842249Y-88058438D01*
X207805396Y-88025789D01*
X207767706Y-88006008D01*
X207675639Y-87957687D01*
X207625429Y-87909104D01*
X207617325Y-87891863D01*
X207601946Y-87851311D01*
X207504870Y-87710672D01*
X207493459Y-87700563D01*
X207376958Y-87597351D01*
X207350298Y-87583359D01*
X207247201Y-87529249D01*
X207196991Y-87480666D01*
X207188887Y-87463425D01*
X207188659Y-87462823D01*
X207173508Y-87422873D01*
X207076432Y-87282234D01*
X206948520Y-87168913D01*
X206797205Y-87089497D01*
X206797204Y-87089496D01*
X206797201Y-87089495D01*
X206790187Y-87086835D01*
X206791019Y-87084641D01*
X206740556Y-87055247D01*
X206708779Y-86993021D01*
X206715689Y-86923494D01*
X206759090Y-86868740D01*
X206800954Y-86849626D01*
X206825643Y-86843541D01*
X206976958Y-86764125D01*
X207104870Y-86650804D01*
X207201946Y-86510165D01*
X207262545Y-86350381D01*
X207268121Y-86304454D01*
X207295742Y-86240277D01*
X207308990Y-86226585D01*
X207416604Y-86131247D01*
X207513680Y-85990608D01*
X207574279Y-85830824D01*
X207579855Y-85784897D01*
X207607476Y-85720720D01*
X207620724Y-85707028D01*
X207728338Y-85611690D01*
X207825414Y-85471051D01*
X207886013Y-85311267D01*
X207906611Y-85141624D01*
X207886013Y-84971981D01*
X207825414Y-84812197D01*
X207824314Y-84810604D01*
X207728339Y-84671560D01*
X207728337Y-84671557D01*
X207702854Y-84648981D01*
X207600426Y-84558237D01*
X207449111Y-84478821D01*
X207449110Y-84478820D01*
X207449109Y-84478820D01*
X207337461Y-84451301D01*
X207283188Y-84437924D01*
X207112298Y-84437924D01*
X207058024Y-84451301D01*
X206946377Y-84478820D01*
X206918828Y-84493279D01*
X206861204Y-84507481D01*
X203031977Y-84507481D01*
X203016360Y-84505757D01*
X203016333Y-84506043D01*
X203008571Y-84505308D01*
X202939443Y-84507481D01*
X202909890Y-84507481D01*
X202909169Y-84507571D01*
X202902997Y-84508350D01*
X202897185Y-84508807D01*
X202850613Y-84510271D01*
X202850612Y-84510271D01*
X202831369Y-84515862D01*
X202812319Y-84519806D01*
X202792451Y-84522315D01*
X202792449Y-84522316D01*
X202749124Y-84539469D01*
X202743597Y-84541361D01*
X202698850Y-84554362D01*
X202698849Y-84554363D01*
X202681607Y-84564560D01*
X202664139Y-84573118D01*
X202645509Y-84580494D01*
X202645507Y-84580495D01*
X202607816Y-84607879D01*
X202602934Y-84611086D01*
X202562819Y-84634811D01*
X202548648Y-84648981D01*
X202533863Y-84661609D01*
X202520171Y-84671558D01*
X202517652Y-84673388D01*
X202487949Y-84709291D01*
X202484017Y-84713612D01*
X192678711Y-94518919D01*
X192617388Y-94552404D01*
X192591030Y-94555238D01*
X186927282Y-94555238D01*
X186869658Y-94541035D01*
X186825643Y-94517935D01*
X186825644Y-94517935D01*
X186742681Y-94497486D01*
X186659720Y-94477038D01*
X186488830Y-94477038D01*
X186447934Y-94487118D01*
X186322908Y-94517934D01*
X186171593Y-94597350D01*
X186043680Y-94710671D01*
X186043678Y-94710674D01*
X185946604Y-94851309D01*
X185886004Y-95011095D01*
X185865407Y-95180738D01*
X156736165Y-95180738D01*
X156701946Y-95090511D01*
X156604870Y-94949872D01*
X156476958Y-94836551D01*
X156325643Y-94757135D01*
X156325642Y-94757134D01*
X156325641Y-94757134D01*
X156188371Y-94723300D01*
X156159720Y-94716238D01*
X155988830Y-94716238D01*
X155965802Y-94721914D01*
X155822908Y-94757134D01*
X155671593Y-94836550D01*
X155543680Y-94949871D01*
X155543678Y-94949874D01*
X155446604Y-95090509D01*
X155386004Y-95250295D01*
X155365407Y-95419938D01*
X155386004Y-95589580D01*
X155388026Y-95594911D01*
X155435312Y-95719592D01*
X155440717Y-95733842D01*
X155448775Y-95777814D01*
X155448775Y-98286971D01*
X155429090Y-98354010D01*
X155390053Y-98392398D01*
X155347711Y-98418615D01*
X155183294Y-98568500D01*
X155173228Y-98581831D01*
X155117119Y-98623466D01*
X155047407Y-98628157D01*
X154986225Y-98594414D01*
X154975322Y-98581831D01*
X154965255Y-98568500D01*
X154800838Y-98418615D01*
X154800837Y-98418614D01*
X154758497Y-98392398D01*
X154711862Y-98340369D01*
X154699775Y-98286971D01*
X154699775Y-94296825D01*
X154719460Y-94229786D01*
X154721725Y-94226385D01*
X154727558Y-94217935D01*
X154801946Y-94110165D01*
X154862545Y-93950381D01*
X154883143Y-93780738D01*
X154862545Y-93611095D01*
X154801946Y-93451311D01*
X154799578Y-93447881D01*
X154704871Y-93310674D01*
X154704869Y-93310671D01*
X154665849Y-93276102D01*
X154576958Y-93197351D01*
X154425643Y-93117935D01*
X154425642Y-93117934D01*
X154425641Y-93117934D01*
X154313993Y-93090415D01*
X154259720Y-93077038D01*
X154088830Y-93077038D01*
X154047934Y-93087118D01*
X153922908Y-93117934D01*
X153771593Y-93197350D01*
X153643680Y-93310671D01*
X153643678Y-93310674D01*
X153546604Y-93451309D01*
X153486005Y-93611094D01*
X153486004Y-93611095D01*
X153479041Y-93668441D01*
X153469752Y-93702725D01*
X153468838Y-93704837D01*
X153468836Y-93704841D01*
X153461546Y-93750865D01*
X153460362Y-93756584D01*
X153448776Y-93801710D01*
X153448775Y-93801720D01*
X153448775Y-93821754D01*
X153447248Y-93841153D01*
X153444115Y-93860932D01*
X153444115Y-93860933D01*
X153448500Y-93907321D01*
X153448775Y-93913159D01*
X153448775Y-98286971D01*
X153429090Y-98354010D01*
X153390053Y-98392398D01*
X153347711Y-98418615D01*
X153183294Y-98568500D01*
X153173228Y-98581831D01*
X153117119Y-98623466D01*
X153047407Y-98628157D01*
X152986225Y-98594414D01*
X152975322Y-98581831D01*
X152965255Y-98568500D01*
X152800838Y-98418615D01*
X152800837Y-98418614D01*
X152758497Y-98392398D01*
X152711862Y-98340369D01*
X152699775Y-98286971D01*
X152699775Y-94721914D01*
X152707833Y-94677942D01*
X152762545Y-94533681D01*
X152783143Y-94364038D01*
X152762545Y-94194395D01*
X152701946Y-94034611D01*
X152604870Y-93893972D01*
X152476958Y-93780651D01*
X152325643Y-93701235D01*
X152325642Y-93701234D01*
X152325641Y-93701234D01*
X152213993Y-93673715D01*
X152159720Y-93660338D01*
X151988830Y-93660338D01*
X151947934Y-93670418D01*
X151822908Y-93701234D01*
X151671593Y-93780650D01*
X151543680Y-93893971D01*
X151543678Y-93893974D01*
X151446604Y-94034609D01*
X151386004Y-94194395D01*
X151365407Y-94364038D01*
X151386004Y-94533680D01*
X151428053Y-94644553D01*
X151437049Y-94668272D01*
X151440717Y-94677942D01*
X151448775Y-94721914D01*
X151448775Y-98286971D01*
X151429090Y-98354010D01*
X151390053Y-98392398D01*
X151347711Y-98418615D01*
X151183294Y-98568500D01*
X151173228Y-98581831D01*
X151117119Y-98623466D01*
X151047407Y-98628157D01*
X150986225Y-98594414D01*
X150975322Y-98581831D01*
X150965255Y-98568500D01*
X150800838Y-98418615D01*
X150800837Y-98418614D01*
X150758497Y-98392398D01*
X150711862Y-98340369D01*
X150699775Y-98286971D01*
X150699775Y-95238614D01*
X150707833Y-95194642D01*
X150762545Y-95050380D01*
X150767315Y-95011095D01*
X150783143Y-94880738D01*
X150762545Y-94711095D01*
X150701946Y-94551311D01*
X150679587Y-94518919D01*
X150604871Y-94410674D01*
X150604869Y-94410671D01*
X150588399Y-94396080D01*
X150476958Y-94297351D01*
X150325643Y-94217935D01*
X150325642Y-94217934D01*
X150325641Y-94217934D01*
X150213993Y-94190415D01*
X150159720Y-94177038D01*
X149988830Y-94177038D01*
X149947934Y-94187118D01*
X149822908Y-94217934D01*
X149671593Y-94297350D01*
X149543680Y-94410671D01*
X149543678Y-94410674D01*
X149446604Y-94551309D01*
X149386004Y-94711095D01*
X149365407Y-94880738D01*
X149386004Y-95050380D01*
X149440717Y-95194642D01*
X149448775Y-95238614D01*
X149448775Y-98286971D01*
X149429090Y-98354010D01*
X149390053Y-98392398D01*
X149347711Y-98418615D01*
X149183295Y-98568499D01*
X149049218Y-98746046D01*
X149049213Y-98746054D01*
X148950050Y-98945199D01*
X148950044Y-98945214D01*
X148889160Y-99159200D01*
X148889159Y-99159202D01*
X148868632Y-99380737D01*
X148868632Y-99380738D01*
X146279918Y-99380738D01*
X146270731Y-99281598D01*
X146259390Y-99159202D01*
X146259389Y-99159200D01*
X146258249Y-99155195D01*
X146198504Y-98945210D01*
X146197444Y-98943081D01*
X146099336Y-98746054D01*
X146099331Y-98746046D01*
X145965254Y-98568499D01*
X145800838Y-98418615D01*
X145800837Y-98418614D01*
X145758497Y-98392398D01*
X145711862Y-98340369D01*
X145699775Y-98286971D01*
X145699775Y-97954925D01*
X145719460Y-97887886D01*
X145731625Y-97871953D01*
X145750213Y-97851309D01*
X145806808Y-97788454D01*
X145901454Y-97624522D01*
X145959949Y-97444494D01*
X145979735Y-97256238D01*
X145959949Y-97067982D01*
X145901454Y-96887954D01*
X145806808Y-96724022D01*
X145680146Y-96583350D01*
X145680145Y-96583349D01*
X145527009Y-96472089D01*
X145527004Y-96472086D01*
X145354082Y-96395095D01*
X145354077Y-96395093D01*
X145208276Y-96364103D01*
X145168921Y-96355738D01*
X144979629Y-96355738D01*
X144947172Y-96362636D01*
X144794472Y-96395093D01*
X144794467Y-96395095D01*
X144621545Y-96472086D01*
X144621540Y-96472089D01*
X144468404Y-96583349D01*
X144341741Y-96724023D01*
X144247096Y-96887953D01*
X144247093Y-96887960D01*
X144192684Y-97055416D01*
X144188601Y-97067982D01*
X144168815Y-97256238D01*
X144188601Y-97444494D01*
X144188602Y-97444497D01*
X144247093Y-97624515D01*
X144247096Y-97624522D01*
X144341742Y-97788454D01*
X144366556Y-97816012D01*
X144416925Y-97871953D01*
X144447155Y-97934944D01*
X144448775Y-97954925D01*
X144448775Y-98286971D01*
X144429090Y-98354010D01*
X144390053Y-98392398D01*
X144347711Y-98418615D01*
X144183294Y-98568500D01*
X144173228Y-98581831D01*
X144117119Y-98623466D01*
X144047407Y-98628157D01*
X143986225Y-98594414D01*
X143975322Y-98581831D01*
X143965255Y-98568500D01*
X143800837Y-98418614D01*
X143800835Y-98418612D01*
X143611679Y-98301492D01*
X143611673Y-98301490D01*
X143404215Y-98221120D01*
X143185518Y-98180238D01*
X142963032Y-98180238D01*
X142744335Y-98221120D01*
X142667720Y-98250801D01*
X142536876Y-98301490D01*
X142536870Y-98301492D01*
X142347714Y-98418612D01*
X142347712Y-98418614D01*
X142183294Y-98568500D01*
X142173228Y-98581831D01*
X142117119Y-98623466D01*
X142047407Y-98628157D01*
X141986225Y-98594414D01*
X141975322Y-98581831D01*
X141965255Y-98568500D01*
X141800837Y-98418614D01*
X141800835Y-98418612D01*
X141611679Y-98301492D01*
X141611673Y-98301490D01*
X141404215Y-98221120D01*
X141185518Y-98180238D01*
X140963032Y-98180238D01*
X140744335Y-98221120D01*
X140667720Y-98250801D01*
X140536876Y-98301490D01*
X140536870Y-98301492D01*
X140347714Y-98418612D01*
X140347712Y-98418614D01*
X140183294Y-98568500D01*
X140173228Y-98581831D01*
X140117119Y-98623466D01*
X140047407Y-98628157D01*
X139986225Y-98594414D01*
X139975322Y-98581831D01*
X139965255Y-98568500D01*
X139800838Y-98418615D01*
X139800837Y-98418614D01*
X139758497Y-98392398D01*
X139711862Y-98340369D01*
X139699775Y-98286971D01*
X139699775Y-97954925D01*
X139719460Y-97887886D01*
X139731625Y-97871953D01*
X139750213Y-97851309D01*
X139806808Y-97788454D01*
X139901454Y-97624522D01*
X139959949Y-97444494D01*
X139979735Y-97256238D01*
X139959949Y-97067982D01*
X139901454Y-96887954D01*
X139806808Y-96724022D01*
X139680146Y-96583350D01*
X139680145Y-96583349D01*
X139527009Y-96472089D01*
X139527004Y-96472086D01*
X139354082Y-96395095D01*
X139354077Y-96395093D01*
X139208276Y-96364103D01*
X139168921Y-96355738D01*
X138979629Y-96355738D01*
X138947172Y-96362636D01*
X138794472Y-96395093D01*
X138794467Y-96395095D01*
X138621545Y-96472086D01*
X138621540Y-96472089D01*
X138468404Y-96583349D01*
X138341741Y-96724023D01*
X138247096Y-96887953D01*
X138247093Y-96887960D01*
X138192684Y-97055416D01*
X138188601Y-97067982D01*
X138168815Y-97256238D01*
X138188601Y-97444494D01*
X138188602Y-97444497D01*
X138247093Y-97624515D01*
X138247096Y-97624522D01*
X138341742Y-97788454D01*
X138366556Y-97816012D01*
X138416925Y-97871953D01*
X138447155Y-97934944D01*
X138448775Y-97954925D01*
X138448775Y-98286971D01*
X138429090Y-98354010D01*
X138390053Y-98392398D01*
X138347711Y-98418615D01*
X138183294Y-98568500D01*
X138173228Y-98581831D01*
X138117119Y-98623466D01*
X138047407Y-98628157D01*
X137986225Y-98594414D01*
X137975322Y-98581831D01*
X137965255Y-98568500D01*
X137800838Y-98418615D01*
X137800837Y-98418614D01*
X137758497Y-98392398D01*
X137711862Y-98340369D01*
X137699775Y-98286971D01*
X137699775Y-97338614D01*
X137707833Y-97294642D01*
X137762545Y-97150381D01*
X137783143Y-96980738D01*
X137762545Y-96811095D01*
X137701946Y-96651311D01*
X137697776Y-96645270D01*
X137635632Y-96555238D01*
X137604870Y-96510672D01*
X137476958Y-96397351D01*
X137325643Y-96317935D01*
X137325642Y-96317934D01*
X137325641Y-96317934D01*
X137213993Y-96290415D01*
X137159720Y-96277038D01*
X136988830Y-96277038D01*
X136947934Y-96287118D01*
X136822908Y-96317934D01*
X136671593Y-96397350D01*
X136543680Y-96510671D01*
X136543678Y-96510674D01*
X136446604Y-96651309D01*
X136386004Y-96811095D01*
X136365407Y-96980738D01*
X136386004Y-97150380D01*
X136426152Y-97256238D01*
X136433374Y-97275282D01*
X136440717Y-97294642D01*
X136448775Y-97338614D01*
X136448775Y-98286971D01*
X136429090Y-98354010D01*
X136390053Y-98392398D01*
X136347711Y-98418615D01*
X136183294Y-98568500D01*
X136178728Y-98574548D01*
X136122619Y-98616183D01*
X136052907Y-98620874D01*
X135991725Y-98587131D01*
X135958499Y-98525668D01*
X135955775Y-98499820D01*
X135955775Y-92801479D01*
X135959878Y-92775627D01*
X135958597Y-92775355D01*
X135959947Y-92768999D01*
X135959949Y-92768994D01*
X135979735Y-92580738D01*
X135959949Y-92392482D01*
X135901454Y-92212454D01*
X135806808Y-92048522D01*
X135680146Y-91907850D01*
X135677849Y-91906181D01*
X135527009Y-91796589D01*
X135527004Y-91796586D01*
X135354082Y-91719595D01*
X135354077Y-91719593D01*
X135208276Y-91688603D01*
X135168921Y-91680238D01*
X134979629Y-91680238D01*
X134947172Y-91687136D01*
X134794472Y-91719593D01*
X134794467Y-91719595D01*
X134621545Y-91796586D01*
X134621540Y-91796589D01*
X134468404Y-91907849D01*
X134341741Y-92048523D01*
X134247096Y-92212453D01*
X134247093Y-92212460D01*
X134188602Y-92392478D01*
X134188601Y-92392482D01*
X134168815Y-92580738D01*
X134186906Y-92752868D01*
X134188602Y-92768999D01*
X134189953Y-92775355D01*
X134188671Y-92775627D01*
X134192775Y-92801479D01*
X134192775Y-98514387D01*
X134173090Y-98581426D01*
X134167729Y-98589113D01*
X134049218Y-98746047D01*
X134049215Y-98746051D01*
X134045038Y-98754440D01*
X134021723Y-98786841D01*
X133427828Y-99380737D01*
X133427828Y-99380738D01*
X133375561Y-99380738D01*
X133367821Y-99297217D01*
X133317827Y-99196816D01*
X133234941Y-99121254D01*
X133130355Y-99080738D01*
X133046473Y-99080738D01*
X132964025Y-99096150D01*
X132868665Y-99155195D01*
X132801074Y-99244700D01*
X132770380Y-99352578D01*
X132692562Y-99352578D01*
X132126828Y-98786844D01*
X132103508Y-98754433D01*
X132099335Y-98746053D01*
X132099331Y-98746046D01*
X131965254Y-98568499D01*
X131800837Y-98418614D01*
X131800835Y-98418612D01*
X131728553Y-98373857D01*
X132420946Y-98373857D01*
X133074275Y-99027185D01*
X133074276Y-99027185D01*
X133727602Y-98373857D01*
X133611453Y-98301940D01*
X133611452Y-98301939D01*
X133404079Y-98221603D01*
X133185468Y-98180738D01*
X132963082Y-98180738D01*
X132744470Y-98221603D01*
X132537099Y-98301938D01*
X132537098Y-98301939D01*
X132420946Y-98373857D01*
X131728553Y-98373857D01*
X131611679Y-98301492D01*
X131611673Y-98301490D01*
X131404215Y-98221120D01*
X131185518Y-98180238D01*
X130963032Y-98180238D01*
X130744335Y-98221120D01*
X130667720Y-98250801D01*
X130536876Y-98301490D01*
X130536870Y-98301492D01*
X130347714Y-98418612D01*
X130347712Y-98418614D01*
X130183295Y-98568499D01*
X130049218Y-98746046D01*
X130049213Y-98746054D01*
X129950050Y-98945199D01*
X129950044Y-98945214D01*
X129889160Y-99159200D01*
X129889159Y-99159202D01*
X129868632Y-99380737D01*
X129868632Y-99380738D01*
X84293324Y-99380738D01*
X84379484Y-99349910D01*
X84523974Y-99281570D01*
X84526658Y-99280381D01*
X84562431Y-99265564D01*
X84596599Y-99247300D01*
X84599205Y-99245988D01*
X84743691Y-99177652D01*
X84880767Y-99095491D01*
X84883344Y-99094032D01*
X84917490Y-99075781D01*
X84949716Y-99054248D01*
X84952151Y-99052705D01*
X85089261Y-98970526D01*
X85217620Y-98875328D01*
X85220028Y-98873631D01*
X85252238Y-98852110D01*
X85282183Y-98827534D01*
X85284484Y-98825738D01*
X85412865Y-98730525D01*
X85531266Y-98623212D01*
X85533506Y-98621278D01*
X85563450Y-98596705D01*
X85590830Y-98569324D01*
X85592963Y-98567293D01*
X85711386Y-98459961D01*
X85818718Y-98341538D01*
X85820749Y-98339405D01*
X85848130Y-98312025D01*
X85872703Y-98282081D01*
X85874637Y-98279841D01*
X85981950Y-98161440D01*
X86077163Y-98033059D01*
X86078959Y-98030758D01*
X86103535Y-98000813D01*
X86125056Y-97968603D01*
X86126753Y-97966195D01*
X86221951Y-97837836D01*
X86304130Y-97700726D01*
X86305673Y-97698291D01*
X86327206Y-97666065D01*
X86345457Y-97631919D01*
X86346916Y-97629342D01*
X86429077Y-97492266D01*
X86497413Y-97347780D01*
X86498725Y-97345174D01*
X86516989Y-97311006D01*
X86531806Y-97275233D01*
X86532995Y-97272549D01*
X86601335Y-97128059D01*
X86655174Y-96977587D01*
X86656240Y-96974822D01*
X86671057Y-96939054D01*
X86682305Y-96901974D01*
X86683221Y-96899202D01*
X86737064Y-96748721D01*
X86775895Y-96593695D01*
X86776672Y-96590887D01*
X86787925Y-96553793D01*
X86795481Y-96515801D01*
X86796122Y-96512947D01*
X86834958Y-96357906D01*
X86858413Y-96199781D01*
X86858906Y-96196939D01*
X86866467Y-96158931D01*
X86870260Y-96120416D01*
X86870630Y-96117421D01*
X86894074Y-95959377D01*
X86901914Y-95799773D01*
X86902133Y-95796803D01*
X86905929Y-95758272D01*
X86906585Y-95704695D01*
X86913843Y-95556973D01*
X86906585Y-95409253D01*
X86906484Y-95400970D01*
X86905929Y-95355674D01*
X86902134Y-95317151D01*
X86901914Y-95314152D01*
X86894074Y-95154569D01*
X86870629Y-94996516D01*
X86870259Y-94993514D01*
X86866467Y-94955015D01*
X86858914Y-94917045D01*
X86858409Y-94914138D01*
X86834958Y-94756040D01*
X86796126Y-94601016D01*
X86795480Y-94598135D01*
X86787925Y-94560153D01*
X86776690Y-94523117D01*
X86775882Y-94520195D01*
X86774096Y-94513066D01*
X86737064Y-94365225D01*
X86683234Y-94214780D01*
X86682286Y-94211910D01*
X86676973Y-94194395D01*
X86671057Y-94174892D01*
X86671055Y-94174888D01*
X86671056Y-94174888D01*
X86663277Y-94156111D01*
X86656250Y-94139146D01*
X86655173Y-94136355D01*
X86601335Y-93985887D01*
X86564176Y-93907321D01*
X86556878Y-93891890D01*
X86546010Y-93822871D01*
X86574182Y-93758933D01*
X86632449Y-93720375D01*
X86702312Y-93719440D01*
X86751199Y-93746058D01*
X86771592Y-93764125D01*
X86922907Y-93843541D01*
X87088830Y-93884438D01*
X87088831Y-93884438D01*
X87259719Y-93884438D01*
X87259720Y-93884438D01*
X87425643Y-93843541D01*
X87576958Y-93764125D01*
X87704870Y-93650804D01*
X87801946Y-93510165D01*
X87801947Y-93510162D01*
X87806108Y-93504134D01*
X87860390Y-93460143D01*
X87929839Y-93452483D01*
X87992404Y-93483586D01*
X87995839Y-93486892D01*
X93273469Y-98764522D01*
X93283294Y-98776786D01*
X93283515Y-98776604D01*
X93288485Y-98782611D01*
X93288488Y-98782614D01*
X93288489Y-98782615D01*
X93338926Y-98829979D01*
X93359805Y-98850858D01*
X93365279Y-98855104D01*
X93369717Y-98858894D01*
X93403693Y-98890800D01*
X93403697Y-98890802D01*
X93421248Y-98900451D01*
X93437506Y-98911130D01*
X93453339Y-98923412D01*
X93475290Y-98932910D01*
X93496112Y-98941921D01*
X93501356Y-98944490D01*
X93542183Y-98966935D01*
X93561587Y-98971917D01*
X93579985Y-98978216D01*
X93598380Y-98986176D01*
X93644404Y-98993464D01*
X93650107Y-98994645D01*
X93695256Y-99006238D01*
X93715291Y-99006238D01*
X93734688Y-99007764D01*
X93754471Y-99010898D01*
X93800859Y-99006513D01*
X93806697Y-99006238D01*
X98821268Y-99006238D01*
X98878892Y-99020441D01*
X98906891Y-99035135D01*
X98922907Y-99043541D01*
X99088830Y-99084438D01*
X99088831Y-99084438D01*
X99259719Y-99084438D01*
X99259720Y-99084438D01*
X99425643Y-99043541D01*
X99576958Y-98964125D01*
X99704870Y-98850804D01*
X99801946Y-98710165D01*
X99862545Y-98550381D01*
X99871067Y-98480188D01*
X99898688Y-98416012D01*
X99936534Y-98385340D01*
X99976958Y-98364125D01*
X100104870Y-98250804D01*
X100201946Y-98110165D01*
X100262545Y-97950381D01*
X100271067Y-97880188D01*
X100298688Y-97816012D01*
X100336534Y-97785340D01*
X100376958Y-97764125D01*
X100504870Y-97650804D01*
X100504878Y-97650792D01*
X100506472Y-97648994D01*
X100507981Y-97648046D01*
X100510484Y-97645830D01*
X100510852Y-97646245D01*
X100565659Y-97611862D01*
X100587625Y-97607763D01*
X100594915Y-97607074D01*
X100600867Y-97606513D01*
X100606699Y-97606238D01*
X107021268Y-97606238D01*
X107078892Y-97620441D01*
X107100763Y-97631919D01*
X107122907Y-97643541D01*
X107288830Y-97684438D01*
X107288831Y-97684438D01*
X107459719Y-97684438D01*
X107459720Y-97684438D01*
X107625643Y-97643541D01*
X107776958Y-97564125D01*
X107904870Y-97450804D01*
X108001946Y-97310165D01*
X108053788Y-97173469D01*
X108095966Y-97117768D01*
X108112097Y-97107649D01*
X108248758Y-97035925D01*
X108376670Y-96922604D01*
X108473746Y-96781965D01*
X108525588Y-96645269D01*
X108567766Y-96589568D01*
X108583897Y-96579449D01*
X108720558Y-96507725D01*
X108848470Y-96394404D01*
X108945546Y-96253765D01*
X109006145Y-96093981D01*
X109026743Y-95924338D01*
X109006145Y-95754695D01*
X108945546Y-95594911D01*
X108941866Y-95589580D01*
X108848471Y-95454274D01*
X108848469Y-95454271D01*
X108819173Y-95428317D01*
X108720558Y-95340951D01*
X108569243Y-95261535D01*
X108569242Y-95261534D01*
X108569241Y-95261534D01*
X108457593Y-95234015D01*
X108403320Y-95220638D01*
X108232430Y-95220638D01*
X108177122Y-95234270D01*
X108066505Y-95261535D01*
X108022492Y-95284635D01*
X107964868Y-95298838D01*
X101101119Y-95298838D01*
X101034080Y-95279153D01*
X101013438Y-95262519D01*
X92760032Y-87009112D01*
X102468916Y-87009112D01*
X102488343Y-87454073D01*
X102505364Y-87583356D01*
X102546477Y-87895644D01*
X102642878Y-88330482D01*
X102716628Y-88564384D01*
X102776175Y-88753244D01*
X102776810Y-88755256D01*
X102832276Y-88889162D01*
X102947248Y-89166730D01*
X103152904Y-89561792D01*
X103226830Y-89677832D01*
X103392210Y-89937426D01*
X103661586Y-90288485D01*
X103663343Y-90290774D01*
X103964241Y-90619146D01*
X104292613Y-90920044D01*
X104292616Y-90920046D01*
X104292619Y-90920049D01*
X104536559Y-91107230D01*
X104645961Y-91191177D01*
X105013630Y-91425409D01*
X105021600Y-91430486D01*
X105021600Y-91430485D01*
X105416657Y-91636139D01*
X105440566Y-91646042D01*
X105490454Y-91666707D01*
X105492023Y-91667408D01*
X105493052Y-91667814D01*
X105494667Y-91668452D01*
X105618136Y-91719594D01*
X105828138Y-91806580D01*
X105828137Y-91806580D01*
X105868519Y-91819311D01*
X105906913Y-91831417D01*
X105911031Y-91832877D01*
X105911869Y-91833208D01*
X105911878Y-91833211D01*
X105923601Y-91836679D01*
X106252905Y-91940509D01*
X106296627Y-91950201D01*
X106337406Y-91959242D01*
X106341558Y-91960315D01*
X106344738Y-91961256D01*
X106344741Y-91961256D01*
X106344746Y-91961258D01*
X106344740Y-91961257D01*
X106355269Y-91963381D01*
X106364225Y-91965187D01*
X106655256Y-92029707D01*
X106687743Y-92036910D01*
X106687742Y-92036909D01*
X106777477Y-92048723D01*
X106781596Y-92049409D01*
X106787220Y-92050544D01*
X106813342Y-92053445D01*
X107129314Y-92095044D01*
X107223701Y-92099164D01*
X107227824Y-92099483D01*
X107233724Y-92100138D01*
X107235861Y-92100376D01*
X107235859Y-92100376D01*
X107238026Y-92100423D01*
X107267410Y-92101073D01*
X107574275Y-92114471D01*
X107672677Y-92110174D01*
X107676719Y-92110131D01*
X107687153Y-92110362D01*
X107687153Y-92110361D01*
X107687155Y-92110362D01*
X107687157Y-92110362D01*
X107697684Y-92109661D01*
X107723037Y-92107976D01*
X108019236Y-92095044D01*
X108120904Y-92081658D01*
X108124827Y-92081270D01*
X108137560Y-92080424D01*
X108176681Y-92074315D01*
X108372595Y-92048523D01*
X108460807Y-92036910D01*
X108473521Y-92034091D01*
X108564925Y-92013827D01*
X108568703Y-92013114D01*
X108583559Y-92010795D01*
X108624857Y-92000540D01*
X108895639Y-91940510D01*
X108895645Y-91940508D01*
X108895645Y-91940509D01*
X108964691Y-91918737D01*
X109001253Y-91907210D01*
X109004907Y-91906181D01*
X109019069Y-91902665D01*
X109021664Y-91902021D01*
X109040419Y-91895557D01*
X109064170Y-91887372D01*
X109320411Y-91806580D01*
X109426582Y-91762602D01*
X109429996Y-91761308D01*
X109448431Y-91754956D01*
X109491198Y-91735837D01*
X109731893Y-91636139D01*
X109837573Y-91581125D01*
X109840764Y-91579583D01*
X109860535Y-91570746D01*
X109902735Y-91547203D01*
X110086528Y-91451528D01*
X110126956Y-91430483D01*
X110126955Y-91430483D01*
X110230975Y-91364214D01*
X110233988Y-91362415D01*
X110254746Y-91350836D01*
X110295610Y-91323037D01*
X110502589Y-91191177D01*
X110603838Y-91113485D01*
X110606639Y-91111461D01*
X110627979Y-91096945D01*
X110627980Y-91096944D01*
X110627980Y-91096945D01*
X110666831Y-91065150D01*
X110855936Y-90920045D01*
X110855937Y-90920045D01*
X110890513Y-90888360D01*
X110953225Y-90830895D01*
X110955770Y-90828691D01*
X110977313Y-90811062D01*
X110977312Y-90811063D01*
X111013550Y-90775618D01*
X111184309Y-90619146D01*
X111188105Y-90615003D01*
X111276390Y-90518656D01*
X111278730Y-90516241D01*
X111300011Y-90495426D01*
X111301853Y-90493275D01*
X111333118Y-90456750D01*
X111485207Y-90290774D01*
X111485212Y-90290768D01*
X111570871Y-90179133D01*
X111572943Y-90176578D01*
X111593554Y-90152500D01*
X111623092Y-90111078D01*
X111644204Y-90083565D01*
X111756340Y-89937426D01*
X111834370Y-89814942D01*
X111836144Y-89812311D01*
X111855639Y-89784975D01*
X111881275Y-89741316D01*
X111995646Y-89561792D01*
X112064828Y-89428894D01*
X112066300Y-89426234D01*
X112081506Y-89400339D01*
X112084217Y-89395724D01*
X112084216Y-89395725D01*
X112105703Y-89350372D01*
X112201302Y-89166730D01*
X112260402Y-89024049D01*
X112261595Y-89021357D01*
X112273470Y-88996295D01*
X112277496Y-88987801D01*
X112294696Y-88941256D01*
X112295795Y-88938604D01*
X112371743Y-88755248D01*
X112419583Y-88603517D01*
X112420537Y-88600729D01*
X112433969Y-88564383D01*
X112433969Y-88564384D01*
X112437064Y-88552996D01*
X112446790Y-88517227D01*
X112505673Y-88330476D01*
X112541148Y-88170455D01*
X112541818Y-88167737D01*
X112552407Y-88128797D01*
X112560851Y-88081580D01*
X112602072Y-87895648D01*
X112602073Y-87895644D01*
X112602072Y-87895645D01*
X112624100Y-87728325D01*
X112624531Y-87725556D01*
X112627194Y-87710671D01*
X112631884Y-87684447D01*
X112636031Y-87637703D01*
X112660207Y-87454073D01*
X112667782Y-87280551D01*
X112667962Y-87277825D01*
X112671779Y-87234813D01*
X112672457Y-87173487D01*
X112672577Y-87170756D01*
X112679634Y-87009112D01*
X182468916Y-87009112D01*
X182488343Y-87454073D01*
X182505364Y-87583356D01*
X182546477Y-87895644D01*
X182642878Y-88330482D01*
X182716628Y-88564384D01*
X182776175Y-88753244D01*
X182776810Y-88755256D01*
X182832276Y-88889162D01*
X182947248Y-89166730D01*
X183152904Y-89561792D01*
X183226830Y-89677832D01*
X183392210Y-89937426D01*
X183661586Y-90288485D01*
X183663343Y-90290774D01*
X183964241Y-90619146D01*
X184292613Y-90920044D01*
X184292616Y-90920046D01*
X184292619Y-90920049D01*
X184536559Y-91107230D01*
X184645961Y-91191177D01*
X185013630Y-91425409D01*
X185021600Y-91430486D01*
X185021600Y-91430485D01*
X185416657Y-91636139D01*
X185440566Y-91646042D01*
X185490454Y-91666707D01*
X185492023Y-91667408D01*
X185493052Y-91667814D01*
X185494667Y-91668452D01*
X185618136Y-91719594D01*
X185828138Y-91806580D01*
X185828137Y-91806580D01*
X185868519Y-91819311D01*
X185906913Y-91831417D01*
X185911031Y-91832877D01*
X185911869Y-91833208D01*
X185911878Y-91833211D01*
X185923601Y-91836679D01*
X186252905Y-91940509D01*
X186296627Y-91950201D01*
X186337406Y-91959242D01*
X186341558Y-91960315D01*
X186344738Y-91961256D01*
X186344741Y-91961256D01*
X186344746Y-91961258D01*
X186344740Y-91961257D01*
X186355269Y-91963381D01*
X186364225Y-91965187D01*
X186655256Y-92029707D01*
X186687743Y-92036910D01*
X186687742Y-92036909D01*
X186777477Y-92048723D01*
X186781596Y-92049409D01*
X186787220Y-92050544D01*
X186813342Y-92053445D01*
X187129314Y-92095044D01*
X187223701Y-92099164D01*
X187227824Y-92099483D01*
X187233724Y-92100138D01*
X187235861Y-92100376D01*
X187235859Y-92100376D01*
X187238026Y-92100423D01*
X187267410Y-92101073D01*
X187574275Y-92114471D01*
X187672677Y-92110174D01*
X187676719Y-92110131D01*
X187687153Y-92110362D01*
X187687153Y-92110361D01*
X187687155Y-92110362D01*
X187687157Y-92110362D01*
X187697684Y-92109661D01*
X187723037Y-92107976D01*
X188019236Y-92095044D01*
X188120904Y-92081658D01*
X188124827Y-92081270D01*
X188137560Y-92080424D01*
X188176681Y-92074315D01*
X188372595Y-92048523D01*
X188460807Y-92036910D01*
X188473521Y-92034091D01*
X188564925Y-92013827D01*
X188568703Y-92013114D01*
X188583559Y-92010795D01*
X188624857Y-92000540D01*
X188895639Y-91940510D01*
X188895645Y-91940508D01*
X188895645Y-91940509D01*
X188964691Y-91918737D01*
X189001253Y-91907210D01*
X189004907Y-91906181D01*
X189019069Y-91902665D01*
X189021664Y-91902021D01*
X189040419Y-91895557D01*
X189064170Y-91887372D01*
X189320411Y-91806580D01*
X189426582Y-91762602D01*
X189429996Y-91761308D01*
X189448431Y-91754956D01*
X189491198Y-91735837D01*
X189731893Y-91636139D01*
X189837573Y-91581125D01*
X189840764Y-91579583D01*
X189860535Y-91570746D01*
X189902735Y-91547203D01*
X190086528Y-91451528D01*
X190126956Y-91430483D01*
X190126955Y-91430483D01*
X190230975Y-91364214D01*
X190233988Y-91362415D01*
X190254746Y-91350836D01*
X190295610Y-91323037D01*
X190502589Y-91191177D01*
X190603838Y-91113485D01*
X190606639Y-91111461D01*
X190627979Y-91096945D01*
X190627980Y-91096944D01*
X190627980Y-91096945D01*
X190666831Y-91065150D01*
X190855936Y-90920045D01*
X190855937Y-90920045D01*
X190890513Y-90888360D01*
X190953225Y-90830895D01*
X190955770Y-90828691D01*
X190977313Y-90811062D01*
X190977312Y-90811063D01*
X191013550Y-90775618D01*
X191184309Y-90619146D01*
X191188105Y-90615003D01*
X191276390Y-90518656D01*
X191278730Y-90516241D01*
X191300011Y-90495426D01*
X191301853Y-90493275D01*
X191333118Y-90456750D01*
X191485207Y-90290774D01*
X191485212Y-90290768D01*
X191570871Y-90179133D01*
X191572943Y-90176578D01*
X191593554Y-90152500D01*
X191623092Y-90111078D01*
X191644204Y-90083565D01*
X191756340Y-89937426D01*
X191834370Y-89814942D01*
X191836144Y-89812311D01*
X191855639Y-89784975D01*
X191881275Y-89741316D01*
X191995646Y-89561792D01*
X192064828Y-89428894D01*
X192066300Y-89426234D01*
X192081506Y-89400339D01*
X192084217Y-89395724D01*
X192084216Y-89395725D01*
X192105703Y-89350372D01*
X192201302Y-89166730D01*
X192260402Y-89024049D01*
X192261595Y-89021357D01*
X192273470Y-88996295D01*
X192277496Y-88987801D01*
X192294696Y-88941256D01*
X192295795Y-88938604D01*
X192371743Y-88755248D01*
X192419583Y-88603517D01*
X192420537Y-88600729D01*
X192433969Y-88564383D01*
X192433969Y-88564384D01*
X192437064Y-88552996D01*
X192446790Y-88517227D01*
X192505673Y-88330476D01*
X192541148Y-88170455D01*
X192541818Y-88167737D01*
X192552407Y-88128797D01*
X192560851Y-88081580D01*
X192602072Y-87895648D01*
X192602073Y-87895644D01*
X192602072Y-87895645D01*
X192624100Y-87728325D01*
X192624531Y-87725556D01*
X192627194Y-87710671D01*
X192631884Y-87684447D01*
X192636031Y-87637703D01*
X192660207Y-87454073D01*
X192667782Y-87280551D01*
X192667962Y-87277825D01*
X192671779Y-87234813D01*
X192672457Y-87173487D01*
X192672577Y-87170756D01*
X192679634Y-87009112D01*
X192672456Y-86844727D01*
X192672188Y-86820441D01*
X192671779Y-86783411D01*
X192667963Y-86740406D01*
X192667782Y-86737656D01*
X192663228Y-86633360D01*
X192660207Y-86564151D01*
X192636029Y-86380505D01*
X192631884Y-86333777D01*
X192624528Y-86292653D01*
X192624101Y-86289905D01*
X192602073Y-86122580D01*
X192560854Y-85936653D01*
X192552408Y-85889431D01*
X192552408Y-85889430D01*
X192547968Y-85873101D01*
X192541835Y-85850546D01*
X192541137Y-85847717D01*
X192540774Y-85846081D01*
X192505673Y-85687748D01*
X192446791Y-85501000D01*
X192433969Y-85453841D01*
X192420553Y-85417537D01*
X192419579Y-85414690D01*
X192386969Y-85311266D01*
X192371743Y-85262976D01*
X192341612Y-85190234D01*
X192294696Y-85076967D01*
X192277498Y-85030429D01*
X192276866Y-85029095D01*
X192261614Y-84996906D01*
X192260389Y-84994143D01*
X192201302Y-84851494D01*
X192162054Y-84776100D01*
X192105714Y-84667871D01*
X192096763Y-84648981D01*
X192084216Y-84622499D01*
X192084211Y-84622491D01*
X192084212Y-84622491D01*
X192066327Y-84592036D01*
X192064805Y-84589286D01*
X191995646Y-84456433D01*
X191881281Y-84276917D01*
X191855640Y-84233251D01*
X191836166Y-84205941D01*
X191834355Y-84203256D01*
X191756340Y-84080798D01*
X191623092Y-83907145D01*
X191593553Y-83865723D01*
X191572952Y-83841656D01*
X191570868Y-83839086D01*
X191485212Y-83727456D01*
X191333117Y-83561473D01*
X191300010Y-83522797D01*
X191278719Y-83501972D01*
X191276361Y-83499535D01*
X191184309Y-83399078D01*
X191013549Y-83242605D01*
X190977312Y-83207161D01*
X190977313Y-83207162D01*
X190955795Y-83189552D01*
X190953207Y-83187312D01*
X190855937Y-83098180D01*
X190855930Y-83098175D01*
X190855931Y-83098175D01*
X190666830Y-82953073D01*
X190655668Y-82943938D01*
X190627979Y-82921279D01*
X190606674Y-82906786D01*
X190603802Y-82904710D01*
X190502589Y-82827047D01*
X190295627Y-82695197D01*
X190286125Y-82688733D01*
X190254746Y-82667388D01*
X190254741Y-82667385D01*
X190234045Y-82655839D01*
X190230938Y-82653985D01*
X190173201Y-82617203D01*
X190126955Y-82587741D01*
X189902739Y-82471022D01*
X189860533Y-82447477D01*
X189840832Y-82438671D01*
X189837515Y-82437068D01*
X189801120Y-82418122D01*
X189731891Y-82382083D01*
X189731891Y-82382084D01*
X189491238Y-82282402D01*
X189448433Y-82263269D01*
X189448434Y-82263269D01*
X189448431Y-82263268D01*
X189430043Y-82256931D01*
X189426528Y-82255599D01*
X189320419Y-82211647D01*
X189320415Y-82211646D01*
X189320411Y-82211644D01*
X189064178Y-82130854D01*
X189021656Y-82116201D01*
X189021655Y-82116201D01*
X189004925Y-82112046D01*
X189001225Y-82111004D01*
X188895642Y-82077715D01*
X188895639Y-82077714D01*
X188756576Y-82046884D01*
X188624876Y-82017687D01*
X188583561Y-82007429D01*
X188583560Y-82007429D01*
X188568751Y-82005117D01*
X188564897Y-82004389D01*
X188496046Y-81989126D01*
X188460811Y-81981315D01*
X188460807Y-81981314D01*
X188176708Y-81943911D01*
X188157473Y-81940908D01*
X188137560Y-81937800D01*
X188132932Y-81937492D01*
X188124856Y-81936955D01*
X188120876Y-81936561D01*
X188085096Y-81931850D01*
X188019236Y-81923180D01*
X187924825Y-81919058D01*
X187723072Y-81910249D01*
X187687159Y-81907862D01*
X187687154Y-81907862D01*
X187687153Y-81907862D01*
X187686803Y-81907869D01*
X187676730Y-81908092D01*
X187672660Y-81908048D01*
X187574275Y-81903753D01*
X187267446Y-81917149D01*
X187250953Y-81917514D01*
X187235862Y-81917848D01*
X187235858Y-81917848D01*
X187227824Y-81918739D01*
X187223697Y-81919058D01*
X187143469Y-81922561D01*
X187129314Y-81923180D01*
X186994658Y-81940908D01*
X186813359Y-81964776D01*
X186793777Y-81966951D01*
X186787220Y-81967680D01*
X186786702Y-81967784D01*
X186781606Y-81968811D01*
X186777453Y-81969502D01*
X186687745Y-81981314D01*
X186687742Y-81981314D01*
X186687739Y-81981315D01*
X186364276Y-82053025D01*
X186355339Y-82054828D01*
X186344735Y-82056968D01*
X186344734Y-82056969D01*
X186341551Y-82057909D01*
X186337393Y-82058984D01*
X186263374Y-82075394D01*
X186252911Y-82077714D01*
X186252909Y-82077714D01*
X186252907Y-82077715D01*
X186252908Y-82077715D01*
X185923589Y-82181548D01*
X185911873Y-82185014D01*
X185911864Y-82185018D01*
X185911033Y-82185346D01*
X185906916Y-82186805D01*
X185869277Y-82198673D01*
X185828139Y-82211644D01*
X185828132Y-82211647D01*
X185828131Y-82211647D01*
X185494667Y-82349772D01*
X185493518Y-82350225D01*
X185492029Y-82350814D01*
X185492026Y-82350815D01*
X185492007Y-82350823D01*
X185490438Y-82351522D01*
X185420205Y-82380615D01*
X185416660Y-82382084D01*
X185416650Y-82382088D01*
X185311047Y-82437062D01*
X185021601Y-82587738D01*
X185021597Y-82587740D01*
X185021596Y-82587741D01*
X184852924Y-82695197D01*
X184645961Y-82827047D01*
X184292619Y-83098175D01*
X184292616Y-83098177D01*
X184292613Y-83098180D01*
X184135001Y-83242605D01*
X183964241Y-83399078D01*
X183663338Y-83727456D01*
X183525458Y-83907145D01*
X183392210Y-84080798D01*
X183152904Y-84456433D01*
X182947248Y-84851494D01*
X182918495Y-84920911D01*
X182806938Y-85190234D01*
X182776807Y-85262976D01*
X182738972Y-85382974D01*
X182642878Y-85687742D01*
X182546477Y-86122580D01*
X182524087Y-86292653D01*
X182488343Y-86564151D01*
X182468916Y-87009112D01*
X112679634Y-87009112D01*
X112672456Y-86844727D01*
X112672188Y-86820441D01*
X112671779Y-86783411D01*
X112667963Y-86740406D01*
X112667782Y-86737656D01*
X112663228Y-86633360D01*
X112660207Y-86564151D01*
X112636029Y-86380505D01*
X112631884Y-86333777D01*
X112624528Y-86292653D01*
X112624101Y-86289905D01*
X112602073Y-86122580D01*
X112560854Y-85936653D01*
X112552408Y-85889431D01*
X112552408Y-85889430D01*
X112547968Y-85873101D01*
X112541835Y-85850546D01*
X112541137Y-85847717D01*
X112540774Y-85846081D01*
X112505673Y-85687748D01*
X112446791Y-85501000D01*
X112433969Y-85453841D01*
X112420553Y-85417537D01*
X112419579Y-85414690D01*
X112386969Y-85311266D01*
X112371743Y-85262976D01*
X112341612Y-85190234D01*
X112294696Y-85076967D01*
X112277498Y-85030429D01*
X112276866Y-85029095D01*
X112261614Y-84996906D01*
X112260389Y-84994143D01*
X112201302Y-84851494D01*
X112162054Y-84776100D01*
X112105714Y-84667871D01*
X112096763Y-84648981D01*
X112084216Y-84622499D01*
X112084211Y-84622491D01*
X112084212Y-84622491D01*
X112066327Y-84592036D01*
X112064805Y-84589286D01*
X111995646Y-84456433D01*
X111881281Y-84276917D01*
X111855640Y-84233251D01*
X111836166Y-84205941D01*
X111834355Y-84203256D01*
X111756340Y-84080798D01*
X111623092Y-83907145D01*
X111593553Y-83865723D01*
X111572952Y-83841656D01*
X111570868Y-83839086D01*
X111485212Y-83727456D01*
X111333117Y-83561473D01*
X111300010Y-83522797D01*
X111278719Y-83501972D01*
X111276361Y-83499535D01*
X111184309Y-83399078D01*
X111013549Y-83242605D01*
X110977312Y-83207161D01*
X110977313Y-83207162D01*
X110955795Y-83189552D01*
X110953207Y-83187312D01*
X110855937Y-83098180D01*
X110855930Y-83098175D01*
X110855931Y-83098175D01*
X110666830Y-82953073D01*
X110655668Y-82943938D01*
X110627979Y-82921279D01*
X110606674Y-82906786D01*
X110603802Y-82904710D01*
X110502589Y-82827047D01*
X110295627Y-82695197D01*
X110286125Y-82688733D01*
X110254746Y-82667388D01*
X110254741Y-82667385D01*
X110234045Y-82655839D01*
X110230938Y-82653985D01*
X110173201Y-82617203D01*
X110126955Y-82587741D01*
X109902739Y-82471022D01*
X109860533Y-82447477D01*
X109840832Y-82438671D01*
X109837515Y-82437068D01*
X109801120Y-82418122D01*
X109731891Y-82382083D01*
X109731891Y-82382084D01*
X109491238Y-82282402D01*
X109448433Y-82263269D01*
X109448434Y-82263269D01*
X109448431Y-82263268D01*
X109430043Y-82256931D01*
X109426528Y-82255599D01*
X109320419Y-82211647D01*
X109320415Y-82211646D01*
X109320411Y-82211644D01*
X109064178Y-82130854D01*
X109021656Y-82116201D01*
X109021655Y-82116201D01*
X109004925Y-82112046D01*
X109001225Y-82111004D01*
X108895642Y-82077715D01*
X108895639Y-82077714D01*
X108756576Y-82046884D01*
X108624876Y-82017687D01*
X108583561Y-82007429D01*
X108583560Y-82007429D01*
X108568751Y-82005117D01*
X108564897Y-82004389D01*
X108496046Y-81989126D01*
X108460811Y-81981315D01*
X108460807Y-81981314D01*
X108176708Y-81943911D01*
X108157473Y-81940908D01*
X108137560Y-81937800D01*
X108132932Y-81937492D01*
X108124856Y-81936955D01*
X108120876Y-81936561D01*
X108085096Y-81931850D01*
X108019236Y-81923180D01*
X107924825Y-81919058D01*
X107723072Y-81910249D01*
X107687159Y-81907862D01*
X107687154Y-81907862D01*
X107687153Y-81907862D01*
X107686803Y-81907869D01*
X107676730Y-81908092D01*
X107672660Y-81908048D01*
X107574275Y-81903753D01*
X107267446Y-81917149D01*
X107250953Y-81917514D01*
X107235862Y-81917848D01*
X107235858Y-81917848D01*
X107227824Y-81918739D01*
X107223697Y-81919058D01*
X107143469Y-81922561D01*
X107129314Y-81923180D01*
X106994658Y-81940908D01*
X106813359Y-81964776D01*
X106793777Y-81966951D01*
X106787220Y-81967680D01*
X106786702Y-81967784D01*
X106781606Y-81968811D01*
X106777453Y-81969502D01*
X106687745Y-81981314D01*
X106687742Y-81981314D01*
X106687739Y-81981315D01*
X106364276Y-82053025D01*
X106355339Y-82054828D01*
X106344735Y-82056968D01*
X106344734Y-82056969D01*
X106341551Y-82057909D01*
X106337393Y-82058984D01*
X106263374Y-82075394D01*
X106252911Y-82077714D01*
X106252909Y-82077714D01*
X106252907Y-82077715D01*
X106252908Y-82077715D01*
X105923589Y-82181548D01*
X105911873Y-82185014D01*
X105911864Y-82185018D01*
X105911033Y-82185346D01*
X105906916Y-82186805D01*
X105869277Y-82198673D01*
X105828139Y-82211644D01*
X105828132Y-82211647D01*
X105828131Y-82211647D01*
X105494667Y-82349772D01*
X105493518Y-82350225D01*
X105492029Y-82350814D01*
X105492026Y-82350815D01*
X105492007Y-82350823D01*
X105490438Y-82351522D01*
X105420205Y-82380615D01*
X105416660Y-82382084D01*
X105416650Y-82382088D01*
X105311047Y-82437062D01*
X105021601Y-82587738D01*
X105021597Y-82587740D01*
X105021596Y-82587741D01*
X104852924Y-82695197D01*
X104645961Y-82827047D01*
X104292619Y-83098175D01*
X104292616Y-83098177D01*
X104292613Y-83098180D01*
X104135001Y-83242605D01*
X103964241Y-83399078D01*
X103663338Y-83727456D01*
X103525458Y-83907145D01*
X103392210Y-84080798D01*
X103152904Y-84456433D01*
X102947248Y-84851494D01*
X102918495Y-84920911D01*
X102806938Y-85190234D01*
X102776807Y-85262976D01*
X102738972Y-85382974D01*
X102642878Y-85687742D01*
X102546477Y-86122580D01*
X102524087Y-86292653D01*
X102488343Y-86564151D01*
X102468916Y-87009112D01*
X92760032Y-87009112D01*
X90798108Y-85047188D01*
X90788285Y-85034926D01*
X90788064Y-85035110D01*
X90783091Y-85029099D01*
X90748809Y-84996906D01*
X90732669Y-84981749D01*
X90722224Y-84971304D01*
X90711780Y-84960859D01*
X90706291Y-84956601D01*
X90701866Y-84952823D01*
X90667887Y-84920914D01*
X90667885Y-84920912D01*
X90667882Y-84920911D01*
X90650334Y-84911264D01*
X90634068Y-84900580D01*
X90618238Y-84888301D01*
X90575473Y-84869794D01*
X90570227Y-84867224D01*
X90529398Y-84844779D01*
X90529397Y-84844778D01*
X90509998Y-84839798D01*
X90491586Y-84833494D01*
X90473203Y-84825538D01*
X90473197Y-84825536D01*
X90427179Y-84818248D01*
X90421457Y-84817063D01*
X90376326Y-84805476D01*
X90376324Y-84805476D01*
X90356289Y-84805476D01*
X90336891Y-84803949D01*
X90329467Y-84802773D01*
X90317110Y-84800816D01*
X90317109Y-84800816D01*
X90270721Y-84805201D01*
X90264883Y-84805476D01*
X88121968Y-84805476D01*
X88106351Y-84803752D01*
X88106324Y-84804038D01*
X88098562Y-84803303D01*
X88029434Y-84805476D01*
X87999880Y-84805476D01*
X87999159Y-84805566D01*
X87992987Y-84806345D01*
X87987175Y-84806802D01*
X87940603Y-84808266D01*
X87940602Y-84808266D01*
X87921359Y-84813857D01*
X87902309Y-84817801D01*
X87882441Y-84820310D01*
X87882440Y-84820311D01*
X87849643Y-84833295D01*
X87841650Y-84835849D01*
X87680455Y-84875582D01*
X87680454Y-84875582D01*
X87529137Y-84954999D01*
X87401224Y-85068320D01*
X87401222Y-85068323D01*
X87304148Y-85208958D01*
X87243548Y-85368744D01*
X87222951Y-85538387D01*
X87243548Y-85708029D01*
X87304148Y-85867815D01*
X87351664Y-85936653D01*
X87401224Y-86008453D01*
X87529136Y-86121774D01*
X87644779Y-86182468D01*
X87659803Y-86190353D01*
X87710016Y-86238938D01*
X87718119Y-86256176D01*
X87733116Y-86295718D01*
X87770847Y-86350380D01*
X87830193Y-86436358D01*
X87958105Y-86549679D01*
X88062351Y-86604391D01*
X88112564Y-86652976D01*
X88120668Y-86670216D01*
X88146604Y-86738604D01*
X88243678Y-86879239D01*
X88243680Y-86879242D01*
X88350305Y-86973704D01*
X88387431Y-87032894D01*
X88386663Y-87102759D01*
X88350305Y-87159333D01*
X88337344Y-87170816D01*
X88243680Y-87253795D01*
X88243678Y-87253798D01*
X88146603Y-87394435D01*
X88120666Y-87462823D01*
X88078487Y-87518524D01*
X88062351Y-87528645D01*
X87958107Y-87583356D01*
X87830193Y-87696679D01*
X87830191Y-87696682D01*
X87733116Y-87837319D01*
X87707179Y-87905707D01*
X87665000Y-87961408D01*
X87648864Y-87971529D01*
X87544620Y-88026240D01*
X87416706Y-88139563D01*
X87416704Y-88139566D01*
X87319630Y-88280201D01*
X87259030Y-88439987D01*
X87238433Y-88609630D01*
X87259030Y-88779272D01*
X87313743Y-88923534D01*
X87321801Y-88967506D01*
X87321801Y-92144311D01*
X87302116Y-92211350D01*
X87249312Y-92257105D01*
X87180154Y-92267049D01*
X87116598Y-92238024D01*
X87110120Y-92231992D01*
X83075078Y-88196950D01*
X83065255Y-88184688D01*
X83065034Y-88184872D01*
X83060061Y-88178861D01*
X83027798Y-88148564D01*
X83009639Y-88131511D01*
X82999194Y-88121066D01*
X82988750Y-88110621D01*
X82983261Y-88106363D01*
X82978836Y-88102585D01*
X82944857Y-88070676D01*
X82944855Y-88070674D01*
X82944852Y-88070673D01*
X82927304Y-88061026D01*
X82911038Y-88050342D01*
X82895208Y-88038063D01*
X82852443Y-88019556D01*
X82847197Y-88016986D01*
X82806368Y-87994541D01*
X82806367Y-87994540D01*
X82786968Y-87989560D01*
X82768556Y-87983256D01*
X82750173Y-87975300D01*
X82750167Y-87975298D01*
X82704149Y-87968010D01*
X82698427Y-87966825D01*
X82653296Y-87955238D01*
X82653294Y-87955238D01*
X82633259Y-87955238D01*
X82613861Y-87953711D01*
X82606437Y-87952535D01*
X82594080Y-87950578D01*
X82594079Y-87950578D01*
X82547691Y-87954963D01*
X82541853Y-87955238D01*
X72284728Y-87955238D01*
X72217689Y-87935553D01*
X72197047Y-87918919D01*
X70131166Y-85853038D01*
X76392015Y-85853038D01*
X76412612Y-86022680D01*
X76473212Y-86182466D01*
X76557416Y-86304455D01*
X76570288Y-86323104D01*
X76698200Y-86436425D01*
X76849515Y-86515841D01*
X77015438Y-86556738D01*
X77015439Y-86556738D01*
X77186327Y-86556738D01*
X77186328Y-86556738D01*
X77352251Y-86515841D01*
X77503566Y-86436425D01*
X77631478Y-86323104D01*
X77728554Y-86182465D01*
X77748073Y-86130996D01*
X77790248Y-86075298D01*
X77855845Y-86051240D01*
X77915626Y-86063902D01*
X77915899Y-86063183D01*
X77920539Y-86064942D01*
X77921640Y-86065176D01*
X77922907Y-86065841D01*
X78088830Y-86106738D01*
X78088831Y-86106738D01*
X78259719Y-86106738D01*
X78259720Y-86106738D01*
X78425643Y-86065841D01*
X78576958Y-85986425D01*
X78704870Y-85873104D01*
X78801946Y-85732465D01*
X78862545Y-85572681D01*
X78883143Y-85403038D01*
X78862545Y-85233395D01*
X78801946Y-85073611D01*
X78704870Y-84932972D01*
X78576958Y-84819651D01*
X78425643Y-84740235D01*
X78425642Y-84740234D01*
X78425641Y-84740234D01*
X78313993Y-84712715D01*
X78259720Y-84699338D01*
X78088830Y-84699338D01*
X78033522Y-84712970D01*
X77922905Y-84740235D01*
X77878892Y-84763335D01*
X77821268Y-84777538D01*
X77633621Y-84777538D01*
X77618004Y-84775814D01*
X77617977Y-84776100D01*
X77610215Y-84775365D01*
X77541087Y-84777538D01*
X77511533Y-84777538D01*
X77510812Y-84777628D01*
X77504640Y-84778407D01*
X77498828Y-84778864D01*
X77452256Y-84780328D01*
X77452255Y-84780328D01*
X77433012Y-84785919D01*
X77413962Y-84789863D01*
X77394094Y-84792372D01*
X77350767Y-84809526D01*
X77345241Y-84811417D01*
X77300497Y-84824417D01*
X77300493Y-84824419D01*
X77283249Y-84834617D01*
X77265788Y-84843171D01*
X77247157Y-84850548D01*
X77247145Y-84850555D01*
X77209453Y-84877940D01*
X77204570Y-84881147D01*
X77164463Y-84904867D01*
X77150297Y-84919033D01*
X77135507Y-84931665D01*
X77119297Y-84943442D01*
X77119294Y-84943445D01*
X77089593Y-84979347D01*
X77085660Y-84983669D01*
X76913213Y-85156115D01*
X76855220Y-85188828D01*
X76849517Y-85190234D01*
X76698199Y-85269651D01*
X76570288Y-85382971D01*
X76570286Y-85382974D01*
X76473212Y-85523609D01*
X76412612Y-85683395D01*
X76392015Y-85853038D01*
X70131166Y-85853038D01*
X54475078Y-70196950D01*
X54465255Y-70184688D01*
X54465034Y-70184872D01*
X54460061Y-70178861D01*
X54409639Y-70131511D01*
X54399194Y-70121066D01*
X54388750Y-70110621D01*
X54383261Y-70106363D01*
X54378836Y-70102585D01*
X54344857Y-70070676D01*
X54344855Y-70070674D01*
X54344852Y-70070673D01*
X54327304Y-70061026D01*
X54311038Y-70050342D01*
X54295208Y-70038063D01*
X54252443Y-70019556D01*
X54247197Y-70016986D01*
X54206368Y-69994541D01*
X54206367Y-69994540D01*
X54186968Y-69989560D01*
X54168556Y-69983256D01*
X54150173Y-69975300D01*
X54150167Y-69975298D01*
X54104149Y-69968010D01*
X54098427Y-69966825D01*
X54053296Y-69955238D01*
X54053294Y-69955238D01*
X54033259Y-69955238D01*
X54013861Y-69953711D01*
X54006437Y-69952535D01*
X53994080Y-69950578D01*
X53994079Y-69950578D01*
X53947691Y-69954963D01*
X53941853Y-69955238D01*
X51209249Y-69955238D01*
X51151625Y-69941035D01*
X51107610Y-69917935D01*
X51107611Y-69917935D01*
X51024648Y-69897486D01*
X50941687Y-69877038D01*
X50770797Y-69877038D01*
X50729901Y-69887118D01*
X50604875Y-69917934D01*
X50453560Y-69997350D01*
X50325647Y-70110671D01*
X50325645Y-70110674D01*
X50228571Y-70251309D01*
X50167971Y-70411095D01*
X50147374Y-70580738D01*
X15355867Y-70580738D01*
X17512179Y-64481766D01*
X17512322Y-64481569D01*
X17534968Y-64417316D01*
X17535134Y-64416845D01*
X17535135Y-64416845D01*
X17598660Y-64258198D01*
X17690671Y-64030354D01*
X17692649Y-64025964D01*
X17782756Y-63845428D01*
X17882022Y-63650842D01*
X17884212Y-63646912D01*
X17991726Y-63469568D01*
X18041686Y-63389819D01*
X18104889Y-63288930D01*
X18107188Y-63285519D01*
X18219347Y-63130738D01*
X20618632Y-63130738D01*
X20639159Y-63352273D01*
X20639160Y-63352275D01*
X20700044Y-63566261D01*
X20700050Y-63566276D01*
X20799213Y-63765421D01*
X20799218Y-63765429D01*
X20933295Y-63942976D01*
X21097712Y-64092861D01*
X21097714Y-64092863D01*
X21286870Y-64209983D01*
X21286871Y-64209983D01*
X21286874Y-64209985D01*
X21494335Y-64290356D01*
X21713032Y-64331238D01*
X21713034Y-64331238D01*
X21935516Y-64331238D01*
X21935518Y-64331238D01*
X22154215Y-64290356D01*
X22361676Y-64209985D01*
X22478553Y-64137618D01*
X23170947Y-64137618D01*
X23287096Y-64209535D01*
X23287097Y-64209536D01*
X23494470Y-64289872D01*
X23713082Y-64330738D01*
X23935468Y-64330738D01*
X24154084Y-64289871D01*
X24361443Y-64209539D01*
X24361456Y-64209533D01*
X24477601Y-64137617D01*
X23824276Y-63484291D01*
X23824275Y-63484291D01*
X23170947Y-64137617D01*
X23170947Y-64137618D01*
X22478553Y-64137618D01*
X22550837Y-64092862D01*
X22715256Y-63942974D01*
X22849333Y-63765427D01*
X22853507Y-63757043D01*
X22876828Y-63724630D01*
X23470722Y-63130738D01*
X23442562Y-63102578D01*
X23520380Y-63102578D01*
X23530729Y-63214259D01*
X23580723Y-63314660D01*
X23663609Y-63390222D01*
X23768195Y-63430738D01*
X23852077Y-63430738D01*
X23934525Y-63415326D01*
X24029885Y-63356281D01*
X24097476Y-63266776D01*
X24128170Y-63158898D01*
X24125561Y-63130738D01*
X24177828Y-63130738D01*
X24771722Y-63724632D01*
X24795040Y-63757039D01*
X24799217Y-63765427D01*
X24933295Y-63942976D01*
X25097712Y-64092861D01*
X25097714Y-64092863D01*
X25286870Y-64209983D01*
X25286871Y-64209983D01*
X25286874Y-64209985D01*
X25494335Y-64290356D01*
X25713032Y-64331238D01*
X25713034Y-64331238D01*
X25935516Y-64331238D01*
X25935518Y-64331238D01*
X26154215Y-64290356D01*
X26361676Y-64209985D01*
X26550837Y-64092862D01*
X26697551Y-63959114D01*
X26715254Y-63942976D01*
X26715258Y-63942972D01*
X26849333Y-63765427D01*
X26948504Y-63566266D01*
X27009390Y-63352274D01*
X27029918Y-63130738D01*
X27009390Y-62909202D01*
X26948504Y-62695210D01*
X26938401Y-62674920D01*
X26849336Y-62496054D01*
X26849331Y-62496046D01*
X26715254Y-62318499D01*
X26550837Y-62168614D01*
X26550835Y-62168612D01*
X26361679Y-62051492D01*
X26361673Y-62051490D01*
X26154215Y-61971120D01*
X25935518Y-61930238D01*
X25713032Y-61930238D01*
X25494335Y-61971120D01*
X25363139Y-62021945D01*
X25286876Y-62051490D01*
X25286870Y-62051492D01*
X25097714Y-62168612D01*
X25097712Y-62168614D01*
X24933294Y-62318500D01*
X24933292Y-62318503D01*
X24799218Y-62496047D01*
X24799215Y-62496051D01*
X24795038Y-62504440D01*
X24771723Y-62536841D01*
X24177828Y-63130737D01*
X24177828Y-63130738D01*
X24125561Y-63130738D01*
X24117821Y-63047217D01*
X24067827Y-62946816D01*
X23984941Y-62871254D01*
X23880355Y-62830738D01*
X23796473Y-62830738D01*
X23714025Y-62846150D01*
X23618665Y-62905195D01*
X23551074Y-62994700D01*
X23520380Y-63102578D01*
X23442562Y-63102578D01*
X22876828Y-62536844D01*
X22853508Y-62504433D01*
X22849335Y-62496053D01*
X22849331Y-62496046D01*
X22715254Y-62318499D01*
X22550837Y-62168614D01*
X22550835Y-62168612D01*
X22478553Y-62123857D01*
X23170946Y-62123857D01*
X23824275Y-62777185D01*
X23824276Y-62777185D01*
X24477602Y-62123857D01*
X24361453Y-62051940D01*
X24361452Y-62051939D01*
X24154079Y-61971603D01*
X23935468Y-61930738D01*
X23713082Y-61930738D01*
X23494470Y-61971603D01*
X23287099Y-62051938D01*
X23287098Y-62051939D01*
X23170946Y-62123857D01*
X22478553Y-62123857D01*
X22361679Y-62051492D01*
X22361673Y-62051490D01*
X22154215Y-61971120D01*
X21935518Y-61930238D01*
X21713032Y-61930238D01*
X21494335Y-61971120D01*
X21363139Y-62021945D01*
X21286876Y-62051490D01*
X21286870Y-62051492D01*
X21097714Y-62168612D01*
X21097712Y-62168614D01*
X20933295Y-62318499D01*
X20799218Y-62496046D01*
X20799213Y-62496054D01*
X20700050Y-62695199D01*
X20700044Y-62695214D01*
X20639160Y-62909200D01*
X20639159Y-62909202D01*
X20618632Y-63130737D01*
X20618632Y-63130738D01*
X18219347Y-63130738D01*
X18230318Y-63115598D01*
X18357690Y-62947204D01*
X18359991Y-62944349D01*
X18497504Y-62784081D01*
X18638513Y-62628249D01*
X18640843Y-62625813D01*
X18791593Y-62476799D01*
X18945427Y-62334243D01*
X18947703Y-62332237D01*
X19110540Y-62195765D01*
X19277289Y-62066500D01*
X19452088Y-61942899D01*
X19629525Y-61828787D01*
X19812494Y-61720741D01*
X19815052Y-61719315D01*
X20000789Y-61621767D01*
X20191548Y-61529302D01*
X20194574Y-61527937D01*
X20388512Y-61446929D01*
X20585465Y-61370700D01*
X20588964Y-61369468D01*
X20790136Y-61305527D01*
X20991413Y-61246072D01*
X20995365Y-61245047D01*
X21203325Y-61198583D01*
X21406456Y-61156313D01*
X21410880Y-61155561D01*
X21627447Y-61126831D01*
X21827649Y-61102062D01*
X21832512Y-61101655D01*
X22077686Y-61090868D01*
X22215976Y-61085190D01*
X22248763Y-61083845D01*
X22249208Y-61083845D01*
X29518428Y-61083845D01*
X29585467Y-61103530D01*
G37*
%TD.AperFunction*%
%TD*%
M02*
