%TF.GenerationSoftware,KiCad,Pcbnew,7.0.9-7.0.9~ubuntu22.04.1*%
%TF.CreationDate,2023-12-27T20:48:07-05:00*%
%TF.ProjectId,GT-Wheel-RevLight,47542d57-6865-4656-9c2d-5265764c6967,rev?*%
%TF.SameCoordinates,Original*%
%TF.FileFunction,Soldermask,Top*%
%TF.FilePolarity,Negative*%
%FSLAX46Y46*%
G04 Gerber Fmt 4.6, Leading zero omitted, Abs format (unit mm)*
G04 Created by KiCad (PCBNEW 7.0.9-7.0.9~ubuntu22.04.1) date 2023-12-27 20:48:07*
%MOMM*%
%LPD*%
G01*
G04 APERTURE LIST*
G04 Aperture macros list*
%AMRoundRect*
0 Rectangle with rounded corners*
0 $1 Rounding radius*
0 $2 $3 $4 $5 $6 $7 $8 $9 X,Y pos of 4 corners*
0 Add a 4 corners polygon primitive as box body*
4,1,4,$2,$3,$4,$5,$6,$7,$8,$9,$2,$3,0*
0 Add four circle primitives for the rounded corners*
1,1,$1+$1,$2,$3*
1,1,$1+$1,$4,$5*
1,1,$1+$1,$6,$7*
1,1,$1+$1,$8,$9*
0 Add four rect primitives between the rounded corners*
20,1,$1+$1,$2,$3,$4,$5,0*
20,1,$1+$1,$4,$5,$6,$7,0*
20,1,$1+$1,$6,$7,$8,$9,0*
20,1,$1+$1,$8,$9,$2,$3,0*%
G04 Aperture macros list end*
%ADD10RoundRect,0.425000X0.925000X0.425000X-0.925000X0.425000X-0.925000X-0.425000X0.925000X-0.425000X0*%
%ADD11R,1.500000X0.900000*%
%ADD12RoundRect,0.225000X-0.225000X-0.375000X0.225000X-0.375000X0.225000X0.375000X-0.225000X0.375000X0*%
%ADD13R,0.900000X1.500000*%
%ADD14RoundRect,0.140000X-0.140000X-0.170000X0.140000X-0.170000X0.140000X0.170000X-0.140000X0.170000X0*%
%ADD15C,1.400000*%
%ADD16RoundRect,0.200000X0.275000X-0.200000X0.275000X0.200000X-0.275000X0.200000X-0.275000X-0.200000X0*%
%ADD17RoundRect,0.140000X0.140000X0.170000X-0.140000X0.170000X-0.140000X-0.170000X0.140000X-0.170000X0*%
%ADD18RoundRect,0.225000X0.225000X0.375000X-0.225000X0.375000X-0.225000X-0.375000X0.225000X-0.375000X0*%
%ADD19RoundRect,0.140000X-0.170000X0.140000X-0.170000X-0.140000X0.170000X-0.140000X0.170000X0.140000X0*%
%ADD20RoundRect,0.140000X0.170000X-0.140000X0.170000X0.140000X-0.170000X0.140000X-0.170000X-0.140000X0*%
G04 APERTURE END LIST*
D10*
%TO.C,SW5*%
X232755643Y-80667849D03*
X232755643Y-72567849D03*
%TD*%
%TO.C,SW6*%
X250142308Y-76009106D03*
X250142308Y-67909106D03*
%TD*%
D11*
%TO.C,D15*%
X123297002Y-79659112D03*
X123297002Y-76359112D03*
X118397002Y-76359112D03*
X118397002Y-79659112D03*
%TD*%
D12*
%TO.C,D2*%
X102974275Y-93380738D03*
X106274275Y-93380738D03*
%TD*%
D13*
%TO.C,D29*%
X223605643Y-79067849D03*
X226905643Y-79067849D03*
X226905643Y-74167849D03*
X223605643Y-74167849D03*
%TD*%
D14*
%TO.C,C9*%
X90614275Y-97980738D03*
X91574275Y-97980738D03*
%TD*%
D15*
%TO.C,WP18*%
X139074275Y-99380738D03*
%TD*%
D11*
%TO.C,D21*%
X169115184Y-79659112D03*
X169115184Y-76359112D03*
X164215184Y-76359112D03*
X164215184Y-79659112D03*
%TD*%
D16*
%TO.C,R4*%
X267824275Y-66705738D03*
X267824275Y-65055738D03*
%TD*%
D14*
%TO.C,C26*%
X209894275Y-90980738D03*
X210854275Y-90980738D03*
%TD*%
D10*
%TO.C,SW4*%
X218010906Y-90992225D03*
X218010906Y-82892225D03*
%TD*%
D13*
%TO.C,D7*%
X50856242Y-74409106D03*
X54156242Y-74409106D03*
X54156242Y-69509106D03*
X50856242Y-69509106D03*
%TD*%
D15*
%TO.C,WP1*%
X271324275Y-63130738D03*
%TD*%
D14*
%TO.C,C1*%
X52094275Y-75980738D03*
X53054275Y-75980738D03*
%TD*%
D15*
%TO.C,WP5*%
X162074275Y-99380738D03*
%TD*%
%TO.C,WP2*%
X269324275Y-63130738D03*
%TD*%
%TO.C,WP16*%
X143074275Y-99380738D03*
%TD*%
D14*
%TO.C,C2*%
X138824275Y-81380738D03*
X139784275Y-81380738D03*
%TD*%
D15*
%TO.C,WP10*%
X158074275Y-99380738D03*
%TD*%
D14*
%TO.C,C17*%
X123574275Y-81380738D03*
X124534275Y-81380738D03*
%TD*%
%TO.C,C20*%
X269324275Y-67880738D03*
X270284275Y-67880738D03*
%TD*%
D17*
%TO.C,C21*%
X25824275Y-67880738D03*
X24864275Y-67880738D03*
%TD*%
D16*
%TO.C,R7*%
X27324275Y-66705738D03*
X27324275Y-65055738D03*
%TD*%
D13*
%TO.C,D12*%
X96670751Y-92996271D03*
X99970751Y-92996271D03*
X99970751Y-88096271D03*
X96670751Y-88096271D03*
%TD*%
D15*
%TO.C,WP17*%
X141074275Y-99380738D03*
%TD*%
D14*
%TO.C,C3*%
X69494275Y-80580738D03*
X70454275Y-80580738D03*
%TD*%
%TO.C,C12*%
X176494275Y-81380738D03*
X177454275Y-81380738D03*
%TD*%
D11*
%TO.C,D23*%
X184387911Y-79659112D03*
X184387911Y-76359112D03*
X179487911Y-76359112D03*
X179487911Y-79659112D03*
%TD*%
D13*
%TO.C,D11*%
X89432419Y-96371561D03*
X92732419Y-96371561D03*
X92732419Y-91471561D03*
X89432419Y-91471561D03*
%TD*%
D11*
%TO.C,D24*%
X192024275Y-79659112D03*
X192024275Y-76359112D03*
X187124275Y-76359112D03*
X187124275Y-79659112D03*
%TD*%
D16*
%TO.C,R5*%
X21824275Y-66705738D03*
X21824275Y-65055738D03*
%TD*%
D14*
%TO.C,C14*%
X183894275Y-81580738D03*
X184854275Y-81580738D03*
%TD*%
%TO.C,C27*%
X224894275Y-80580738D03*
X225854275Y-80580738D03*
%TD*%
D11*
%TO.C,D13*%
X108024275Y-79659112D03*
X108024275Y-76359112D03*
X103124275Y-76359112D03*
X103124275Y-79659112D03*
%TD*%
D14*
%TO.C,C10*%
X169094275Y-81380738D03*
X170054275Y-81380738D03*
%TD*%
D15*
%TO.C,WP12*%
X154074275Y-99380738D03*
%TD*%
D13*
%TO.C,D10*%
X90128498Y-88415337D03*
X93428498Y-88415337D03*
X93428498Y-83515337D03*
X90128498Y-83515337D03*
%TD*%
D15*
%TO.C,WP14*%
X150074275Y-99380738D03*
%TD*%
D11*
%TO.C,D17*%
X138569730Y-79659112D03*
X138569730Y-76359112D03*
X133669730Y-76359112D03*
X133669730Y-79659112D03*
%TD*%
D14*
%TO.C,C6*%
X154324275Y-81380738D03*
X155284275Y-81380738D03*
%TD*%
D15*
%TO.C,WP3*%
X273324275Y-63130738D03*
%TD*%
D13*
%TO.C,D26*%
X195177799Y-92996271D03*
X198477799Y-92996271D03*
X198477799Y-88096271D03*
X195177799Y-88096271D03*
%TD*%
%TO.C,D8*%
X68242907Y-79067849D03*
X71542907Y-79067849D03*
X71542907Y-74167849D03*
X68242907Y-74167849D03*
%TD*%
D18*
%TO.C,D6*%
X192174275Y-95780738D03*
X188874275Y-95780738D03*
%TD*%
D13*
%TO.C,D27*%
X202416131Y-96371561D03*
X205716131Y-96371561D03*
X205716131Y-91471561D03*
X202416131Y-91471561D03*
%TD*%
D15*
%TO.C,WP20*%
X135074275Y-99380738D03*
%TD*%
%TO.C,WP6*%
X23824275Y-63130738D03*
%TD*%
%TO.C,WP8*%
X25824275Y-63130738D03*
%TD*%
D13*
%TO.C,D9*%
X82987644Y-89392225D03*
X86287644Y-89392225D03*
X86287644Y-84492225D03*
X82987644Y-84492225D03*
%TD*%
D19*
%TO.C,C11*%
X94974275Y-92980738D03*
X94974275Y-93940738D03*
%TD*%
D13*
%TO.C,D28*%
X208860906Y-89392225D03*
X212160906Y-89392225D03*
X212160906Y-84492225D03*
X208860906Y-84492225D03*
%TD*%
D14*
%TO.C,C16*%
X192294275Y-81780738D03*
X193254275Y-81780738D03*
%TD*%
D18*
%TO.C,D4*%
X192174275Y-98180738D03*
X188874275Y-98180738D03*
%TD*%
D10*
%TO.C,SW3*%
X77137644Y-90992225D03*
X77137644Y-82892225D03*
%TD*%
%TO.C,SW1*%
X45006242Y-76009106D03*
X45006242Y-67909106D03*
%TD*%
D14*
%TO.C,C22*%
X21824275Y-67880738D03*
X22784275Y-67880738D03*
%TD*%
%TO.C,C13*%
X109094275Y-81380738D03*
X110054275Y-81380738D03*
%TD*%
D15*
%TO.C,WP22*%
X131074275Y-99380738D03*
%TD*%
D11*
%TO.C,D18*%
X146206093Y-79659112D03*
X146206093Y-76359112D03*
X141306093Y-76359112D03*
X141306093Y-79659112D03*
%TD*%
D15*
%TO.C,WP7*%
X21824275Y-63130738D03*
%TD*%
%TO.C,WP15*%
X145074275Y-99380738D03*
%TD*%
D14*
%TO.C,C4*%
X146574275Y-81380738D03*
X147534275Y-81380738D03*
%TD*%
D10*
%TO.C,SW2*%
X62392907Y-80667849D03*
X62392907Y-72567849D03*
%TD*%
D12*
%TO.C,D3*%
X102974275Y-98180738D03*
X106274275Y-98180738D03*
%TD*%
D18*
%TO.C,D5*%
X192174275Y-93380738D03*
X188874275Y-93380738D03*
%TD*%
D16*
%TO.C,R2*%
X273324275Y-66705738D03*
X273324275Y-65055738D03*
%TD*%
D20*
%TO.C,C25*%
X200774275Y-96860738D03*
X200774275Y-95900738D03*
%TD*%
D14*
%TO.C,C19*%
X131324275Y-81380738D03*
X132284275Y-81380738D03*
%TD*%
D16*
%TO.C,R6*%
X25824275Y-66705738D03*
X25824275Y-65055738D03*
%TD*%
D13*
%TO.C,D30*%
X240992308Y-74409106D03*
X244292308Y-74409106D03*
X244292308Y-69509106D03*
X240992308Y-69509106D03*
%TD*%
D14*
%TO.C,C15*%
X115824275Y-81380738D03*
X116784275Y-81380738D03*
%TD*%
D15*
%TO.C,WP11*%
X156074275Y-99380738D03*
%TD*%
%TO.C,WP19*%
X137074275Y-99380738D03*
%TD*%
D16*
%TO.C,R3*%
X274824275Y-66705738D03*
X274824275Y-65055738D03*
%TD*%
D15*
%TO.C,WP4*%
X164074275Y-99380738D03*
%TD*%
D14*
%TO.C,C28*%
X242294275Y-75980738D03*
X243254275Y-75980738D03*
%TD*%
D13*
%TO.C,D25*%
X201720052Y-88415337D03*
X205020052Y-88415337D03*
X205020052Y-83515337D03*
X201720052Y-83515337D03*
%TD*%
D17*
%TO.C,C18*%
X273324275Y-67880738D03*
X272364275Y-67880738D03*
%TD*%
D15*
%TO.C,WP13*%
X152074275Y-99380738D03*
%TD*%
D14*
%TO.C,C8*%
X161824275Y-81380738D03*
X162784275Y-81380738D03*
%TD*%
D12*
%TO.C,D1*%
X102974275Y-95780738D03*
X106274275Y-95780738D03*
%TD*%
D11*
%TO.C,D22*%
X176751548Y-79659112D03*
X176751548Y-76359112D03*
X171851548Y-76359112D03*
X171851548Y-79659112D03*
%TD*%
%TO.C,D19*%
X153842457Y-79659112D03*
X153842457Y-76359112D03*
X148942457Y-76359112D03*
X148942457Y-79659112D03*
%TD*%
D15*
%TO.C,WP9*%
X160074275Y-99380738D03*
%TD*%
D14*
%TO.C,C24*%
X196294275Y-94580738D03*
X197254275Y-94580738D03*
%TD*%
D11*
%TO.C,D14*%
X115660639Y-79659112D03*
X115660639Y-76359112D03*
X110760639Y-76359112D03*
X110760639Y-79659112D03*
%TD*%
%TO.C,D16*%
X130933366Y-79659112D03*
X130933366Y-76359112D03*
X126033366Y-76359112D03*
X126033366Y-79659112D03*
%TD*%
D15*
%TO.C,WP21*%
X133074275Y-99380738D03*
%TD*%
D16*
%TO.C,R8*%
X20324275Y-66705738D03*
X20324275Y-65055738D03*
%TD*%
D11*
%TO.C,D20*%
X161478820Y-79659112D03*
X161478820Y-76359112D03*
X156578820Y-76359112D03*
X156578820Y-79659112D03*
%TD*%
D16*
%TO.C,R1*%
X269324275Y-66705738D03*
X269324275Y-65055738D03*
%TD*%
D17*
%TO.C,C23*%
X201774275Y-89980738D03*
X200814275Y-89980738D03*
%TD*%
D14*
%TO.C,C7*%
X89574275Y-89980738D03*
X90534275Y-89980738D03*
%TD*%
%TO.C,C5*%
X84294275Y-90980738D03*
X85254275Y-90980738D03*
%TD*%
M02*
