0
SECTION
2
HEADER
9
$INSUNITS
70
4
9
$ACADVER
1
AC1014
9
$HANDSEED
5
FFFF
0
ENDSEC
0
SECTION
2
TABLES
0
TABLE
2
VPORT
5
8
100
AcDbSymbolTable
0
ENDTAB
0
TABLE
2
LTYPE
5
5
100
AcDbSymbolTable
0
LTYPE
5
14
100
AcDbSymbolTableRecord
100
AcDbLinetypeTableRecord
2
BYBLOCK
70
0
0
LTYPE
5
15
100
AcDbSymbolTableRecord
100
AcDbLinetypeTableRecord
2
BYLAYER
70
0
0
ENDTAB
0
TABLE
2
LAYER
5
2
100
AcDbSymbolTable
70
2
0
LAYER
5
50
100
AcDbSymbolTableRecord
100
AcDbLayerTableRecord
2
0
70
0
6
CONTINUOUS
0
ENDTAB
0
TABLE
2
STYLE
5
3
100
AcDbSymbolTable
70
1
0
STYLE
5
11
100
AcDbSymbolTableRecord
100
AcDbTextStyleTableRecord
2
STANDARD
70
0
0
ENDTAB
0
TABLE
2
VIEW
5
6
100
AcDbSymbolTable
70
0
0
ENDTAB
0
TABLE
2
UCS
5
7
100
AcDbSymbolTable
70
0
0
ENDTAB
0
TABLE
2
APPID
5
9
100
AcDbSymbolTable
70
2
0
APPID
5
12
100
AcDbSymbolTableRecord
100
AcDbRegAppTableRecord
2
ACAD
70
0
0
ENDTAB
0
TABLE
2
DIMSTYLE
5
A
100
AcDbSymbolTable
70
1
0
ENDTAB
0
TABLE
2
BLOCK_RECORD
5
1
100
AcDbSymbolTable
70
1
0
BLOCK_RECORD
5
1F
100
AcDbSymbolTableRecord
100
AcDbBlockTableRecord
2
*MODEL_SPACE
0
BLOCK_RECORD
5
1B
100
AcDbSymbolTableRecord
100
AcDbBlockTableRecord
2
*PAPER_SPACE
0
ENDTAB
0
ENDSEC
0
SECTION
2
BLOCKS
0
BLOCK
5
20
100
AcDbEntity
100
AcDbBlockBegin
2
*MODEL_SPACE
0
ENDBLK
5
21
100
AcDbEntity
100
AcDbBlockEnd
0
BLOCK
5
1C
100
AcDbEntity
100
AcDbBlockBegin
2
*PAPER_SPACE
0
ENDBLK
5
1D
100
AcDbEntity
100
AcDbBlockEnd
0
ENDSEC
0
SECTION
2
ENTITIES
0
CIRCLE
5
100
100
AcDbEntity
8
0
100
AcDbCircle
10
40
20
50
30
0
40
5.0999999999999979
210
-0
220
0
230
1
0
CIRCLE
5
101
100
AcDbEntity
8
0
100
AcDbCircle
10
113.97497405862197
20
62.619523178070793
30
0
40
1.45
210
0
220
0
230
1
0
CIRCLE
5
102
100
AcDbEntity
8
0
100
AcDbCircle
10
59.39245775137092
20
58.450471434827008
30
0
40
1.45
210
0
220
0
230
1
0
CIRCLE
5
103
100
AcDbEntity
8
0
100
AcDbCircle
10
64.765876755477606
20
41.452138605950765
30
0
40
4.1000000000000014
210
-0
220
0
230
1
0
CIRCLE
5
104
100
AcDbEntity
8
0
100
AcDbCircle
10
102.56803251928909
20
65.050006160670961
30
0
40
0.99999999999999645
210
-0
220
0
230
1
0
CIRCLE
5
105
100
AcDbEntity
8
0
100
AcDbCircle
10
70.436630848883993
20
50.066887494506801
30
0
40
0.99999999999999645
210
-0
220
0
230
1
0
CIRCLE
5
106
100
AcDbEntity
8
0
100
AcDbCircle
10
56.491856043158386
20
43.08755081196216
30
0
40
0.49999999999999822
210
-0
220
0
230
1
0
CIRCLE
5
107
100
AcDbEntity
8
0
100
AcDbCircle
10
19.090909090909086
20
58.999999999999979
30
0
40
0.50000000000000044
210
-0
220
0
230
1
0
CIRCLE
5
108
100
AcDbEntity
8
0
100
AcDbCircle
10
11.454545454545448
20
58.999999999999979
30
0
40
0.50000000000000044
210
-0
220
0
230
1
0
CIRCLE
5
109
100
AcDbEntity
8
0
100
AcDbCircle
10
42
20
59
30
0
40
0.49999999999999822
210
-0
220
0
230
1
0
CIRCLE
5
110
100
AcDbEntity
8
0
100
AcDbCircle
10
62.936630848884
20
50.066887494506808
30
0
40
0.49999999999999822
210
-0
220
0
230
1
0
CIRCLE
5
111
100
AcDbEntity
8
0
100
AcDbCircle
10
95.06803251928909
20
65.050006160670947
30
0
40
0.50000000000000711
210
-0
220
0
230
1
0
CIRCLE
5
112
100
AcDbEntity
8
0
100
AcDbCircle
10
77.681367646085874
20
60.391263348825639
30
0
40
0.49999999999999822
210
-0
220
0
230
1
0
CIRCLE
5
113
100
AcDbEntity
8
0
100
AcDbCircle
10
55.795776586715434
20
51.043775405981151
30
0
40
0.49999999999999822
210
-0
220
0
230
1
0
CIRCLE
5
114
100
AcDbEntity
8
0
100
AcDbCircle
10
26.727272727272716
20
58.999999999999979
30
0
40
0.49999999999999822
210
-0
220
0
230
1
0
CIRCLE
5
115
100
AcDbEntity
8
0
100
AcDbCircle
10
3.8181818181818183
20
58.999999999999979
30
0
40
0.49999999999999989
210
-0
220
0
230
1
0
CIRCLE
5
116
100
AcDbEntity
8
0
100
AcDbCircle
10
34.363636363636367
20
58.999999999999979
30
0
40
0.49999999999999822
210
-0
220
0
230
1
0
CIRCLE
5
117
100
AcDbEntity
8
0
100
AcDbCircle
10
49.25352369830199
20
46.462840616639589
30
0
40
0.49999999999999822
210
-0
220
0
230
1
0
CIRCLE
5
118
100
AcDbEntity
8
0
100
AcDbCircle
10
85.18136764608586
20
60.391263348825618
30
0
40
0.99999999999999645
210
-0
220
0
230
1
0
CIRCLE
5
119
100
AcDbEntity
8
0
100
AcDbCircle
10
-85.18136764608586
20
60.391263348825618
30
0
40
0.99999999999999645
210
0
220
0
230
1
0
CIRCLE
5
120
100
AcDbEntity
8
0
100
AcDbCircle
10
-49.25352369830199
20
46.462840616639589
30
0
40
0.49999999999999822
210
0
220
0
230
1
0
CIRCLE
5
121
100
AcDbEntity
8
0
100
AcDbCircle
10
-34.363636363636367
20
58.999999999999979
30
0
40
0.49999999999999822
210
0
220
0
230
1
0
CIRCLE
5
122
100
AcDbEntity
8
0
100
AcDbCircle
10
-3.8181818181818183
20
58.999999999999979
30
0
40
0.49999999999999989
210
0
220
0
230
1
0
CIRCLE
5
123
100
AcDbEntity
8
0
100
AcDbCircle
10
-26.727272727272716
20
58.999999999999979
30
0
40
0.49999999999999822
210
0
220
0
230
1
0
CIRCLE
5
124
100
AcDbEntity
8
0
100
AcDbCircle
10
-55.795776586715434
20
51.043775405981151
30
0
40
0.49999999999999822
210
0
220
0
230
1
0
CIRCLE
5
125
100
AcDbEntity
8
0
100
AcDbCircle
10
-77.681367646085874
20
60.391263348825639
30
0
40
0.49999999999999822
210
0
220
0
230
1
0
CIRCLE
5
126
100
AcDbEntity
8
0
100
AcDbCircle
10
-95.06803251928909
20
65.050006160670947
30
0
40
0.50000000000000711
210
0
220
0
230
1
0
CIRCLE
5
127
100
AcDbEntity
8
0
100
AcDbCircle
10
-62.936630848884
20
50.066887494506808
30
0
40
0.49999999999999822
210
0
220
0
230
1
0
CIRCLE
5
128
100
AcDbEntity
8
0
100
AcDbCircle
10
-42
20
59
30
0
40
0.49999999999999822
210
0
220
0
230
1
0
CIRCLE
5
129
100
AcDbEntity
8
0
100
AcDbCircle
10
-11.454545454545448
20
58.999999999999979
30
0
40
0.50000000000000044
210
0
220
0
230
1
0
CIRCLE
5
130
100
AcDbEntity
8
0
100
AcDbCircle
10
-19.090909090909086
20
58.999999999999979
30
0
40
0.50000000000000044
210
0
220
0
230
1
0
CIRCLE
5
131
100
AcDbEntity
8
0
100
AcDbCircle
10
-56.491856043158386
20
43.08755081196216
30
0
40
0.49999999999999822
210
0
220
0
230
1
0
CIRCLE
5
132
100
AcDbEntity
8
0
100
AcDbCircle
10
-70.436630848883993
20
50.066887494506801
30
0
40
0.99999999999999645
210
0
220
0
230
1
0
CIRCLE
5
133
100
AcDbEntity
8
0
100
AcDbCircle
10
-102.56803251928909
20
65.050006160670961
30
0
40
0.99999999999999645
210
0
220
0
230
1
0
LWPOLYLINE
5
134
100
AcDbEntity
8
0
100
AcDbPolyline
90
38
70
1
43
0.0
10
-72.201747050714275
20
35.62837360996955
10
72.201747050714275
20
35.62837360996955
10
71.678812594228333
20
41.605541798520022
10
79.449131239343942
20
42.285356591951746
10
79.132867426804637
20
45.9002685107465
42
-0.36397023426620351
10
82.819745691750754
20
51.165676355930138
10
111.85365371506234
20
58.945288563896
42
-0.2356661609475422
10
116.22900321969229
20
58.053409052147302
10
133.0742746789816
20
64.009111892043009
10
130.0396120477337
20
72.592433992718227
42
0.31783724519578238
10
125.32556683982337
20
75.925767326051556
10
117.93134725689444
20
75.925767326051556
10
117.93134725689447
20
74.025767326051565
42
-0.87697646299276322
10
109.87105136910927
20
72.964609241131285
10
109.21229456409392
20
75.423123107280972
10
69.787923261090583
20
64.859394654537098
10
70.819772286208376
20
61.008481667056849
42
-0.99999999999999989
10
62.899180510637976
20
58.88616549721629
10
61.867331485520189
20
62.737078484696539
10
58.370106969952865
20
61.800000000000004
10
-58.370106969952865
20
61.800000000000004
10
-61.867331485520189
20
62.737078484696539
10
-62.899180510637976
20
58.88616549721629
42
-0.99999999999999989
10
-70.819772286208376
20
61.008481667056849
10
-69.787923261090583
20
64.859394654537098
10
-109.21229456409392
20
75.423123107280972
10
-109.87105136910927
20
72.964609241131285
42
-0.87697646299276322
10
-117.93134725689447
20
74.025767326051565
10
-117.93134725689444
20
75.925767326051556
10
-125.32556683982337
20
75.925767326051556
42
0.31783724519578493
10
-130.03961204773367
20
72.592433992718227
10
-133.0742746789816
20
64.009111892043009
10
-116.22900321969229
20
58.053409052147309
42
-0.23566616094754139
10
-111.85365371506234
20
58.945288563896
10
-82.819745691750754
20
51.165676355930131
42
-0.36397023426620206
10
-79.132867426804637
20
45.9002685107465
10
-79.449131239343942
20
42.285356591951746
10
-71.678812594228333
20
41.605541798520022
0
CIRCLE
5
135
100
AcDbEntity
8
0
100
AcDbCircle
10
-64.765876755477606
20
41.452138605950765
30
0
40
4.1000000000000014
210
0
220
0
230
1
0
CIRCLE
5
136
100
AcDbEntity
8
0
100
AcDbCircle
10
-59.39245775137092
20
58.450471434827008
30
0
40
1.45
210
0
220
-0
230
1
0
CIRCLE
5
137
100
AcDbEntity
8
0
100
AcDbCircle
10
-113.97497405862197
20
62.619523178070793
30
0
40
1.45
210
0
220
-0
230
1
0
CIRCLE
5
138
100
AcDbEntity
8
0
100
AcDbCircle
10
-40
20
50
30
0
40
5.0999999999999979
210
0
220
0
230
1
0
ENDSEC
0
SECTION
2
OBJECTS
0
DICTIONARY
5
C
100
AcDbDictionary
3
ACAD_GROUP
350
D
3
ACAD_MLINESTYLE
350
17
0
DICTIONARY
5
D
100
AcDbDictionary
0
DICTIONARY
5
1A
330
C
100
AcDbDictionary
0
DICTIONARY
5
17
100
AcDbDictionary
0
ENDSEC
0
EOF
