0
SECTION
2
HEADER
9
$INSUNITS
70
4
9
$ACADVER
1
AC1014
9
$HANDSEED
5
FFFF
0
ENDSEC
0
SECTION
2
TABLES
0
TABLE
2
VPORT
5
8
100
AcDbSymbolTable
0
ENDTAB
0
TABLE
2
LTYPE
5
5
100
AcDbSymbolTable
0
LTYPE
5
14
100
AcDbSymbolTableRecord
100
AcDbLinetypeTableRecord
2
BYBLOCK
70
0
0
LTYPE
5
15
100
AcDbSymbolTableRecord
100
AcDbLinetypeTableRecord
2
BYLAYER
70
0
0
ENDTAB
0
TABLE
2
LAYER
5
2
100
AcDbSymbolTable
70
2
0
LAYER
5
50
100
AcDbSymbolTableRecord
100
AcDbLayerTableRecord
2
0
70
0
6
CONTINUOUS
0
ENDTAB
0
TABLE
2
STYLE
5
3
100
AcDbSymbolTable
70
1
0
STYLE
5
11
100
AcDbSymbolTableRecord
100
AcDbTextStyleTableRecord
2
STANDARD
70
0
0
ENDTAB
0
TABLE
2
VIEW
5
6
100
AcDbSymbolTable
70
0
0
ENDTAB
0
TABLE
2
UCS
5
7
100
AcDbSymbolTable
70
0
0
ENDTAB
0
TABLE
2
APPID
5
9
100
AcDbSymbolTable
70
2
0
APPID
5
12
100
AcDbSymbolTableRecord
100
AcDbRegAppTableRecord
2
ACAD
70
0
0
ENDTAB
0
TABLE
2
DIMSTYLE
5
A
100
AcDbSymbolTable
70
1
0
ENDTAB
0
TABLE
2
BLOCK_RECORD
5
1
100
AcDbSymbolTable
70
1
0
BLOCK_RECORD
5
1F
100
AcDbSymbolTableRecord
100
AcDbBlockTableRecord
2
*MODEL_SPACE
0
BLOCK_RECORD
5
1B
100
AcDbSymbolTableRecord
100
AcDbBlockTableRecord
2
*PAPER_SPACE
0
ENDTAB
0
ENDSEC
0
SECTION
2
BLOCKS
0
BLOCK
5
20
100
AcDbEntity
100
AcDbBlockBegin
2
*MODEL_SPACE
0
ENDBLK
5
21
100
AcDbEntity
100
AcDbBlockEnd
0
BLOCK
5
1C
100
AcDbEntity
100
AcDbBlockBegin
2
*PAPER_SPACE
0
ENDBLK
5
1D
100
AcDbEntity
100
AcDbBlockEnd
0
ENDSEC
0
SECTION
2
ENTITIES
0
CIRCLE
5
100
100
AcDbEntity
8
0
100
AcDbCircle
10
76.904522581297641
20
-6.2743815790733048
30
0
40
1.45
210
0
220
0
230
1
0
CIRCLE
5
101
100
AcDbEntity
8
0
100
AcDbCircle
10
59.116055375884955
20
-55.771974993313492
30
0
40
1.45
210
0
220
0
230
1
0
CIRCLE
5
102
100
AcDbEntity
8
0
100
AcDbCircle
10
58.997170877552485
20
2.9779579742715621
30
0
40
6.0999999999999943
210
-0
220
0
230
1
0
CIRCLE
5
103
100
AcDbEntity
8
0
100
AcDbCircle
10
21.499999999999989
20
-28.471974993313466
30
0
40
1.45
210
0
220
0
230
1
0
CIRCLE
5
104
100
AcDbEntity
8
0
100
AcDbCircle
10
70.262184245528971
20
-6.0397774966849411
30
0
40
0.49999999999999822
210
-0
220
0
230
1
0
CIRCLE
5
105
100
AcDbEntity
8
0
100
AcDbCircle
10
60.016889098644597
20
-48.051136892588595
30
0
40
0.99999999999999645
210
-0
220
0
230
1
0
CIRCLE
5
106
100
AcDbEntity
8
0
100
AcDbCircle
10
17.500000000000469
20
-33.971974993313665
30
0
40
0.50000000000000044
210
-0
220
0
230
1
0
CIRCLE
5
107
100
AcDbEntity
8
0
100
AcDbCircle
10
37.500000000000448
20
-13.971974993313697
30
0
40
0.49999999999999822
210
-0
220
0
230
1
0
CIRCLE
5
108
100
AcDbEntity
8
0
100
AcDbCircle
10
70.262184245528957
20
-13.539777496684939
30
0
40
0.99999999999999645
210
-0
220
0
230
1
0
CIRCLE
5
109
100
AcDbEntity
8
0
100
AcDbCircle
10
37.500000000000455
20
-31.971974993313328
30
0
40
0.49999999999999822
210
-0
220
0
230
1
0
CIRCLE
5
110
100
AcDbEntity
8
0
100
AcDbCircle
10
7.0000000000002256
20
-42.97197499331304
30
0
40
0.50000000000000044
210
-0
220
0
230
1
0
CIRCLE
5
111
100
AcDbEntity
8
0
100
AcDbCircle
10
65.139536672086763
20
-23.295457194636779
30
0
40
0.49999999999999822
210
-0
220
0
230
1
0
CIRCLE
5
112
100
AcDbEntity
8
0
100
AcDbCircle
10
65.139536672086791
20
-30.795457194636768
30
0
40
0.99999999999999645
210
-0
220
0
230
1
0
CIRCLE
5
113
100
AcDbEntity
8
0
100
AcDbCircle
10
31.500000000000323
20
-48.971974993313395
30
0
40
0.49999999999999822
210
-0
220
0
230
1
0
CIRCLE
5
114
100
AcDbEntity
8
0
100
AcDbCircle
10
23.5000000000006
20
-16.971974993313623
30
0
40
0.49999999999999822
210
-0
220
0
230
1
0
CIRCLE
5
115
100
AcDbEntity
8
0
100
AcDbCircle
10
74.248597389899984
20
6.514128071827864
30
0
40
1.5000000000000036
210
-0
220
0
230
1
0
CIRCLE
5
116
100
AcDbEntity
8
0
100
AcDbCircle
10
47.999999999999794
20
-22.971974993313957
30
0
40
0.49999999999999822
210
-0
220
0
230
1
0
CIRCLE
5
117
100
AcDbEntity
8
0
100
AcDbCircle
10
17.500000000000458
20
-51.971974993313339
30
0
40
0.50000000000000044
210
-0
220
0
230
1
0
CIRCLE
5
118
100
AcDbEntity
8
0
100
AcDbCircle
10
60.016889098644626
20
-40.551136892588616
30
0
40
0.49999999999999822
210
-0
220
0
230
1
0
CIRCLE
5
119
100
AcDbEntity
8
0
100
AcDbCircle
10
-60.016889098644626
20
-40.551136892588616
30
0
40
0.49999999999999822
210
0
220
0
230
1
0
CIRCLE
5
120
100
AcDbEntity
8
0
100
AcDbCircle
10
-17.500000000000458
20
-51.971974993313339
30
0
40
0.50000000000000044
210
0
220
0
230
1
0
CIRCLE
5
121
100
AcDbEntity
8
0
100
AcDbCircle
10
-47.999999999999794
20
-22.971974993313957
30
0
40
0.49999999999999822
210
0
220
0
230
1
0
CIRCLE
5
122
100
AcDbEntity
8
0
100
AcDbCircle
10
-74.248597389899984
20
6.514128071827864
30
0
40
1.5000000000000036
210
0
220
0
230
1
0
CIRCLE
5
123
100
AcDbEntity
8
0
100
AcDbCircle
10
-23.5000000000006
20
-16.971974993313623
30
0
40
0.49999999999999822
210
0
220
0
230
1
0
CIRCLE
5
124
100
AcDbEntity
8
0
100
AcDbCircle
10
-31.500000000000323
20
-48.971974993313395
30
0
40
0.49999999999999822
210
0
220
0
230
1
0
CIRCLE
5
125
100
AcDbEntity
8
0
100
AcDbCircle
10
-65.139536672086791
20
-30.795457194636768
30
0
40
0.99999999999999645
210
0
220
0
230
1
0
CIRCLE
5
126
100
AcDbEntity
8
0
100
AcDbCircle
10
-65.139536672086763
20
-23.295457194636779
30
0
40
0.49999999999999822
210
0
220
0
230
1
0
CIRCLE
5
127
100
AcDbEntity
8
0
100
AcDbCircle
10
-7.0000000000002256
20
-42.97197499331304
30
0
40
0.50000000000000044
210
0
220
0
230
1
0
CIRCLE
5
128
100
AcDbEntity
8
0
100
AcDbCircle
10
-37.500000000000455
20
-31.971974993313328
30
0
40
0.49999999999999822
210
0
220
0
230
1
0
CIRCLE
5
129
100
AcDbEntity
8
0
100
AcDbCircle
10
-70.262184245528957
20
-13.539777496684939
30
0
40
0.99999999999999645
210
0
220
0
230
1
0
CIRCLE
5
130
100
AcDbEntity
8
0
100
AcDbCircle
10
-37.500000000000448
20
-13.971974993313697
30
0
40
0.49999999999999822
210
0
220
0
230
1
0
CIRCLE
5
131
100
AcDbEntity
8
0
100
AcDbCircle
10
-17.500000000000469
20
-33.971974993313665
30
0
40
0.50000000000000044
210
0
220
0
230
1
0
CIRCLE
5
132
100
AcDbEntity
8
0
100
AcDbCircle
10
-60.016889098644597
20
-48.051136892588595
30
0
40
0.99999999999999645
210
0
220
0
230
1
0
CIRCLE
5
133
100
AcDbEntity
8
0
100
AcDbCircle
10
-70.262184245528971
20
-6.0397774966849411
30
0
40
0.49999999999999822
210
0
220
0
230
1
0
CIRCLE
5
134
100
AcDbEntity
8
0
100
AcDbCircle
10
-21.499999999999989
20
-28.471974993313466
30
0
40
1.45
210
0
220
-0
230
1
0
LWPOLYLINE
5
135
100
AcDbEntity
8
0
100
AcDbPolyline
90
20
70
1
43
0.0
10
-70.888224799296381
20
18.294585863173182
10
-73.718256974523527
20
18.294585863173182
10
-82.185911908303154
20
19.035409676528253
10
-83.312314957253321
20
6.1605639130381267
42
0.094239197167956257
10
-82.561398437587286
20
-1.2743815790732815
10
-67.616055375884955
20
-51.617890311892495
42
0.33200436146371948
10
-58.029566654800611
20
-58.771974993313492
10
-51.855392960504069
20
-58.771974993313485
42
-1.991452235320277
10
-42.0703367534921
20
-58.771974993313506
10
42.0703367534921
20
-58.771974993313492
42
-1.9914522353202759
10
51.855392960504076
20
-58.771974993313492
10
58.029566654800611
20
-58.771974993313506
42
0.33200436146371987
10
67.616055375884955
20
-51.617890311892495
10
82.561398437587286
20
-1.2743815790732871
42
0.094239197167957325
10
83.312314957253477
20
6.1605639130381338
10
82.185911908303154
20
19.035409676528253
10
73.718256974523527
20
18.294585863173182
10
70.888224799296381
20
18.294585863173182
42
-1.2035696207761726
10
62.827004363546493
20
18.294585863173182
10
-62.827004363546493
20
18.294585863173182
42
-1.2035696207761748
0
CIRCLE
5
136
100
AcDbEntity
8
0
100
AcDbCircle
10
-58.997170877552485
20
2.9779579742715621
30
0
40
6.0999999999999943
210
0
220
0
230
1
0
CIRCLE
5
137
100
AcDbEntity
8
0
100
AcDbCircle
10
-59.116055375884955
20
-55.771974993313492
30
0
40
1.45
210
0
220
-0
230
1
0
CIRCLE
5
138
100
AcDbEntity
8
0
100
AcDbCircle
10
-76.904522581297641
20
-6.2743815790733048
30
0
40
1.45
210
0
220
-0
230
1
0
ENDSEC
0
SECTION
2
OBJECTS
0
DICTIONARY
5
C
100
AcDbDictionary
3
ACAD_GROUP
350
D
3
ACAD_MLINESTYLE
350
17
0
DICTIONARY
5
D
100
AcDbDictionary
0
DICTIONARY
5
1A
330
C
100
AcDbDictionary
0
DICTIONARY
5
17
100
AcDbDictionary
0
ENDSEC
0
EOF
